<svg width="20" height="20" viewBox="0 0 20 20" fill="none" xmlns="http://www.w3.org/2000/svg">
<g clip-path="url(#clip0_5806_36137)">
<g filter="url(#filter0_d_5806_36137)">
<path fill-rule="evenodd" clip-rule="evenodd" d="M10 20.0004C4.5 20.0004 0 15.5004 0 9.95041C0.05 4.45041 4.5 -0.0495874 10.05 0.00041268C15.55 0.0504126 20 4.50041 20 10.1004C19.95 15.5504 15.5 20.0004 10 20.0004Z" fill="white" fill-opacity="0.75" shape-rendering="crispEdges"/>
</g>
<path fill-rule="evenodd" clip-rule="evenodd" d="M10.9497 8.79992L10.6497 10.3999L13.4997 10.7999L13.2997 11.5499L10.4997 11.1499C10.2997 11.7999 10.1997 12.4999 9.94971 13.0999C9.69971 13.7999 9.44971 14.4999 9.14971 15.1499C8.74971 15.9999 8.04971 16.5999 7.09971 16.7499C6.54971 16.8499 5.94971 16.7999 5.49971 16.4499C5.34971 16.3499 5.19971 16.1499 5.19971 15.9999C5.19971 15.7999 5.29971 15.5499 5.44971 15.4499C5.54971 15.3999 5.79971 15.4499 5.94971 15.4999C6.09971 15.6499 6.24971 15.8499 6.34971 16.0499C6.64971 16.4499 7.04971 16.4999 7.44971 16.1999C7.89971 15.7999 8.14971 15.2499 8.29971 14.6999C8.59971 13.4999 8.89971 12.3499 9.14971 11.1499V10.9499L6.49971 10.5499L6.59971 9.79992L9.34971 10.1999L9.69971 8.64992L6.84971 8.19992L6.94971 7.39992L9.89971 7.79992C9.99971 7.49992 10.0497 7.24992 10.1497 6.99992C10.3997 6.09992 10.6497 5.19992 11.2497 4.39992C11.8497 3.59992 12.5497 3.09992 13.5997 3.14992C14.0497 3.14992 14.4997 3.29992 14.7997 3.64992C14.8497 3.69992 14.9497 3.79992 14.9497 3.89992C14.9497 4.09992 14.9497 4.34992 14.7997 4.49992C14.5997 4.64992 14.3497 4.59992 14.1497 4.39992C13.9997 4.24992 13.8997 4.09992 13.7497 3.94992C13.4497 3.54992 12.9997 3.49992 12.6497 3.84992C12.3997 4.09992 12.1497 4.44992 11.9997 4.79992C11.6497 5.84992 11.3997 6.94992 11.0497 8.04992L13.7997 8.44992L13.5997 9.19992L10.9497 8.79992Z" fill="black" fill-opacity="0.75"/>
</g>
<defs>
<filter id="filter0_d_5806_36137" x="-4" y="-4" width="28" height="28.0005" filterUnits="userSpaceOnUse" color-interpolation-filters="sRGB">
<feFlood flood-opacity="0" result="BackgroundImageFix"/>
<feColorMatrix in="SourceAlpha" type="matrix" values="0 0 0 0 0 0 0 0 0 0 0 0 0 0 0 0 0 0 127 0" result="hardAlpha"/>
<feOffset/>
<feGaussianBlur stdDeviation="2"/>
<feComposite in2="hardAlpha" operator="out"/>
<feColorMatrix type="matrix" values="0 0 0 0 0 0 0 0 0 0 0 0 0 0 0 0 0 0 0.15 0"/>
<feBlend mode="normal" in2="BackgroundImageFix" result="effect1_dropShadow_5806_36137"/>
<feBlend mode="normal" in="SourceGraphic" in2="effect1_dropShadow_5806_36137" result="shape"/>
</filter>
<clipPath id="clip0_5806_36137">
<rect width="20" height="20" fill="white"/>
</clipPath>
</defs>
</svg>
