<svg width="48" height="48" xmlns="http://www.w3.org/2000/svg" version="1.0" xml:space="preserve">
 <defs>
  <linearGradient id="svg_3" x1="-0.00888" y1="0.50934" x2="1.00898" y2="0.49074">
   <stop offset="0" stop-color="#232323" stop-opacity="0.99609"/>
   <stop offset="0.73828" stop-color="#cecece" stop-opacity="0.99219"/>
   <stop offset="1" stop-color="#8e8e8e" stop-opacity="0.99609"/>
  </linearGradient>
 </defs>
 <g>
  <title>Layer 1</title>
  <path class="st0" d="m11.19541,41.32927c-5.25578,-3.92667 -8.65852,-10.1972 -8.65852,-17.26189c0,-11.8903 9.64019,-21.53049 21.53049,-21.53049c9.81667,0 20.53228,5.86794 23.12432,14.84633c-2.89537,-10.03727 -12.1495,-17.38322 -23.12432,-17.38322c-13.2911,0 -24.06738,10.77627 -24.06738,24.06738s10.77627,24.06738 24.06738,24.06738s24.06738,-10.77627 24.06738,-24.06738l0,-1.26845l-1.3236,0c-0.0386,0 -0.09927,0 -0.17648,0c-0.15442,0 -0.38053,-0.00551 -0.66731,-0.01654c-0.56804,-0.01654 -1.35669,-0.05515 -2.23908,-0.13236c-1.8034,-0.15442 -3.866,-0.46326 -5.26681,-1.02579c-2.25563,-0.89894 -3.52959,-2.09569 -4.98554,-3.49098l-0.08272,-0.08272c-1.45596,-1.40081 -3.0939,-2.97257 -5.93412,-4.31272c-2.7961,-1.31808 -5.89,-1.103 -8.16217,-0.63974c-1.15263,0.23714 -2.14533,0.5515 -2.84573,0.80519c-0.35296,0.12684 -0.63422,0.24266 -0.83276,0.32538c-1.1416,0.4798 -2.25563,1.05336 -3.37517,1.57728c0,0 2.20048,0.60665 3.29244,0.94306c0.0386,0.01103 0.09927,0.03309 0.18199,0.06066c0.15993,0.05515 0.39708,0.13787 0.68386,0.25369c0.57356,0.23163 1.32911,0.58459 2.07363,1.06439c1.17469,0.75555 2.15084,1.70413 2.54792,2.87331c-2.49277,0.32538 -4.83112,1.42287 -6.58489,2.45417c-1.05888,0.62319 -1.94127,1.24639 -2.55895,1.71516c-0.30884,0.23163 -0.55701,0.43017 -0.72246,0.56804c-0.14339,0.11581 -2.3935,2.10121 -2.3935,2.10121s2.9064,0.30884 4.34029,0.59562c0.95409,0.19302 2.23908,0.50186 3.57922,0.97064c1.34566,0.46877 2.70786,1.08645 3.83843,1.87509c1.13057,0.78864 1.96333,1.70413 2.37144,2.74646c1.19124,3.04427 0.02206,6.01133 -2.32732,7.67685c-2.32181,1.65449 -5.84588,2.04606 -9.36995,-0.37502zm8.21181,3.76673c0.94858,-0.30884 1.83097,-0.75555 2.63065,-1.31808c3.19317,-2.27217 4.87524,-6.43047 3.21523,-10.66597c-0.65077,-1.66552 -1.89715,-2.93948 -3.28141,-3.90461c-1.38426,-0.96512 -2.97809,-1.67655 -4.4561,-2.18945c-0.97064,-0.33641 -1.90818,-0.60113 -2.7244,-0.79967c0.29229,-0.18751 0.60665,-0.38605 0.93755,-0.57907c1.9523,-1.14712 4.40647,-2.20048 6.76137,-2.20048c3.55165,0 6.19332,1.08645 8.71367,2.25563c0.23163,0.10478 0.45774,0.21508 0.68937,0.32538c2.25563,1.05888 4.62155,2.16739 7.37353,2.16739c2.66925,0 4.7484,-0.75555 6.18229,-1.53316c-1.27396,10.677 -10.36265,18.94948 -21.38158,18.94948c-1.59934,0 -3.16008,-0.17648 -4.66016,-0.50738zm23.30631,-20.00284c-0.94858,0.32538 -2.09569,0.55701 -3.44135,0.55701c-2.15636,0 -4.01491,-0.86585 -6.3698,-1.96333c-0.20957,-0.09927 -0.41914,-0.19302 -0.63422,-0.29229c-2.36041,-1.09197 -5.08481,-2.25011 -8.63646,-2.45968c-0.47429,-2.34938 -2.25563,-3.95976 -3.78328,-4.93591c-0.17096,-0.1103 -0.34193,-0.21508 -0.50738,-0.30884c0.15442,-0.03309 0.30884,-0.07169 0.46877,-0.10478c2.05157,-0.42465 4.50022,-0.52944 6.57386,0.44671c2.45968,1.15815 3.84946,2.49277 5.29438,3.87703l0.04963,0.04963c1.48904,1.42838 3.06081,2.92294 5.80176,4.02042c1.51662,0.60665 3.49098,0.93203 5.18408,1.11403z" fill-rule="evenodd" clip-rule="evenodd" fill="url(#svg_3)" id="svg_1"/>
 </g>
</svg>