<svg width="48" height="48" xmlns="http://www.w3.org/2000/svg" xml:space="preserve" version="1.0">
 <defs>
  <linearGradient y2="0.49074" x2="1.00898" y1="0.50934" x1="-0.00888" id="SVGID_1_">
   <stop stop-color="#29CCB9" offset="0"/>
   <stop stop-color="#0091FF" offset="0.4948"/>
   <stop stop-color="#FF66B7" offset="1"/>
  </linearGradient>
 </defs>
 <g>
  <title>Layer 1</title>
  <path id="svg_1" fill="url(#SVGID_1_)" clip-rule="evenodd" fill-rule="evenodd" d="m11.15645,41.18537c-5.23748,-3.913 -8.62837,-10.1617 -8.62837,-17.20179c0,-11.8489 9.60662,-21.45553 21.45553,-21.45553c9.78249,0 20.46079,5.84751 23.04381,14.79464c-2.88528,-10.00232 -12.1072,-17.3227 -23.04381,-17.3227c-13.24483,0 -23.98358,10.73875 -23.98358,23.98358s10.73875,23.98358 23.98358,23.98358s23.98358,-10.73875 23.98358,-23.98358l0,-1.26403l-1.31899,0c-0.03847,0 -0.09892,0 -0.17586,0c-0.15388,0 -0.37921,-0.0055 -0.66499,-0.01649c-0.56607,-0.01649 -1.35196,-0.05496 -2.23129,-0.1319c-1.79712,-0.15388 -3.85254,-0.46165 -5.24847,-1.02222c-2.24777,-0.89581 -3.5173,-2.0884 -4.96819,-3.47883l-0.08244,-0.08244c-1.45089,-1.39593 -3.08313,-2.96223 -5.91346,-4.2977c-2.78636,-1.31349 -5.86949,-1.09916 -8.13375,-0.63751c-1.14862,0.23632 -2.13786,0.54958 -2.83582,0.80238c-0.35173,0.1264 -0.63201,0.24181 -0.82986,0.32425c-1.13763,0.47813 -2.24777,1.04969 -3.36342,1.57179c0,0 2.19282,0.60454 3.28098,0.93978c0.03847,0.01099 0.09892,0.03297 0.18136,0.06045c0.15938,0.05496 0.3957,0.13739 0.68148,0.25281c0.57156,0.23082 1.32448,0.58255 2.06641,1.06069c1.1706,0.75292 2.14335,1.6982 2.53905,2.8633c-2.48409,0.32425 -4.8143,1.41791 -6.56196,2.44562c-1.05519,0.62102 -1.93451,1.24205 -2.55004,1.70919c-0.30776,0.23082 -0.55507,0.42867 -0.71995,0.56607c-0.14289,0.11541 -2.38517,2.09389 -2.38517,2.09389s2.89628,0.30776 4.32518,0.59354c0.95077,0.19235 2.23129,0.50012 3.56676,0.96726c1.34097,0.46714 2.69843,1.08267 3.82506,1.86857c1.12663,0.7859 1.9565,1.6982 2.36319,2.7369c1.18709,3.03367 0.02198,5.9904 -2.31922,7.65013c-2.31372,1.64873 -5.82553,2.03893 -9.33733,-0.37371zm8.18322,3.75362c0.94527,-0.30776 1.8246,-0.75292 2.62149,-1.31349c3.18206,-2.26426 4.85827,-6.40808 3.20404,-10.62884c-0.6485,-1.65973 -1.89055,-2.92925 -3.26999,-3.89101c-1.37944,-0.96176 -2.96772,-1.67072 -4.44059,-2.18182c-0.96726,-0.33524 -1.90154,-0.59904 -2.71492,-0.79689c0.29128,-0.18686 0.60454,-0.3847 0.93428,-0.57706c1.94551,-1.14312 4.39113,-2.19282 6.73783,-2.19282c3.53928,0 6.17176,1.08267 8.68333,2.24777c0.23082,0.10442 0.45615,0.21434 0.68697,0.32425c2.24777,1.05519 4.60546,2.15984 7.34786,2.15984c2.65996,0 4.73187,-0.75292 6.16077,-1.52783c-1.26953,10.63983 -10.32657,18.8835 -21.30714,18.8835c-1.59378,0 -3.14908,-0.17586 -4.64393,-0.50561zm23.22517,-19.93319c-0.94527,0.32425 -2.0884,0.55507 -3.42937,0.55507c-2.14885,0 -4.00093,-0.86284 -6.34763,-1.9565c-0.20884,-0.09892 -0.41768,-0.19235 -0.63201,-0.29128c-2.35219,-1.08816 -5.06711,-2.24228 -8.60639,-2.45112c-0.47264,-2.3412 -2.24777,-3.94597 -3.77011,-4.91872c-0.17037,-0.10992 -0.34074,-0.21434 -0.50561,-0.30776c0.15388,-0.03297 0.30776,-0.07145 0.46714,-0.10442c2.04443,-0.42318 4.48456,-0.52759 6.55097,0.44516c2.45112,1.15411 3.83605,2.48409 5.27595,3.86353l0.04946,0.04946c1.48386,1.42341 3.05016,2.91276 5.78156,4.00642c1.51134,0.60454 3.47883,0.92879 5.16603,1.11015z" class="st0"/>
 </g>
</svg>