<svg width="30" height="30" viewBox="0 0 30 30" fill="none" xmlns="http://www.w3.org/2000/svg">
<g clip-path="url(#clip0_6167_23946)">
<path fill-rule="evenodd" clip-rule="evenodd" d="M15 0C23.2849 0 30 6.71514 30 15C30 23.2849 23.2849 30 15 30C6.71514 30 0 23.2849 0 15C0 6.71514 6.71514 0 15 0Z" fill="#F0B90B"/>
<path d="M8.24399 15.0036L8.25481 18.97L11.625 20.9531V23.2752L6.28245 20.1418V13.8438L8.24399 15.0036ZM8.24399 11.0373V13.3486L6.28125 12.1875V9.8762L8.24399 8.71514L10.2163 9.8762L8.24399 11.0373ZM13.0325 9.8762L14.9952 8.71514L16.9675 9.8762L14.9952 11.0373L13.0325 9.8762Z" fill="white"/>
<path d="M9.66226 18.1478V15.8257L11.625 16.9868V19.2981L9.66226 18.1478ZM13.0325 21.7849L14.9952 22.9459L16.9675 21.7849V24.0962L14.9952 25.2572L13.0325 24.0962V21.7849ZM19.7825 9.8762L21.7452 8.71514L23.7175 9.8762V12.1875L21.7452 13.3486V11.0373L19.7825 9.8762ZM21.7452 18.97L21.756 15.0036L23.7188 13.8425V20.1406L18.3762 23.274V20.9519L21.7452 18.97Z" fill="white"/>
<path d="M20.3377 18.1478L18.375 19.2981V16.9868L20.3377 15.8257V18.1478Z" fill="white"/>
<path d="M20.3377 11.8594L20.3486 14.1815L16.9688 16.1647V20.1406L15.006 21.2909L13.0433 20.1406V16.1647L9.66346 14.1815V11.8594L11.6346 10.6983L14.994 12.6911L18.3738 10.6983L20.3462 11.8594H20.3377ZM9.66226 7.89423L14.9952 4.75L20.3377 7.89423L18.375 9.05529L14.9952 7.0625L11.625 9.05529L9.66226 7.89423Z" fill="white"/>
</g>
<defs>
<clipPath id="clip0_6167_23946">
<rect width="30" height="30" rx="15" fill="white"/>
</clipPath>
</defs>
</svg>
