<svg width="30" height="30" viewBox="0 0 30 30" fill="none" xmlns="http://www.w3.org/2000/svg">
<rect width="30" height="30" rx="15" transform="matrix(-1 0 0 1 30 0)" fill="#FFEEDA"/>
<path d="M21.8576 17.8592V8.42479C21.845 7.63538 21.2264 7 20.4501 7H10.768C8.6789 7.03209 7 8.77136 7 10.9021C7 11.6209 7.18935 12.2371 7.47968 12.7762C7.72584 13.2254 8.11085 13.649 8.48955 13.9635C8.59684 14.0534 8.54635 14.0148 8.87456 14.2202C9.32899 14.5026 9.84655 14.6438 9.84655 14.6438L9.84024 20.2852C9.85286 20.5548 9.87811 20.8115 9.94754 21.0489C10.1621 21.8448 10.7049 22.4545 11.4434 22.7497C11.7527 22.8716 12.0998 22.9551 12.4722 22.9615L20.2039 22.9872C21.744 22.9872 22.9937 21.7164 22.9937 20.144C23 19.2134 22.5456 18.3791 21.8576 17.8592Z" fill="#FFEEDA"/>
<path d="M22.0469 20.2146C22.0154 21.2222 21.2012 22.0309 20.2039 22.0309L14.8832 22.0116C15.3061 21.511 15.5649 20.8628 15.5649 20.1568C15.5649 19.0465 14.9148 18.2828 14.9148 18.2828H20.2102C21.2264 18.2828 22.0532 19.1235 22.0532 20.1568L22.0469 20.2146Z" fill="#EBC28E"/>
<path d="M8.99448 13.1677C8.38225 12.5772 7.95306 11.8135 7.95306 10.9085V10.8123C8.00355 9.26554 9.25325 8.02046 10.7744 7.97553H20.4564C20.7089 7.98837 20.9109 8.16807 20.9109 8.43121V16.7617C21.1318 16.8002 21.2391 16.8323 21.4537 16.9093C21.6241 16.9735 21.8576 17.1083 21.8576 17.1083V8.43121C21.845 7.64179 21.2264 7.00642 20.4501 7.00642H10.768C8.6789 7.03851 7 8.77778 7 10.9085C7 12.1472 7.55543 13.2062 8.4643 13.9507C8.52742 14.002 8.58422 14.0662 8.74832 14.0662C9.03235 14.0662 9.23432 13.8351 9.2217 13.5848C9.21539 13.373 9.12702 13.296 8.99448 13.1677Z" fill="#190602"/>
<path d="M20.2039 17.3073H12.611C12.0998 17.3137 11.6895 17.7308 11.6895 18.2507V19.361C11.7022 19.8744 12.1314 20.3109 12.6426 20.3109H13.2043V19.361H12.6426V18.2764C12.6426 18.2764 12.7815 18.2764 12.9519 18.2764C13.9112 18.2764 14.6181 19.1813 14.6181 20.1504C14.6181 21.0104 13.8481 22.1079 12.5606 22.0181C11.4181 21.941 10.7996 20.9077 10.7996 20.1504V10.7417C10.7996 10.3181 10.4588 9.97152 10.0422 9.97152H9.28481V10.9342H9.84655V20.1568C9.81499 22.0309 11.1594 22.9743 12.5606 22.9743L20.2103 23C21.7503 23 23 21.7292 23 20.1568C23 18.5844 21.744 17.3073 20.2039 17.3073ZM22.0469 20.2146C22.0154 21.2222 21.2012 22.0309 20.2039 22.0309L14.8832 22.0116C15.3061 21.511 15.5649 20.8628 15.5649 20.1568C15.5649 19.0465 14.9148 18.2828 14.9148 18.2828H20.2102C21.2264 18.2828 22.0532 19.1235 22.0532 20.1568L22.0469 20.2146Z" fill="#190602"/>
<path d="M18.159 11.1075H12.4343V10.1448H18.159C18.4178 10.1448 18.6324 10.3566 18.6324 10.6262C18.6324 10.8893 18.4241 11.1075 18.159 11.1075Z" fill="#190602"/>
<path d="M18.159 15.6386H12.4343V14.6759H18.159C18.4178 14.6759 18.6324 14.8877 18.6324 15.1572C18.6324 15.4204 18.4241 15.6386 18.159 15.6386Z" fill="#190602"/>
<path d="M19.1689 13.373H12.4343V12.4104H19.1625C19.4213 12.4104 19.6359 12.6221 19.6359 12.8917C19.6422 13.1548 19.4276 13.373 19.1689 13.373Z" fill="#190602"/>
</svg>
