<svg width="28" height="28" viewBox="0 0 28 28" fill="none" xmlns="http://www.w3.org/2000/svg">
<g filter="url(#filter0_d_1_70)">
<path d="M24 14C24 8.47715 19.5228 4 14 4C8.47715 4 4 8.47715 4 14C4 19.5228 8.47715 24 14 24C19.5228 24 24 19.5228 24 14Z" fill="white" fill-opacity="0.75" shape-rendering="crispEdges"/>
</g>
<path d="M8.74517 12.3933C8.20947 11.8764 7.83393 11.2079 7.83393 10.4157V10.3315C7.87811 8.97753 8.9716 7.88764 10.3026 7.84832H18.7744C18.9953 7.85955 19.172 8.01685 19.172 8.24719V15.5393C19.3653 15.573 19.4592 15.6011 19.6469 15.6685C19.7961 15.7247 20.0004 15.8427 20.0004 15.8427V8.24719C19.9894 7.55618 19.4481 7 18.7688 7H10.297C8.46903 7.02809 7 8.55056 7 10.4157C7 11.5 7.486 12.427 8.28126 13.0787C8.33649 13.1236 8.38619 13.1798 8.52978 13.1798C8.77831 13.1798 8.95503 12.9775 8.94399 12.7584C8.93846 12.573 8.86114 12.5056 8.74517 12.3933Z" fill="black" fill-opacity="0.75"/>
<path d="M18.5535 16.0169H11.9097C11.4623 16.0225 11.1034 16.3876 11.1034 16.8427V17.8146C11.1144 18.264 11.4899 18.6461 11.9373 18.6461H12.4288V17.8146H11.9373V16.8652C11.9373 16.8652 12.0588 16.8652 12.2079 16.8652C13.0473 16.8652 13.6659 17.6573 13.6659 18.5056C13.6659 19.2584 12.9921 20.2191 11.8655 20.1404C10.8659 20.073 10.3247 19.1685 10.3247 18.5056V10.2697C10.3247 9.89887 10.0264 9.5955 9.66193 9.5955H8.99921V10.4382H9.49073V18.5112C9.46312 20.1517 10.6394 20.9775 11.8655 20.9775L18.559 21C19.9065 21 21 19.8876 21 18.5112C21 17.1348 19.901 16.0169 18.5535 16.0169ZM20.1661 18.5618C20.1385 19.4438 19.426 20.1517 18.5535 20.1517L13.8978 20.1348C14.2679 19.6966 14.4943 19.1292 14.4943 18.5112C14.4943 17.5393 13.9254 16.8708 13.9254 16.8708H18.559C19.4481 16.8708 20.1716 17.6067 20.1716 18.5112L20.1661 18.5618Z" fill="black" fill-opacity="0.75"/>
<path d="M16.7641 10.5899H11.755V9.7472H16.7641C16.9905 9.7472 17.1783 9.93259 17.1783 10.1685C17.1783 10.3989 16.9961 10.5899 16.7641 10.5899Z" fill="black" fill-opacity="0.75"/>
<path d="M16.7641 14.5562H11.755V13.7135H16.7641C16.9905 13.7135 17.1783 13.8989 17.1783 14.1348C17.1783 14.3652 16.9961 14.5562 16.7641 14.5562Z" fill="black" fill-opacity="0.75"/>
<path d="M17.6477 12.573H11.755V11.7303H17.6422C17.8687 11.7303 18.0564 11.9157 18.0564 12.1517C18.0619 12.382 17.8742 12.573 17.6477 12.573Z" fill="black" fill-opacity="0.75"/>
<defs>
<filter id="filter0_d_1_70" x="0" y="0" width="28" height="28" filterUnits="userSpaceOnUse" color-interpolation-filters="sRGB">
<feFlood flood-opacity="0" result="BackgroundImageFix"/>
<feColorMatrix in="SourceAlpha" type="matrix" values="0 0 0 0 0 0 0 0 0 0 0 0 0 0 0 0 0 0 127 0" result="hardAlpha"/>
<feOffset/>
<feGaussianBlur stdDeviation="2"/>
<feComposite in2="hardAlpha" operator="out"/>
<feColorMatrix type="matrix" values="0 0 0 0 0 0 0 0 0 0 0 0 0 0 0 0 0 0 0.15 0"/>
<feBlend mode="normal" in2="BackgroundImageFix" result="effect1_dropShadow_1_70"/>
<feBlend mode="normal" in="SourceGraphic" in2="effect1_dropShadow_1_70" result="shape"/>
</filter>
</defs>
</svg>
