<svg width="56" height="56" viewBox="0 0 56 56" fill="none" xmlns="http://www.w3.org/2000/svg">
<path fill-rule="evenodd" clip-rule="evenodd" d="M28.9568 4.92541L47.6235 14.2587C47.9927 14.4209 48.3135 14.6759 48.5548 14.9989C48.7961 15.322 48.9495 15.7021 49.0001 16.1021C49.0001 16.1078 49.0015 16.1287 49.0037 16.1641C49.0914 17.5579 50.5973 41.4768 28.9335 51.1254C28.6419 51.264 28.323 51.3357 28.0001 51.3354C27.6683 51.3266 27.3421 51.247 27.0435 51.1021C5.26717 41.4969 6.89273 17.6826 6.99563 16.1751C6.99847 16.1336 7.00015 16.109 7.00015 16.1021C7.03459 15.7186 7.16341 15.3495 7.37512 15.0279C7.58683 14.7063 7.87484 14.442 8.21348 14.2587L26.8801 4.92541C27.1994 4.75385 27.5561 4.66406 27.9185 4.66406C28.2809 4.66406 28.6376 4.75385 28.9568 4.92541ZM11.5035 17.8054C11.3868 22.4954 12.1335 38.8054 28.0001 46.4354C43.7268 38.8054 44.4735 22.4954 44.1701 17.8054L27.8368 9.61541L11.5035 17.8054ZM37.3337 25.6641H18.667V30.3307H37.3337V25.6641Z" fill="#C54B5C"/>
</svg>
