<svg width="350" height="64" viewBox="0 0 350 64" fill="none" xmlns="http://www.w3.org/2000/svg">
<path fill-rule="evenodd" clip-rule="evenodd" d="M43.4955 0C48.2999 0 52.1946 3.8205 52.1946 8.53333V38.4L26.0973 64H8.69909C3.89472 64 0 60.1795 0 55.4667V8.53333C0 3.8205 3.89472 0 8.69909 0H43.4955ZM26.0973 55.4667V38.4L43.4955 38.4V8.53334L8.69909 8.53333V55.4667H26.0973Z" fill="#0090FF"/>
<path d="M68.5054 49.7851V26.655C68.5054 24.763 68.9718 23.0759 69.9046 21.5938C70.8374 20.0802 72.1079 18.8819 73.7162 17.999C75.3567 17.116 77.1902 16.6746 79.2166 16.6746H92.1956V24.0062H80.5676C79.7634 24.0062 79.0879 24.2742 78.5411 24.8103C77.9943 25.3464 77.7209 25.9928 77.7209 26.7496V30.9594H90.6516V38.1491H77.7209V49.7851H68.5054Z" fill="#0090FF"/>
<path d="M98.2497 49.7851V25.4252H106.645V49.7851H98.2497ZM102.447 22.7764C101.161 22.7764 100.051 22.3191 99.1181 21.4046C98.2175 20.4901 97.7672 19.418 97.7672 18.1882C97.7672 16.9268 98.2175 15.8547 99.1181 14.9717C100.051 14.0572 101.161 13.6 102.447 13.6C103.734 13.6 104.828 14.0572 105.728 14.9717C106.661 15.8547 107.127 16.9268 107.127 18.1882C107.127 19.418 106.661 20.4901 105.728 21.4046C104.828 22.3191 103.734 22.7764 102.447 22.7764Z" fill="#0090FF"/>
<path d="M113.902 49.7851V15.2555H122.249V49.7851H113.902Z" fill="#0090FF"/>
<path d="M143.016 49.7851C140.218 49.7851 137.741 49.2963 135.586 48.3188C133.463 47.3412 131.774 45.938 130.52 44.109C129.298 42.28 128.686 40.12 128.686 37.6288C128.686 34.8538 129.281 32.5203 130.472 30.6283C131.662 28.7362 133.238 27.3015 135.2 26.3239C137.162 25.3464 139.269 24.8576 141.521 24.8576C143.965 24.8576 146.072 25.3621 147.841 26.3712C149.642 27.3488 151.026 28.7362 151.991 30.5337C152.988 32.3311 153.486 34.4281 153.486 36.8247C153.486 37.3292 153.454 37.9126 153.39 38.5748C153.358 39.2055 153.277 39.7416 153.149 40.183H137.371C137.564 40.8768 137.87 41.4602 138.288 41.9332C138.738 42.3746 139.317 42.7057 140.025 42.9265C140.765 43.1472 141.601 43.2576 142.534 43.2576H150.736V49.7851H143.016ZM137.082 35.4057H145.573C145.573 34.9326 145.509 34.5069 145.38 34.1285C145.252 33.7186 145.075 33.3402 144.85 32.9933C144.625 32.6464 144.351 32.3469 144.03 32.0946C143.708 31.8423 143.322 31.6531 142.872 31.527C142.421 31.4009 141.939 31.3378 141.424 31.3378C140.749 31.3378 140.154 31.4482 139.639 31.6689C139.124 31.8896 138.69 32.1892 138.336 32.5676C137.982 32.9145 137.693 33.3402 137.468 33.8447C137.275 34.3177 137.146 34.838 137.082 35.4057Z" fill="#0090FF"/>
<path d="M184.662 50.3527C182.668 50.3527 180.802 49.9428 179.065 49.1229C177.361 48.303 175.977 47.1047 174.916 45.528C173.887 43.9513 173.372 42.0751 173.372 39.8992V26.2766C173.372 25.8036 173.259 25.3937 173.034 25.0468C172.841 24.6684 172.568 24.3846 172.214 24.1954C171.86 24.0062 171.458 23.9116 171.008 23.9116C170.557 23.9116 170.155 24.0062 169.802 24.1954C169.448 24.3846 169.158 24.6684 168.933 25.0468C168.708 25.3937 168.595 25.8036 168.595 26.2766V49.7851H159.669V26.6077C159.669 24.4634 160.184 22.6029 161.213 21.0262C162.243 19.4495 163.61 18.2355 165.314 17.3841C167.051 16.5011 168.949 16.0596 171.008 16.0596C173.066 16.0596 174.948 16.5011 176.653 17.3841C178.358 18.2355 179.725 19.4495 180.754 21.0262C181.783 22.6029 182.298 24.4634 182.298 26.6077V40.2303C182.298 40.6718 182.411 41.0817 182.636 41.4602C182.861 41.807 183.15 42.0908 183.504 42.3116C183.858 42.5008 184.244 42.5954 184.662 42.5954C185.08 42.5954 185.466 42.5008 185.82 42.3116C186.206 42.0908 186.512 41.807 186.737 41.4602C186.962 41.0817 187.075 40.6718 187.075 40.2303V26.6077C187.075 24.4634 187.589 22.6029 188.619 21.0262C189.648 19.4495 191.015 18.2355 192.72 17.3841C194.457 16.5011 196.355 16.0596 198.413 16.0596C200.44 16.0596 202.305 16.5011 204.01 17.3841C205.715 18.2355 207.082 19.4495 208.111 21.0262C209.14 22.6029 209.655 24.4634 209.655 26.6077V49.7851H200.777V26.182C200.777 25.7405 200.665 25.3464 200.44 24.9995C200.214 24.6526 199.925 24.3846 199.571 24.1954C199.217 24.0062 198.831 23.9116 198.413 23.9116C197.963 23.9116 197.545 24.0062 197.159 24.1954C196.805 24.3846 196.515 24.6526 196.29 24.9995C196.097 25.3464 196.001 25.7405 196.001 26.182V39.8992C196.001 42.0751 195.47 43.9513 194.409 45.528C193.347 47.1047 191.964 48.303 190.259 49.1229C188.554 49.9428 186.689 50.3527 184.662 50.3527Z" fill="#0090FF"/>
<path d="M226.971 50.4C224.816 50.4 222.902 49.8639 221.229 48.7918C219.557 47.7196 218.238 46.2533 217.273 44.3928C216.34 42.5008 215.874 40.3565 215.874 37.9599C215.874 35.4372 216.436 33.1825 217.562 31.1959C218.72 29.2093 220.329 27.6641 222.387 26.5604C224.446 25.4252 226.874 24.8576 229.673 24.8576C232.407 24.8576 234.755 25.4094 236.717 26.5131C238.711 27.6168 240.255 29.1304 241.349 31.054C242.443 32.9776 242.989 35.1849 242.989 37.6761V49.7851H234.932V46.001H234.739C234.289 46.8524 233.71 47.6093 233.002 48.2715C232.294 48.9337 231.442 49.454 230.445 49.8324C229.48 50.2108 228.322 50.4 226.971 50.4ZM229.48 43.2576C230.509 43.2576 231.394 43.0211 232.133 42.5481C232.873 42.0435 233.452 41.3656 233.87 40.5141C234.289 39.6627 234.498 38.7009 234.498 37.6288C234.498 36.5566 234.289 35.6264 233.87 34.838C233.452 34.0182 232.873 33.3717 232.133 32.8987C231.394 32.3942 230.509 32.1419 229.48 32.1419C228.483 32.1419 227.598 32.3942 226.826 32.8987C226.086 33.3717 225.507 34.0182 225.089 34.838C224.671 35.6264 224.462 36.5566 224.462 37.6288C224.462 38.7009 224.671 39.6627 225.089 40.5141C225.507 41.3656 226.086 42.0435 226.826 42.5481C227.598 43.0211 228.483 43.2576 229.48 43.2576Z" fill="#0090FF"/>
<path d="M250.108 49.7851V32.7568C250.108 30.4864 250.767 28.7047 252.086 27.4118C253.437 26.0874 255.302 25.4252 257.683 25.4252H265.306V31.8581H260.24C259.725 31.8581 259.307 32.0158 258.985 32.3311C258.664 32.6464 258.503 33.0564 258.503 33.5609V49.7851H250.108Z" fill="#0090FF"/>
<path d="M270.758 49.7851V15.2555H279.105V34.5069H281.807L287.163 25.4252H296.571L290.058 35.4057C291.859 36.1625 293.242 37.2819 294.207 38.764C295.172 40.2146 295.655 42.0278 295.655 44.2036V49.7851H287.308V44.2036C287.308 43.4153 287.115 42.7215 286.729 42.1224C286.375 41.5232 285.876 41.0502 285.233 40.7033C284.622 40.3565 283.93 40.183 283.158 40.183H279.105V49.7851H270.758Z" fill="#0090FF"/>
<path d="M315.892 49.7851C313.094 49.7851 310.617 49.2963 308.462 48.3188C306.339 47.3412 304.65 45.938 303.396 44.109C302.174 42.28 301.562 40.12 301.562 37.6288C301.562 34.8538 302.158 32.5203 303.348 30.6283C304.538 28.7362 306.114 27.3015 308.076 26.3239C310.038 25.3464 312.145 24.8576 314.397 24.8576C316.841 24.8576 318.948 25.3621 320.717 26.3712C322.518 27.3488 323.902 28.7362 324.867 30.5337C325.864 32.3311 326.362 34.4281 326.362 36.8247C326.362 37.3292 326.33 37.9126 326.266 38.5748C326.234 39.2055 326.153 39.7416 326.025 40.183H310.247C310.44 40.8768 310.746 41.4602 311.164 41.9332C311.614 42.3746 312.193 42.7057 312.901 42.9265C313.641 43.1472 314.477 43.2576 315.41 43.2576H323.612V49.7851H315.892ZM309.958 35.4057H318.45C318.45 34.9326 318.385 34.5069 318.257 34.1285C318.128 33.7186 317.951 33.3402 317.726 32.9933C317.501 32.6464 317.227 32.3469 316.906 32.0946C316.584 31.8423 316.198 31.6531 315.748 31.527C315.297 31.4009 314.815 31.3378 314.3 31.3378C313.625 31.3378 313.03 31.4482 312.515 31.6689C312 31.8896 311.566 32.1892 311.212 32.5676C310.858 32.9145 310.569 33.3402 310.344 33.8447C310.151 34.3177 310.022 34.838 309.958 35.4057Z" fill="#0090FF"/>
<path d="M342.34 49.7851C339.992 49.7851 338.142 49.1386 336.791 47.8458C335.472 46.5213 334.813 44.7239 334.813 42.4535V19.6072H343.16V41.8386C343.16 42.1854 343.289 42.485 343.546 42.7373C343.803 42.958 344.109 43.0684 344.463 43.0684H349.867V49.7851H342.34ZM330.905 31.8581V25.4252H349.867V31.8581H330.905Z" fill="#0090FF"/>
</svg>
