<svg width="16" height="16" viewBox="0 0 16 16" fill="none" xmlns="http://www.w3.org/2000/svg">
<g id="Category icons">
<path id="Vector" d="M14.4703 3.52994L12.471 1.53127C12.4092 1.46924 12.3357 1.42005 12.2549 1.38653C12.174 1.353 12.0872 1.33581 11.9997 1.33594H3.99968C3.91211 1.33581 3.82539 1.353 3.7445 1.38653C3.66361 1.42005 3.59015 1.46924 3.52834 1.53127L1.52901 3.52994C1.46672 3.59172 1.41732 3.66526 1.38368 3.74628C1.35003 3.82731 1.33281 3.91421 1.33301 4.00194V12.6693C1.33301 13.4046 1.93101 14.0026 2.66634 14.0026H13.333C14.0683 14.0026 14.6663 13.4046 14.6663 12.6693V4.00194C14.6665 3.91421 14.6493 3.82731 14.6157 3.74628C14.582 3.66526 14.5326 3.59172 14.4703 3.52994ZM4.27568 2.66927H11.7237L12.3897 3.33527H3.60968L4.27568 2.66927ZM2.66634 12.6693V4.6686H13.333L13.3343 12.6693H2.66634Z" fill="#6B6F76"/>
<path id="Vector_2" d="M10.0003 7.9974H6.00033V6.66406H4.66699V9.33073H11.3337V6.66406H10.0003V7.9974Z" fill="#6B6F76"/>
</g>
</svg>
