<svg width="16" height="16" viewBox="0 0 16 16" fill="none" xmlns="http://www.w3.org/2000/svg">
<g id="Frame">
<path id="Vector" d="M13.269 5.7266C13.2374 5.65425 13.1931 5.5881 13.1383 5.53127L9.13833 1.53127C9.08149 1.47646 9.01535 1.43221 8.94299 1.4006C8.92299 1.39127 8.90166 1.38594 8.88032 1.3786C8.82454 1.35962 8.76647 1.34819 8.70766 1.3446C8.69366 1.34327 8.68099 1.33594 8.66699 1.33594H4.00033C3.26499 1.33594 2.66699 1.93394 2.66699 2.66927V13.3359C2.66699 14.0713 3.26499 14.6693 4.00033 14.6693H12.0003C12.7357 14.6693 13.3337 14.0713 13.3337 13.3359V6.0026C13.3337 5.9886 13.3263 5.97594 13.325 5.96127C13.3217 5.90242 13.3103 5.8443 13.291 5.7886C13.2843 5.76727 13.2783 5.7466 13.269 5.7266ZM11.0577 5.33594H9.33366V3.61194L11.0577 5.33594ZM4.00033 13.3359V2.66927H8.00033V6.0026C8.00033 6.17941 8.07056 6.34898 8.19559 6.47401C8.32061 6.59903 8.49018 6.66927 8.66699 6.66927H12.0003L12.0017 13.3359H4.00033Z" fill="#6B6F76"/>
<path id="Vector_2" d="M5.33301 8.0026H10.6663V9.33594H5.33301V8.0026ZM5.33301 10.6693H10.6663V12.0026H5.33301V10.6693ZM5.33301 5.33594H6.66634V6.66927H5.33301V5.33594Z" fill="#6B6F76"/>
</g>
</svg>
