<svg width="16" height="16" viewBox="0 0 16 16" fill="none" xmlns="http://www.w3.org/2000/svg">
<path d="M4.99902 7.33594C5.55131 7.33594 5.99902 6.88822 5.99902 6.33594C5.99902 5.78365 5.55131 5.33594 4.99902 5.33594C4.44674 5.33594 3.99902 5.78365 3.99902 6.33594C3.99902 6.88822 4.44674 7.33594 4.99902 7.33594Z" fill="#6B6F76"/>
<path d="M6.99902 9.33073L5.99902 7.9974L3.99902 10.6641H11.999L8.99902 6.66406L6.99902 9.33073Z" fill="#6B6F76"/>
<path d="M13.333 2.66406H2.66634C1.93101 2.66406 1.33301 3.26206 1.33301 3.9974V11.9974C1.33301 12.7327 1.93101 13.3307 2.66634 13.3307H13.333C14.0683 13.3307 14.6663 12.7327 14.6663 11.9974V3.9974C14.6663 3.26206 14.0683 2.66406 13.333 2.66406ZM2.66634 11.9974V3.9974H13.333L13.3343 11.9974H2.66634Z" fill="#6B6F76"/>
</svg>
