<svg width="16" height="16" viewBox="0 0 16 16" fill="none" xmlns="http://www.w3.org/2000/svg">
<g id="Category icons">
<path id="Vector" d="M13.1223 3.87949L7.12234 1.69816C6.92095 1.62454 6.70475 1.60062 6.49214 1.62845C6.27952 1.65628 6.07676 1.73503 5.9011 1.85801C5.72544 1.98099 5.58206 2.14455 5.48316 2.33481C5.38425 2.52507 5.33274 2.7364 5.33301 2.95083V7.03683C4.92959 6.79646 4.46927 6.66826 3.99967 6.66549C2.52901 6.66549 1.33301 7.86149 1.33301 9.33216C1.33301 10.8028 2.52901 11.9988 3.99967 11.9988C5.47034 11.9988 6.66634 10.8028 6.66634 9.33216V2.95083L12.6663 5.13216V9.70283C12.2627 9.46297 11.8025 9.33502 11.333 9.33216C9.86234 9.33216 8.66634 10.5282 8.66634 11.9988C8.66634 13.4695 9.86234 14.6655 11.333 14.6655C12.8037 14.6655 13.9997 13.4695 13.9997 11.9988V5.13216C13.9997 4.57349 13.647 4.06949 13.1223 3.87949ZM3.99967 10.6655C3.26434 10.6655 2.66634 10.0675 2.66634 9.33216C2.66634 8.59683 3.26434 7.99883 3.99967 7.99883C4.73501 7.99883 5.33301 8.59683 5.33301 9.33216C5.33301 10.0675 4.73501 10.6655 3.99967 10.6655ZM11.333 13.3322C10.5977 13.3322 9.99967 12.7342 9.99967 11.9988C9.99967 11.2635 10.5977 10.6655 11.333 10.6655C12.0683 10.6655 12.6663 11.2635 12.6663 11.9988C12.6663 12.7342 12.0683 13.3322 11.333 13.3322Z" fill="#6B6F76"/>
</g>
</svg>
