<svg width="16" height="16" viewBox="0 0 16 16" fill="none" xmlns="http://www.w3.org/2000/svg">
<g id="Category icons">
<path id="Vector" d="M7.99967 5.33594C6.55434 5.33594 5.33301 6.55727 5.33301 8.0026C5.33301 9.44794 6.55434 10.6693 7.99967 10.6693C9.44501 10.6693 10.6663 9.44794 10.6663 8.0026C10.6663 6.55727 9.44501 5.33594 7.99967 5.33594ZM7.99967 9.33594C7.28967 9.33594 6.66634 8.7126 6.66634 8.0026C6.66634 7.2926 7.28967 6.66927 7.99967 6.66927C8.70967 6.66927 9.33301 7.2926 9.33301 8.0026C9.33301 8.7126 8.70967 9.33594 7.99967 9.33594Z" fill="#6B6F76"/>
<path id="Vector_2" d="M13.333 3.33594H11.609L9.80434 1.53127C9.74254 1.46924 9.66908 1.42005 9.58818 1.38653C9.50729 1.353 9.42057 1.33581 9.33301 1.33594H6.66634C6.57878 1.33581 6.49206 1.353 6.41116 1.38653C6.33027 1.42005 6.25681 1.46924 6.19501 1.53127L4.39034 3.33594H2.66634C1.93101 3.33594 1.33301 3.93394 1.33301 4.66927V12.0026C1.33301 12.7379 1.93101 13.3359 2.66634 13.3359H13.333C14.0683 13.3359 14.6663 12.7379 14.6663 12.0026V4.66927C14.6663 3.93394 14.0683 3.33594 13.333 3.33594ZM2.66634 12.0026V4.66927H4.66634C4.84367 4.66927 5.01301 4.59927 5.13767 4.47394L6.94234 2.66927H9.05701L10.8617 4.47394C10.9235 4.53597 10.9969 4.58516 11.0778 4.61868C11.1587 4.65221 11.2454 4.6694 11.333 4.66927H13.333L13.3343 12.0026H2.66634Z" fill="#6B6F76"/>
</g>
</svg>
