<svg width="16" height="16" viewBox="0 0 16 16" fill="none" xmlns="http://www.w3.org/2000/svg">
<g id="Category icons">
<g id="Vector">
<path d="M7.33301 7.33594H5.99967V8.66927H7.33301V7.33594Z" fill="#6B6F76"/>
<path fill-rule="evenodd" clip-rule="evenodd" d="M2.99967 8.0026C2.99967 9.0026 1.99967 9.0026 1.99967 9.0026H1.33301V12.0026C1.33301 12.1794 1.40325 12.349 1.52827 12.474C1.65329 12.599 1.82286 12.6693 1.99967 12.6693H13.9997C14.1765 12.6693 14.3461 12.599 14.4711 12.474C14.5961 12.349 14.6663 12.1794 14.6663 12.0026V9.0026H13.9997C13.9997 9.0026 12.9997 9.0026 12.9997 8.0026C12.9997 7.0026 13.9997 7.0026 13.9997 7.0026H14.6663V4.0026C14.6663 3.82579 14.5961 3.65622 14.4711 3.5312C14.3461 3.40618 14.1765 3.33594 13.9997 3.33594H1.99967C1.82286 3.33594 1.65329 3.40618 1.52827 3.5312C1.40325 3.65622 1.33301 3.82579 1.33301 4.0026V7.0026H1.99967C1.99967 7.0026 2.99967 7.0026 2.99967 8.0026ZM12.9034 10.0702C13.0549 10.1459 13.2016 10.199 13.333 10.2366V11.3359H7.33301V10.0026H5.99967V11.3359H2.66634V10.2366C2.79778 10.199 2.94447 10.1459 3.09596 10.0702C3.37913 9.92859 3.70287 9.69527 3.95282 9.32033C4.20835 8.93704 4.33301 8.48592 4.33301 8.0026C4.33301 7.51929 4.20835 7.06816 3.95282 6.68488C3.70287 6.30994 3.37913 6.07662 3.09596 5.93503C2.94447 5.85929 2.79778 5.80616 2.66634 5.76861V4.66927H5.99967V6.0026H7.33301V4.66927H13.333V5.76861C13.2016 5.80616 13.0549 5.85929 12.9034 5.93503C12.6202 6.07662 12.2965 6.30994 12.0465 6.68488C11.791 7.06816 11.6663 7.51929 11.6663 8.0026C11.6663 8.48592 11.791 8.93704 12.0465 9.32033C12.2965 9.69527 12.6202 9.92859 12.9034 10.0702Z" fill="#6B6F76"/>
</g>
</g>
</svg>
