<svg width="140" height="56" viewBox="0 0 140 56" fill="none" xmlns="http://www.w3.org/2000/svg">
<path d="M42.5976 24.9128L52.7422 14.8264L48.8937 11L40.6733 19.1731L32.4529 11L28.6044 14.8264L38.7491 24.9128C39.2804 25.4412 39.9769 25.7053 40.6733 25.7053C41.3697 25.7053 42.0662 25.4413 42.5976 24.9128ZM57.2835 35.6879L49.063 27.5148L57.2835 19.3415L53.435 15.5151L43.2903 25.6016C42.2276 26.6583 42.2276 28.3713 43.2903 29.428L53.435 39.5144L57.2835 35.6879ZM40.6593 35.8704L48.8796 44.0435L52.7281 40.2171L42.5835 30.1307C41.5206 29.0742 39.7976 29.0742 38.735 30.1307L28.5904 40.2171L32.4388 44.0435L40.6593 35.8704ZM38.0423 29.442C38.5526 28.9346 38.8394 28.2464 38.8394 27.5288C38.8394 26.8112 38.5526 26.123 38.0423 25.6156L27.8977 15.5292L24.0492 19.3556L32.2697 27.5287L24.0492 35.702L27.8977 39.5285L38.0423 29.442ZM23.9121 42.7163H15.3808L14.7667 38.8591H9.20462L8.53128 42.7163H0L7.34358 12.3273H17.439L23.9121 42.7163ZM13.7972 32.3441L13.2626 28.8015C13.248 28.7886 13.2228 28.6111 13.1831 28.2691C13.1571 27.982 13.0184 26.8398 12.7677 24.8459C12.7409 24.6224 12.7085 24.3175 12.6687 23.9303C12.629 23.5432 12.5762 23.0536 12.5105 22.4631L12.2517 19.5908C12.2266 19.8667 12.1901 20.1748 12.1438 20.516C12.0976 20.8572 12.0481 21.2306 11.9954 21.638C11.9029 22.4511 11.8372 23.0157 11.7975 23.3303C11.7569 23.644 11.7317 23.8352 11.7187 23.9014L11.1444 27.5803L10.3128 32.3441H13.7972ZM74.9009 42.7163V35.4151H67.8147V30.7694H74.1681V23.9016H67.8147V19.4733H74.9009V12.3276H59.5598V42.7162L74.9009 42.7163ZM91.1361 35.4151H84.9404V12.3276H76.6858V42.7162H91.1361V35.4151ZM116.483 42.7164H107.953L107.338 38.8592H101.776L101.103 42.7164H92.571L99.9149 12.3273H110.011L116.483 42.7164ZM106.369 32.3442L105.834 28.8015C105.82 28.7887 105.794 28.6112 105.755 28.2692C105.729 27.9821 105.589 26.8399 105.339 24.846C105.312 24.6225 105.28 24.3176 105.24 23.9304C105.2 23.5432 105.147 23.0537 105.083 22.4632L104.824 19.5909C104.798 19.8667 104.762 20.1749 104.715 20.516C104.669 20.8573 104.619 21.2307 104.567 21.638C104.474 22.4512 104.408 23.0158 104.368 23.3304C104.329 23.6441 104.303 23.8353 104.291 23.9014L103.716 27.5803L102.884 32.3442H106.369ZM140 42.7164H131.073L126.997 31.8917C126.957 31.7078 126.886 31.465 126.787 31.1633C126.688 30.8616 126.566 30.5011 126.422 30.0808L126.48 32.0885V42.7164H118.266V12.3273H126.718C130.44 12.3273 133.224 13.0565 135.072 14.5132C137.42 16.3765 138.595 19.027 138.595 22.4631C138.595 26.1381 137.018 28.6773 133.864 30.0807L140 42.7164ZM130.4 22.5616C130.4 20.2927 129.206 19.1577 126.817 19.1577H126.52V26.3995H127.074C128.024 26.3995 128.816 26.0398 129.45 25.317C130.084 24.5968 130.4 23.678 130.4 22.5616Z" fill="#2F3134"/>
</svg>
