<svg width="140" height="56" viewBox="0 0 140 56" fill="none" xmlns="http://www.w3.org/2000/svg">
<g clip-path="url(#clip0_7351_18170)">
<path d="M10.1191 40.2437C10.1191 40.7585 10.2907 41.2922 10.6339 41.8451C10.9961 42.3789 11.4345 42.9222 11.9493 43.4751C12.4831 44.0279 13.055 44.5808 13.665 45.1336C14.2941 45.6674 14.866 46.1821 15.3808 46.6778C15.9145 47.1734 16.353 47.65 16.6962 48.1076C17.0584 48.546 17.2395 48.9368 17.2395 49.28V52.7687H15.0662C14.3037 52.7687 13.6841 52.5399 13.2075 52.0824C12.7499 51.6248 12.5212 51.0339 12.5212 50.3094H10.1191C10.1191 50.9767 10.2431 51.6058 10.4909 52.1968C10.7578 52.7687 11.1105 53.2739 11.5489 53.7123C12.0065 54.1508 12.5307 54.5035 13.1217 54.7704C13.7317 55.0182 14.3799 55.1421 15.0662 55.1421H17.0679C17.7923 55.1421 18.45 55.0182 19.041 54.7704C19.6511 54.5035 20.1658 54.1508 20.5852 53.7123C21.0237 53.2548 21.3573 52.7401 21.586 52.1682C21.8339 51.5772 21.9578 50.9576 21.9578 50.3094V48.5651C21.9578 47.9932 21.7767 47.4117 21.4145 46.8208C21.0713 46.2107 20.6328 45.6197 20.0991 45.0478C19.5843 44.4568 19.0219 43.8849 18.4119 43.3321C17.8019 42.7792 17.2299 42.2645 16.6962 41.7879C16.1814 41.2923 15.743 40.8443 15.3808 40.4439C15.0376 40.0436 14.866 39.7004 14.866 39.4145V36.0402H16.7534C17.6684 36.0402 18.3738 36.2594 18.8694 36.6979C19.3842 37.1173 19.6415 37.7082 19.6415 38.4708H21.9864C21.9864 37.8226 21.8529 37.2126 21.586 36.6407C21.3382 36.0497 20.9855 35.5445 20.528 35.1251C20.0895 34.6866 19.5748 34.3435 18.9838 34.0957C18.3928 33.8288 17.7637 33.6953 17.0965 33.6953H15.0662C14.3799 33.6953 13.7317 33.8192 13.1217 34.0671C12.5307 34.3149 12.0065 34.658 11.5489 35.0965C11.1105 35.535 10.7578 36.0497 10.4909 36.6407C10.2431 37.2126 10.1191 37.8417 10.1191 38.528V40.2437ZM38.6306 33.6953H24.3328V36.0688H29.1083V55.1421H33.8552V36.0688H38.6306V33.6953ZM45.894 55.1421H50.4407C51.0889 55.1421 51.6989 55.0182 52.2708 54.7704C52.8618 54.5035 53.3765 54.1508 53.815 53.7123C54.2725 53.2548 54.6347 52.7401 54.9016 52.1682C55.1669 51.5845 55.3035 50.9506 55.302 50.3094V38.528C55.302 37.918 55.1685 37.327 54.9016 36.7551C54.6538 36.1641 54.3106 35.6494 53.8722 35.2109C53.4337 34.7534 52.919 34.3911 52.328 34.1242C51.737 33.8383 51.1079 33.6953 50.4407 33.6953H45.894C45.2267 33.6953 44.5976 33.8383 44.0066 34.1242C43.4157 34.3911 42.9009 34.7534 42.4625 35.2109C42.024 35.6494 41.6713 36.1641 41.4044 36.7551C41.1566 37.327 41.0327 37.918 41.0327 38.528V50.3094C41.0327 50.9576 41.1661 51.5772 41.433 52.1682C41.6999 52.7401 42.0526 53.2548 42.4911 53.7123C42.9486 54.1508 43.4633 54.5035 44.0352 54.7704C44.6262 55.0182 45.2458 55.1421 45.894 55.1421ZM50.5551 52.7401H45.7796V36.0688H50.5551V52.7401ZM64.8527 43.1891V36.0402H69.6282V43.1891H64.8527ZM60.1058 55.1421H64.8527V45.6197H69.6282V55.1421H74.3751V48.5079C74.3751 47.6882 74.2416 47.0209 73.9748 46.5062C73.7079 45.9724 73.4124 45.553 73.0883 45.248C72.7833 44.9239 72.4973 44.7047 72.2304 44.5903L71.8301 44.3901L72.2304 44.2471C72.4973 44.1518 72.7833 43.9707 73.0883 43.7038C73.4124 43.4179 73.7079 43.0271 73.9748 42.5314C74.2416 42.0167 74.3751 41.3494 74.3751 40.5297V38.4708C74.3751 37.7654 74.2607 37.1173 74.0319 36.5263C73.8222 35.9353 73.5077 35.4301 73.0883 35.0107C72.6689 34.5913 72.1637 34.2672 71.5727 34.0385C71.0008 33.8097 70.3526 33.6953 69.6282 33.6953H60.1058V55.1421ZM84.126 33.6953C83.5732 33.6953 83.0012 33.8288 82.4103 34.0957C81.8383 34.3625 81.3141 34.7152 80.8375 35.1537C80.38 35.5922 79.9987 36.1069 79.6937 36.6979C79.4077 37.2888 79.2647 37.8989 79.2647 38.528V55.1421H84.0116V45.6197H88.7013V55.1421C88.8538 55.1612 89.1493 55.1707 89.5878 55.1707H90.989C91.5037 55.1707 91.9898 55.1612 92.4474 55.1421H93.4768V38.528C93.4768 37.8989 93.3243 37.2984 93.0193 36.7265C92.7143 36.1355 92.3234 35.6208 91.8469 35.1823C91.3893 34.7248 90.8651 34.3625 90.2741 34.0957C89.6831 33.8288 89.1017 33.6953 88.5297 33.6953H84.126ZM84.0116 43.1891V36.0402H88.7013V43.1891H84.0116ZM105.373 45.5911H107.775V52.7401H102.999V36.0688H108.261C108.852 36.0688 109.319 36.288 109.662 36.7265C110.005 37.1459 110.177 37.7464 110.177 38.528H112.521C112.521 37.918 112.388 37.327 112.121 36.7551C111.854 36.1641 111.492 35.6494 111.034 35.2109C110.581 34.756 110.048 34.3877 109.462 34.1242C108.871 33.8383 108.261 33.6953 107.632 33.6953H103.085C102.418 33.6953 101.789 33.8383 101.198 34.1242C100.607 34.3911 100.092 34.7534 99.6534 35.2109C99.2149 35.6684 98.8718 36.1927 98.6239 36.7837C98.3761 37.3556 98.2522 37.9465 98.2522 38.5566V50.2808C98.2522 50.9481 98.3761 51.5772 98.6239 52.1682C98.8718 52.7591 99.2149 53.2739 99.6534 53.7123C100.092 54.1508 100.597 54.5035 101.169 54.7704C101.76 55.0182 102.399 55.1421 103.085 55.1421H107.66C108.385 55.1421 109.042 55.0087 109.633 54.7418C110.224 54.4749 110.729 54.1222 111.149 53.6837C111.587 53.2453 111.921 52.7305 112.15 52.1396C112.398 51.5486 112.521 50.929 112.521 50.2808V43.1605H105.373V45.5911ZM126.848 45.6197V43.1891H122.072V36.0688H129.222V33.6953H117.325V55.1421H129.222V52.7401H122.072V45.6197H126.848Z" fill="#F5C32C" stroke="black" stroke-width="0.5"/>
<path d="M10.1191 39.1734C10.1191 39.6881 10.2907 40.2219 10.6339 40.7748C10.9961 41.3086 11.4345 41.8519 11.9493 42.4047C12.4831 42.9576 13.055 43.5104 13.665 44.0633C14.2941 44.5971 14.866 45.1118 15.3808 45.6075C15.9145 46.1031 16.353 46.5797 16.6962 47.0373C17.0584 47.4757 17.2395 47.8665 17.2395 48.2097V51.6984H15.0662C14.3037 51.6984 13.6841 51.4696 13.2075 51.0121C12.7499 50.5545 12.5212 49.9636 12.5212 49.2391H10.1191C10.1191 49.9064 10.2431 50.5355 10.4909 51.1264C10.7578 51.6984 11.1105 52.2036 11.5489 52.642C12.0065 53.0805 12.5307 53.4332 13.1217 53.7001C13.7317 53.9479 14.3799 54.0718 15.0662 54.0718H17.0679C17.7923 54.0718 18.45 53.9479 19.041 53.7001C19.6511 53.4332 20.1658 53.0805 20.5852 52.642C21.0237 52.1845 21.3573 51.6698 21.586 51.0979C21.8339 50.5069 21.9578 49.8873 21.9578 49.2391V47.4948C21.9578 46.9229 21.7767 46.3414 21.4145 45.7504C21.0713 45.1404 20.6328 44.5494 20.0991 43.9775C19.5843 43.3865 19.0219 42.8146 18.4119 42.2618C17.8019 41.7089 17.2299 41.1942 16.6962 40.7176C16.1814 40.2219 15.743 39.7739 15.3808 39.3736C15.0376 38.9733 14.866 38.6301 14.866 38.3441V34.9699H16.7534C17.6684 34.9699 18.3738 35.1891 18.8694 35.6276C19.3842 36.047 19.6415 36.6379 19.6415 37.4005H21.9864C21.9864 36.7523 21.8529 36.1423 21.586 35.5704C21.3382 34.9794 20.9855 34.4742 20.528 34.0548C20.0895 33.6163 19.5748 33.2732 18.9838 33.0253C18.3928 32.7584 17.7637 32.625 17.0965 32.625H15.0662C14.3799 32.625 13.7317 32.7489 13.1217 32.9967C12.5307 33.2446 12.0065 33.5877 11.5489 34.0262C11.1105 34.4647 10.7578 34.9794 10.4909 35.5704C10.2431 36.1423 10.1191 36.7714 10.1191 37.4577V39.1734ZM38.6306 32.625H24.3328V34.9984H29.1083V54.0718H33.8552V34.9984H38.6306V32.625ZM45.894 54.0718H50.4407C51.0889 54.0718 51.6989 53.9479 52.2708 53.7001C52.8618 53.4332 53.3765 53.0805 53.815 52.642C54.2725 52.1845 54.6347 51.6698 54.9016 51.0979C55.1669 50.5142 55.3035 49.8803 55.302 49.2391V37.4577C55.302 36.8476 55.1685 36.2567 54.9016 35.6847C54.6538 35.0938 54.3106 34.579 53.8722 34.1406C53.4337 33.683 52.919 33.3208 52.328 33.0539C51.737 32.768 51.1079 32.625 50.4407 32.625H45.894C45.2267 32.625 44.5976 32.768 44.0066 33.0539C43.4157 33.3208 42.9009 33.683 42.4625 34.1406C42.024 34.579 41.6713 35.0938 41.4044 35.6847C41.1566 36.2567 41.0327 36.8476 41.0327 37.4577V49.2391C41.0327 49.8873 41.1661 50.5069 41.433 51.0979C41.6999 51.6698 42.0526 52.1845 42.4911 52.642C42.9486 53.0805 43.4633 53.4332 44.0352 53.7001C44.6262 53.9479 45.2458 54.0718 45.894 54.0718ZM50.5551 51.6698H45.7796V34.9984H50.5551V51.6698ZM64.8527 42.1188V34.9699H69.6282V42.1188H64.8527ZM60.1058 54.0718H64.8527V44.5494H69.6282V54.0718H74.3751V47.4376C74.3751 46.6179 74.2416 45.9506 73.9748 45.4359C73.7079 44.9021 73.4124 44.4827 73.0883 44.1777C72.7833 43.8536 72.4973 43.6344 72.2304 43.52L71.8301 43.3198L72.2304 43.1768C72.4973 43.0815 72.7833 42.9004 73.0883 42.6335C73.4124 42.3476 73.7079 41.9567 73.9748 41.4611C74.2416 40.9464 74.3751 40.2791 74.3751 39.4594V37.4005C74.3751 36.6951 74.2607 36.047 74.0319 35.456C73.8222 34.865 73.5077 34.3598 73.0883 33.9404C72.6689 33.521 72.1637 33.1969 71.5727 32.9681C71.0008 32.7394 70.3526 32.625 69.6282 32.625H60.1058V54.0718ZM84.126 32.625C83.5732 32.625 83.0012 32.7584 82.4103 33.0253C81.8383 33.2922 81.3141 33.6449 80.8375 34.0834C80.38 34.5218 79.9987 35.0366 79.6937 35.6276C79.4077 36.2185 79.2647 36.8286 79.2647 37.4577V54.0718H84.0116V44.5494H88.7013V54.0718C88.8538 54.0909 89.1493 54.1004 89.5878 54.1004H90.989C91.5037 54.1004 91.9898 54.0909 92.4474 54.0718H93.4768V37.4577C93.4768 36.8286 93.3243 36.2281 93.0193 35.6561C92.7143 35.0652 92.3234 34.5504 91.8469 34.112C91.3893 33.6544 90.8651 33.2922 90.2741 33.0253C89.6831 32.7584 89.1017 32.625 88.5297 32.625H84.126ZM84.0116 42.1188V34.9699H88.7013V42.1188H84.0116ZM105.373 44.5208H107.775V51.6698H102.999V34.9984H108.261C108.852 34.9984 109.319 35.2177 109.662 35.6561C110.005 36.0756 110.177 36.6761 110.177 37.4577H112.521C112.521 36.8476 112.388 36.2567 112.121 35.6847C111.854 35.0938 111.492 34.579 111.034 34.1406C110.581 33.6857 110.048 33.3174 109.462 33.0539C108.871 32.768 108.261 32.625 107.632 32.625H103.085C102.418 32.625 101.789 32.768 101.198 33.0539C100.607 33.3208 100.092 33.683 99.6534 34.1406C99.2149 34.5981 98.8718 35.1224 98.6239 35.7133C98.3761 36.2853 98.2522 36.8762 98.2522 37.4863V49.2105C98.2522 49.8778 98.3761 50.5069 98.6239 51.0979C98.8718 51.6888 99.2149 52.2036 99.6534 52.642C100.092 53.0805 100.597 53.4332 101.169 53.7001C101.76 53.9479 102.399 54.0718 103.085 54.0718H107.66C108.385 54.0718 109.042 53.9384 109.633 53.6715C110.224 53.4046 110.729 53.0519 111.149 52.6134C111.587 52.175 111.921 51.6602 112.15 51.0693C112.398 50.4783 112.521 49.8587 112.521 49.2105V42.0902H105.373V44.5208ZM126.848 44.5494V42.1188H122.072V34.9984H129.222V32.625H117.325V54.0718H129.222V51.6698H122.072V44.5494H126.848Z" fill="#F5C32C" stroke="black" stroke-width="0.5"/>
<path d="M10.1191 38.1109C10.1191 38.6256 10.2907 39.1594 10.6339 39.7123C10.9961 40.2461 11.4345 40.7894 11.9493 41.3422C12.4831 41.8951 13.055 42.4479 13.665 43.0008C14.2941 43.5346 14.866 44.0493 15.3808 44.545C15.9145 45.0406 16.353 45.5172 16.6962 45.9748C17.0584 46.4132 17.2395 46.804 17.2395 47.1472V50.6359H15.0662C14.3037 50.6359 13.6841 50.4071 13.2075 49.9496C12.7499 49.492 12.5212 48.9011 12.5212 48.1766H10.1191C10.1191 48.8439 10.2431 49.473 10.4909 50.0639C10.7578 50.6359 11.1105 51.1411 11.5489 51.5795C12.0065 52.018 12.5307 52.3707 13.1217 52.6376C13.7317 52.8854 14.3799 53.0093 15.0662 53.0093H17.0679C17.7923 53.0093 18.45 52.8854 19.041 52.6376C19.6511 52.3707 20.1658 52.018 20.5852 51.5795C21.0237 51.122 21.3573 50.6073 21.586 50.0354C21.8339 49.4444 21.9578 48.8248 21.9578 48.1766V46.4323C21.9578 45.8604 21.7767 45.2789 21.4145 44.6879C21.0713 44.0779 20.6328 43.4869 20.0991 42.915C19.5843 42.324 19.0219 41.7521 18.4119 41.1993C17.8019 40.6464 17.2299 40.1317 16.6962 39.6551C16.1814 39.1594 15.743 38.7114 15.3808 38.3111C15.0376 37.9108 14.866 37.5676 14.866 37.2816V33.9074H16.7534C17.6684 33.9074 18.3738 34.1266 18.8694 34.5651C19.3842 34.9845 19.6415 35.5754 19.6415 36.338H21.9864C21.9864 35.6898 21.8529 35.0798 21.586 34.5079C21.3382 33.9169 20.9855 33.4117 20.528 32.9923C20.0895 32.5538 19.5748 32.2107 18.9838 31.9628C18.3928 31.6959 17.7637 31.5625 17.0965 31.5625H15.0662C14.3799 31.5625 13.7317 31.6864 13.1217 31.9342C12.5307 32.1821 12.0065 32.5252 11.5489 32.9637C11.1105 33.4022 10.7578 33.9169 10.4909 34.5079C10.2431 35.0798 10.1191 35.7089 10.1191 36.3952V38.1109ZM38.6306 31.5625H24.3328V33.9359H29.1083V53.0093H33.8552V33.9359H38.6306V31.5625ZM45.894 53.0093H50.4407C51.0889 53.0093 51.6989 52.8854 52.2708 52.6376C52.8618 52.3707 53.3765 52.018 53.815 51.5795C54.2725 51.122 54.6347 50.6073 54.9016 50.0354C55.1669 49.4517 55.3035 48.8178 55.302 48.1766V36.3952C55.302 35.7851 55.1685 35.1942 54.9016 34.6222C54.6538 34.0313 54.3106 33.5165 53.8722 33.0781C53.4337 32.6205 52.919 32.2583 52.328 31.9914C51.737 31.7055 51.1079 31.5625 50.4407 31.5625H45.894C45.2267 31.5625 44.5976 31.7055 44.0066 31.9914C43.4157 32.2583 42.9009 32.6205 42.4625 33.0781C42.024 33.5165 41.6713 34.0313 41.4044 34.6222C41.1566 35.1942 41.0327 35.7851 41.0327 36.3952V48.1766C41.0327 48.8248 41.1661 49.4444 41.433 50.0354C41.6999 50.6073 42.0526 51.122 42.4911 51.5795C42.9486 52.018 43.4633 52.3707 44.0352 52.6376C44.6262 52.8854 45.2458 53.0093 45.894 53.0093ZM50.5551 50.6073H45.7796V33.9359H50.5551V50.6073ZM64.8527 41.0563V33.9074H69.6282V41.0563H64.8527ZM60.1058 53.0093H64.8527V43.4869H69.6282V53.0093H74.3751V46.3751C74.3751 45.5554 74.2416 44.8881 73.9748 44.3734C73.7079 43.8396 73.4124 43.4202 73.0883 43.1152C72.7833 42.7911 72.4973 42.5719 72.2304 42.4575L71.8301 42.2573L72.2304 42.1143C72.4973 42.019 72.7833 41.8379 73.0883 41.571C73.4124 41.2851 73.7079 40.8942 73.9748 40.3986C74.2416 39.8839 74.3751 39.2166 74.3751 38.3969V36.338C74.3751 35.6326 74.2607 34.9845 74.0319 34.3935C73.8222 33.8025 73.5077 33.2973 73.0883 32.8779C72.6689 32.4585 72.1637 32.1344 71.5727 31.9056C71.0008 31.6769 70.3526 31.5625 69.6282 31.5625H60.1058V53.0093ZM84.126 31.5625C83.5732 31.5625 83.0012 31.6959 82.4103 31.9628C81.8383 32.2297 81.3141 32.5824 80.8375 33.0209C80.38 33.4593 79.9987 33.9741 79.6937 34.5651C79.4077 35.156 79.2647 35.7661 79.2647 36.3952V53.0093H84.0116V43.4869H88.7013V53.0093C88.8538 53.0284 89.1493 53.0379 89.5878 53.0379H90.989C91.5037 53.0379 91.9898 53.0284 92.4474 53.0093H93.4768V36.3952C93.4768 35.7661 93.3243 35.1656 93.0193 34.5936C92.7143 34.0027 92.3234 33.4879 91.8469 33.0495C91.3893 32.5919 90.8651 32.2297 90.2741 31.9628C89.6831 31.6959 89.1017 31.5625 88.5297 31.5625H84.126ZM84.0116 41.0563V33.9074H88.7013V41.0563H84.0116ZM105.373 43.4583H107.775V50.6073H102.999V33.9359H108.261C108.852 33.9359 109.319 34.1552 109.662 34.5936C110.005 35.0131 110.177 35.6136 110.177 36.3952H112.521C112.521 35.7851 112.388 35.1942 112.121 34.6222C111.854 34.0313 111.492 33.5165 111.034 33.0781C110.581 32.6232 110.048 32.2549 109.462 31.9914C108.871 31.7055 108.261 31.5625 107.632 31.5625H103.085C102.418 31.5625 101.789 31.7055 101.198 31.9914C100.607 32.2583 100.092 32.6205 99.6534 33.0781C99.2149 33.5356 98.8718 34.0599 98.6239 34.6508C98.3761 35.2228 98.2522 35.8137 98.2522 36.4238V48.148C98.2522 48.8153 98.3761 49.4444 98.6239 50.0354C98.8718 50.6263 99.2149 51.1411 99.6534 51.5795C100.092 52.018 100.597 52.3707 101.169 52.6376C101.76 52.8854 102.399 53.0093 103.085 53.0093H107.66C108.385 53.0093 109.042 52.8759 109.633 52.609C110.224 52.3421 110.729 51.9894 111.149 51.5509C111.587 51.1125 111.921 50.5977 112.15 50.0068C112.398 49.4158 112.521 48.7962 112.521 48.148V41.0277H105.373V43.4583ZM126.848 43.4869V41.0563H122.072V33.9359H129.222V31.5625H117.325V53.0093H129.222V50.6073H122.072V43.4869H126.848Z" fill="#F5C32C" stroke="black" stroke-width="0.5"/>
<path d="M10.1191 37.0484C10.1191 37.5631 10.2907 38.0969 10.6339 38.6498C10.9961 39.1836 11.4345 39.7269 11.9493 40.2797C12.4831 40.8326 13.055 41.3854 13.665 41.9383C14.2941 42.4721 14.866 42.9868 15.3808 43.4825C15.9145 43.9781 16.353 44.4547 16.6962 44.9123C17.0584 45.3507 17.2395 45.7415 17.2395 46.0847V49.5734H15.0662C14.3037 49.5734 13.6841 49.3446 13.2075 48.8871C12.7499 48.4295 12.5212 47.8386 12.5212 47.1141H10.1191C10.1191 47.7814 10.2431 48.4105 10.4909 49.0014C10.7578 49.5734 11.1105 50.0786 11.5489 50.517C12.0065 50.9555 12.5307 51.3082 13.1217 51.5751C13.7317 51.8229 14.3799 51.9468 15.0662 51.9468H17.0679C17.7923 51.9468 18.45 51.8229 19.041 51.5751C19.6511 51.3082 20.1658 50.9555 20.5852 50.517C21.0237 50.0595 21.3573 49.5448 21.586 48.9729C21.8339 48.3819 21.9578 47.7623 21.9578 47.1141V45.3698C21.9578 44.7979 21.7767 44.2164 21.4145 43.6254C21.0713 43.0154 20.6328 42.4244 20.0991 41.8525C19.5843 41.2615 19.0219 40.6896 18.4119 40.1368C17.8019 39.5839 17.2299 39.0692 16.6962 38.5926C16.1814 38.0969 15.743 37.6489 15.3808 37.2486C15.0376 36.8483 14.866 36.5051 14.866 36.2191V32.8449H16.7534C17.6684 32.8449 18.3738 33.0641 18.8694 33.5026C19.3842 33.922 19.6415 34.5129 19.6415 35.2755H21.9864C21.9864 34.6273 21.8529 34.0173 21.586 33.4454C21.3382 32.8544 20.9855 32.3492 20.528 31.9298C20.0895 31.4913 19.5748 31.1482 18.9838 30.9003C18.3928 30.6334 17.7637 30.5 17.0965 30.5H15.0662C14.3799 30.5 13.7317 30.6239 13.1217 30.8717C12.5307 31.1196 12.0065 31.4627 11.5489 31.9012C11.1105 32.3397 10.7578 32.8544 10.4909 33.4454C10.2431 34.0173 10.1191 34.6464 10.1191 35.3327V37.0484ZM38.6306 30.5H24.3328V32.8734H29.1083V51.9468H33.8552V32.8734H38.6306V30.5ZM45.894 51.9468H50.4407C51.0889 51.9468 51.6989 51.8229 52.2708 51.5751C52.8618 51.3082 53.3765 50.9555 53.815 50.517C54.2725 50.0595 54.6347 49.5448 54.9016 48.9729C55.1669 48.3892 55.3035 47.7553 55.302 47.1141V35.3327C55.302 34.7226 55.1685 34.1317 54.9016 33.5597C54.6538 32.9688 54.3106 32.454 53.8722 32.0156C53.4337 31.558 52.919 31.1958 52.328 30.9289C51.737 30.643 51.1079 30.5 50.4407 30.5H45.894C45.2267 30.5 44.5976 30.643 44.0066 30.9289C43.4157 31.1958 42.9009 31.558 42.4625 32.0156C42.024 32.454 41.6713 32.9688 41.4044 33.5597C41.1566 34.1317 41.0327 34.7226 41.0327 35.3327V47.1141C41.0327 47.7623 41.1661 48.3819 41.433 48.9729C41.6999 49.5448 42.0526 50.0595 42.4911 50.517C42.9486 50.9555 43.4633 51.3082 44.0352 51.5751C44.6262 51.8229 45.2458 51.9468 45.894 51.9468ZM50.5551 49.5448H45.7796V32.8734H50.5551V49.5448ZM64.8527 39.9938V32.8449H69.6282V39.9938H64.8527ZM60.1058 51.9468H64.8527V42.4244H69.6282V51.9468H74.3751V45.3126C74.3751 44.4929 74.2416 43.8256 73.9748 43.3109C73.7079 42.7771 73.4124 42.3577 73.0883 42.0527C72.7833 41.7286 72.4973 41.5094 72.2304 41.395L71.8301 41.1948L72.2304 41.0518C72.4973 40.9565 72.7833 40.7754 73.0883 40.5085C73.4124 40.2226 73.7079 39.8317 73.9748 39.3361C74.2416 38.8214 74.3751 38.1541 74.3751 37.3344V35.2755C74.3751 34.5701 74.2607 33.922 74.0319 33.331C73.8222 32.74 73.5077 32.2348 73.0883 31.8154C72.6689 31.396 72.1637 31.0719 71.5727 30.8431C71.0008 30.6144 70.3526 30.5 69.6282 30.5H60.1058V51.9468ZM84.126 30.5C83.5732 30.5 83.0012 30.6334 82.4103 30.9003C81.8383 31.1672 81.3141 31.5199 80.8375 31.9584C80.38 32.3968 79.9987 32.9116 79.6937 33.5026C79.4077 34.0935 79.2647 34.7036 79.2647 35.3327V51.9468H84.0116V42.4244H88.7013V51.9468C88.8538 51.9659 89.1493 51.9754 89.5878 51.9754H90.989C91.5037 51.9754 91.9898 51.9659 92.4474 51.9468H93.4768V35.3327C93.4768 34.7036 93.3243 34.1031 93.0193 33.5311C92.7143 32.9402 92.3234 32.4254 91.8469 31.987C91.3893 31.5294 90.8651 31.1672 90.2741 30.9003C89.6831 30.6334 89.1017 30.5 88.5297 30.5H84.126ZM84.0116 39.9938V32.8449H88.7013V39.9938H84.0116ZM105.373 42.3958H107.775V49.5448H102.999V32.8734H108.261C108.852 32.8734 109.319 33.0927 109.662 33.5311C110.005 33.9506 110.177 34.5511 110.177 35.3327H112.521C112.521 34.7226 112.388 34.1317 112.121 33.5597C111.854 32.9688 111.492 32.454 111.034 32.0156C110.581 31.5607 110.048 31.1924 109.462 30.9289C108.871 30.643 108.261 30.5 107.632 30.5H103.085C102.418 30.5 101.789 30.643 101.198 30.9289C100.607 31.1958 100.092 31.558 99.6534 32.0156C99.2149 32.4731 98.8718 32.9974 98.6239 33.5883C98.3761 34.1603 98.2522 34.7512 98.2522 35.3613V47.0855C98.2522 47.7528 98.3761 48.3819 98.6239 48.9729C98.8718 49.5638 99.2149 50.0786 99.6534 50.517C100.092 50.9555 100.597 51.3082 101.169 51.5751C101.76 51.8229 102.399 51.9468 103.085 51.9468H107.66C108.385 51.9468 109.042 51.8134 109.633 51.5465C110.224 51.2796 110.729 50.9269 111.149 50.4884C111.587 50.05 111.921 49.5352 112.15 48.9443C112.398 48.3533 112.521 47.7337 112.521 47.0855V39.9652H105.373V42.3958ZM126.848 42.4244V39.9938H122.072V32.8734H129.222V30.5H117.325V51.9468H129.222V49.5448H122.072V42.4244H126.848Z" fill="#F5C32C" stroke="black" stroke-width="0.5"/>
<path d="M10.1191 35.9781C10.1191 36.4928 10.2907 37.0266 10.6339 37.5795C10.9961 38.1133 11.4345 38.6566 11.9493 39.2094C12.4831 39.7623 13.055 40.3151 13.665 40.868C14.2941 41.4018 14.866 41.9165 15.3808 42.4122C15.9145 42.9078 16.353 43.3844 16.6962 43.8419C17.0584 44.2804 17.2395 44.6712 17.2395 45.0144V48.503H15.0662C14.3037 48.503 13.6841 48.2743 13.2075 47.8168C12.7499 47.3592 12.5212 46.7682 12.5212 46.0438H10.1191C10.1191 46.711 10.2431 47.3402 10.4909 47.9311C10.7578 48.503 11.1105 49.0082 11.5489 49.4467C12.0065 49.8852 12.5307 50.2379 13.1217 50.5048C13.7317 50.7526 14.3799 50.8765 15.0662 50.8765H17.0679C17.7923 50.8765 18.45 50.7526 19.041 50.5048C19.6511 50.2379 20.1658 49.8852 20.5852 49.4467C21.0237 48.9892 21.3573 48.4745 21.586 47.9025C21.8339 47.3116 21.9578 46.692 21.9578 46.0438V44.2995C21.9578 43.7276 21.7767 43.1461 21.4145 42.5551C21.0713 41.9451 20.6328 41.3541 20.0991 40.7822C19.5843 40.1912 19.0219 39.6193 18.4119 39.0665C17.8019 38.5136 17.2299 37.9989 16.6962 37.5223C16.1814 37.0266 15.743 36.5786 15.3808 36.1783C15.0376 35.7779 14.866 35.4348 14.866 35.1488V31.7745H16.7534C17.6684 31.7745 18.3738 31.9938 18.8694 32.4322C19.3842 32.8516 19.6415 33.4426 19.6415 34.2052H21.9864C21.9864 33.557 21.8529 32.947 21.586 32.375C21.3382 31.7841 20.9855 31.2789 20.528 30.8595C20.0895 30.421 19.5748 30.0779 18.9838 29.83C18.3928 29.5631 17.7637 29.4297 17.0965 29.4297H15.0662C14.3799 29.4297 13.7317 29.5536 13.1217 29.8014C12.5307 30.0493 12.0065 30.3924 11.5489 30.8309C11.1105 31.2693 10.7578 31.7841 10.4909 32.375C10.2431 32.947 10.1191 33.5761 10.1191 34.2624V35.9781ZM38.6306 29.4297H24.3328V31.8031H29.1083V50.8765H33.8552V31.8031H38.6306V29.4297ZM45.894 50.8765H50.4407C51.0889 50.8765 51.6989 50.7526 52.2708 50.5048C52.8618 50.2379 53.3765 49.8852 53.815 49.4467C54.2725 48.9892 54.6347 48.4745 54.9016 47.9025C55.1669 47.3189 55.3035 46.6849 55.302 46.0438V34.2624C55.302 33.6523 55.1685 33.0613 54.9016 32.4894C54.6538 31.8985 54.3106 31.3837 53.8722 30.9453C53.4337 30.4877 52.919 30.1255 52.328 29.8586C51.737 29.5727 51.1079 29.4297 50.4407 29.4297H45.894C45.2267 29.4297 44.5976 29.5727 44.0066 29.8586C43.4157 30.1255 42.9009 30.4877 42.4625 30.9453C42.024 31.3837 41.6713 31.8985 41.4044 32.4894C41.1566 33.0613 41.0327 33.6523 41.0327 34.2624V46.0438C41.0327 46.692 41.1661 47.3116 41.433 47.9025C41.6999 48.4745 42.0526 48.9892 42.4911 49.4467C42.9486 49.8852 43.4633 50.2379 44.0352 50.5048C44.6262 50.7526 45.2458 50.8765 45.894 50.8765ZM50.5551 48.4745H45.7796V31.8031H50.5551V48.4745ZM64.8527 38.9235V31.7745H69.6282V38.9235H64.8527ZM60.1058 50.8765H64.8527V41.3541H69.6282V50.8765H74.3751V44.2423C74.3751 43.4225 74.2416 42.7553 73.9748 42.2406C73.7079 41.7068 73.4124 41.2874 73.0883 40.9824C72.7833 40.6583 72.4973 40.439 72.2304 40.3247L71.8301 40.1245L72.2304 39.9815C72.4973 39.8862 72.7833 39.7051 73.0883 39.4382C73.4124 39.1522 73.7079 38.7614 73.9748 38.2658C74.2416 37.751 74.3751 37.0838 74.3751 36.2641V34.2052C74.3751 33.4998 74.2607 32.8516 74.0319 32.2607C73.8222 31.6697 73.5077 31.1645 73.0883 30.7451C72.6689 30.3257 72.1637 30.0016 71.5727 29.7728C71.0008 29.5441 70.3526 29.4297 69.6282 29.4297H60.1058V50.8765ZM84.126 29.4297C83.5732 29.4297 83.0012 29.5631 82.4103 29.83C81.8383 30.0969 81.3141 30.4496 80.8375 30.8881C80.38 31.3265 79.9987 31.8413 79.6937 32.4322C79.4077 33.0232 79.2647 33.6333 79.2647 34.2624V50.8765H84.0116V41.3541H88.7013V50.8765C88.8538 50.8956 89.1493 50.9051 89.5878 50.9051H90.989C91.5037 50.9051 91.9898 50.8956 92.4474 50.8765H93.4768V34.2624C93.4768 33.6333 93.3243 33.0328 93.0193 32.4608C92.7143 31.8699 92.3234 31.3551 91.8469 30.9167C91.3893 30.4591 90.8651 30.0969 90.2741 29.83C89.6831 29.5631 89.1017 29.4297 88.5297 29.4297H84.126ZM84.0116 38.9235V31.7745H88.7013V38.9235H84.0116ZM105.373 41.3255H107.775V48.4745H102.999V31.8031H108.261C108.852 31.8031 109.319 32.0224 109.662 32.4608C110.005 32.8802 110.177 33.4808 110.177 34.2624H112.521C112.521 33.6523 112.388 33.0613 112.121 32.4894C111.854 31.8985 111.492 31.3837 111.034 30.9453C110.581 30.4903 110.048 30.1221 109.462 29.8586C108.871 29.5727 108.261 29.4297 107.632 29.4297H103.085C102.418 29.4297 101.789 29.5727 101.198 29.8586C100.607 30.1255 100.092 30.4877 99.6534 30.9453C99.2149 31.4028 98.8718 31.9271 98.6239 32.518C98.3761 33.0899 98.2522 33.6809 98.2522 34.291V46.0152C98.2522 46.6825 98.3761 47.3116 98.6239 47.9025C98.8718 48.4935 99.2149 49.0082 99.6534 49.4467C100.092 49.8852 100.597 50.2379 101.169 50.5048C101.76 50.7526 102.399 50.8765 103.085 50.8765H107.66C108.385 50.8765 109.042 50.743 109.633 50.4762C110.224 50.2093 110.729 49.8566 111.149 49.4181C111.587 48.9796 111.921 48.4649 112.15 47.8739C112.398 47.283 112.521 46.6634 112.521 46.0152V38.8949H105.373V41.3255ZM126.848 41.3541V38.9235H122.072V31.8031H129.222V29.4297H117.325V50.8765H129.222V48.4745H122.072V41.3541H126.848Z" fill="white" stroke="black" stroke-width="0.5"/>
<path d="M48.1274 49.5697C51.615 49.5697 54.4423 45.3288 54.4423 40.0973C54.4423 34.8659 51.615 30.625 48.1274 30.625C44.6398 30.625 41.8125 34.8659 41.8125 40.0973C41.8125 45.3288 44.6398 49.5697 48.1274 49.5697Z" fill="white"/>
<path d="M46.4004 36.6955C46.6965 36.6955 46.9366 36.162 46.9366 35.504C46.9366 34.8459 46.6965 34.3125 46.4004 34.3125C46.1043 34.3125 45.8643 34.8459 45.8643 35.504C45.8643 36.162 46.1043 36.6955 46.4004 36.6955Z" fill="black"/>
<path d="M49.8555 36.6955C50.1516 36.6955 50.3917 36.162 50.3917 35.504C50.3917 34.8459 50.1516 34.3125 49.8555 34.3125C49.5594 34.3125 49.3193 34.8459 49.3193 35.504C49.3193 36.162 49.5594 36.6955 49.8555 36.6955Z" fill="black"/>
<path d="M52.7741 38.125C52.7741 40.6913 50.7203 42.7718 48.1868 42.7718C45.6534 42.7718 43.5996 40.6913 43.5996 38.125" stroke="black"/>
<path d="M46.6283 26.3345V13.9485L59.6817 26.3776L59.699 26.3941H60.9262V4.82812H58.405V17.1602L45.3514 4.84433L45.3343 4.82812H44.1357V26.3941H46.6283V26.3345ZM75.1645 16.8717H75.2241V14.3505H70.4486V7.32072H77.5975V4.82812H65.5826V26.3941H70.4486V16.8717H75.1645ZM94.2691 4.8877V4.82812H79.8521V7.32072H84.6276V26.3941H89.4936V7.32072H94.2691V7.26115V4.8877Z" fill="#F5C32C" stroke="black" stroke-width="0.5"/>
<path d="M46.6283 25.1392V12.7532L59.6817 25.1823L59.699 25.1988H60.9262V3.63281H58.405V15.9648L45.3514 3.64902L45.3343 3.63281H44.1357V25.1988H46.6283V25.1392ZM75.1645 15.6764H75.2241V13.1552H70.4486V6.12541H77.5975V3.63281H65.5826V25.1988H70.4486V15.6764H75.1645ZM94.2691 3.69239V3.63281H79.8521V6.12541H84.6276V25.1988H89.4936V6.12541H94.2691V6.06583V3.69239Z" fill="#F5C32C" stroke="black" stroke-width="0.5"/>
<path d="M46.6283 23.9517V11.5657L59.6817 23.9948L59.699 24.0113H60.9262V2.44531H58.405V14.7773L45.3514 2.46152L45.3343 2.44531H44.1357V24.0113H46.6283V23.9517ZM75.1645 14.4889H75.2241V11.9677H70.4486V4.93791H77.5975V2.44531H65.5826V24.0113H70.4486V14.4889H75.1645ZM94.2691 2.50489V2.44531H79.8521V4.93791H84.6276V24.0113H89.4936V4.93791H94.2691V4.87833V2.50489Z" fill="#F5C32C" stroke="black" stroke-width="0.5"/>
<path d="M46.6283 22.7564V10.3704L59.6817 22.7995L59.699 22.816H60.9262V1.25H58.405V13.582L45.3514 1.2662L45.3343 1.25H44.1357V22.816H46.6283V22.7564ZM75.1645 13.2936H75.2241V10.7724H70.4486V3.7426H77.5975V1.25H65.5826V22.816H70.4486V13.2936H75.1645ZM94.2691 1.30957V1.25H79.8521V3.7426H84.6276V22.816H89.4936V3.7426H94.2691V3.68302V1.30957Z" fill="#F5C32C" stroke="black" stroke-width="0.5"/>
<path d="M46.6283 21.5689V9.18287L59.6817 21.612L59.699 21.6285H60.9262V0.0625H58.405V12.3945L45.3514 0.0787043L45.3343 0.0625H44.1357V21.6285H46.6283V21.5689ZM75.1645 12.1061H75.2241V9.58488H70.4486V2.5551H77.5975V0.0625H65.5826V21.6285H70.4486V12.1061H75.1645ZM94.2691 0.122074V0.0625H79.8521V2.5551H84.6276V21.6285H89.4936V2.5551H94.2691V2.49552V0.122074Z" fill="white" stroke="black" stroke-width="0.5"/>
</g>
<defs>
<clipPath id="clip0_7351_18170">
<rect width="119.387" height="56" fill="white" transform="translate(10)"/>
</clipPath>
</defs>
</svg>
