<svg width="56" height="56" viewBox="0 0 56 56" fill="none" xmlns="http://www.w3.org/2000/svg">
<g clip-path="url(#clip0_7352_19633)">
<path d="M16.2305 20.6519C16.2305 20.7022 16.2406 20.7519 16.26 20.7983C16.2794 20.8447 16.3078 20.8868 16.3435 20.9222C16.3791 20.9577 16.4214 20.9857 16.468 21.0049C16.5144 21.024 16.5643 21.0335 16.6146 21.0335H47.8539C47.9042 21.0335 47.954 21.024 48.0005 21.0049C48.0471 20.9857 48.0893 20.9577 48.125 20.9222C48.1606 20.8868 48.189 20.8447 48.2084 20.7983C48.2278 20.7519 48.238 20.7022 48.238 20.6519V8.61217C48.238 8.56185 48.2278 8.51216 48.2084 8.4657C48.189 8.41932 48.1606 8.3772 48.125 8.34179C48.0893 8.30638 48.0471 8.2783 48.0005 8.25921C47.954 8.24012 47.9042 8.23034 47.8539 8.2305H24.8451C24.7948 8.23034 24.745 8.24012 24.6985 8.25921C24.6519 8.2783 24.6096 8.30638 24.574 8.34179C24.5383 8.3772 24.51 8.41932 24.4905 8.4657C24.4712 8.51216 24.4611 8.56185 24.461 8.61217V12.4214C24.4611 12.4717 24.4712 12.5214 24.4905 12.5678C24.51 12.6142 24.5383 12.6563 24.574 12.6917C24.6096 12.7271 24.6519 12.7552 24.6985 12.7743C24.745 12.7934 24.7948 12.8032 24.8451 12.803H41.8365C42.3216 12.803 42.7868 12.9957 43.1298 13.3387C43.4728 13.6817 43.6655 14.1469 43.6655 14.632C43.6655 15.1171 43.4728 15.5824 43.1298 15.9253C42.7868 16.2683 42.3216 16.461 41.8365 16.461H22.632C22.1469 16.461 21.6816 16.2683 21.3387 15.9253C20.9957 15.5824 20.803 15.1171 20.803 14.632V6.40151C20.803 5.91643 20.9957 5.45121 21.3387 5.10821C21.6816 4.76521 22.1469 4.57251 22.632 4.57251H47.8539C47.9042 4.57267 47.954 4.56292 48.0005 4.54383C48.0471 4.52474 48.0893 4.49667 48.125 4.46123C48.1606 4.42579 48.189 4.38367 48.2084 4.33728C48.2278 4.29089 48.238 4.24113 48.238 4.19086V0.381653C48.2375 0.280159 48.1968 0.182995 48.1248 0.111457C48.0528 0.0399178 47.9554 0 47.8539 0H16.6146C16.5131 0 16.4157 0.0399178 16.3437 0.111457C16.2716 0.182995 16.2309 0.280159 16.2305 0.381653V20.6519Z" fill="#2F3134"/>
<path d="M47.8534 37.6147C47.955 37.615 48.0525 37.575 48.1246 37.5034C48.1968 37.4318 48.2376 37.3346 48.2381 37.233V33.4207C48.2376 33.3191 48.1968 33.2219 48.1246 33.1504C48.0525 33.0787 47.955 33.0388 47.8534 33.0391H8.3847C8.2831 33.0388 8.18552 33.0787 8.1134 33.1504C8.04127 33.2219 8.00049 33.3191 8 33.4207V37.2299C8 37.2805 8.00968 37.3306 8.02896 37.3773C8.04823 37.4241 8.07656 37.4665 8.11232 37.5023C8.14807 37.5381 8.19055 37.5664 8.23729 37.5857C8.28404 37.605 8.33414 37.6148 8.3847 37.6147H47.8534Z" fill="#2F3134"/>
<path d="M47.8534 29.3734C47.9036 29.3734 47.9535 29.364 48 29.3449C48.0465 29.3259 48.0889 29.2979 48.1246 29.2626C48.1604 29.2272 48.1888 29.1851 48.2082 29.1388C48.2276 29.0924 48.2381 29.0426 48.2381 28.9924V25.1826C48.2376 25.081 48.1968 24.9837 48.1246 24.9121C48.0525 24.8406 47.955 24.8006 47.8534 24.8009H14.4015C13.9164 24.8009 13.4512 24.6082 13.1082 24.2652C12.7652 23.9222 12.5725 23.457 12.5725 22.9719V0.494075C12.5728 0.392475 12.5328 0.294898 12.4613 0.22277C12.3897 0.150642 12.2925 0.109859 12.1909 0.109375H8.38165C8.28005 0.109859 8.1828 0.150642 8.11124 0.22277C8.03969 0.294898 8 0.392475 8 0.494075V28.9924C8 29.0893 8.03736 29.1825 8.10425 29.2527L8.11279 29.2618C8.14787 29.2969 8.18951 29.3247 8.23533 29.3436C8.28115 29.3625 8.33025 29.3722 8.37983 29.3722H47.8534V29.3734Z" fill="#2F3134"/>
<path d="M8.00002 55.5129C7.99948 55.5635 8.00892 55.6137 8.02783 55.6605C8.04673 55.7075 8.07473 55.7501 8.1102 55.7862C8.14567 55.8222 8.18792 55.8509 8.23452 55.8706C8.28111 55.8902 8.33113 55.9004 8.3817 55.9006H12.1909C12.2925 55.9002 12.3898 55.8594 12.4613 55.7873C12.5329 55.7151 12.5729 55.6176 12.5726 55.516C12.5726 55.1329 12.7247 54.7656 12.9956 54.4947C13.2664 54.2239 13.6338 54.0716 14.0169 54.0716H47.8534C47.955 54.072 48.0526 54.032 48.1247 53.9604C48.1968 53.8889 48.2376 53.7916 48.2381 53.69V49.8778C48.2376 49.7761 48.1968 49.6789 48.1247 49.6073C48.0526 49.5358 47.955 49.4958 47.8534 49.4961H14.4016C13.9165 49.4961 13.4513 49.3034 13.1083 48.9604C12.7653 48.6174 12.5726 48.1522 12.5726 47.6671C12.5726 47.1821 12.7653 46.7168 13.1083 46.3738C13.4513 46.0308 13.9165 45.8381 14.4016 45.8381H47.8534C47.955 45.8385 48.0526 45.7984 48.1247 45.7269C48.1968 45.6553 48.2376 45.5581 48.2381 45.4565V41.6472C48.2376 41.5456 48.1968 41.4484 48.1247 41.3768C48.0526 41.3053 47.955 41.2653 47.8534 41.2656H8.38475C8.28315 41.2653 8.18557 41.3053 8.11344 41.3768C8.04131 41.4484 8.00053 41.5456 8.00002 41.6472V55.5129Z" fill="#2F3134"/>
</g>
<defs>
<clipPath id="clip0_7352_19633">
<rect width="40.2254" height="56" fill="white" transform="translate(8)"/>
</clipPath>
</defs>
</svg>
