<svg width="56" height="56" viewBox="0 0 56 56" fill="none" xmlns="http://www.w3.org/2000/svg">
<g clip-path="url(#clip0_7374_16450)">
<path d="M14.4257 21.0591H14.5137V0.0078125H14.4257C13.0431 0.00781247 11.6741 0.280134 10.3967 0.809229C9.11938 1.33832 7.95876 2.11383 6.98112 3.09147C6.00348 4.06911 5.22797 5.22974 4.69888 6.50708C4.16978 7.78443 3.89746 9.15348 3.89746 10.5361C3.89746 11.9187 4.16978 13.2877 4.69888 14.5651C5.22797 15.8424 6.00348 17.003 6.98112 17.9807C7.95876 18.9583 9.11938 19.7338 10.3967 20.2629C11.6741 20.792 13.0431 21.0643 14.4257 21.0643V21.0591Z" fill="white"/>
<path d="M28.7603 0H17.1738V34.5236H28.7603V0Z" fill="#7F61A0"/>
<path d="M51.5073 0.0879631C51.5073 0.0580562 51.5073 0.0299078 51.5073 0H30.4561C30.4561 0.0299069 30.4561 0.0580552 30.4561 0.0879631C30.4561 2.88023 31.5653 5.55814 33.5397 7.53257C35.5141 9.507 38.192 10.6162 40.9843 10.6162C43.7766 10.6162 46.4545 9.507 48.4289 7.53257C50.4034 5.55814 51.5126 2.88023 51.5126 0.0879631H51.5073Z" fill="#7F61A0"/>
<path d="M14.4257 21.0591H14.5137V0.0078125H14.4257C13.0431 0.00781247 11.6741 0.280134 10.3967 0.809229C9.11938 1.33832 7.95876 2.11383 6.98112 3.09147C6.00348 4.06911 5.22797 5.22974 4.69888 6.50708C4.16978 7.78443 3.89746 9.15348 3.89746 10.5361C3.89746 11.9187 4.16978 13.2877 4.69888 14.5651C5.22797 15.8424 6.00348 17.003 6.98112 17.9807C7.95876 18.9583 9.11938 19.7338 10.3967 20.2629C11.6741 20.792 13.0431 21.0643 14.4257 21.0643V21.0591Z" fill="#604180"/>
<path d="M28.7603 36.0078H17.1738V39.6706H28.7603V36.0078Z" fill="#B7ACD4"/>
<path d="M45.5736 39.6179C48.8509 39.6179 51.5076 36.9612 51.5076 33.684C51.5076 30.4067 48.8509 27.75 45.5736 27.75C42.2964 27.75 39.6396 30.4067 39.6396 33.684C39.6396 36.9612 42.2964 39.6179 45.5736 39.6179Z" fill="#FFCA70"/>
<path d="M4.19231 48.7031V51.0816C3.32499 50.9427 2.09351 51.291 2.09351 52.6755V55.8422H0V48.8386H2.09351V50.0841C2.37323 49.15 3.31092 48.7031 4.19231 48.7031Z" fill="#604180"/>
<path d="M8.51277 54.1584C8.76062 54.1662 9.00746 54.1234 9.23824 54.0327C9.46902 53.9419 9.67889 53.8051 9.85508 53.6306L11.5334 54.5965C10.8491 55.5482 9.81286 56.0373 8.48462 56.0373C6.09203 56.0373 4.61426 54.4293 4.61426 52.3429C4.61426 50.2564 6.12546 48.6484 8.33508 48.6484C10.3776 48.6484 11.887 50.2318 11.887 52.3429C11.888 52.6248 11.8597 52.906 11.8026 53.182H6.83444C7.10009 53.9069 7.74045 54.1584 8.51277 54.1584ZM9.79878 51.6128C9.57536 50.8018 8.94554 50.508 8.31573 50.508C7.51879 50.508 6.98749 50.9003 6.79046 51.6128H9.79878Z" fill="#604180"/>
<path d="M18.2191 53.738C18.2191 55.3459 16.8205 56.025 15.3093 56.025C13.9019 56.025 12.8463 55.4972 12.3027 54.3607L14.1218 53.3263C14.1953 53.5794 14.3536 53.7995 14.5701 53.9497C14.7867 54.0999 15.0483 54.1711 15.3111 54.1514C15.8142 54.1514 16.0658 53.9983 16.0658 53.7186C16.0658 52.9498 12.6247 53.3544 12.6247 50.9355C12.6247 49.4102 13.9107 48.6484 15.3656 48.6484C16.4986 48.6484 17.5049 49.1516 18.0924 50.1456L16.3015 51.1114C16.1062 50.7472 15.8265 50.4957 15.3638 50.4957C14.9997 50.4957 14.7762 50.6346 14.7762 50.888C14.778 51.6814 18.2191 51.1501 18.2191 53.738Z" fill="#604180"/>
<path d="M18.8487 52.3363C18.8463 51.6026 19.0616 50.8847 19.4674 50.2735C19.8733 49.6624 20.4513 49.1853 21.1284 48.9029C21.8055 48.6205 22.5512 48.5453 23.2711 48.6869C23.9909 48.8286 24.6525 49.1806 25.1722 49.6985C25.6918 50.2164 26.0461 50.8769 26.1901 51.5962C26.3341 52.3156 26.2614 53.0616 25.9812 53.7396C25.7011 54.4176 25.226 54.9973 24.6161 55.4051C24.0063 55.813 23.2891 56.0307 22.5555 56.0307C22.0683 56.0361 21.5848 55.9443 21.1335 55.7607C20.6821 55.5771 20.2719 55.3054 19.9268 54.9614C19.5817 54.6174 19.3086 54.2081 19.1235 53.7574C18.9384 53.3066 18.845 52.8235 18.8487 52.3363ZM24.1635 52.3363C24.1635 51.344 23.4598 50.6861 22.5555 50.6861C21.6512 50.6861 20.9475 51.344 20.9475 52.3363C20.9475 53.3285 21.6512 53.9864 22.5555 53.9864C23.4598 53.9864 24.1635 53.3302 24.1635 52.3363Z" fill="#604180"/>
<path d="M27.4443 45.625H29.5554V55.8287H27.4443V45.625Z" fill="#604180"/>
<path d="M37.7006 48.8359V55.829H35.6036V55.1693C35.2253 55.6865 34.5269 56.0225 33.6033 56.0225C32.1959 56.0225 30.9873 55.0162 30.9873 53.1268V48.8359H33.0861V52.8224C33.0861 53.6897 33.6315 54.0961 34.3035 54.0961C35.0723 54.0961 35.6036 53.6493 35.6036 52.6553V48.8359H37.7006Z" fill="#604180"/>
<path d="M41.8966 50.8587V53.334C41.8966 53.9357 42.4138 53.992 43.3374 53.9357V55.8374C40.5965 56.1171 39.7996 55.2921 39.7996 53.334V50.8587H38.6807V48.8409H39.7996V47.5126L41.8966 46.8828V48.8409H43.3374V50.8552L41.8966 50.8587Z" fill="#604180"/>
<path d="M44.3154 46.9706C44.3154 46.7214 44.3893 46.4779 44.5277 46.2708C44.6661 46.0636 44.8629 45.9022 45.093 45.8068C45.3232 45.7115 45.5765 45.6865 45.8208 45.7351C46.0651 45.7837 46.2896 45.9037 46.4657 46.0799C46.6419 46.256 46.7619 46.4805 46.8105 46.7248C46.8591 46.9692 46.8341 47.2224 46.7388 47.4526C46.6435 47.6828 46.482 47.8795 46.2749 48.0179C46.0677 48.1563 45.8242 48.2302 45.5751 48.2302C45.242 48.227 44.9234 48.0932 44.6879 47.8577C44.4524 47.6222 44.3186 47.3036 44.3154 46.9706ZM44.5265 48.8407H46.6201V55.8337H44.5265V48.8407Z" fill="#604180"/>
<path d="M47.8126 52.3363C47.8102 51.6026 48.0255 50.8847 48.4313 50.2735C48.8371 49.6624 49.4152 49.1853 50.0923 48.9029C50.7694 48.6205 51.5151 48.5453 52.2349 48.6869C52.9548 48.8286 53.6164 49.1806 54.136 49.6985C54.6557 50.2164 55.0099 50.8769 55.154 51.5962C55.298 52.3156 55.2253 53.0616 54.9451 53.7396C54.6649 54.4176 54.1898 54.9973 53.58 55.4051C52.9702 55.813 52.253 56.0307 51.5194 56.0307C51.0321 56.0361 50.5487 55.9443 50.0973 55.7607C49.646 55.5771 49.2358 55.3054 48.8906 54.9614C48.5455 54.6174 48.2724 54.2081 48.0873 53.7574C47.9022 53.3066 47.8088 52.8235 47.8126 52.3363ZM53.1273 52.3363C53.1273 51.344 52.4236 50.6861 51.5194 50.6861C50.6151 50.6861 49.9114 51.344 49.9114 52.3363C49.9114 53.3285 50.6151 53.9864 51.5194 53.9864C52.4236 53.9864 53.1291 53.3302 53.1291 52.3363H53.1273Z" fill="#604180"/>
</g>
<defs>
<clipPath id="clip0_7374_16450">
<rect width="55.2342" height="56" fill="white"/>
</clipPath>
</defs>
</svg>
