<svg width="57" height="56" viewBox="0 0 57 56" fill="none" xmlns="http://www.w3.org/2000/svg">
<path d="M28.0293 56C43.5095 56 56.0586 43.464 56.0586 28C56.0586 12.536 43.5095 0 28.0293 0C12.5492 0 0 12.536 0 28C0 43.464 12.5492 56 28.0293 56Z" fill="url(#paint0_linear_7352_19556)"/>
<path d="M40.5393 23.032C39.9366 21.4587 39.0253 20.0215 37.8589 18.8048C36.6925 17.5882 35.2945 16.6167 33.747 15.9473C32.1995 15.2779 30.5337 14.9242 28.8474 14.9069C27.1611 14.8896 25.4884 15.2091 23.9275 15.8466C22.3665 16.484 20.9488 17.4267 19.7576 18.6191C18.5664 19.8115 17.6258 21.2297 16.9909 22.7904C16.356 24.351 16.0397 26.0226 16.0605 27.7071C16.0814 29.3916 16.439 31.0549 17.1123 32.5994M22.1791 38.2592C22.6779 38.5892 23.2009 38.881 23.7437 39.1323C26.8334 40.4416 30.3171 40.4716 33.4289 39.2156C36.5406 37.9596 39.0257 35.5204 40.3376 32.4345C41.2972 30.1694 41.9084 27.0494 41.3033 25.2972" stroke="#131415" stroke-width="8.88"/>
<path fill-rule="evenodd" clip-rule="evenodd" d="M12.3701 36.3484L22.5648 32.4348C22.7997 32.3703 23.0458 32.3578 23.286 32.3981C23.4973 32.4307 23.7029 32.4923 23.8972 32.5813C24.3245 32.5254 24.7586 32.5545 25.1746 32.6668C25.3383 32.7027 25.4911 32.7767 25.6207 32.8828C25.7503 32.9889 25.8529 33.1241 25.9203 33.2773C25.9869 33.4754 25.9869 33.6898 25.9203 33.8879C25.7564 33.7472 25.5582 33.6524 25.3457 33.6131C25.0724 33.5882 24.7978 33.6457 24.5573 33.778C24.3337 33.8689 24.1271 33.9969 23.9461 34.1565L19.7044 37.8504L18.9099 42.0449C18.6303 43.0623 18.1526 44.0146 17.5041 44.8473C16.8267 45.6686 15.9636 46.3173 14.986 46.74C14.2243 47.1364 13.3952 47.387 12.5413 47.4788C13.1271 47.2776 13.6257 46.8808 13.9531 46.3554C14.3864 45.8284 14.6731 45.1966 14.7843 44.5237C15.0035 42.1349 15.0912 39.7359 15.0471 37.3375L12.3701 36.3484Z" fill="#131415"/>
<path fill-rule="evenodd" clip-rule="evenodd" d="M11.8379 34.9919L50.1291 19.7891L13.3536 26.8043L11.8379 34.9919Z" fill="#131415"/>
<defs>
<linearGradient id="paint0_linear_7352_19556" x1="2.60833" y1="54.6326" x2="51.3223" y2="-0.29801" gradientUnits="userSpaceOnUse">
<stop stop-color="#1764FF"/>
<stop offset="0.48" stop-color="#16CDE5"/>
<stop offset="1" stop-color="#ABE99E"/>
</linearGradient>
</defs>
</svg>
