<svg width="56" height="56" viewBox="0 0 56 56" fill="none" xmlns="http://www.w3.org/2000/svg">
<g clip-path="url(#clip0_7352_19198)">
<path d="M52.2471 20.4741C52.2471 19.5176 53.0224 18.7422 53.979 18.7422C54.9356 18.7422 55.711 19.5176 55.711 20.4741V36.0618C55.711 37.0184 54.9356 37.7937 53.979 37.7937C53.0224 37.7937 52.2471 37.0184 52.2471 36.0618V20.4741Z" fill="url(#paint0_linear_7352_19198)"/>
<path d="M47.0518 13.5445C47.0518 12.5879 47.8271 11.8125 48.7837 11.8125C49.7403 11.8125 50.5157 12.5879 50.5157 13.5445V42.9878C50.5157 43.9444 49.7403 44.7197 48.7837 44.7197C47.8271 44.7197 47.0518 43.9444 47.0518 42.9878V13.5445Z" fill="url(#paint1_linear_7352_19198)"/>
<path d="M43.5874 6.90625C42.6308 6.90625 41.8555 7.68168 41.8555 8.63821V16.2295C43.42 18.0043 44.592 20.1046 45.3194 22.4197V8.63821C45.3194 7.68168 44.544 6.90625 43.5874 6.90625Z" fill="url(#paint2_linear_7352_19198)"/>
<path d="M45.3194 34.1797C44.6 36.5323 43.4379 38.6657 41.8555 40.4589V47.8977C41.8555 48.8543 42.6308 49.6296 43.5874 49.6296C44.544 49.6296 45.3194 48.8543 45.3194 47.8977V34.1797Z" fill="url(#paint3_linear_7352_19198)"/>
<path d="M38.3921 4.3125C37.4355 4.3125 36.6602 5.08793 36.6602 6.04446V12.2862C37.9294 12.9065 39.0872 13.6642 40.1241 14.539V6.04446C40.1241 5.08793 39.3487 4.3125 38.3921 4.3125Z" fill="url(#paint4_linear_7352_19198)"/>
<path d="M40.1241 42.1406C39.0944 42.9982 37.9386 43.7395 36.6602 44.3437V50.4936C36.6602 51.4502 37.4355 52.2255 38.3921 52.2255C39.3487 52.2255 40.1241 51.4502 40.1241 50.4936V42.1406Z" fill="url(#paint5_linear_7352_19198)"/>
<path d="M33.1958 2.86719C32.2392 2.86719 31.4639 3.64261 31.4639 4.59915V10.6523C32.6835 10.8516 33.8395 11.1541 34.9278 11.5495V4.59915C34.9278 3.64261 34.1524 2.86719 33.1958 2.86719Z" fill="url(#paint6_linear_7352_19198)"/>
<path d="M34.9278 45.0547C33.8465 45.4311 32.6912 45.718 31.4639 45.9065V51.941C31.4639 52.8976 32.2392 53.6729 33.1958 53.6729C34.1524 53.6729 34.9278 52.8976 34.9278 51.941V45.0547Z" fill="url(#paint7_linear_7352_19198)"/>
<path d="M27.9995 2.28906C27.043 2.28906 26.2676 3.06449 26.2676 4.02102V10.4329C26.8102 10.3923 27.3637 10.3715 27.9277 10.3715C28.5416 10.3715 29.1429 10.3955 29.7315 10.4423V4.02102C29.7315 3.06449 28.9562 2.28906 27.9995 2.28906Z" fill="url(#paint8_linear_7352_19198)"/>
<path d="M29.7315 46.1016C29.1449 46.1449 28.5435 46.1671 27.9277 46.1671C27.3617 46.1671 26.8083 46.1483 26.2676 46.1117V52.5176C26.2676 53.4742 27.043 54.2496 27.9995 54.2496C28.9562 54.2496 29.7315 53.4742 29.7315 52.5176V46.1016Z" fill="url(#paint9_linear_7352_19198)"/>
<path d="M22.8042 2.86719C23.7608 2.86719 24.5362 3.64261 24.5362 4.59915V10.6359C23.3175 10.8308 22.1611 11.1309 21.0723 11.5255V4.59915C21.0723 3.64261 21.8477 2.86719 22.8042 2.86719Z" fill="url(#paint10_linear_7352_19198)"/>
<path d="M21.0723 45.0938V51.9364C21.0723 52.893 21.8477 53.6684 22.8042 53.6684C23.7608 53.6684 24.5362 52.893 24.5362 51.9364V45.9228C23.3077 45.7424 22.1526 45.4627 21.0723 45.0938Z" fill="url(#paint11_linear_7352_19198)"/>
<path d="M17.6079 4.3125C18.5645 4.3125 19.3399 5.08793 19.3399 6.04446V12.2613C18.0717 12.8813 16.9137 13.6403 15.876 14.518V6.04446C15.876 5.08793 16.6514 4.3125 17.6079 4.3125Z" fill="url(#paint12_linear_7352_19198)"/>
<path d="M15.876 42.2109V50.4917C15.876 51.4483 16.6514 52.2237 17.6079 52.2237C18.5645 52.2237 19.3399 51.4483 19.3399 50.4917V44.3964C18.0599 43.7991 16.9043 43.0639 15.876 42.2109Z" fill="url(#paint13_linear_7352_19198)"/>
<path d="M12.4126 6.90625C13.3692 6.90625 14.1446 7.68168 14.1446 8.63821V16.2128C12.5818 17.9901 11.4088 20.0949 10.6807 22.4157V8.63821C10.6807 7.68168 11.4561 6.90625 12.4126 6.90625Z" fill="url(#paint14_linear_7352_19198)"/>
<path d="M10.6807 34.2344V47.8969C10.6807 48.8536 11.4561 49.6289 12.4126 49.6289C13.3692 49.6289 14.1446 48.8536 14.1446 47.8969V40.535C12.5589 38.7401 11.3987 36.5988 10.6807 34.2344Z" fill="url(#paint15_linear_7352_19198)"/>
<path d="M8.94829 13.5445C8.94829 12.5879 8.17287 11.8125 7.21633 11.8125C6.2598 11.8125 5.48438 12.5879 5.48438 13.5445V42.9878C5.48438 43.9444 6.2598 44.7197 7.21633 44.7197C8.17287 44.7197 8.94829 43.9444 8.94829 42.9878V13.5445Z" fill="url(#paint16_linear_7352_19198)"/>
<path d="M3.75298 20.4741C3.75298 19.5176 2.97755 18.7422 2.02102 18.7422C1.06449 18.7422 0.289062 19.5176 0.289062 20.4741V36.0618C0.289062 37.0184 1.06449 37.7937 2.02102 37.7937C2.97755 37.7937 3.75298 37.0184 3.75298 36.0618V20.4741Z" fill="url(#paint17_linear_7352_19198)"/>
<path d="M41.8268 16.2285V16.2394L41.834 16.2476C43.3959 18.0192 44.5659 20.1159 45.2921 22.4273L45.3484 22.4187V8.63719C45.3484 7.66473 44.5601 6.87637 43.5876 6.87637C42.6151 6.87637 41.8268 7.66473 41.8268 8.63719V16.2285ZM45.3484 34.1769L45.2918 34.1686C44.5737 36.5174 43.4135 38.6474 41.834 40.4371L41.8268 40.4455V40.4562V47.8949C41.8268 48.8674 42.6151 49.6558 43.5876 49.6558C44.5601 49.6558 45.3484 48.8674 45.3484 47.8949V34.1769ZM36.6309 12.281V12.299L36.6471 12.3069C37.9143 12.9262 39.0701 13.6826 40.1052 14.5559L40.1526 14.5959V14.5338V6.03926C40.1526 5.06679 39.3642 4.27843 38.3917 4.27843C37.4192 4.27843 36.6309 5.06679 36.6309 6.03926V12.281ZM40.1526 42.1399V42.0781L40.1052 42.1177C39.0776 42.9739 37.9238 43.7137 36.6474 44.317L36.6309 44.3248V44.343V50.4929C36.6309 51.4654 37.4192 52.2537 38.3917 52.2537C39.3642 52.2537 40.1526 51.4654 40.1526 50.4929V42.1399ZM31.435 10.6492V10.6737L31.4593 10.6776C32.6771 10.8766 33.8315 11.1787 34.918 11.5734L34.9567 11.5875V11.5463V4.59596C34.9567 3.62348 34.1683 2.83513 33.1958 2.83513C32.2234 2.83513 31.435 3.62348 31.435 4.59596V10.6492ZM34.9567 45.0499V45.0095L34.9183 45.0228C33.8387 45.3983 32.6852 45.6849 31.4596 45.8732L31.435 45.8769V45.9017V51.9362C31.435 52.9087 32.2234 53.697 33.1958 53.697C34.1683 53.697 34.9567 52.9087 34.9567 51.9362V45.0499ZM26.2391 10.4305V10.4616L26.2702 10.4593C26.8121 10.4187 27.3649 10.398 27.9281 10.398C28.5413 10.398 29.1419 10.4219 29.7296 10.4687L29.7608 10.4712V10.4399V4.01864C29.7608 3.04616 28.9725 2.25781 28 2.25781C27.0275 2.25781 26.2391 3.04616 26.2391 4.01864V10.4305ZM29.7608 46.0974V46.0663L29.7299 46.0686C29.1439 46.1119 28.5433 46.1341 27.9281 46.1341C27.3628 46.1341 26.81 46.1153 26.27 46.0787L26.2391 46.0767V46.1075V52.5135C26.2391 53.486 27.0275 54.2743 28 54.2743C28.9725 54.2743 29.7608 53.486 29.7608 52.5135V46.0974ZM24.5406 10.6612L24.5649 10.6573V10.6327V4.59596C24.5649 3.62348 23.7766 2.83513 22.8041 2.83513C21.8316 2.83513 21.0433 3.62348 21.0433 4.59596V11.5223V11.5634L21.082 11.5494C22.1691 11.1554 23.3237 10.8559 24.5406 10.6612ZM21.0815 45.0661L21.0433 45.0531V45.0935V51.9362C21.0433 52.9087 21.8316 53.697 22.8041 53.697C23.7766 53.697 24.5649 52.9087 24.5649 51.9362V45.9225V45.8977L24.5402 45.8942C23.3134 45.7138 22.1601 45.4344 21.0815 45.0661ZM19.3528 12.2821L19.369 12.2742V12.2561V6.03926C19.369 5.06679 18.5807 4.27843 17.6082 4.27843C16.6358 4.27843 15.8474 5.06679 15.8474 6.03926V14.5127V14.575L15.8949 14.5348C16.9308 13.6587 18.0868 12.901 19.3528 12.2821ZM15.8947 42.1899L15.8474 42.1506V42.2121V50.4929C15.8474 51.4654 16.6358 52.2537 17.6082 52.2537C18.5807 52.2537 19.369 51.4654 19.369 50.4929V44.3975V44.3791L19.3524 44.3713C18.0746 43.7752 16.9211 43.0411 15.8947 42.1899ZM14.166 16.2308L14.1732 16.2227V16.2118V8.63719C14.1732 7.66473 13.3848 6.87637 12.4123 6.87637C11.4399 6.87637 10.6515 7.66473 10.6515 8.63719V22.4147L10.7079 22.4234C11.4349 20.1062 12.606 18.005 14.166 16.2308ZM10.708 34.224L10.6515 34.2324V47.8949C10.6515 48.8674 11.4399 49.6558 12.4123 49.6558C13.3848 49.6558 14.1732 48.8674 14.1732 47.8949V40.5329V40.5223L14.1659 40.5139C12.5832 38.7225 11.425 36.5847 10.708 34.224ZM53.9794 18.7114C53.0069 18.7114 52.2185 19.4998 52.2185 20.4722V36.0599C52.2185 37.0324 53.0069 37.8207 53.9794 37.8207C54.9518 37.8207 55.7402 37.0324 55.7402 36.0599V20.4722C55.7402 19.4998 54.9518 18.7114 53.9794 18.7114ZM48.7835 11.7836C47.811 11.7836 47.0227 12.5719 47.0227 13.5444V42.9877C47.0227 43.9602 47.811 44.7485 48.7835 44.7485C49.756 44.7485 50.5443 43.9602 50.5443 42.9877V13.5444C50.5443 12.5719 49.756 11.7836 48.7835 11.7836ZM8.97729 13.5444C8.97729 12.5719 8.18893 11.7836 7.21647 11.7836C6.244 11.7836 5.45564 12.5719 5.45564 13.5444V42.9877C5.45564 43.9602 6.244 44.7485 7.21647 44.7485C8.18893 44.7485 8.97729 43.9602 8.97729 42.9877V13.5444ZM3.78142 20.4722C3.78142 19.4998 2.99306 18.7114 2.02059 18.7114C1.04811 18.7114 0.259766 19.4998 0.259766 20.4722V36.0599C0.259766 37.0324 1.04811 37.8207 2.02059 37.8207C2.99306 37.8207 3.78142 37.0324 3.78142 36.0599V20.4722Z" stroke="url(#paint18_linear_7352_19198)" stroke-opacity="0.23" stroke-width="0.2"/>
</g>
<defs>
<linearGradient id="paint0_linear_7352_19198" x1="2.02027" y1="18.7422" x2="2.02027" y2="37.7937" gradientUnits="userSpaceOnUse">
<stop stop-color="#6969FF"/>
<stop offset="1" stop-color="#4040E0"/>
</linearGradient>
<linearGradient id="paint1_linear_7352_19198" x1="2.02083" y1="18.7403" x2="2.02083" y2="37.7919" gradientUnits="userSpaceOnUse">
<stop stop-color="#6969FF"/>
<stop offset="1" stop-color="#4040E0"/>
</linearGradient>
<linearGradient id="paint2_linear_7352_19198" x1="2.02042" y1="18.7413" x2="2.02042" y2="37.7928" gradientUnits="userSpaceOnUse">
<stop stop-color="#6969FF"/>
<stop offset="1" stop-color="#4040E0"/>
</linearGradient>
<linearGradient id="paint3_linear_7352_19198" x1="2.02042" y1="18.743" x2="2.02042" y2="37.7946" gradientUnits="userSpaceOnUse">
<stop stop-color="#6969FF"/>
<stop offset="1" stop-color="#4040E0"/>
</linearGradient>
<linearGradient id="paint4_linear_7352_19198" x1="2.02098" y1="18.7455" x2="2.02098" y2="37.797" gradientUnits="userSpaceOnUse">
<stop stop-color="#6969FF"/>
<stop offset="1" stop-color="#4040E0"/>
</linearGradient>
<linearGradient id="paint5_linear_7352_19198" x1="2.02098" y1="18.741" x2="2.02098" y2="37.7925" gradientUnits="userSpaceOnUse">
<stop stop-color="#6969FF"/>
<stop offset="1" stop-color="#4040E0"/>
</linearGradient>
<linearGradient id="paint6_linear_7352_19198" x1="2.02057" y1="18.7435" x2="2.02057" y2="37.795" gradientUnits="userSpaceOnUse">
<stop stop-color="#6969FF"/>
<stop offset="1" stop-color="#4040E0"/>
</linearGradient>
<linearGradient id="paint7_linear_7352_19198" x1="2.02057" y1="18.7451" x2="2.02057" y2="37.7966" gradientUnits="userSpaceOnUse">
<stop stop-color="#6969FF"/>
<stop offset="1" stop-color="#4040E0"/>
</linearGradient>
<linearGradient id="paint8_linear_7352_19198" x1="2.02016" y1="18.7427" x2="2.02016" y2="37.7942" gradientUnits="userSpaceOnUse">
<stop stop-color="#6969FF"/>
<stop offset="1" stop-color="#4040E0"/>
</linearGradient>
<linearGradient id="paint9_linear_7352_19198" x1="2.02016" y1="18.7444" x2="2.02016" y2="37.796" gradientUnits="userSpaceOnUse">
<stop stop-color="#6969FF"/>
<stop offset="1" stop-color="#4040E0"/>
</linearGradient>
<linearGradient id="paint10_linear_7352_19198" x1="2.02072" y1="18.7435" x2="2.02072" y2="37.795" gradientUnits="userSpaceOnUse">
<stop stop-color="#6969FF"/>
<stop offset="1" stop-color="#4040E0"/>
</linearGradient>
<linearGradient id="paint11_linear_7352_19198" x1="2.02072" y1="18.7405" x2="2.02072" y2="37.7921" gradientUnits="userSpaceOnUse">
<stop stop-color="#6969FF"/>
<stop offset="1" stop-color="#4040E0"/>
</linearGradient>
<linearGradient id="paint12_linear_7352_19198" x1="2.02031" y1="18.7455" x2="2.02031" y2="37.797" gradientUnits="userSpaceOnUse">
<stop stop-color="#6969FF"/>
<stop offset="1" stop-color="#4040E0"/>
</linearGradient>
<linearGradient id="paint13_linear_7352_19198" x1="2.02031" y1="18.7391" x2="2.02031" y2="37.7907" gradientUnits="userSpaceOnUse">
<stop stop-color="#6969FF"/>
<stop offset="1" stop-color="#4040E0"/>
</linearGradient>
<linearGradient id="paint14_linear_7352_19198" x1="2.02087" y1="18.7413" x2="2.02087" y2="37.7928" gradientUnits="userSpaceOnUse">
<stop stop-color="#6969FF"/>
<stop offset="1" stop-color="#4040E0"/>
</linearGradient>
<linearGradient id="paint15_linear_7352_19198" x1="2.02087" y1="18.7423" x2="2.02087" y2="37.7938" gradientUnits="userSpaceOnUse">
<stop stop-color="#6969FF"/>
<stop offset="1" stop-color="#4040E0"/>
</linearGradient>
<linearGradient id="paint16_linear_7352_19198" x1="2.02046" y1="18.7403" x2="2.02046" y2="37.7919" gradientUnits="userSpaceOnUse">
<stop stop-color="#6969FF"/>
<stop offset="1" stop-color="#4040E0"/>
</linearGradient>
<linearGradient id="paint17_linear_7352_19198" x1="2.02102" y1="18.7422" x2="2.02102" y2="37.7937" gradientUnits="userSpaceOnUse">
<stop stop-color="#6969FF"/>
<stop offset="1" stop-color="#4040E0"/>
</linearGradient>
<linearGradient id="paint18_linear_7352_19198" x1="2.02059" y1="18.7403" x2="2.02059" y2="37.7918" gradientUnits="userSpaceOnUse">
<stop stop-color="#6868FE"/>
<stop offset="1" stop-color="#9A9AFF"/>
</linearGradient>
<clipPath id="clip0_7352_19198">
<rect width="56" height="52.5361" fill="white" transform="translate(0 2)"/>
</clipPath>
</defs>
</svg>
