<svg width="140" height="56" viewBox="0 0 140 56" fill="none" xmlns="http://www.w3.org/2000/svg">
<path d="M0 12.8125C1.51571 13.0537 3.03317 13.2817 4.55239 13.4967V24.7683C6.18199 24.8173 7.81251 24.8644 9.44386 24.9099C9.44386 21.3204 9.44386 17.7301 9.44386 14.1389C10.9631 14.3276 12.4849 14.5024 14.0094 14.6631C14.0094 23.1475 14.0094 31.6344 14.0094 40.124C12.4867 40.2655 10.9648 40.4211 9.44386 40.5906V28.6977C7.81073 28.7081 6.18025 28.7204 4.55239 28.7344V41.2039C3.03317 41.4066 1.51571 41.626 0 41.8619V12.8125Z" fill="#256AFE"/>
<path d="M23.2403 39.7719C21.0193 39.9135 19.3292 39.5281 18.1649 38.5503C17.0005 37.5726 16.417 36.0234 16.417 33.9971C16.417 27.6413 16.417 21.2855 16.417 14.9297C17.9415 15.0817 19.4677 15.2215 20.9957 15.3491C20.9957 21.6018 20.9957 27.8545 20.9957 34.1072C20.9957 34.939 21.1902 35.5306 21.5792 35.8818C21.9944 36.2313 22.5771 36.3886 23.327 36.3537C24.0788 36.3222 24.6413 36.1177 25.0355 35.7429C25.4298 35.3681 25.661 34.7756 25.661 33.9683C25.661 27.8799 25.661 21.7914 25.661 15.703C27.1329 15.8052 28.6075 15.8917 30.0794 15.9651C30.0794 21.8421 30.0794 27.72 30.0794 33.5987C30.0794 35.4703 29.4959 36.9225 28.3262 37.992C27.1566 39.0615 25.4639 39.6329 23.2403 39.7719Z" fill="#256AFE"/>
<path d="M32.514 16.0938C34.8481 16.1951 37.1838 16.2694 39.5213 16.3166C41.8028 16.3637 43.5165 16.8408 44.6572 17.7845C45.798 18.7282 46.3683 20.0991 46.3683 21.913C46.3683 25.693 46.3683 29.4721 46.3683 33.2502C46.3683 35.0642 45.7971 36.4404 44.6546 37.3788C43.5139 38.3199 41.8028 38.797 39.5213 38.8311C37.1838 38.866 34.8463 38.9228 32.5088 39.0014C32.5123 31.3646 32.514 23.7287 32.514 16.0938ZM39.4267 35.6147C40.1784 35.6147 40.7488 35.4399 41.1378 35.0904C41.5557 34.7444 41.7634 34.1887 41.766 33.418C41.766 29.528 41.766 25.6371 41.766 21.7453C41.766 20.9747 41.5557 20.4163 41.1404 20.0703C40.7251 19.7243 40.1784 19.546 39.4293 19.546L37.0901 19.5041V35.6435L39.4267 35.6147Z" fill="#256AFE"/>
<path d="M48.6256 16.3532C50.9614 16.327 53.298 16.2729 55.6356 16.1907C57.917 16.1068 59.6255 16.5 60.7662 17.4149C61.907 18.3297 62.4747 19.7373 62.4747 21.6247C62.4747 25.5532 62.4747 29.4851 62.4747 33.4206C62.4747 35.3114 61.9052 36.7226 60.7662 37.6541C59.6281 38.5846 57.917 38.9961 55.6356 38.9332C53.2998 38.8703 50.9623 38.8293 48.623 38.81L48.6256 16.3532ZM55.5594 35.6697C56.3111 35.6837 56.8815 35.5203 57.2705 35.1795C57.6875 34.83 57.896 34.2673 57.896 33.4914C57.896 29.5227 57.896 25.5549 57.896 21.588C57.896 20.8051 57.6875 20.245 57.2705 19.9077C56.8815 19.5696 56.3111 19.415 55.562 19.4333L53.2254 19.4883V35.6382C54.0034 35.6488 54.7813 35.6697 55.5594 35.6697Z" fill="#256AFE"/>
<path d="M64.7402 15.7262C66.2682 15.6231 67.7955 15.5086 69.3216 15.3828C69.3216 22.2908 69.3216 29.198 69.3216 36.1043C71.8327 36.2196 74.3413 36.3586 76.8468 36.5211V40.1647C72.8172 39.7846 68.7831 39.4989 64.7402 39.2839C64.7421 31.4305 64.7421 23.5779 64.7402 15.7262Z" fill="#256AFE"/>
<path d="M78.21 14.5032C82.3631 14.0314 86.508 13.4678 90.6453 12.8125V16.962C88.0169 17.2591 85.3937 17.5317 82.7755 17.7799V24.8732L89.0311 24.6896V28.7685C86.9495 28.7405 84.8641 28.7204 82.7755 28.7081V36.9522C85.4038 37.1706 88.0271 37.424 90.6453 37.7124V41.8619C86.508 41.2171 82.3656 40.7033 78.2125 40.2891C78.2125 31.6929 78.2119 23.0976 78.21 14.5032Z" fill="#256AFE"/>
<path d="M120.472 12.3359H101.547C100.013 12.3359 98.5425 12.9435 97.4579 14.025C96.3741 15.1065 95.7646 16.5734 95.7646 18.1028V36.9763C95.7646 38.5058 96.3741 39.9726 97.4579 41.0541C98.5425 42.1356 100.013 42.7432 101.547 42.7432H120.472C122.005 42.7432 123.476 42.1356 124.56 41.0541C125.645 39.9726 126.254 38.5058 126.254 36.9763V18.1028C126.254 16.5734 125.645 15.1065 124.56 14.025C123.476 12.9435 122.005 12.3359 120.472 12.3359Z" fill="#256AFE"/>
<path d="M136.747 17.7739C136.482 17.8308 136.229 17.9375 136.004 18.0885L131.496 20.8251C130.79 21.2578 130.209 21.8679 129.814 22.5945C129.407 23.3366 129.195 24.1686 129.196 25.014V30.0783C129.196 30.9257 129.409 31.7596 129.816 32.5031C130.214 33.2316 130.796 33.8428 131.507 34.2751L136.048 37.0118C136.342 37.1929 136.671 37.3117 137.013 37.3604C137.353 37.4078 137.7 37.3836 138.03 37.2896C138.364 37.1934 138.675 37.0312 138.945 36.8125C139.218 36.5886 139.445 36.3134 139.612 36.0026C139.841 35.5767 139.96 35.1013 139.959 34.6185V20.4372C139.959 20.0263 139.869 19.6203 139.696 19.2471C139.526 18.8802 139.276 18.5553 138.966 18.2956C138.661 18.0414 138.301 17.8619 137.914 17.7713C137.531 17.6795 137.131 17.6804 136.747 17.7739Z" fill="#256AFE"/>
<path d="M106.847 37.3888C105.435 37.3888 104.354 36.979 103.606 36.1594C102.858 35.3398 102.484 34.183 102.484 32.6888V22.8589C102.484 21.3612 102.858 20.2035 103.606 19.3857C104.354 18.5678 105.435 18.158 106.847 18.1562C108.249 18.1562 109.329 18.5661 110.086 19.3857C110.843 20.2053 111.216 21.363 111.207 22.8589V32.6888C111.207 34.183 110.834 35.3398 110.086 36.1594C109.337 36.979 108.258 37.3888 106.847 37.3888ZM106.847 34.7177C107.837 34.7177 108.333 34.1061 108.335 32.8828V22.6701C108.335 21.4469 107.839 20.8353 106.847 20.8353C105.855 20.8353 105.358 21.4469 105.357 22.6701V32.8749C105.357 34.1052 105.854 34.7195 106.847 34.7177Z" fill="white"/>
<path d="M116.653 22.8572H113.649V20.7732C114.309 20.7922 114.968 20.7198 115.608 20.5582C116.069 20.4467 116.49 20.2057 116.819 19.8636C117.167 19.4345 117.434 18.946 117.607 18.4219H119.54V37.1197H116.653V22.8572Z" fill="white"/>
</svg>
