<svg width="140" height="56" viewBox="0 0 140 56" fill="none" xmlns="http://www.w3.org/2000/svg">
<path d="M119.372 20.0287H129.162L132.285 14.8203H113.684V20.0287H119.372ZM119.372 40.7447V30.4455H129.71V25.3447H113.645V40.7447H119.372Z" fill="#2DD7A2"/>
<path d="M140 14.8203H134.272V40.7447H140V14.8203Z" fill="#2DD7A2"/>
<path d="M101.367 40.7447V31.072L110.893 14.8203H104.676L98.4989 25.6091L92.3309 14.8203H86.1143L95.64 31.072V40.7447H101.367Z" fill="#2F3134"/>
<path d="M53.6022 40.7466V32.1214H57.4399L62.8343 40.7466H69.3057L62.9812 30.741C64.3833 30.1 65.565 29.0595 66.3783 27.7498C67.1916 26.4401 67.6003 24.9196 67.5532 23.3787C67.5782 22.241 67.3586 21.1113 66.9093 20.0658C66.46 19.0203 65.7916 18.0835 64.949 17.3186C64.1359 16.506 63.1669 15.866 62.1003 15.437C61.0337 15.008 59.8915 14.7988 58.742 14.8221H47.9141V20.0305H58.6246C59.0645 20.0326 59.4996 20.1238 59.9033 20.2985C60.3072 20.4732 60.6715 20.7279 60.9742 21.0471C61.277 21.3663 61.5121 21.7436 61.6651 22.156C61.8182 22.5685 61.8863 23.0078 61.8651 23.4472C61.8905 23.9377 61.8107 24.4277 61.6312 24.8848C61.4517 25.3418 61.1766 25.7552 60.8243 26.0973C60.4721 26.4393 60.0508 26.7022 59.5886 26.8682C59.1265 27.0342 58.6342 27.0995 58.1448 27.0598H47.9141V40.7661L53.6022 40.7466Z" fill="#2F3134"/>
<path d="M30.692 40.7468V32.1216H34.5298L39.9242 40.7468H46.3955L40.071 30.7412C41.4804 30.106 42.6703 29.068 43.491 27.7579C44.3115 26.4478 44.726 24.9241 44.6822 23.3789C44.7096 22.2427 44.4932 21.1139 44.0473 20.0685C43.6015 19.0231 42.9366 18.0854 42.0976 17.3188C41.2833 16.5049 40.3128 15.8643 39.2444 15.4352C38.176 15.0062 37.0319 14.7977 35.8808 14.8223H25.0039V20.0307H35.7144C36.1545 20.0328 36.5894 20.124 36.9932 20.2987C37.397 20.4734 37.7613 20.728 38.064 21.0473C38.3669 21.3665 38.6019 21.7438 38.755 22.1563C38.9081 22.5687 38.9761 23.008 38.955 23.4474C38.9803 23.9378 38.9005 24.4279 38.7211 24.885C38.5415 25.342 38.2664 25.7554 37.9142 26.0975C37.5619 26.4395 37.1406 26.7024 36.6785 26.8683C36.2163 27.0344 35.7241 27.0997 35.2347 27.06H25.0039V40.7663L30.692 40.7468Z" fill="#2F3134"/>
<path d="M22.2439 40.7447V14.8203H16.1348L0.597656 40.7447H6.70676L16.5165 24.3755V35.8007H12.9626L10.0061 40.7447H22.2439Z" fill="#2F3134"/>
<path d="M71.5566 40.7447V14.8203H77.6657L93.2126 40.7447H87.1035L77.2839 24.3755V35.8007H80.8378L83.8043 40.7447H71.5566Z" fill="#2F3134"/>
</svg>
