<svg width="56" height="56" viewBox="0 0 56 56" fill="none" xmlns="http://www.w3.org/2000/svg">
<path d="M39.9946 39.9946H12.7676C11.819 39.9964 10.8793 39.8111 10.0025 39.4491C9.12564 39.0872 8.32885 38.5558 7.6578 37.8851L2.08851 32.3159C0.74726 30.9635 -0.00367956 29.1351 1.4543e-05 27.2304V12.7676C-0.00189085 11.819 0.183453 10.8793 0.545425 10.0025C0.907394 9.12564 1.43887 8.32885 2.1094 7.6578L7.67869 2.08851C9.03226 0.747055 10.8619 -0.00383928 12.7676 1.47629e-05H39.9946V8.00589H15.2007C13.2931 8.00772 11.4641 8.76635 10.1152 10.1152C8.76635 11.4641 8.00772 13.2931 8.00589 15.2007V24.7939C8.00589 26.7026 8.76368 28.5334 10.1128 29.8837C11.4619 31.2341 13.2919 31.9938 15.2007 31.9957H39.9946V39.9946Z" fill="#007BFF"/>
<path d="M16.0127 16.0156H43.2431C45.1453 16.0138 46.971 16.7645 48.3217 18.1041L53.891 23.6734C55.2415 25.024 56.0003 26.8559 56.0003 28.7658V43.2287C56.0003 45.1386 55.2415 46.9705 53.891 48.3211L48.3217 53.8904C46.971 55.2409 45.1392 55.9997 43.2293 55.9997H16.0127V47.9938H40.8066C42.7165 47.9938 44.5484 47.235 45.899 45.8845C47.2496 44.5339 48.0084 42.7021 48.0084 40.792V31.2025C48.0084 29.2924 47.2496 27.4606 45.899 26.11C44.5484 24.7595 42.7165 24.0007 40.8066 24.0007H16.0127V16.0156Z" fill="#007BFF"/>
</svg>
