<svg width="56" height="56" viewBox="0 0 56 56" fill="none" xmlns="http://www.w3.org/2000/svg">
<g clip-path="url(#clip0_7351_19153)">
<path d="M42 0H14C6.26801 0 0 6.26801 0 14V42C0 49.732 6.26801 56 14 56H42C49.732 56 56 49.732 56 42V14C56 6.26801 49.732 0 42 0Z" fill="url(#paint0_linear_7351_19153)"/>
<path style="mix-blend-mode:hard-light" d="M42 0H14C6.26801 0 0 6.26801 0 14V42C0 49.732 6.26801 56 14 56H42C49.732 56 56 49.732 56 42V14C56 6.26801 49.732 0 42 0Z" fill="url(#paint1_radial_7351_19153)" fill-opacity="0.7"/>
<path d="M17.2402 42V14H27.2802L32.8403 38.3999H33.5601V14H38.7602V42H28.7203L23.1602 17.6H22.4402V42H17.2402Z" fill="white"/>
</g>
<defs>
<linearGradient id="paint0_linear_7351_19153" x1="28" y1="0" x2="28" y2="56" gradientUnits="userSpaceOnUse">
<stop stop-color="#B665F5"/>
<stop offset="1" stop-color="#0875F5"/>
</linearGradient>
<radialGradient id="paint1_radial_7351_19153" cx="0" cy="0" r="1" gradientUnits="userSpaceOnUse" gradientTransform="translate(28) rotate(90) scale(56)">
<stop stop-color="white"/>
<stop offset="0.244792" stop-color="#24F2FF"/>
<stop offset="1" stop-color="#DF1CFF"/>
</radialGradient>
<clipPath id="clip0_7351_19153">
<rect width="56" height="56" fill="white"/>
</clipPath>
</defs>
</svg>
