<svg width="143" height="56" viewBox="0 0 143 56" fill="none" xmlns="http://www.w3.org/2000/svg">
<path fill-rule="evenodd" clip-rule="evenodd" d="M77.2845 45.3982H74.6414V34.862C74.6411 34.3 74.5299 33.7439 74.3143 33.2249C74.0987 32.7059 73.7831 32.2345 73.3851 31.8377C72.9872 31.4409 72.5148 31.126 71.9952 30.9119C71.4756 30.6978 70.919 30.5883 70.357 30.5896V49.0313H80.9052C80.9049 48.07 80.5237 47.1481 79.8451 46.4672C79.1665 45.7863 78.2458 45.4017 77.2845 45.3982ZM58.3724 30.5896C58.9344 30.5883 59.4911 30.6978 60.0107 30.9119C60.5303 31.126 61.0026 31.4409 61.4006 31.8377C61.7985 32.2345 62.1143 32.7059 62.3299 33.2249C62.5455 33.7439 62.6567 34.3 62.657 34.862V49.0313H58.3724V30.5896ZM47.2328 38.4827H43.938V34.2103H52.181C52.181 33.7338 52.0869 33.2619 51.9042 32.8219C51.7215 32.3818 51.4538 31.9826 51.1163 31.6462C50.7788 31.3098 50.3782 31.0431 49.9376 30.8618C49.4969 30.6806 49.0248 30.588 48.5483 30.5896H39.6535V49.0313H43.938V42.1158H50.8656C50.8646 41.1526 50.4815 40.2292 49.8004 39.5482C49.1193 38.8671 48.196 38.4837 47.2328 38.4827ZM143 30.5896H140.417C139.789 30.5883 139.17 30.7391 138.613 31.0292C138.056 31.3192 137.578 31.7403 137.219 32.2555L134.262 36.4915L131.329 32.2915C130.961 31.7656 130.472 31.3361 129.902 31.0398C129.333 30.7435 128.7 30.5891 128.059 30.5896H125.524L131.957 39.8104L125.524 49.0313H130.147L134.262 43.1176L138.378 49.0313H143L136.567 39.8104L143 30.5896ZM94.2776 38.4827H90.9828V34.2103H99.2258C99.2258 33.25 98.8444 32.3293 98.1654 31.6503C97.4864 30.9713 96.5654 30.5896 95.6052 30.5896H86.6983V49.0313H90.9828V42.1158H97.9104C97.9094 41.1526 97.5264 40.2292 96.8454 39.5482C96.1643 38.8671 95.2408 38.4837 94.2776 38.4827ZM112.791 34.7294C113.838 34.7298 114.842 35.1456 115.582 35.8857C116.322 36.6257 116.738 37.6294 116.738 38.676V40.933C116.738 41.9813 116.321 42.9863 115.58 43.7275C114.839 44.4688 113.834 44.8855 112.785 44.8855C111.737 44.8855 110.732 44.4688 109.99 43.7275C109.249 42.9863 108.833 41.9813 108.833 40.933V38.676C108.833 38.1569 108.936 37.6427 109.135 37.1633C109.335 36.6839 109.626 36.2486 109.994 35.8821C110.362 35.5156 110.798 35.2248 111.278 35.027C111.758 34.8292 112.272 34.7283 112.791 34.7294ZM112.791 30.5896C111.753 30.5875 110.725 30.7903 109.765 31.1859C108.805 31.5816 107.932 32.1625 107.197 32.8955C106.462 33.6286 105.878 34.4991 105.48 35.4578C105.081 36.4165 104.875 37.4445 104.874 38.4827V41.1257C104.874 43.2239 105.708 45.2364 107.191 46.72C108.675 48.2037 110.687 49.0372 112.785 49.0372C114.883 49.0372 116.896 48.2037 118.379 46.72C119.863 45.2364 120.697 43.2239 120.697 41.1257V38.4827C120.696 37.4454 120.491 36.4182 120.093 35.4602C119.695 34.5021 119.113 33.632 118.379 32.8991C117.645 32.1661 116.773 31.5851 115.815 31.1889C114.856 30.7927 113.829 30.5888 112.791 30.5896ZM30.8672 21.9604C29.4515 21.9691 28.0417 21.7785 26.6793 21.3935C25.223 21.0036 23.7215 20.8082 22.2139 20.8136C17.9731 20.802 13.9012 22.4753 10.8935 25.465C7.88572 28.4546 6.18823 32.5164 6.17417 36.7572C6.17334 37.9266 6.30281 39.0923 6.56031 40.233L6.57239 40.3054C4.22993 36.4719 2.99358 32.0648 3.00003 27.5723C3.00746 24.3374 3.65208 21.1357 4.89714 18.1499C6.14221 15.1642 7.96337 12.4532 10.2564 10.1713C12.5495 7.88948 15.2696 6.08151 18.2614 4.85109C21.2532 3.62067 24.4581 2.99167 27.6931 3.00008C31.0246 2.99164 34.3212 3.678 37.3724 5.01551C38.3837 5.40838 39.4618 5.60129 40.5466 5.58301C42.8236 5.59933 45.0146 4.7142 46.6414 3.12089C46.8157 4.07661 46.9046 5.04584 46.9069 6.01732C46.9011 8.11748 46.4815 10.1958 45.6722 12.1337C44.8628 14.0717 43.6796 15.8314 42.1901 17.3119C40.7006 18.7925 38.9339 19.9653 36.9911 20.7629C35.0483 21.5605 32.9674 21.9672 30.8672 21.9604ZM16.5776 23.5055L16.5655 23.5656C16.4784 24.0313 16.4339 24.5039 16.4328 24.9776C16.4348 25.9802 16.6345 26.9728 17.0202 27.8982C17.4059 28.8236 17.9701 29.6637 18.6807 30.3709C19.3913 31.0782 20.2343 31.6385 21.1615 32.0198C22.0887 32.4011 23.0819 32.5959 24.0845 32.5932C24.4967 32.592 24.9082 32.5596 25.3155 32.4966C25.7086 32.4355 26.096 32.3426 26.4741 32.219C26.462 32.2914 26.4501 32.3519 26.438 32.4123C26.438 32.4485 26.4259 32.4727 26.4259 32.5089C26.4259 32.5451 26.4138 32.5691 26.4018 32.5932C26.3897 32.6415 26.3897 32.6896 26.3776 32.7258C26.373 32.7306 26.3697 32.7366 26.3676 32.7429C26.3655 32.7491 26.3647 32.7558 26.3655 32.7623C26.1172 33.7974 25.604 34.7496 24.8761 35.5262C24.1481 36.3028 23.2307 36.8769 22.2139 37.1916C19.6351 37.8996 17.3609 39.4365 15.7424 41.5654C14.124 43.6942 13.2512 46.2964 13.2586 48.9706C13.262 50.5427 13.5523 52.1011 14.1155 53.5689L14.188 53.6897C11.9811 51.7487 10.257 49.3199 9.15266 46.5963C8.04833 43.8726 7.59419 40.9293 7.82614 37.9995C8.05809 35.0696 8.96977 32.2339 10.4889 29.718C12.0081 27.202 14.0928 25.0751 16.5776 23.5055ZM15.6241 31.2537C15.6238 31.4614 15.6645 31.667 15.7439 31.8589C15.8232 32.0509 15.9397 32.2253 16.0866 32.3722C16.2334 32.5191 16.4079 32.6353 16.5999 32.7146C16.7918 32.7939 16.9975 32.8351 17.2052 32.8348C17.349 32.859 17.4959 32.859 17.6397 32.8348C17.2202 31.9507 16.5082 31.2382 15.6241 30.8188V31.2537Z" fill="#1A4FC9"/>
</svg>
