<svg width="56" height="56" viewBox="0 0 56 56" fill="none" xmlns="http://www.w3.org/2000/svg">
<g clip-path="url(#clip0_7352_19993)">
<path d="M33.5692 18.4109L29.1855 12H35.9182L40.3018 18.4109H33.5692Z" fill="#0055FF"/>
<path d="M47.0344 18.4141H40.3018L49.0691 31.2321L40.3018 44.0538H47.0344L55.8016 31.2321L47.0344 18.4141Z" fill="#33CCFF"/>
<path d="M11.1162 31.2312L6.73255 24.8203H0L4.38364 31.2312L0 37.6421H6.73255L11.1162 31.2312Z" fill="#0055FF"/>
<path d="M31.1407 36.3874L35.5243 29.9766H28.7918L24.4082 36.3874H31.1407Z" fill="#0055FF"/>
<path d="M41.0675 34.4358C42.9266 34.4358 44.4338 32.9285 44.4338 31.0694C44.4338 29.2102 42.9266 27.7031 41.0675 27.7031C39.2084 27.7031 37.7012 29.2102 37.7012 31.0694C37.7012 32.9285 39.2084 34.4358 41.0675 34.4358Z" fill="#0055FF"/>
<path d="M26.616 18.4109L22.2324 12H15.4998L19.8835 18.4109L11.1162 31.2289L19.8835 44.0506H26.616L17.8487 31.2289L26.616 18.4109Z" fill="#33CCFF"/>
</g>
<defs>
<clipPath id="clip0_7352_19993">
<rect width="56" height="32.5818" fill="white" transform="translate(0 12)"/>
</clipPath>
</defs>
</svg>
