<svg width="56" height="56" viewBox="0 0 56 56" fill="none" xmlns="http://www.w3.org/2000/svg">
<path fill-rule="evenodd" clip-rule="evenodd" d="M51.5854 29.2683V13.8537L27.1951 0L3 14.2439L42.8049 37.8537L28.561 46.9268V39.4146L3 24.3902V41.561L27.7805 56L52.3659 40.5854L11.9756 16.7805L26.3171 8.09756V14.9268L51.5854 29.2683ZM48.7561 15.0244V24.7805L29.0488 13.561V4L48.7561 15.0244ZM7.87805 14.2439L9.63415 15.2195L26.3171 5.07317V3.5122L7.87805 14.2439ZM5.73171 40.2927L6.90244 40.9756V29.561L5.73171 28.7805V40.2927ZM9.14634 42.2439V30.8293L26.0244 40.7805V52.0976L9.14634 42.2439ZM28.561 50.0488V52.4878L47.5854 40.5854L45.3415 39.2195L28.561 50.0488Z" fill="#447DFF"/>
</svg>
