<svg width="56" height="56" viewBox="0 0 56 56" fill="none" xmlns="http://www.w3.org/2000/svg">
<path d="M55.3216 28.2827C55.3216 42.7918 48.0246 53.7372 38.3519 53.7372C34.6016 53.7372 31.038 52.0063 28.1531 48.833C25.2683 52.0063 21.7216 53.7372 17.9883 53.7372C8.31553 53.7372 1.01855 42.7918 1.01855 28.2827C1.01855 13.7736 8.31553 2.82812 17.9883 2.82812C21.7216 2.82812 25.2683 4.54208 28.1531 7.71541C31.038 4.54208 34.6016 2.82812 38.3519 2.82812C48.0246 2.82812 55.3216 13.7736 55.3216 28.2827Z" fill="white"/>
<path d="M38.3512 6.22656C34.9403 6.22656 31.8688 8.19505 29.51 11.4532C28.8651 12.3526 27.4736 12.3526 26.8288 11.4532C24.47 8.19505 21.4154 6.22656 18.0045 6.22656C10.3851 6.22656 4.42871 15.9163 4.42871 28.2872C4.42871 40.6581 10.3851 50.3478 18.0045 50.3478C21.4154 50.3478 24.47 48.3793 26.8288 45.1042C27.4736 44.2048 28.8651 44.2048 29.51 45.1042C31.8688 48.3793 34.9403 50.3478 38.3682 50.3478C45.9876 50.3478 51.9439 40.6581 51.9439 28.2872C51.9439 15.9163 45.9876 6.22656 38.3682 6.22656H38.3512ZM17.9876 46.9538C15.2214 46.9538 12.659 44.7987 10.8093 41.3708C11.4711 41.6932 12.1669 41.8629 12.9136 41.8629C16.1039 41.8629 18.7682 38.5708 19.4979 34.1417C19.6845 32.9708 18.7173 31.9187 17.5464 32.1223C15.6796 32.4448 13.202 32.6654 12.9136 31.6642C12.5402 30.4254 15.6287 28.932 17.5803 28.1175C18.4627 27.7442 18.887 26.726 18.4797 25.8605C17.2579 23.2132 15.2214 21.4823 12.9136 21.4823C10.996 21.4823 9.26507 22.6872 8.02629 24.6048C8.99356 16.1708 13.1681 9.60355 18.0045 9.60355C20.9573 9.60355 23.6385 12.0641 25.5221 15.8823C26.0651 16.9684 26.2009 18.2411 25.8954 19.412C25.1827 22.1102 24.7924 25.0969 24.7924 28.2702C24.7924 31.4435 25.1827 34.4302 25.8954 37.1284C26.2009 38.2993 26.0482 39.572 25.5221 40.6581C23.6385 44.4763 20.9573 46.9199 18.0045 46.9199L17.9876 46.9538ZM38.3512 46.9538C35.5851 46.9538 33.0227 44.7987 31.173 41.3708C31.8348 41.6932 32.5306 41.8629 33.2773 41.8629C36.4676 41.8629 39.1318 38.5708 39.8615 34.1417C40.0482 32.9708 39.0809 31.9187 37.91 32.1223C36.0433 32.4448 33.5658 32.6654 33.2773 31.6642C32.9039 30.4423 35.9924 28.932 37.9439 28.1175C38.8264 27.7442 39.2506 26.726 38.8433 25.8605C37.6215 23.2132 35.5851 21.4823 33.2773 21.4823C31.3597 21.4823 29.6288 22.6872 28.39 24.6048C29.3573 16.1708 33.5318 9.60355 38.3682 9.60355C43.8833 9.60355 48.55 18.1563 48.55 28.2702C48.55 38.3842 43.8833 46.9369 38.3682 46.9369L38.3512 46.9538Z" fill="black"/>
</svg>
