<svg width="56" height="56" viewBox="0 0 56 56" fill="none" xmlns="http://www.w3.org/2000/svg">
<path d="M28.6758 23.3808L36.7362 18.7274V28.0342L28.6758 32.6876V23.3808ZM38.2355 18.0987L46.2959 13.4453V22.7522L38.2355 27.4056V18.0987Z" fill="#2E90FA"/>
<path d="M38.2354 28.7862L46.2957 24.1328V33.4397L38.2354 38.0931V28.7862Z" fill="#F04438"/>
<path d="M47.7933 12.3085L55.8537 7.65506V16.9619L47.7933 21.6153V12.3085ZM27.9332 22.244L19.871 17.5905L27.9314 12.9371L35.9917 17.5905L27.9332 22.244ZM18.3716 16.7108L10.3148 12.0574L18.3716 7.40396L26.4338 12.0574L18.3716 16.7108ZM8.81548 11.1776L0.755097 6.52422L8.81548 1.86719L16.8759 6.52061L8.81548 11.1776ZM37.4911 16.7108L29.4307 12.0574L37.4911 7.40396L45.5515 12.0574L37.4911 16.7108ZM47.0508 11.1776L38.9905 6.52422L47.0508 1.86899L55.1112 6.52241L47.0508 11.1776ZM27.1781 23.3766L19.1177 18.7232V28.03L27.1781 32.6834V23.3766ZM17.6201 17.8416L9.55974 13.19V22.4969L17.6201 27.1503V17.8416ZM17.6201 28.6587L9.55974 24.0053V33.3121L17.6201 37.9655V28.6587ZM8.06039 12.3085L0 7.65506V16.9619L8.06039 21.6153V12.3085ZM28.6756 34.1936L36.736 29.5402V38.8471L28.6756 43.5005V34.1936ZM27.1781 34.1936L19.1177 29.5384V38.8453L27.1781 43.4987V34.1936ZM28.6756 45.0089L36.736 40.3573V49.6623L28.6756 54.3175V45.0089ZM27.1781 45.0089L19.1177 40.3573V49.6623L27.1781 54.3175V45.0089Z" fill="#2E90FA"/>
</svg>
