<svg width="140" height="56" viewBox="0 0 140 56" fill="none" xmlns="http://www.w3.org/2000/svg">
<g clip-path="url(#clip0_7373_16321)">
<path d="M122.451 12.4259C122.732 12.3565 122.968 12.6453 122.839 12.9014C122.47 13.6315 122.514 14.4995 122.954 15.1925C123.107 15.4349 122.903 15.743 122.616 15.7011C121.796 15.5811 120.97 15.8908 120.439 16.5158C120.253 16.7343 119.892 16.638 119.843 16.3563C119.706 15.5509 119.153 14.873 118.385 14.5674C118.116 14.4606 118.098 14.0917 118.355 13.9598C119.088 13.5825 119.572 12.8535 119.63 12.0387C119.65 11.7538 119.999 11.6227 120.206 11.823C120.798 12.3953 121.648 12.6236 122.451 12.4259Z" fill="#79E0FF"/>
<path fill-rule="evenodd" clip-rule="evenodd" d="M30.1367 35.3082C26.9833 35.2993 24.4297 32.7766 24.4297 29.6668C24.4297 26.6332 26.8596 24.1589 29.906 24.0311L29.907 24.0266C32.2489 23.9616 33.8698 24.2019 34.4688 24.3312V26.2948C33.7262 26.1226 31.5007 25.894 29.9429 25.9777V25.9795C27.9728 26.0782 26.4062 27.6837 26.4062 29.6498C26.4062 31.6795 28.0759 33.3249 30.1355 33.3249C30.1523 33.3249 30.1691 33.3248 30.1859 33.3246L30.186 33.3258C31.5037 33.3239 32.3782 33.2483 32.9493 33.1612V30.5394L34.9297 29.9797V34.6593L34.9322 34.6638C34.9322 34.6638 33.7032 35.3082 30.1367 35.3082Z" fill="#1F1F1F"/>
<path fill-rule="evenodd" clip-rule="evenodd" d="M58.6016 35.3082C55.4481 35.2993 52.8945 32.7766 52.8945 29.6668C52.8945 26.6332 55.3245 24.1589 58.3708 24.0311L58.3718 24.0266C60.7188 23.9614 62.3417 24.2029 62.9375 24.332V26.2957C62.1989 26.1235 59.9683 25.8939 58.4077 25.9777L58.4078 25.9795C56.4377 26.0782 54.8711 27.6837 54.8711 29.6498C54.8711 31.6795 56.5407 33.3249 58.6003 33.3249C58.6172 33.3249 58.634 33.3248 58.6508 33.3246V33.3258C59.9685 33.3239 60.843 33.2483 61.4141 33.1612V30.5416L63.3945 29.982V34.6593L63.397 34.6638C63.397 34.6638 62.1681 35.3082 58.6016 35.3082Z" fill="#1F1F1F"/>
<path fill-rule="evenodd" clip-rule="evenodd" d="M74.3361 24.0078H72.0527L77.1148 35.2559H78.4021V34.6679H79.1336L74.3361 24.0078Z" fill="#1F1F1F"/>
<path d="M86.0687 31.4922L85.1152 34.5421L85.7509 35.9487L87.8486 35.2942L86.0687 31.4922Z" fill="#1F1F1F"/>
<path fill-rule="evenodd" clip-rule="evenodd" d="M45.6071 24.0156H43.3237L38.2617 35.2637H40.5451L45.6071 24.0156Z" fill="#1F1F1F"/>
<path fill-rule="evenodd" clip-rule="evenodd" d="M74.3182 24.0156H72.0348L66.9727 35.2637H69.2561L74.3182 24.0156Z" fill="#1F1F1F"/>
<path fill-rule="evenodd" clip-rule="evenodd" d="M43.4551 24.0156H45.7385L50.8005 35.2637H48.5171L43.4551 24.0156Z" fill="#1F1F1F"/>
<path fill-rule="evenodd" clip-rule="evenodd" d="M95.2227 24.0156H97.2099V35.2637H95.2227V24.0156Z" fill="#1F1F1F"/>
<path fill-rule="evenodd" clip-rule="evenodd" d="M102.344 24.5217L104.135 24.0156H104.33H104.744L110.93 32.5934V24.0156H112.916V34.5883L110.526 35.2637H110.458L104.33 26.7675V35.2637H102.344V24.5217Z" fill="#1F1F1F"/>
<path fill-rule="evenodd" clip-rule="evenodd" d="M80.3516 24.0156H86.9986L86.9988 24.0179C87.0204 24.0175 87.042 24.0173 87.0637 24.0173C89.0341 24.0173 90.6313 25.5914 90.6313 27.5332C90.6313 29.2235 89.4209 30.6353 87.8075 30.9725L86.074 31.4692L87.793 35.2548H85.4004L83.1597 30.2848L84.6703 29.8552L84.671 29.8529L87.4175 29.0802L87.4172 29.0776C88.1361 28.9178 88.673 28.2844 88.673 27.5273C88.673 26.6717 87.987 25.9739 87.1277 25.9395L87.1284 25.951H82.4105C81.6922 25.951 81.0401 25.531 80.7429 24.877L80.3516 24.0156Z" fill="#1F1F1F"/>
<path fill-rule="evenodd" clip-rule="evenodd" d="M118.511 14.5938C96.3951 28.6823 62.9676 42.593 33.6125 44.3254C28.644 44.6186 24.7759 44.2525 21.9799 43.3865C19.1819 42.5199 17.5099 41.1016 16.826 39.4541C16.4969 38.6614 16.5148 37.6451 16.826 36.6383C17.7041 33.7981 19.5407 32.6291 21.9091 31.1216L21.9799 31.0765C18.9776 32.1889 16.1248 34.5424 15.2568 37.0993C14.8615 38.2636 14.9445 39.5767 15.356 40.5681C16.1472 42.474 18.3428 44.0485 21.4919 44.9897C24.6451 45.9321 27.8955 46.2 33.6125 45.8626C47.5803 45.0382 64.4064 40.8214 77.3765 35.7386C78.9384 35.1264 80.5105 34.5191 82.1013 33.9045C92.958 29.7104 104.693 25.177 120.09 16.465L120.061 16.267C119.95 15.5013 119.407 14.8683 118.667 14.6416L118.511 14.5938Z" fill="url(#paint0_linear_7373_16321)"/>
</g>
<defs>
<linearGradient id="paint0_linear_7373_16321" x1="114.058" y1="55.2655" x2="14.9314" y2="23.8012" gradientUnits="userSpaceOnUse">
<stop stop-color="#01CFFF"/>
<stop offset="0.471311" stop-color="#0096FF"/>
<stop offset="0.853052" stop-color="#3A5FFF"/>
<stop offset="1" stop-color="#4A32F0" stop-opacity="0"/>
</linearGradient>
<clipPath id="clip0_7373_16321">
<rect width="110" height="36" fill="white" transform="translate(15 10)"/>
</clipPath>
</defs>
</svg>
