<svg width="56" height="56" viewBox="0 0 56 56" fill="none" xmlns="http://www.w3.org/2000/svg">
<g clip-path="url(#clip0_7351_19159)">
<path d="M55.3457 25.4982L43.8189 5.50371C43.3793 4.75593 42.752 4.13593 41.9992 3.70503C41.2464 3.27412 40.3941 3.04721 39.5267 3.04688H16.4734C15.6037 3.04715 14.7495 3.27626 13.9965 3.71114C13.2434 4.14603 12.618 4.77142 12.1832 5.52448L0.65634 25.519C0.226197 26.274 0 27.1281 0 27.997C0 28.866 0.226197 29.7201 0.65634 30.4751L12.1832 50.4683C12.6157 51.2235 13.2406 51.8508 13.9941 52.2862C14.7477 52.7216 15.6031 52.9496 16.4734 52.9472H39.5267C40.3965 52.947 41.2509 52.7178 42.0041 52.2826C42.7572 51.8475 43.3826 51.2217 43.8172 50.4683L55.344 30.4751C55.7744 29.7165 56.0008 28.8592 56.0011 27.9869C56.0014 27.1146 55.7756 26.2572 55.3457 25.4982ZM28.0018 45.1503V41.7108C31.6419 41.7049 35.1311 40.2556 37.7041 37.6807C40.277 35.1058 41.7238 31.6156 41.727 27.9755C41.7242 24.3353 40.2776 20.8448 37.7045 18.2698C35.1315 15.6948 31.642 14.2456 28.0018 14.2401C24.3616 14.2456 20.8722 15.6948 18.2991 18.2698C15.7261 20.8448 14.2795 24.3353 14.2767 27.9755C14.2683 30.9709 15.2515 33.885 17.073 36.263L19.5489 33.8499C18.3463 32.1278 17.7053 30.0762 17.7135 27.9758C17.7179 25.2421 18.8053 22.6216 20.7376 20.6879C22.6698 18.7541 25.2896 17.6647 28.0233 17.6582C30.7569 17.6647 33.3767 18.7541 35.3089 20.6879C37.2412 22.6216 38.3286 25.2421 38.333 27.9758C38.3288 30.7096 37.2416 33.3303 35.3092 35.2641C33.3769 37.1979 30.757 38.2871 28.0233 38.2934V34.8541C28.9263 34.8545 29.8205 34.6767 30.6548 34.3312C31.4891 33.9856 32.2471 33.479 32.8855 32.8402C33.5238 32.2015 34.03 31.4432 34.375 30.6087C34.72 29.7742 34.8971 28.8798 34.8962 27.9768C34.8972 27.0737 34.7201 26.1793 34.3751 25.3446C34.0301 24.51 33.524 23.7517 32.8856 23.1128C32.2473 22.474 31.4893 21.9672 30.655 21.6216C29.8207 21.2759 28.9264 21.0981 28.0233 21.0983C26.197 21.0969 24.445 21.8206 23.1521 23.1104C21.8593 24.4002 21.1314 26.1505 21.1285 27.9768C21.1262 29.1771 21.4429 30.3565 22.0462 31.3942L24.6079 28.8949C24.5219 28.5964 24.4788 28.2873 24.4797 27.9768C24.4804 27.0427 24.8516 26.1471 25.5119 25.4864C26.1721 24.8258 27.0675 24.454 28.0015 24.4526C28.9356 24.4539 29.831 24.8258 30.4913 25.4864C31.1516 26.1471 31.5229 27.0427 31.5237 27.9768C31.5229 28.9108 31.1516 29.8066 30.4913 30.4672C29.831 31.1279 28.9356 31.4996 28.0015 31.5009C27.6602 31.4976 27.3217 31.4403 26.9984 31.3309L18.14 40.0004C18.0574 40.0836 17.9641 40.1554 17.8625 40.214C17.841 40.2357 17.7982 40.2356 17.7771 40.2577C17.7106 40.3016 17.6388 40.3372 17.5635 40.3633C17.521 40.3851 17.4785 40.385 17.4356 40.4071C17.3713 40.4289 17.3074 40.4497 17.2434 40.4731C17.1996 40.4699 17.1557 40.477 17.1152 40.4939C17.0512 40.4939 16.987 40.5146 16.9441 40.5146C16.8802 40.5146 16.8162 40.4942 16.7519 40.4942C16.7013 40.4962 16.6508 40.4893 16.6026 40.4737C16.5387 40.452 16.4744 40.4312 16.4104 40.4077C16.3676 40.386 16.325 40.3861 16.2822 40.364C16.2138 40.3374 16.1492 40.302 16.09 40.2585C16.0518 40.241 16.016 40.2188 15.9832 40.1925C15.9217 40.1482 15.8645 40.0982 15.8124 40.0432C15.7913 40.0214 15.7485 39.9994 15.7271 39.9582C12.5874 36.7513 10.8322 32.4401 10.8389 27.9521C10.8448 23.4012 12.6544 19.0381 15.8713 15.8189C19.0882 12.5998 23.4499 10.7871 28.0008 10.7779C32.5518 10.7871 36.9135 12.5998 40.1304 15.8189C43.3473 19.0381 45.1569 23.4012 45.1628 27.9521C45.162 32.507 43.3547 36.8755 40.1373 40.0997C36.9199 43.3238 32.555 45.1404 28.0002 45.1507L28.0018 45.1503Z" fill="#006CFF"/>
</g>
<defs>
<clipPath id="clip0_7351_19159">
<rect width="56" height="56" fill="white"/>
</clipPath>
</defs>
</svg>
