<svg width="56" height="56" viewBox="0 0 56 56" fill="none" xmlns="http://www.w3.org/2000/svg">
<g clip-path="url(#clip0_7373_16410)">
<path fill-rule="evenodd" clip-rule="evenodd" d="M28 56C43.4639 56 56 43.4639 56 28C56 12.5361 43.4639 0 28 0C12.5361 0 0 12.5361 0 28C0 43.4639 12.5361 56 28 56ZM26.6864 16.2091C27.0585 15.9161 27.7167 15.3924 27.9996 15.1669C28.2824 15.3924 28.9409 15.9161 29.313 16.2091C29.7781 16.5754 30.0244 17.2515 29.2855 18.0968C28.5699 18.9155 28.5732 19.6286 28.5741 19.8261L28.5742 19.8436C28.5742 20.0126 28.6144 21.0551 29.696 21.0551C30.3624 21.0551 31.1012 20.5564 31.9123 20.009C32.8995 19.3426 33.9941 18.6039 35.1958 18.6039C36.1152 18.6039 36.7306 18.9169 37.3871 19.2507C38.1372 19.6322 38.9408 20.0408 40.3123 20.0408C41.1606 20.0408 42.9665 19.9281 43.1579 18.0686C43.0485 18.078 42.7694 18.0461 42.5286 17.8432C42.2276 17.5896 41.9267 17.1107 42.6928 16.8289C43.4589 16.5472 43.5958 17.7305 43.5958 18.0404C43.5958 18.1903 43.4869 18.8211 43.056 19.4327L51.3336 29.246L51.2302 29.3385C50.783 30.644 48.5375 33.2544 43.1312 33.2544C37.6862 33.2544 35.4425 31.0005 34.6765 29.3383C35.5885 30.1553 38.5564 31.7894 43.1312 31.7894C47.7034 31.7894 50.4335 30.1572 51.2288 29.3397L51.1271 29.4308L43.0028 19.7995L34.9165 29.4303L34.7095 29.2461L42.3633 20.1304C41.8809 20.4724 41.2182 20.717 40.3123 20.717C38.8478 20.717 38.3143 20.5344 37.8018 20.3589C37.328 20.1969 36.8721 20.0408 35.7156 20.0408C33.8317 20.0408 33.0868 21.1791 32.5242 22.0388C32.3676 22.278 32.2253 22.4954 32.0765 22.661C31.3957 23.418 30.9318 23.6728 30.5228 23.8974L30.5168 23.9007L30.4888 23.916C30.0511 24.155 28.8204 24.8274 28.8204 27.2252V34.297C28.8204 35.0013 29.0394 37.3397 29.6687 37.8469C30.199 38.2744 30.6907 38.3615 31.3563 38.4796C31.4803 38.5016 31.6106 38.5246 31.7481 38.5512C32.5675 38.7094 32.692 39.0157 32.8391 39.3776C32.8493 39.4024 32.8594 39.4275 32.87 39.4528C33.0305 39.8385 33.1387 39.847 33.8086 39.8999L33.855 39.9036C34.5663 39.96 36.7006 40.0727 37.412 39.1992C37.6126 39.1428 38.014 39.2049 38.014 39.9036C38.014 40.777 37.1931 40.8333 36.2355 40.8333H27.9999H19.764C18.8063 40.8333 17.9854 40.777 17.9854 39.9036C17.9854 39.2049 18.3868 39.1428 18.5875 39.1992C19.2989 40.0727 21.4331 39.96 22.1445 39.9036L22.1908 39.8999C22.8607 39.847 22.969 39.8385 23.1295 39.4528C23.1372 39.4343 23.1447 39.4158 23.1521 39.3976L23.1603 39.3776C23.3074 39.0157 23.4319 38.7094 24.2513 38.5512C24.3888 38.5246 24.5189 38.5016 24.6429 38.4796C25.3086 38.3615 25.8004 38.2744 26.3307 37.8469C26.9601 37.3397 27.179 35.0013 27.179 34.297V27.2252C27.179 24.8274 25.9483 24.155 25.5106 23.916L25.4826 23.9007L25.4766 23.8974C25.0677 23.6728 24.6037 23.418 23.923 22.661C23.7741 22.4956 23.6318 22.278 23.4753 22.0389C22.9126 21.1792 22.1677 20.0408 20.2839 20.0408C19.1273 20.0408 18.6714 20.1969 18.1977 20.3589C17.6851 20.5344 17.1516 20.717 15.6871 20.717C14.7825 20.717 14.1203 20.4731 13.6381 20.1318L21.2907 29.2461L21.0838 29.4303L12.9975 19.7995L4.87324 29.4308L4.7712 29.3394C5.56626 30.1569 8.29649 31.7894 12.869 31.7894C17.4439 31.7894 20.4118 30.1553 21.3237 29.3383C20.5576 31.0005 18.314 33.2544 12.869 33.2544C7.4627 33.2544 5.21717 30.644 4.77006 29.3385L4.66667 29.246L12.9439 19.4333C12.5125 18.8215 12.4036 18.1903 12.4036 18.0404C12.4036 17.7305 12.5405 16.5472 13.3066 16.8289C14.0728 17.1107 13.7718 17.5896 13.4708 17.8432C13.23 18.0461 12.9509 18.078 12.8415 18.0686C13.0331 19.9281 14.8388 20.0408 15.6871 20.0408C17.0586 20.0408 17.8622 19.6322 18.6123 19.2507C19.2688 18.9169 19.8843 18.6039 20.8038 18.6039C22.0054 18.6039 23.0999 19.3426 24.0871 20.009C24.8983 20.5564 25.637 21.0551 26.3034 21.0551C27.385 21.0551 27.4253 20.0126 27.4253 19.8436V19.8261C27.4262 19.6286 27.4295 18.9155 26.7139 18.0968C25.9751 17.2515 26.2213 16.5754 26.6864 16.2091Z" fill="#262626"/>
</g>
<defs>
<clipPath id="clip0_7373_16410">
<rect width="56" height="56" fill="white"/>
</clipPath>
</defs>
</svg>
