<svg width="56" height="56" viewBox="0 0 56 56" fill="none" xmlns="http://www.w3.org/2000/svg">
<g clip-path="url(#clip0_7352_19201)">
<path d="M35.616 47.0718C46.0037 47.0718 54.4253 38.6503 54.4253 28.2622C54.4253 17.874 46.0037 9.45312 35.616 9.45312C25.2275 9.45312 16.8066 17.874 16.8066 28.2622C16.8066 38.6503 25.2275 47.0718 35.616 47.0718Z" stroke="#061749" stroke-width="2.5" stroke-miterlimit="10"/>
<path d="M26.7687 46.0389C36.5842 46.0389 44.5422 38.0815 44.5422 28.2656C44.5422 18.4496 36.5842 10.4922 26.7687 10.4922C16.9531 10.4922 8.99512 18.4496 8.99512 28.2656C8.99512 38.0815 16.9531 46.0389 26.7687 46.0389Z" stroke="#061749" stroke-width="2.5" stroke-miterlimit="10"/>
<path d="M18.1085 44.9761C27.3378 44.9761 34.8187 37.4944 34.8187 28.2654C34.8187 19.0364 27.3378 11.5547 18.1085 11.5547C8.87927 11.5547 1.39746 19.0363 1.39746 28.2654C1.39746 37.4945 8.87928 44.9761 18.1085 44.9761Z" stroke="#061749" stroke-width="2.5" stroke-miterlimit="10"/>
</g>
<defs>
<clipPath id="clip0_7352_19201">
<rect width="56" height="40.8649" fill="white" transform="translate(0 8)"/>
</clipPath>
</defs>
</svg>
