<svg width="56" height="56" viewBox="0 0 56 56" fill="none" xmlns="http://www.w3.org/2000/svg">
<path d="M12.941 0.0951169L1.98996 6.43624C1.61663 6.56307 1.61663 7.07035 1.98996 7.19718L27.6253 22.1622C27.8742 22.2891 28.2476 22.2891 28.4964 22.1622L39.4475 15.8211C39.8208 15.6943 39.8208 15.187 39.4475 15.0602L13.9365 0.0951169C13.5632 -0.0317056 13.3143 -0.0317056 12.941 0.0951169Z" fill="#2F3134"/>
<path d="M42.1861 0.0911171L31.2351 6.43224C30.8617 6.55907 30.8617 7.06635 31.2351 7.19318L42.3106 13.7879C42.5594 13.9148 42.9328 13.9148 43.1817 13.7879L54.1327 7.44682C54.506 7.32 54.506 6.81271 54.1327 6.68589L43.0572 0.217938C42.8083 -0.0357073 42.435 -0.0357054 42.1861 0.0911171Z" fill="#2F3134"/>
<path d="M29.3691 25.5888V38.3979C29.3691 38.7783 29.7425 39.032 30.1158 38.7783L41.1913 32.3104C41.3157 32.1836 41.4402 32.0567 41.4402 31.9299V18.7404C41.4402 18.3599 41.0668 18.1063 40.6935 18.3599L29.8669 24.701C29.4936 24.9547 29.3691 25.2083 29.3691 25.5888Z" fill="#2F3134"/>
<path d="M44.3018 16.2012L55.2529 9.86006C55.5017 9.73324 55.9995 9.86006 55.9995 10.2405V40.1706C55.9995 40.5511 55.8751 40.8048 55.5017 40.9316L29.9908 55.8966C29.7419 56.0235 29.2441 55.8966 29.2441 55.5162V42.7071C29.2441 42.3266 29.3686 42.073 29.7419 41.9462L43.4307 33.9563C43.6796 33.8295 43.9285 33.449 43.9285 33.0686V17.0889C43.9285 16.7085 44.0529 16.4548 44.3018 16.2012Z" fill="#2F3134"/>
<path d="M26.8798 25.4609V38.6504C26.8798 38.9041 26.6309 39.0309 26.382 38.9041L12.9421 31.0411C12.6932 30.9143 12.1955 31.0411 12.1955 31.4216V46.8939C12.1955 47.2744 11.8221 47.528 11.4488 47.2744L0.497774 40.9333C0.248887 40.8064 0 40.426 0 40.1723V10.1154C0 9.73491 0.373331 9.48127 0.746662 9.73491L26.382 24.7C26.6309 24.8268 26.8798 25.2073 26.8798 25.4609Z" fill="#2F3134"/>
<path d="M15.3062 35.3533L26.2573 41.8213C26.5062 41.9481 26.755 42.3285 26.755 42.5822V55.5181C26.755 55.8986 26.3817 56.1522 26.0084 55.8986L15.0573 49.4306C14.8085 49.3038 14.5596 48.9233 14.5596 48.6697V35.8606C14.684 35.4801 15.0573 35.2265 15.3062 35.3533Z" fill="#2F3134"/>
</svg>
