<svg width="56" height="56" viewBox="0 0 56 56" fill="none" xmlns="http://www.w3.org/2000/svg">
<path fill-rule="evenodd" clip-rule="evenodd" d="M9.53319 10.4301C6.26894 11.5947 2.9369 15.0581 0.871678 19.4326C0.20745 20.8399 0.124481 21.251 0.12211 23.1476C0.119977 25.0054 0.201287 25.4352 0.754336 26.483C1.72531 28.324 3.9074 30.1865 6.6928 31.5523L9.088 32.7269L9.03371 34.2221C8.87251 38.6708 11.3184 43.7554 15.0445 46.7172C22.533 52.6698 33.5542 52.6136 40.865 46.5856C44.6014 43.505 46.7001 39.1639 46.7001 34.5159V32.5719L47.8261 32.1577C50.8978 31.0274 53.9684 28.5808 55.0207 26.425C56.7486 22.8848 55.1082 17.9549 50.72 13.4991C48.331 11.0732 46.4002 10.1106 43.95 10.1241C42.5454 10.132 42.0154 10.2585 40.7497 10.8874C39.2203 11.6475 37.4552 13.1411 36.1092 14.8143L35.3786 15.7223L34.4609 15.2614C30.6631 13.3539 26.4203 13.2112 22.3036 14.8524L20.3085 15.6476L19.8346 15.014C18.7589 13.5752 16.4952 11.6362 15.076 10.9379C13.1212 9.9758 11.2791 9.80709 9.53319 10.4301Z" fill="#E7B31D"/>
<path fill-rule="evenodd" clip-rule="evenodd" d="M10.849 14.0285C8.60029 14.7138 5.22321 18.4966 4.13276 21.5517C3.18762 24.1987 4.42955 26.1833 8.23025 28.0998C8.91036 28.4429 9.6156 28.7235 9.79742 28.7235C9.97924 28.7235 10.3457 28.1638 10.6119 27.4794C10.8782 26.7951 11.1674 26.0584 11.2546 25.842C11.3776 25.5375 11.0567 25.2489 9.83606 24.5667C7.88225 23.4744 7.60514 22.9711 8.25585 21.696C8.84825 20.5351 10.7698 18.3722 11.3807 18.1783C11.9383 18.0013 12.6435 18.3556 13.8096 19.3977C14.2989 19.8351 14.7829 20.193 14.8851 20.193C14.9875 20.193 15.5747 19.6821 16.1901 19.0574L17.309 17.9219L16.1009 16.567C14.2552 14.4969 12.3436 13.573 10.849 14.0285ZM42.886 14.1199C42.4178 14.2872 41.6512 14.7166 41.182 15.0744C40.2784 15.7632 38.6403 17.6433 38.6403 17.9916C38.6403 18.2501 40.6036 20.193 40.8649 20.193C40.9704 20.193 41.5443 19.7641 42.14 19.2397C43.3627 18.1639 44.0684 17.9039 44.7606 18.2743C45.3746 18.6027 47.611 21.5616 47.8056 22.3031C48.0175 23.1097 47.6899 23.5094 46.0127 24.4914C45.2025 24.966 44.4942 25.3996 44.4385 25.4553C44.2246 25.6688 45.7508 28.8391 46.0324 28.7661C46.8702 28.5495 48.9729 27.3951 49.981 26.5984C52.4964 24.611 52.5448 22.391 50.152 18.7928C48.8621 16.8535 46.8178 14.8806 45.4595 14.2643C44.2766 13.7275 44.0236 13.7136 42.886 14.1199ZM24.6375 18.857C17.4334 21.3991 11.8441 31.6146 14.1614 38.0046C15.4343 41.5159 18.742 44.5231 22.7577 45.8212C24.9538 46.5309 29.2134 46.6887 31.6349 46.1503C34.2674 45.5648 36.9184 44.1542 38.6977 42.3922C42.139 38.9842 42.9882 34.9505 41.2951 30.053C39.9657 26.2072 37.0267 22.3182 33.844 20.1937C31.0058 18.2992 27.6137 17.8065 24.6375 18.857ZM26.0193 23.1367C22.5533 24.3731 18.7505 29.5064 18.1465 33.764C17.6797 37.0537 20.3032 40.2863 24.4652 41.55C25.837 41.9666 26.5401 42.0346 28.5494 41.9453C30.6556 41.8517 31.1911 41.737 32.6021 41.077C34.732 40.0806 36.0169 39.002 36.811 37.5433C38.0589 35.2514 37.9102 33.2411 36.2323 29.7175C35.5548 28.2943 34.833 27.2628 33.6252 25.9918C30.9335 23.1592 28.5079 22.2488 26.0193 23.1367ZM26.9061 27.7401C24.5192 29.2054 22.0688 33.6337 22.7807 35.1955C23.3842 36.5199 25.5253 37.4909 27.842 37.4909C29.7209 37.4909 31.3246 36.9407 32.3996 35.9272C33.1831 35.1884 33.2374 35.0505 33.0944 34.1579C32.782 32.2041 30.9633 29.309 29.2196 27.9894C28.1668 27.1927 27.8529 27.1588 26.9061 27.7401Z" fill="#525353"/>
</svg>
