<svg width="140" height="56" viewBox="0 0 140 56" fill="none" xmlns="http://www.w3.org/2000/svg">
<g clip-path="url(#clip0_7373_16429)">
<path d="M4.15106 27.8232L0 29.4105V13.1328H6.29124L12.812 24.9685L19.4589 13.1328H25.7177V22.0168L21.3727 22.8929V17.5425L17.9006 23.7368C14.3947 24.5708 12.4341 25.1292 8.95195 26.2972L4.15106 17.5425V27.8232Z" fill="black"/>
<path d="M10.6234 29.3973L9.73438 27.7032C12.5365 26.7996 14.1135 26.3541 16.934 25.6406L14.8682 29.3973H10.6234Z" fill="black"/>
<path d="M21.4053 29.4006V24.5544L25.7665 23.5781V29.4006H21.4053Z" fill="black"/>
<path d="M48.1315 20.393L43.5439 29.3417H48.361L53.149 19.9922L48.1315 20.393Z" fill="black"/>
<path d="M66.3979 29.3399H61.5517L60.1454 26.5855H56.906L54.8984 23.2329H58.4255L56.6765 19.7608L61.3513 19.5312L66.3979 29.3399Z" fill="black"/>
<path d="M60.5459 17.9569C55.9853 18.1756 53.465 18.3353 49.0205 18.6713L51.83 13.0234H58.0242L60.5459 17.9569Z" fill="black"/>
<path d="M84.1465 18.1031V13.1406H98.1967L99.1897 13.2692C99.4261 13.2998 99.6595 13.3513 99.8863 13.4231L100.111 13.4941C100.514 13.6212 100.884 13.8332 101.198 14.1159C101.47 14.3623 101.696 14.6577 101.86 14.9867L101.871 15.0087C102.022 15.3109 102.122 15.6359 102.168 15.9707L102.27 16.7259V18.1031L102.212 18.5234L102.147 18.7766C102.115 18.9007 102.073 19.022 102.021 19.1391C101.963 19.2693 101.894 19.394 101.813 19.5115L101.708 19.6646C100.321 19.4686 99.3285 19.3737 97.9123 19.254V17.711C97.9123 17.5541 97.8776 17.3992 97.8103 17.2573L97.7675 17.167C97.6936 17.0111 97.5702 16.8844 97.4158 16.8073C97.3087 16.7538 97.1905 16.7259 97.0708 16.7259H88.5334V18.3618C86.7455 18.2691 85.7999 18.2109 84.1465 18.1031Z" fill="black"/>
<path d="M99.8972 21.0419C96.4862 20.6476 94.4804 20.4747 91 20.1953L95.3869 21.9443L96.2483 22.4054C96.4951 22.5373 96.7256 22.6959 96.9376 22.8783L97.03 22.9581C97.1777 23.0858 97.3115 23.2293 97.4289 23.3859L97.5154 23.5025C97.6808 23.7243 97.799 23.978 97.8611 24.2477C97.8951 24.3949 97.9121 24.5455 97.9121 24.6966V29.2863H102.27V25.9596V24.3864C102.27 24.1168 102.243 23.848 102.188 23.584L102.18 23.5459C102.126 23.2829 102.043 23.0268 101.932 22.7822L101.914 22.7419C101.777 22.4403 101.596 22.1608 101.377 21.9126L101.218 21.7323C101.042 21.5328 100.829 21.3689 100.591 21.2494C100.374 21.1402 100.139 21.0698 99.8972 21.0419Z" fill="black"/>
<path d="M88.5334 20.0202C86.9376 19.8323 85.9705 19.7534 84.1465 19.6484V29.2825H88.5334V20.0202Z" fill="black"/>
<path d="M121.011 17.3903V18.9615C121.011 19.2152 121.037 19.4682 121.088 19.7167L121.145 19.998C121.2 20.2673 121.287 20.5289 121.405 20.7773L121.442 20.8558C121.568 21.1216 121.734 21.3664 121.934 21.5815C122.113 21.7737 122.318 21.9402 122.542 22.0766L122.626 22.1273C122.865 22.2728 123.121 22.3896 123.388 22.4752L123.853 22.6244C124.329 22.7083 124.81 22.7558 125.293 22.7665L134.024 22.9606L134.658 23.0193C134.839 23.036 135.012 23.0941 135.166 23.1893L135.201 23.2115C135.363 23.3116 135.494 23.455 135.579 23.6254C135.649 23.7666 135.685 23.9219 135.685 24.0794V24.3281V24.7753C135.685 24.9403 135.645 25.1027 135.569 25.2487C135.49 25.3978 135.376 25.5251 135.237 25.6193L135.144 25.6819C135.003 25.7765 134.848 25.8462 134.684 25.8876L134.581 25.9138C134.415 25.9557 134.244 25.9769 134.072 25.9769H129.847C133.297 26.996 135.128 27.5847 137.741 28.7443C137.942 28.7443 138.14 28.6902 138.313 28.5877L138.586 28.4258C138.776 28.3133 138.949 28.1737 139.099 28.0116L139.163 27.9422C139.314 27.7791 139.446 27.5994 139.556 27.4065L139.612 27.3088C139.714 27.1307 139.793 26.9404 139.847 26.7425C139.904 26.5326 139.933 26.316 139.933 26.0985V22.6799C139.933 22.4391 139.902 22.1993 139.842 21.9663C139.791 21.7719 139.719 21.5835 139.629 21.4043L139.551 21.2505C139.444 21.0404 139.307 20.8478 139.142 20.6792C138.964 20.4965 138.756 20.3446 138.529 20.2294L138.343 20.1357C138.148 20.0363 137.942 19.9553 137.731 19.8938L137.555 19.8427C137.27 19.7597 136.979 19.6997 136.685 19.6634L135.449 19.5111L127.29 19.343H126.614C126.478 19.343 126.344 19.3235 126.214 19.2853L126.103 19.2525C125.903 19.1935 125.725 19.0755 125.593 18.9138C125.478 18.7735 125.402 18.6055 125.372 18.4266L125.353 18.3149C125.34 18.2353 125.333 18.1547 125.333 18.0741V17.7803C125.333 17.7122 125.339 17.6444 125.352 17.5774L125.358 17.544C125.397 17.3327 125.501 17.139 125.656 16.9904C125.749 16.9022 125.856 16.832 125.975 16.7835L126.14 16.7154C126.319 16.642 126.508 16.5953 126.7 16.5769L127.29 16.5206H133.662L134.272 16.5819C134.422 16.597 134.569 16.637 134.706 16.7003L134.78 16.7346C134.954 16.8146 135.102 16.9399 135.21 17.0973C135.266 17.178 135.31 17.266 135.341 17.3588L135.365 17.4293C135.421 17.594 135.449 17.7667 135.449 17.9406V18.1953H139.626V17.1058L139.555 16.4236L139.449 15.9276C139.409 15.7456 139.357 15.5669 139.291 15.3929L139.286 15.3805C139.169 15.0709 139.008 14.7792 138.81 14.5136L138.767 14.4551C138.661 14.313 138.542 14.1812 138.411 14.0616C138.188 13.8574 137.933 13.6906 137.657 13.5676L137.554 13.5219C137.316 13.4157 137.065 13.3366 136.809 13.286L136.345 13.1945C135.973 13.121 135.595 13.0751 135.215 13.0573L133.998 13H127.946H126.132L125.056 13.0841L124.518 13.1638C124.252 13.2032 123.989 13.2633 123.732 13.3435C123.451 13.4312 123.178 13.5425 122.915 13.6764L122.708 13.7824L122.637 13.8316C122.27 14.0852 121.954 14.4068 121.708 14.7789C121.501 15.091 121.346 15.4343 121.248 15.7956L121.202 15.964C121.127 16.2418 121.077 16.5261 121.056 16.813L121.011 17.3903Z" fill="black"/>
<path d="M135.145 29.4218C129.894 27.6763 126.886 26.7283 121.06 25.2578V25.3007C121.06 25.6506 121.094 25.9996 121.163 26.3426L121.19 26.4779C121.235 26.6986 121.298 26.9148 121.382 27.1241L121.416 27.2119C121.544 27.5342 121.724 27.8336 121.948 28.0981C122.152 28.3391 122.391 28.5484 122.657 28.7192L122.71 28.7535C122.997 28.9373 123.307 29.0798 123.633 29.1767L123.869 29.2469C124.26 29.3631 124.663 29.4342 125.07 29.4588L126.756 29.5608H133.493L135.145 29.4218Z" fill="black"/>
<path fill-rule="evenodd" clip-rule="evenodd" d="M43.6309 33.9297H46.3883C46.6741 33.9297 46.9583 33.971 47.2321 34.0523L47.3329 34.0821C47.6102 34.1644 47.8702 34.2962 48.1004 34.4713L48.1186 34.4851C48.3382 34.6521 48.5266 34.8598 48.672 35.0932C48.8234 35.3363 48.9285 35.6089 48.9783 35.8918L48.9875 35.9438C49.0148 36.0988 49.0219 36.2566 49.0088 36.4133C48.9891 36.6488 48.924 36.8783 48.817 37.089L48.7428 37.2352C48.6721 37.3745 48.5894 37.5073 48.4955 37.632L48.4873 37.643C48.3661 37.804 48.2282 37.9513 48.076 38.0826L48.2097 38.1463C48.3914 38.233 48.5621 38.3412 48.7179 38.4687L48.7789 38.5187C48.992 38.6929 49.17 38.9101 49.3001 39.1514C49.3918 39.3214 49.4605 39.506 49.5015 39.6956C49.5324 39.8388 49.5481 39.9849 49.5481 40.1314V40.2481C49.5481 40.5175 49.4991 40.7847 49.4036 41.0366C49.3256 41.2422 49.2176 41.4351 49.083 41.6089L49.0678 41.6284C48.8906 41.8575 48.6732 42.0523 48.4263 42.2035L48.3796 42.2322C48.2698 42.2994 48.1548 42.3579 48.0359 42.4071C47.738 42.5304 47.4187 42.5939 47.0963 42.5939H43.6792V40.1819H44.248V42.025H47.0963C47.3441 42.025 47.5894 41.9763 47.8184 41.8815C47.9098 41.8437 47.9981 41.7987 48.0825 41.7471L48.1293 41.7184C48.3173 41.6032 48.483 41.4547 48.618 41.2803L48.6331 41.2607C48.7333 41.1314 48.8137 40.9878 48.8717 40.8348C48.9428 40.6474 48.9792 40.4486 48.9792 40.2481V40.1314C48.9792 40.0253 48.9679 39.9196 48.9455 39.816C48.916 39.6794 48.866 39.5451 48.7994 39.4215C48.704 39.2445 48.5734 39.0855 48.4187 38.9589L48.3577 38.909C48.2373 38.8104 48.1055 38.7268 47.9649 38.6598L47.4638 38.4211H44.1997V38.4253H43.6309V33.9297ZM44.1997 37.8522H47.4385L47.5241 37.7923C47.7184 37.6563 47.8901 37.4904 48.0328 37.3009L48.0409 37.2901C48.1148 37.1919 48.1799 37.0873 48.2356 36.9778L48.3097 36.8316C48.3835 36.6863 48.4284 36.5282 48.4419 36.3659C48.451 36.2579 48.446 36.1492 48.4273 36.0424L48.4181 35.9902C48.3811 35.78 48.3026 35.5759 48.1892 35.394C48.0799 35.2186 47.9382 35.0626 47.7743 34.9379L47.7561 34.9241C47.5806 34.7907 47.3824 34.6901 47.1711 34.6275L47.0704 34.5976C46.849 34.5319 46.6192 34.4986 46.3883 34.4986H44.1997V37.8522ZM97.266 33.9462H102.287V34.515H97.8349V37.0169H97.266V33.9462ZM81.0216 34.1008C81.3865 34.0112 81.7604 33.9659 82.1364 33.9659H82.2051C82.5383 33.9659 82.8708 34.0129 83.1907 34.1055C83.5216 34.2011 83.829 34.3641 84.0942 34.5841L84.1585 34.638L84.2663 34.7426C84.3867 34.8596 84.4931 34.9898 84.5847 35.1308L84.6143 35.1774C84.6682 35.2603 84.714 35.348 84.7517 35.4393C84.7672 35.4774 84.7857 35.5159 84.8101 35.5648C84.8322 35.6109 84.8596 35.6672 84.8839 35.7267C84.9357 35.8563 84.9874 36.0456 84.9874 36.2857H84.4185C84.4185 36.1282 84.3845 36.0107 84.3557 35.9384C84.3409 35.901 84.3225 35.8628 84.2988 35.8147L84.2951 35.8079C84.2737 35.764 84.2479 35.711 84.225 35.6555C84.2006 35.5964 84.171 35.5396 84.1363 35.4859L84.1067 35.4393C84.0388 35.3344 83.9597 35.2376 83.8696 35.1506L83.778 35.0614L83.73 35.0216C83.5261 34.8517 83.2882 34.7258 83.0333 34.652C82.7636 34.5742 82.4851 34.5348 82.2051 34.5348H82.1364C81.8062 34.5348 81.4774 34.5745 81.1568 34.6532L81.0666 34.6753C80.8206 34.7357 80.5931 34.8534 80.4017 35.0188L80.3522 35.0617C80.1816 35.2093 80.036 35.3838 79.9215 35.5784L79.8986 35.6174C79.8107 35.767 79.7642 35.9376 79.7642 36.1112V36.205C79.7642 36.3421 79.7841 36.4785 79.824 36.6097L79.8262 36.6182C79.8927 36.8385 80.0139 37.0385 80.1779 37.1998C80.282 37.3025 80.4025 37.3877 80.534 37.4523L80.6869 37.5274C80.8805 37.6222 81.0851 37.6908 81.2964 37.7316L81.979 37.863C82.4829 37.942 82.9801 38.0611 83.4655 38.2192L83.4803 38.2239L83.8696 38.3711C84.1481 38.4763 84.4023 38.6378 84.615 38.8458L84.6424 38.8728C84.8418 39.0673 84.9977 39.3016 85.0997 39.5605C85.1913 39.7917 85.2386 40.038 85.2386 40.2865V40.4473C85.2386 40.7024 85.192 40.9552 85.1026 41.1939C85.0007 41.4651 84.8448 41.7125 84.6431 41.921L84.6254 41.9398C84.485 42.0854 84.3254 42.2114 84.1511 42.3144L84.1008 42.3441C83.8053 42.5189 83.4788 42.6352 83.1397 42.6868L82.9594 42.7142C82.7791 42.7416 82.5974 42.7552 82.4157 42.7552H82.1379C81.7574 42.7552 81.3791 42.7012 81.0142 42.5947L80.9573 42.5782C80.7874 42.5286 80.6211 42.4652 80.4608 42.3888L80.35 42.3358C80.1225 42.2271 79.9134 42.0845 79.7287 41.9127C79.4849 41.6861 79.2899 41.4128 79.1539 41.1091L79.1325 41.0614C79.0786 40.9411 79.0298 40.8104 78.998 40.6702C78.9648 40.524 78.9182 40.2903 78.9182 40.0963H79.4871C79.4871 40.2214 79.5204 40.4012 79.5529 40.544C79.5736 40.6371 79.6083 40.7312 79.6519 40.8292L79.6733 40.8769C79.7782 41.111 79.9289 41.3217 80.1166 41.4964C80.2584 41.6288 80.4202 41.7387 80.5953 41.8225L80.7061 41.8755C80.8384 41.9386 80.9758 41.991 81.1161 42.0321L81.173 42.0487C81.4863 42.14 81.8113 42.1864 82.1379 42.1864H82.4157C82.5693 42.1864 82.7223 42.1748 82.8737 42.1518L83.054 42.1245C83.3214 42.0838 83.5785 41.9921 83.8112 41.8544L83.8615 41.8247C83.9915 41.7478 84.1112 41.6537 84.2161 41.5449L84.2338 41.5262C84.3808 41.3736 84.4953 41.1924 84.57 40.9939C84.6357 40.8192 84.6697 40.634 84.6697 40.4473V40.2865C84.6697 40.1096 84.6357 39.9342 84.5707 39.7695C84.4983 39.5852 84.3875 39.4184 84.2456 39.2799L84.2176 39.2528C84.0609 39.0996 83.874 38.9807 83.6686 38.9033L83.2911 38.7608L83.2889 38.76C82.8316 38.6109 82.3625 38.4986 81.886 38.4242L81.9303 38.1431L81.8764 38.4225L81.1893 38.2901C80.9277 38.2398 80.6751 38.1551 80.4365 38.038L80.2835 37.9629C80.0973 37.8716 79.9267 37.7509 79.7789 37.6055C79.547 37.3772 79.3756 37.0941 79.2817 36.7823L79.2795 36.7738C79.2234 36.5893 79.1953 36.3977 79.1953 36.205V36.1112C79.1953 35.8362 79.2692 35.5662 79.4081 35.3292L79.431 35.2902C79.5765 35.0421 79.7619 34.8196 79.9799 34.6313L80.0294 34.5885C80.2887 34.3642 80.5982 34.2047 80.9307 34.123L81.0216 34.1008ZM63.9226 34.0219H64.6081L66.3627 38.7442V38.9073H65.7939V38.8465L64.2614 34.7218L61.1433 42.7679L60.6129 42.5624L63.9226 34.0219ZM97.266 37.9872H101.988V38.5561H97.8349V41.9888H102.345V42.5577H97.266V37.9872ZM65.1835 39.8019H66.7216L67.8472 42.6103V42.7738H67.2783V42.7201L66.3367 40.3708H65.2154V40.2205L65.1233 39.8156L65.1835 39.8019Z" fill="black"/>
</g>
<defs>
<clipPath id="clip0_7373_16429">
<rect width="140" height="29.847" fill="white" transform="translate(0 13)"/>
</clipPath>
</defs>
</svg>
