<svg width="56" height="57" viewBox="0 0 56 57" fill="none" xmlns="http://www.w3.org/2000/svg">
<path fill-rule="evenodd" clip-rule="evenodd" d="M44.9481 13.8127C47.3037 13.8131 49.5931 14.598 51.4593 16.0451C53.3254 17.4922 54.6637 19.5201 55.2656 21.8127C55.3621 22.175 55.4382 22.5425 55.4934 22.9134C55.8311 24.6505 56.0012 26.4165 56 28.1866C56.0053 33.396 54.575 38.5047 51.8682 42.9445C49.1613 47.3842 45.2838 50.981 40.6674 53.3349C36.0508 55.6885 30.8762 56.7066 25.719 56.276C20.5619 55.8455 15.6245 53.9832 11.4561 50.8959C16.382 50.4195 21.0185 48.3366 24.6609 44.9642C28.3033 41.5922 30.7523 37.115 31.6357 32.2134H38.9013C39.222 32.2131 39.5344 32.1114 39.7945 31.9226C40.0546 31.7338 40.2492 31.4676 40.3509 31.1615L42.222 25.5087C42.2727 25.3547 42.2866 25.1906 42.2621 25.03C42.238 24.8695 42.1758 24.7171 42.0818 24.5853C41.9873 24.4536 41.8634 24.3463 41.7195 24.2722C41.576 24.1982 41.4169 24.1596 41.2558 24.1595H32.5724C33.585 20.6264 35.8655 17.5981 38.9714 15.6625C39.2817 15.4488 39.6033 15.252 39.9347 15.0732C40.186 14.9343 40.4444 14.8086 40.7086 14.6965C42.045 14.1072 43.4892 13.8062 44.9481 13.8127ZM28 2.03751e-07C33.9547 0.00103846 39.7528 1.92035 44.5462 5.47712C39.6198 5.95377 34.9829 8.03664 31.3403 11.4091C27.6977 14.7815 25.2487 19.2591 24.3655 24.161H17.1036C16.7832 24.1612 16.471 24.2627 16.2112 24.4512C15.9512 24.6397 15.7568 24.9056 15.6552 25.2114L13.783 30.8642C13.7318 31.0184 13.7178 31.1826 13.7421 31.3433C13.7664 31.5039 13.8282 31.6565 13.9226 31.7885C14.0169 31.9204 14.1411 32.0278 14.2848 32.1019C14.4285 32.176 14.5876 32.2147 14.7491 32.2147H23.4276C22.4147 35.747 20.1347 38.7746 17.0298 40.7104C16.7197 40.9244 16.3981 41.1212 16.0665 41.2997C15.8131 41.4331 15.56 41.5674 15.2941 41.6752C13.9576 42.2653 12.5129 42.5669 11.0534 42.5607C8.69812 42.5595 6.40923 41.7748 4.54294 40.3284C2.67666 38.882 1.33769 36.8552 0.734424 34.5633C0.638818 34.2009 0.563218 33.8334 0.507977 33.4626C0.170016 31.7246 -0.000102444 29.9576 2.02402e-07 28.1866C-0.000441937 24.485 0.723499 20.8195 2.13047 17.3995C3.53745 13.9796 5.59988 10.8721 8.20001 8.25468C10.8001 5.63723 13.887 3.56102 17.2843 2.14467C20.6816 0.72832 24.3228 -0.000444882 28 2.03751e-07Z" fill="url(#paint0_linear_7352_19880)"/>
<defs>
<linearGradient id="paint0_linear_7352_19880" x1="9.7892" y1="9.58911" x2="47.9535" y2="42.8026" gradientUnits="userSpaceOnUse">
<stop stop-color="#F3B33E"/>
<stop offset="1" stop-color="#F09035"/>
</linearGradient>
</defs>
</svg>
