<svg width="56" height="56" viewBox="0 0 56 56" fill="none" xmlns="http://www.w3.org/2000/svg">
<g clip-path="url(#clip0_7351_19155)">
<path d="M55.7633 31.7481L53.673 23.598C53.6421 23.4803 53.5799 23.3731 53.4931 23.2878C53.4063 23.2024 53.298 23.1422 53.1797 23.1134L45.1028 21.1211C45.0419 21.1082 44.9798 21.1017 44.9176 21.1017C44.8194 21.0905 44.72 21.1014 44.6267 21.1336C44.5333 21.1659 44.4483 21.2186 44.378 21.288L30.7485 34.9175L28.9447 27.8734C28.9142 27.7554 28.8523 27.6478 28.7657 27.5621C28.6791 27.4764 28.5708 27.4158 28.4525 27.3866L21.5139 25.6754L35.137 12.0534C35.2112 11.9738 35.2658 11.8779 35.2963 11.7734C35.3594 11.638 35.3735 11.485 35.3362 11.3404L33.2459 3.19137C33.215 3.07349 33.1529 2.96613 33.0661 2.88064C32.9793 2.79515 32.871 2.7347 32.7527 2.70568L24.6768 0.713372C24.5219 0.67694 24.3592 0.695996 24.217 0.767218H24.2105C24.1707 0.786603 24.1373 0.813526 24.0974 0.840449C24.0651 0.866295 24.0177 0.880295 23.9908 0.91368L0.74112 24.1515C0.74112 24.1515 0.701274 24.2172 0.674351 24.2506C0.601617 24.3341 0.551304 24.4348 0.528134 24.5431C0.504964 24.6514 0.509697 24.7638 0.541889 24.8698L2.79804 32.7464C2.86481 32.9726 3.0382 33.146 3.25789 33.2063L10.8211 35.3763L12.9922 42.9331C13.059 43.1592 13.2313 43.3326 13.451 43.3929L21.0411 45.5704L23.2187 53.1606C23.2854 53.3868 23.4588 53.5591 23.6785 53.6194L31.5874 55.8895C31.6481 55.9083 31.7113 55.9174 31.7748 55.9164C31.7877 55.9164 31.8007 55.91 31.8211 55.91H31.834C32.0063 55.91 32.1808 55.8432 32.3133 55.7108L55.5705 32.4535C55.6448 32.3739 55.6994 32.278 55.7299 32.1735C55.7926 32.0385 55.8067 31.8859 55.7697 31.7417L55.7633 31.7481ZM45.3365 40.7835L43.6393 34.1583L47.401 30.4031L53.8657 32.2608L45.343 40.79L45.3365 40.7835ZM32.1474 53.9715L30.4491 47.3463L37.2542 40.5423L43.719 42.4L32.1463 53.9726L32.1474 53.9715ZM37.3931 38.4983L35.7691 32.8391L41.6082 34.2768L37.3931 38.4918V38.4983ZM42.5333 35.2621L44.0248 41.0754L38.3462 39.4438L42.5333 35.2557V35.2621ZM42.7271 33.1654L36.1083 31.5338L44.6107 23.0315L46.449 29.4435L42.7271 33.1654ZM34.4639 33.1718L36.3022 39.5838L29.5305 46.3544L22.9128 44.724L34.4639 33.1718ZM52.4679 24.3098L54.1651 30.9351L47.7467 29.0903L45.9094 22.6923L52.4679 24.3098ZM21.9134 43.7375L20.2162 37.1134L22.6662 34.6634L29.131 36.5211L21.9134 43.7375ZM22.8062 32.6194L21.1811 26.9601L27.0202 28.3978L22.8062 32.6129V32.6194ZM29.4368 35.2029L23.7582 33.5714L27.9463 29.3832L29.4368 35.1954V35.2029ZM21.7207 33.7114L19.304 36.128L12.6853 34.4964L19.8834 27.2994L21.7207 33.7114ZM14.1036 12.692L15.9419 19.1029L9.10989 25.9349L2.4922 24.3034L14.1036 12.692ZM24.1911 2.60445L26.0283 9.01645L22.3668 12.678L15.748 11.0464L24.1911 2.60445ZM24.9773 20.2951L23.279 13.6763L26.9803 9.97491L33.4451 11.8261L24.9762 20.2951H24.9773ZM17.0328 18.0184L15.4088 12.3581L21.2479 13.7969L17.0328 18.0109V18.0184ZM22.173 14.7823L23.6645 20.5944L17.9923 18.9629L22.1805 14.7758L22.173 14.7823ZM16.9004 20.0549L23.3651 21.9072L11.7344 33.538L10.036 26.9203L16.9004 20.0549ZM32.0473 3.89676L33.7445 10.522L27.326 8.67722L25.4888 2.2803L32.0473 3.89676ZM2.15943 25.6161L7.9985 27.0538L3.78343 31.2689L2.15943 25.6086V25.6161ZM4.73543 32.2274L8.92466 28.0392L10.4151 33.8524L4.74297 32.2209L4.73543 32.2274ZM14.1833 42.2083L12.346 35.8092L18.9045 37.4268L20.6017 44.052L14.1833 42.2083ZM22.579 46.0357L28.4191 47.4744L24.204 51.6884L22.579 46.0292V46.0357ZM25.156 52.648L29.3442 48.4588L30.8357 54.272L25.156 52.6404V52.648Z" fill="url(#paint0_linear_7351_19155)"/>
</g>
<defs>
<linearGradient id="paint0_linear_7351_19155" x1="4.34343" y1="36.9744" x2="52.2083" y2="19.5498" gradientUnits="userSpaceOnUse">
<stop stop-color="#29BCFA"/>
<stop offset="0.43" stop-color="#6464E4"/>
<stop offset="1" stop-color="#B45AFA"/>
</linearGradient>
<clipPath id="clip0_7351_19155">
<rect width="56" height="56" fill="white"/>
</clipPath>
</defs>
</svg>
