<svg width="56" height="56" viewBox="0 0 56 56" fill="none" xmlns="http://www.w3.org/2000/svg">
<g clip-path="url(#clip0_7348_17613)">
<mask id="mask0_7348_17613" style="mask-type:alpha" maskUnits="userSpaceOnUse" x="0" y="0" width="56" height="56">
<path fill-rule="evenodd" clip-rule="evenodd" d="M0 0H56V56H0V0Z" fill="white"/>
</mask>
<g mask="url(#mask0_7348_17613)">
<path fill-rule="evenodd" clip-rule="evenodd" d="M28 56.0012C12.6 56.0012 0 43.4012 0 27.8612C0.14 12.4612 12.6 -0.138845 28.14 0.0011555C43.54 0.141156 56 12.6012 56 28.2812C55.86 43.5412 43.4 56.0012 28 56.0012Z" fill="#0090FF"/>
<path fill-rule="evenodd" clip-rule="evenodd" d="M30.6596 24.6421L29.8196 29.1221L37.7996 30.2421L37.2396 32.3421L29.3996 31.2221C28.8396 33.0421 28.5596 35.0021 27.8596 36.6821C27.1596 38.6421 26.4596 40.6021 25.6196 42.4221C24.4996 44.8021 22.5396 46.4821 19.8796 46.9021C18.3396 47.1821 16.6596 47.0421 15.3996 46.0621C14.9796 45.7821 14.5596 45.2221 14.5596 44.8021C14.5596 44.2421 14.8396 43.5421 15.2596 43.2621C15.5396 43.1221 16.2396 43.2621 16.6596 43.4021C17.0796 43.8221 17.4996 44.3821 17.7796 44.9421C18.6196 46.0621 19.7396 46.2021 20.8596 45.3621C22.1196 44.2421 22.8196 42.7021 23.2396 41.1621C24.0796 37.8021 24.9196 34.5821 25.6196 31.2221V30.6621L18.1996 29.5421L18.4796 27.4421L26.1796 28.5621L27.1596 24.2221L19.1796 22.9621L19.4596 20.7221L27.7196 21.8421C27.9996 21.0021 28.1396 20.3021 28.4196 19.6021C29.1196 17.0821 29.8196 14.5621 31.4996 12.3221C33.1796 10.0821 35.1396 8.68211 38.0796 8.82211C39.3396 8.82211 40.5996 9.24211 41.4396 10.2221C41.5796 10.3621 41.8596 10.6421 41.8596 10.9221C41.8596 11.4821 41.8596 12.1821 41.4396 12.6021C40.8796 13.0221 40.1796 12.8821 39.6196 12.3221C39.1996 11.9021 38.9196 11.4821 38.4996 11.0621C37.6596 9.94211 36.3996 9.80211 35.4196 10.7821C34.7196 11.4821 34.0196 12.4621 33.5996 13.4421C32.6196 16.3821 31.9196 19.4621 30.9396 22.5421L38.6396 23.6621L38.0796 25.7621L30.6596 24.6421Z" fill="white"/>
</g>
</g>
<defs>
<clipPath id="clip0_7348_17613">
<rect width="56" height="56" fill="white"/>
</clipPath>
</defs>
</svg>
