<svg width="56" height="56" viewBox="0 0 56 56" fill="none" xmlns="http://www.w3.org/2000/svg">
<g clip-path="url(#clip0_7710_16748)">
<path fill-rule="evenodd" clip-rule="evenodd" d="M22.5906 31.7342C22.7135 31.7743 22.8402 31.8012 22.9687 31.8148C22.9687 31.8148 22.4361 32.0143 21.3344 31.6412C21.3344 31.6412 20.5102 31.3058 19.8923 31.3621C19.1747 31.427 18.6798 32.3599 18.6798 32.3599C18.8215 32.2832 18.9721 32.2238 19.128 32.1831C19.6168 32.0838 19.4481 32.1667 19.4481 32.1667C19.4481 32.1667 18.508 32.5607 18.444 32.911C18.4287 32.9984 18.692 32.7516 19.3871 32.7735C20.2409 32.8003 20.9828 33.2959 21.2877 33.3776C21.9127 33.5448 22.8091 33.5829 23.6314 32.9381C23.6314 32.9381 24.3906 32.4621 24.6253 31.5823C24.6861 31.3383 24.7219 31.0887 24.732 30.8374C24.7359 30.6163 24.7133 30.3955 24.665 30.1797C24.665 30.1797 24.2208 31.2081 22.5906 31.7342Z" fill="white"/>
<path fill-rule="evenodd" clip-rule="evenodd" d="M38.7373 41.3863C40.3935 39.31 41.2954 36.7329 41.2954 34.0771C41.2954 31.4212 40.3935 28.8441 38.7373 26.7678L49.3468 25.6009C49.3468 25.6009 50.4495 28.6252 50.7402 30.2423C50.7778 30.4495 50.8428 30.8669 50.8428 30.8669C50.8428 30.8669 49.1974 34.8622 46.6708 37.0576C43.2752 40.0084 38.7373 41.3863 38.7373 41.3863ZM13.6141 41.2405L9.54759 41.9943C8.25713 38.7265 7.78559 35.1926 8.17409 31.7007C8.56259 28.2088 9.79934 24.8649 11.7765 21.9607C11.8624 21.8347 12.0382 21.5859 12.0382 21.5859L16.5314 34.2397L13.6141 41.2405Z" fill="url(#paint0_linear_7710_16748)"/>
<path fill-rule="evenodd" clip-rule="evenodd" d="M28.325 15.2907C28.3382 15.2735 28.3494 15.2659 28.3636 15.2485C28.4724 15.1335 30.9969 12.4167 27.9866 7.82199C25.7649 4.43363 20.1079 4.52907 17.7988 2.76562C17.9696 4.12396 19.301 5.34833 19.1567 7.20975C19.1 7.8232 18.9854 8.4299 18.8141 9.02167C18.5387 10.0843 18.2846 11.0919 18.6658 13.0726C18.9635 14.6157 19.6669 15.7416 20.7584 16.4192C22.0075 17.1936 23.7373 17.3637 25.5118 16.8812C26.7009 16.5577 27.7528 15.9604 28.325 15.2907Z" fill="url(#paint1_linear_7710_16748)"/>
<path fill-rule="evenodd" clip-rule="evenodd" d="M32.0909 13.3065C32.7393 12.1875 32.8623 10.8818 32.4639 9.43361C31.909 7.41029 30.8489 6.08357 29.9942 5.01673C29.7269 4.6791 29.4738 4.36434 29.2716 4.06757C28.4589 2.87689 28.1087 1.43055 28.2867 0C27.2562 0.740501 25.2733 2.14121 24.0039 3.63197C25.8364 4.50968 27.2663 5.46747 28.3996 7.19381C30.3275 10.1341 30.297 12.5107 29.9312 13.9862C29.8285 14.3927 30.606 14.7524 30.4617 15.067C31.1201 14.5985 31.6748 13.9992 32.0909 13.3065Z" fill="url(#paint2_linear_7710_16748)"/>
<path fill-rule="evenodd" clip-rule="evenodd" d="M46.1431 25.5241C43.9884 25.319 39.6243 24.7885 39.6243 24.7885C29.8085 24.2416 24.238 27.1877 20.0314 31.042C16.7852 34.2652 13.8948 42.6235 13.8948 42.6235L10.3789 42.4328C10.3789 42.4328 11.4992 39.0976 12.7935 36.6716C14.2773 33.8903 14.6107 34.1175 14.2738 33.6544C12.7049 31.4977 11.9696 29.803 11.3387 26.1779C11.3387 26.1779 12.0768 26.7572 12.635 26.4036C12.635 26.4036 11.367 24.2026 11.1715 21.8287C10.8251 17.6205 12.7959 11.8765 12.8417 11.744C12.8229 11.8042 12.7174 12.2982 13.8739 13.0353C13.9567 12.6873 14.0444 12.347 14.1371 12.0147C14.5448 10.0293 15.6317 5.69583 17.8067 2.75781C17.8067 2.75781 19.0232 7.00538 22.0783 8.93204C28.0259 12.6839 31.7497 12.704 31.7497 12.704C40.1518 13.6435 43.7394 17.7653 43.7394 17.7653C49.7693 24.2699 55.2464 24.2089 55.2464 24.2089C53.2787 26.0903 46.1431 25.5241 46.1431 25.5241ZM12.8417 11.744C12.8423 11.7418 12.843 11.7398 12.8438 11.7378L12.8417 11.744Z" fill="url(#paint3_linear_7710_16748)"/>
<path fill-rule="evenodd" clip-rule="evenodd" d="M55.3493 24.2109C55.3493 24.2109 54.4946 28.9426 50.0115 29.4945C50.0115 29.4945 33.7563 29.3896 32.5713 44.1564L32.2958 48.3048L12.7949 42.6214C12.7949 42.6214 14.6339 36.3514 18.6526 31.3175C18.6526 31.3175 25.4783 21.6746 44.9299 24.2155C44.9299 24.2155 47.2014 24.6729 50.3886 24.9714C53.0819 25.2235 55.3493 24.2109 55.3493 24.2109Z" fill="url(#paint4_linear_7710_16748)"/>
<path fill-rule="evenodd" clip-rule="evenodd" d="M44.2888 21.9573C44.2888 21.9573 40.0659 19.7609 34.8135 19.9682C34.8135 19.9682 37.6704 17.7358 41.5314 18.2811L44.2888 21.9573Z" fill="#722B00"/>
<path fill-rule="evenodd" clip-rule="evenodd" d="M33.6135 42.1269C33.6135 42.1269 34.9866 43.0747 37.1677 42.5713C37.1677 42.5713 33.644 44.6141 26.2177 41.8132C26.2177 41.8132 18.5586 38.3873 13.171 39.1685C9.70814 39.6706 6.64613 42.4218 4.79183 44.5163C2.55142 47.047 2.83031 45.8639 8.45673 45.1676C9.80927 45.0002 9.03034 45.3849 9.03034 45.3849C9.03034 45.3849 1.51334 48.5335 1.00537 51.3341C0.878536 52.0333 2.9855 50.0601 8.54159 50.235C15.3622 50.4498 21.2966 54.4108 23.7368 55.0638C28.7321 56.4002 35.8972 56.7053 42.4699 51.5509C42.4699 51.5509 48.5354 47.7454 50.4105 40.7134C50.8983 38.7626 51.1858 36.767 51.2683 34.7577C51.3679 32.1393 50.5711 29.3828 50.5711 29.3828C50.5711 29.3828 46.1388 39.2013 33.6135 42.1269Z" fill="url(#paint5_linear_7710_16748)"/>
</g>
<defs>
<linearGradient id="paint0_linear_7710_16748" x1="28.5939" y1="20.9386" x2="29.4424" y2="41.9943" gradientUnits="userSpaceOnUse">
<stop stop-color="#DADB48"/>
<stop offset="0.65625" stop-color="#637621"/>
</linearGradient>
<linearGradient id="paint1_linear_7710_16748" x1="29.4578" y1="11.1314" x2="19.142" y2="11.1314" gradientUnits="userSpaceOnUse">
<stop stop-color="#EC6F01"/>
<stop offset="1" stop-color="#F4B23D"/>
</linearGradient>
<linearGradient id="paint2_linear_7710_16748" x1="30.321" y1="11.5862" x2="29.7112" y2="1.62613" gradientUnits="userSpaceOnUse">
<stop stop-color="#F4B33E"/>
<stop offset="1" stop-color="#FB6F1B"/>
</linearGradient>
<linearGradient id="paint3_linear_7710_16748" x1="13.8569" y1="11.6393" x2="50.14" y2="25.9696" gradientUnits="userSpaceOnUse">
<stop stop-color="#FB6D1A"/>
<stop offset="1" stop-color="#F3B23E"/>
</linearGradient>
<linearGradient id="paint4_linear_7710_16748" x1="17.6683" y1="40.6059" x2="52.1221" y2="25.4625" gradientUnits="userSpaceOnUse">
<stop stop-color="#F3B63F"/>
<stop offset="1" stop-color="#FB701C"/>
</linearGradient>
<linearGradient id="paint5_linear_7710_16748" x1="16.4483" y1="55.8959" x2="46.2777" y2="37.297" gradientUnits="userSpaceOnUse">
<stop stop-color="#EC6F00"/>
<stop offset="1" stop-color="#F4B33E"/>
</linearGradient>
<clipPath id="clip0_7710_16748">
<rect width="54.3739" height="56" fill="white" transform="translate(1)"/>
</clipPath>
</defs>
</svg>
