<svg width="56" height="56" viewBox="0 0 56 56" fill="none" xmlns="http://www.w3.org/2000/svg">
<g clip-path="url(#clip0_7348_18000)">
<path d="M28.2373 55.9973L52.4464 42.0098V14.0547L28.2373 28.0223V55.9973Z" fill="#35777A"/>
<path d="M28.2375 55.9973V27.9951L4.02832 14.0547V42.0098L28.2375 55.9973Z" fill="#43979B"/>
<path d="M4.02832 14.0535L28.2375 28.0212L52.4465 14.0535L28.2375 0.0859375L4.02832 14.0535Z" fill="#3F898D"/>
<path d="M25.7465 3.44531L8.19238 13.5872C8.23223 13.906 8.23223 14.2049 8.19238 14.5237L25.7465 24.6656C27.2209 23.5697 29.2532 23.5697 30.7277 24.6656L48.2819 14.5237C48.242 14.2049 48.242 13.906 48.2819 13.5872L30.7277 3.44531C29.2333 4.54118 27.2209 4.54118 25.7465 3.44531Z" fill="#51B8BC"/>
<path d="M49.9562 17.3125L32.3823 27.5541C32.5815 29.3872 31.5853 31.1208 29.8916 31.8579L29.9116 52.0222C30.1906 52.1417 30.4694 52.301 30.7285 52.5005L48.2827 42.3585C48.0834 40.5254 49.0797 38.7918 50.7731 38.0547V17.7907C50.4943 17.6712 50.2153 17.5117 49.9562 17.3125Z" fill="#459DA2"/>
<path d="M6.51908 17.4375C6.26005 17.6168 6.00103 17.7762 5.70215 17.9157V38.1796C7.39578 38.9167 8.39205 40.6703 8.19281 42.4834L25.7469 52.6255C26.0059 52.4462 26.2649 52.2866 26.5638 52.1472V31.8833C24.8702 31.146 23.8739 29.3927 24.0732 27.5795L6.51908 17.4375Z" fill="#64C1C8"/>
<path d="M11.5783 20.2969H8.35547V35.8873H11.5783V20.2969Z" fill="white"/>
<path d="M17.1975 35.8873V30.1669C17.983 30.2272 18.7888 30.2272 19.4535 30.2272C24.046 30.2272 25.3755 27.9512 25.3755 25.1512C25.3755 21.7472 22.9382 20.2969 19.1916 20.2969H13.9746V35.8873H17.1975ZM18.9297 27.9714C18.3254 27.9714 17.4593 27.9714 17.1773 27.9512V22.6536H19.1916C21.1253 22.6536 22.2332 23.5802 22.2332 25.2721V25.3125C22.2533 26.6418 21.7699 27.9714 18.9297 27.9714Z" fill="white"/>
<path d="M36.3948 20.2969H26.6055V35.8873H29.8284V29.0188H35.9517V26.6822H29.8082V22.6737H36.1732L36.3948 20.2969Z" fill="white"/>
<path d="M46.9483 23.3606L47.7943 21.2053C46.5455 20.2989 44.8333 19.9766 42.6981 19.9766C39.576 19.9766 37.0178 21.4269 37.0178 24.408C37.0178 27.0871 38.992 28.1345 40.9457 28.7791L42.9197 29.4436C44.2692 29.907 45.3772 30.3502 45.3772 31.8004C45.3772 33.1298 44.2291 33.6535 42.4765 33.6535C40.7039 33.6535 38.8105 33.1298 37.723 32.445L36.877 34.7817C38.2868 35.688 40.0795 36.1312 42.4765 36.1312C45.9009 36.1312 48.5396 34.6204 48.5396 31.4378C48.5396 28.4568 46.2636 27.5101 43.9671 26.7446L41.8321 26.0397C40.9053 25.7375 40.2004 25.3145 40.2004 24.126C40.2004 22.9174 41.1875 22.434 42.6781 22.434C44.4908 22.3736 45.9009 22.716 46.9483 23.3606Z" fill="white"/>
</g>
<defs>
<clipPath id="clip0_7348_18000">
<rect width="48.5494" height="56" fill="white" transform="translate(4)"/>
</clipPath>
</defs>
</svg>
