<svg width="56" height="56" viewBox="0 0 56 56" fill="none" xmlns="http://www.w3.org/2000/svg">
<g opacity="0.75">
<path d="M56.0002 8.15614C56.0002 12.6606 52.4199 16.3123 48.0033 16.3123H13.0167V42.8197V50C7.5 50.5 5.4866 50.0975 3.50022 49C1.52651 47.9094 0.000224035 45.5 0.0217084 42.8197V8.15614C0.0217084 3.65163 3.60206 0 8.01864 0H48.0033C52.4199 0 56.0002 3.65163 56.0002 8.15614Z" fill="url(#paint0_linear_7352_19984)"/>
<path d="M45.0042 28.5468C45.0042 33.0513 41.4239 36.7029 37.0073 36.7029L29.3148 36.692V42.8091C29.3363 60.1428 0.0214761 60.6526 0 42.8091C0 42.8091 0 50 8.9997 50C13 50 16.9936 47 16.9936 42.8091C16.9936 42.8091 17.015 36.1931 17.015 36.7029V20.3906H37.0073C41.4239 20.3906 45.0042 24.0423 45.0042 28.5468Z" fill="url(#paint1_linear_7352_19984)"/>
</g>
<defs>
<linearGradient id="paint0_linear_7352_19984" x1="2.5" y1="49.5" x2="21" y2="13.5" gradientUnits="userSpaceOnUse">
<stop offset="0.0719218" stop-color="white"/>
<stop offset="0.231227" stop-color="#DFEDF2"/>
<stop offset="0.34376" stop-color="#BCCED4"/>
<stop offset="0.978047" stop-color="#738C90"/>
</linearGradient>
<linearGradient id="paint1_linear_7352_19984" x1="45" y1="38" x2="2.97497e-08" y2="38" gradientUnits="userSpaceOnUse">
<stop stop-color="#856AAD"/>
<stop offset="0.493055" stop-color="#37AEE0"/>
<stop offset="1" stop-color="#7BC174"/>
</linearGradient>
</defs>
</svg>
