<svg width="56" height="56" viewBox="0 0 56 56" fill="none" xmlns="http://www.w3.org/2000/svg">
<g clip-path="url(#clip0_7352_20080)">
<path d="M56 28C56 35.7189 52.8217 42.6811 47.827 47.827C42.8325 52.973 35.7189 56 28 56C25.2756 56 22.5514 55.5459 20.1297 54.7892C16.1946 53.5784 12.7135 51.6108 9.68649 49.0378C3.78378 44.0433 0 36.4756 0 28C0 20.2811 3.17839 13.3189 8.17297 8.17297C13.3189 3.17839 20.2811 0 28 0C30.4216 0 32.6919 0.302703 34.8108 0.908108C38.2919 1.81622 41.4703 3.32972 44.1947 5.2973C45.4053 6.20541 46.6161 7.11352 47.6756 8.32433C52.8217 13.3189 56 20.2811 56 28Z" fill="#FFD12C"/>
<path d="M24.518 10.1465C21.7936 13.4762 21.945 18.6221 24.6694 25.5843C29.9666 38.7518 30.118 47.6815 25.1233 52.2221C23.6099 53.5843 21.945 54.3412 19.9775 54.7951C16.0423 53.5843 12.5612 51.6168 9.53418 49.0438C13.9234 50.8601 19.372 51.4654 21.945 48.8924C25.2747 45.714 24.6694 38.1465 20.28 27.2493C16.799 18.6221 16.9504 11.9627 20.7342 7.27081C24.3666 3.18434 29.8153 1.51947 34.8099 0.914062C38.2909 1.82217 41.4694 3.33568 44.1936 5.30325C39.0477 4.8492 28.7558 5.00056 24.518 10.1465Z" fill="#131415"/>
</g>
<defs>
<clipPath id="clip0_7352_20080">
<rect width="56" height="56" fill="white"/>
</clipPath>
</defs>
</svg>
