<svg width="141" height="56" viewBox="0 0 141 56" fill="none" xmlns="http://www.w3.org/2000/svg">
<g clip-path="url(#clip0_7712_16534)">
<path d="M7.79614 24.0382C7.79548 24.0449 7.79668 24.0517 7.79962 24.0578C7.80257 24.0639 7.80713 24.069 7.8128 24.0726C7.81848 24.0763 7.82506 24.0783 7.8318 24.0784C7.83854 24.0786 7.84519 24.0768 7.85102 24.0734L15.6699 19.4327C15.6804 19.4266 15.6924 19.4237 15.7044 19.4244C15.7165 19.425 15.7281 19.4292 15.7378 19.4364C15.7476 19.4436 15.755 19.4535 15.7592 19.4649C15.7633 19.4762 15.7641 19.4886 15.7614 19.5004L14.1756 25.7698C14.1725 25.7811 14.1727 25.793 14.1761 25.8043C14.1795 25.8155 14.186 25.8255 14.1948 25.8331C14.2036 25.8408 14.2144 25.8458 14.226 25.8476C14.2375 25.8494 14.2494 25.8478 14.2601 25.8431C16.6619 24.8349 19.1509 24.12 21.6554 23.4064C21.7116 23.3905 21.763 23.3609 21.805 23.3203C21.847 23.2797 21.8783 23.2293 21.896 23.1738L23.8504 16.9861C23.8587 16.9593 23.8748 16.9355 23.8968 16.9174C23.9188 16.8994 23.9457 16.888 23.9742 16.8846C26.9299 16.5706 29.8983 16.2651 32.8794 15.968C33.3409 15.9229 33.7714 15.8566 34.088 16.267C35.3872 17.9403 36.3866 19.8007 37.0864 21.8482C37.0904 21.8607 37.0917 21.8738 37.0902 21.8868C37.0886 21.8998 37.0843 21.9122 37.0775 21.9234C37.0706 21.9345 37.0615 21.944 37.0506 21.9512C37.0398 21.9585 37.0275 21.9633 37.0146 21.9653C32.4239 22.6816 27.8431 23.5066 23.2721 24.4401C17.5103 25.6161 11.6373 27.8963 7.10388 31.7502C5.56177 33.0606 4.36485 34.6297 3.51313 36.4572C3.50966 36.464 3.5044 36.4698 3.49791 36.4739C3.49141 36.478 3.48393 36.4802 3.47626 36.4804C3.4686 36.4805 3.46104 36.4786 3.45439 36.4747C3.44775 36.4709 3.44227 36.4653 3.43855 36.4586C0.603378 31.2341 0.476744 24.9195 3.04599 19.609C7.54569 10.3106 18.809 6.5413 28.0124 11.2455C28.11 11.2953 28.1058 11.3339 27.9998 11.3611C20.2456 13.3607 13.2076 17.8886 7.88338 23.8591C7.83272 23.9164 7.80365 23.9761 7.79614 24.0382Z" fill="#3F8EF7"/>
<path d="M51.1828 23.1089L51.1842 27.8596C51.1842 27.879 51.1919 27.8977 51.2057 27.9114C51.2194 27.9252 51.238 27.9329 51.2574 27.9329L59.7193 27.9343C59.7387 27.9343 59.7573 27.942 59.7711 27.9558C59.7848 27.9696 59.7925 27.9882 59.7925 28.0076L59.7869 31.3384C59.7869 31.3578 59.7791 31.3765 59.7654 31.3902C59.7517 31.404 59.7331 31.4117 59.7137 31.4117L51.256 31.4159C51.2366 31.4159 51.218 31.4237 51.2043 31.4374C51.1905 31.4512 51.1828 31.4698 51.1828 31.4893L51.1744 40.0939C51.1744 40.1035 51.1725 40.113 51.1688 40.1219C51.1651 40.1308 51.1598 40.1389 51.153 40.1457C51.1462 40.1525 51.1381 40.1579 51.1292 40.1616C51.1203 40.1653 51.1108 40.1672 51.1012 40.1672L47.094 40.1658C47.0746 40.1658 47.056 40.1581 47.0423 40.1443C47.0285 40.1306 47.0208 40.1119 47.0208 40.0925L47.0166 19.6202C47.0166 19.6008 47.0243 19.5821 47.038 19.5684C47.0518 19.5546 47.0704 19.5469 47.0898 19.5469L61.0771 19.5567C61.0965 19.5567 61.1151 19.5645 61.1288 19.5782C61.1426 19.592 61.1503 19.6106 61.1503 19.6301V22.958C61.1503 22.9774 61.1426 22.9961 61.1288 23.0098C61.1151 23.0236 61.0965 23.0313 61.0771 23.0313L51.256 23.0355C51.2366 23.0355 51.218 23.0433 51.2043 23.057C51.1905 23.0708 51.1828 23.0894 51.1828 23.1089Z" fill="#3F8EF7"/>
<path d="M69.0523 19.5547H65.3124C65.2526 19.5547 65.2041 19.6033 65.2041 19.6633V23.0899C65.2041 23.1498 65.2526 23.1985 65.3124 23.1985H69.0523C69.1122 23.1985 69.1607 23.1498 69.1607 23.0899V19.6633C69.1607 19.6033 69.1122 19.5547 69.0523 19.5547Z" fill="#3F8EF7"/>
<path d="M77.719 19.5469H73.9397C73.897 19.5469 73.8623 19.5816 73.8623 19.6244V40.0854C73.8623 40.1282 73.897 40.163 73.9397 40.163H77.719C77.7617 40.163 77.7964 40.1282 77.7964 40.0854V19.6244C77.7964 19.5816 77.7617 19.5469 77.719 19.5469Z" fill="#3F8EF7"/>
<path d="M114.819 19.548L111.071 19.5545C111.027 19.5546 110.992 19.59 110.992 19.6337L110.998 23.1195C110.998 23.1631 111.034 23.1984 111.077 23.1983L114.826 23.1918C114.869 23.1917 114.904 23.1563 114.904 23.1127L114.898 19.6268C114.898 19.5832 114.863 19.5479 114.819 19.548Z" fill="#3F8EF7"/>
<path d="M123.498 19.5469H119.744C119.693 19.5469 119.652 19.5879 119.652 19.6385V40.0685C119.652 40.1191 119.693 40.1601 119.744 40.1601H123.498C123.548 40.1601 123.589 40.1191 123.589 40.0685V19.6385C123.589 19.5879 123.548 19.5469 123.498 19.5469Z" fill="#3F8EF7"/>
<path d="M104.938 25.2142L107.482 25.2353C107.506 25.2353 107.529 25.2449 107.545 25.2618C107.562 25.2787 107.572 25.3017 107.572 25.3256L107.552 28.308C107.552 28.3196 107.548 28.3307 107.539 28.3389C107.531 28.3471 107.52 28.3517 107.509 28.3517L104.908 28.356C104.894 28.356 104.881 28.3615 104.871 28.3712C104.86 28.381 104.855 28.3943 104.855 28.4081C104.863 30.9125 104.868 33.4211 104.868 35.934C104.868 37.77 106.37 37.2482 107.469 36.9225C107.479 36.9196 107.49 36.9188 107.5 36.9204C107.51 36.922 107.52 36.9258 107.529 36.9315C107.538 36.9373 107.545 36.9449 107.55 36.9538C107.556 36.9627 107.559 36.9727 107.561 36.9831L107.869 39.8612C107.872 39.8887 107.866 39.9164 107.852 39.9399C107.838 39.9635 107.817 39.9814 107.791 39.9909C106.144 40.6311 103.525 40.8962 102.066 39.7343C100.936 38.836 100.918 36.9324 100.922 35.5815C100.93 33.188 100.932 30.8007 100.931 28.4194C100.931 28.4104 100.929 28.4015 100.925 28.3932C100.922 28.3849 100.917 28.3774 100.911 28.3711C100.904 28.3647 100.897 28.3598 100.889 28.3565C100.881 28.3532 100.872 28.3515 100.863 28.3517L99.2155 28.3588C99.1878 28.3588 99.1614 28.3476 99.1418 28.3278C99.1223 28.308 99.1113 28.2811 99.1113 28.253L99.1127 25.2833C99.1127 25.2746 99.1145 25.266 99.1179 25.2579C99.1213 25.2499 99.1263 25.2426 99.1325 25.2364C99.1388 25.2303 99.1462 25.2254 99.1544 25.2221C99.1626 25.2187 99.1714 25.217 99.1803 25.217L100.839 25.2311C100.851 25.2313 100.864 25.229 100.875 25.2243C100.887 25.2197 100.897 25.2127 100.906 25.2039C100.915 25.1952 100.921 25.1847 100.926 25.1731C100.931 25.1616 100.933 25.1492 100.933 25.1366L100.928 22.3418C100.928 22.2825 100.953 22.2379 101.004 22.2078L104.752 19.9868C104.763 19.9803 104.775 19.9768 104.788 19.9766C104.8 19.9764 104.812 19.9795 104.823 19.9857C104.834 19.9919 104.843 20.0009 104.85 20.0117C104.856 20.0226 104.859 20.0349 104.859 20.0475L104.863 25.1395C104.863 25.1893 104.888 25.2142 104.938 25.2142Z" fill="#3F8EF7"/>
<path d="M130.893 35.4833C131.232 36.7439 131.95 37.418 133.296 37.6295C134.401 37.8044 136.651 37.7212 136.869 36.2377C137.017 35.2351 136.095 34.9785 135.161 34.7796C133.471 34.4186 131.923 33.9928 130.516 33.502C125.751 31.8423 126.817 25.9071 131.504 25.1076C133.069 24.8406 134.606 24.8392 136.118 25.1033C138.26 25.4775 139.653 26.7043 140.296 28.7838C140.3 28.7962 140.301 28.8093 140.3 28.8222C140.298 28.835 140.294 28.8474 140.287 28.8585C140.28 28.8696 140.271 28.8791 140.26 28.8863C140.25 28.8936 140.237 28.8986 140.225 28.9008L136.679 29.5551C136.657 29.5591 136.635 29.5548 136.616 29.5431C136.597 29.5314 136.583 29.5131 136.576 29.4916C136.285 28.5177 135.625 27.9602 134.598 27.8192C133.7 27.6965 131.446 27.6458 131.12 28.7527C130.941 29.3591 131.445 29.7694 131.985 29.9584C134.207 30.7368 136.564 30.9525 138.697 31.996C140.724 32.9888 141.287 35.2196 140.505 37.2403C139.801 39.058 137.737 40.1875 135.829 40.4244C132.158 40.8813 128.12 40.117 126.92 36.0741C126.916 36.0612 126.915 36.0477 126.917 36.0344C126.919 36.0211 126.924 36.0083 126.931 35.997C126.938 35.9856 126.947 35.9759 126.959 35.9686C126.97 35.9612 126.983 35.9563 126.996 35.9543L130.734 35.3789C130.769 35.3739 130.804 35.3817 130.833 35.4009C130.863 35.4202 130.884 35.4494 130.893 35.4833Z" fill="#3F8EF7"/>
<path d="M69.064 25.2188H65.3016C65.2472 25.2188 65.2031 25.2629 65.2031 25.3175V40.0618C65.2031 40.1163 65.2472 40.1605 65.3016 40.1605H69.064C69.1184 40.1605 69.1625 40.1163 69.1625 40.0618V25.3175C69.1625 25.2629 69.1184 25.2188 69.064 25.2188Z" fill="#3F8EF7"/>
<path d="M92.4007 38.0862C92.4005 38.0743 92.3966 38.0627 92.3896 38.0531C92.3827 38.0435 92.3729 38.0362 92.3617 38.0324C92.3504 38.0285 92.3383 38.0282 92.3269 38.0315C92.3155 38.0349 92.3054 38.0416 92.2979 38.0509C90.4646 40.4481 87.0202 41.4183 84.3693 39.6345C82.5387 38.402 82.4487 36.1458 82.4543 34.1717C82.4628 31.2113 82.4684 28.251 82.4712 25.2907C82.4712 25.2437 82.4942 25.2202 82.5402 25.2202L86.3307 25.2188C86.3409 25.2188 86.3509 25.2208 86.3603 25.2247C86.3697 25.2286 86.3782 25.2343 86.3854 25.2415C86.3926 25.2487 86.3983 25.2572 86.4022 25.2666C86.4061 25.276 86.4081 25.2861 86.4081 25.2963C86.4015 28.0235 86.4067 30.7587 86.4236 33.5018C86.4292 34.4579 86.4053 35.7919 86.8823 36.5421C87.7265 37.8718 89.6879 37.7153 90.8248 36.8721C91.4364 36.418 91.8045 35.8116 91.9293 35.053C92.0625 34.2445 92.1249 33.0459 92.1164 31.4572C92.1052 29.404 92.0996 27.3504 92.0996 25.2963C92.0996 25.2455 92.1249 25.2202 92.1755 25.2202L95.9605 25.2216C95.9761 25.2216 95.9912 25.2277 96.0022 25.2385C96.0133 25.2493 96.0195 25.2641 96.0195 25.2794L96.0181 40.09C96.0181 40.1398 95.9933 40.1647 95.9436 40.1647L92.5231 40.1633C92.4264 40.1633 92.3786 40.1154 92.3795 40.0195L92.4007 38.0862Z" fill="#3F8EF7"/>
<path d="M114.823 25.2188H111.081C111.034 25.2188 110.996 25.2566 110.996 25.3034V40.0787C110.996 40.1254 111.034 40.1633 111.081 40.1633H114.823C114.87 40.1633 114.908 40.1254 114.908 40.0787V25.3034C114.908 25.2566 114.87 25.2188 114.823 25.2188Z" fill="#3F8EF7"/>
<path d="M20.3563 30.3271C20.3694 30.2576 20.3417 30.2317 20.2733 30.2496L13.1396 32.0686C13.0383 32.0949 12.9862 32.1603 12.9834 32.2646C12.9229 34.4221 12.3967 36.8278 10.9221 38.4692C10.0047 39.4887 8.45136 40.0739 7.29337 39.1827C6.38724 38.4847 6.50543 37.2029 7.03166 36.268C8.43026 33.7833 10.9404 32.087 13.4984 30.9744C17.1103 29.4063 21.0922 28.4784 24.9531 27.9172C29.2567 27.2921 33.5843 27.0443 37.9358 27.1741C37.9531 27.1744 37.9695 27.1816 37.9816 27.194C37.9937 27.2064 38.0005 27.223 38.0005 27.2403C38.3072 42.67 20.8136 51.6229 8.43166 42.3132C8.33692 42.2418 8.34912 42.2037 8.46825 42.199C13.4801 41.9691 16.909 38.9317 18.983 34.5307C19.6246 33.1704 20.0824 31.7692 20.3563 30.3271Z" fill="#3F8EF7"/>
</g>
<defs>
<clipPath id="clip0_7712_16534">
<rect width="140" height="37.3684" fill="white" transform="translate(1 9)"/>
</clipPath>
</defs>
</svg>
