<svg width="140" height="56" viewBox="0 0 140 56" fill="none" xmlns="http://www.w3.org/2000/svg">
<g clip-path="url(#clip0_7352_20057)">
<path fill-rule="evenodd" clip-rule="evenodd" d="M3.18564 25.8382C3.2368 25.5884 3.45915 25.3982 3.72138 25.3982H5.8896C6.17948 25.3982 6.30859 25.2678 6.48088 25.0148L7.43638 23.2674C7.52641 23.1028 7.70249 23 7.8943 23H15.8734C16.0788 23 16.2498 23.154 16.2662 23.3528C16.5872 27.2269 16.9941 29.8529 19.5703 32.2299C19.8406 32.4793 19.6677 32.948 19.2947 32.948H0.407756C0.0342503 32.948 -0.138916 32.478 0.131741 32.2283C1.9759 30.5265 2.71475 28.6647 3.10503 26.2551C3.12458 26.1344 3.14851 26.0184 3.17254 25.9019C3.17691 25.8807 3.18129 25.8595 3.18564 25.8382ZM26.9493 32.8933C26.7345 32.8933 26.5604 32.7241 26.5604 32.5155V25.7599C26.5604 25.5513 26.3863 25.3822 26.1716 25.3822H22.5686C22.3539 25.3822 22.1798 25.213 22.1798 25.0044V23.4326C22.1798 23.2239 22.3539 23.0548 22.5686 23.0548H34.0685C34.3558 23.0548 34.5439 23.347 34.4181 23.5979L33.6302 25.1698C33.5651 25.2997 33.4294 25.3822 33.2806 25.3822H30.1663C29.9516 25.3822 29.7775 25.5513 29.7775 25.7599V32.5155C29.7775 32.7241 29.6034 32.8933 29.3887 32.8933H26.9493ZM40.8977 28.8732C41.1894 28.8732 41.3772 28.5729 41.2429 28.3214L39.9189 25.8435C39.7724 25.5693 39.3673 25.5727 39.2257 25.8493L37.9569 28.3272C37.8283 28.5784 38.0163 28.8732 38.305 28.8732H40.8977ZM43.9099 32.8933C43.7646 32.8933 43.6313 32.8145 43.5646 32.6892L42.8238 31.2989C42.757 31.1736 42.6238 31.0948 42.4785 31.0948H36.7982C36.6422 31.0948 36.5014 31.1853 36.4404 31.3247L35.8541 32.6634C35.7931 32.8028 35.6522 32.8933 35.4963 32.8933H33.1356C32.8472 32.8933 32.6591 32.5989 32.7872 32.3478L37.4196 23.2648C37.4851 23.1362 37.6202 23.0548 37.768 23.0548H41.4286C41.5717 23.0548 41.7032 23.1311 41.771 23.2536L46.8011 32.3365C46.9404 32.5882 46.7528 32.8933 46.4586 32.8933H43.9099ZM47.7996 32.5155C47.7996 32.7241 47.9736 32.8933 48.1884 32.8933H56.6019C59.4128 32.8933 60.8183 31.95 60.8183 30.0634V29.8782C60.8183 29.4727 60.7408 29.1113 60.5856 28.7939C60.4305 28.4765 60.2251 28.2297 59.9696 28.0534C59.714 27.8682 59.4813 27.7272 59.2714 27.6302C59.2166 27.6049 59.1614 27.581 59.106 27.5587C58.9775 27.507 58.9704 27.2832 59.0935 27.2203C59.2486 27.1409 59.422 27.0307 59.6137 26.8897C59.8053 26.7398 59.9559 26.5459 60.0654 26.3078C60.1841 26.061 60.2434 25.7877 60.2434 25.488V25.3028C60.2434 24.6416 59.9604 24.1039 59.3946 23.6895C58.8288 23.2664 57.8705 23.0548 56.5198 23.0548H48.1884C47.9736 23.0548 47.7996 23.2239 47.7996 23.4326V32.5155ZM51.3781 25.1309H55.9722C56.7115 25.1309 57.0811 25.391 57.0811 25.9111V25.9376C57.0811 26.4665 56.7115 26.731 55.9722 26.731H51.3781C51.1633 26.731 50.9892 26.5619 50.9892 26.3532V25.5087C50.9892 25.3001 51.1633 25.1309 51.3781 25.1309ZM51.3781 28.8203H56.246C57.0856 28.8203 57.5055 29.1245 57.5055 29.7328V29.7857C57.5055 30.0413 57.4142 30.2661 57.2317 30.4601C57.0491 30.6541 56.7206 30.7511 56.246 30.7511H51.3781C51.1633 30.7511 50.9892 30.5819 50.9892 30.3733V29.1981C50.9892 28.9895 51.1633 28.8203 51.3781 28.8203ZM62.096 23.4326C62.096 23.2239 62.2702 23.0548 62.4847 23.0548H64.8971C65.1116 23.0548 65.2857 23.2239 65.2857 23.4326V30.0691C65.2857 30.2777 65.4597 30.4469 65.6743 30.4469H71.5852C71.8004 30.4469 71.9745 30.616 71.9745 30.8247V32.5155C71.9745 32.7241 71.8004 32.8933 71.5852 32.8933H62.4847C62.2702 32.8933 62.096 32.7241 62.096 32.5155V23.4326ZM73.9286 23.0548C73.7135 23.0548 73.5394 23.2239 73.5394 23.4326V32.5155C73.5394 32.7241 73.7135 32.8933 73.9286 32.8933H84.0202C84.2347 32.8933 84.4088 32.7241 84.4088 32.5155V30.9833C84.4088 30.7747 84.2347 30.6056 84.0202 30.6056H77.0772C76.862 30.6056 76.6879 30.4364 76.6879 30.2278V29.37C76.6879 29.1614 76.862 28.9923 77.0772 28.9923H83.7056C83.9201 28.9923 84.0942 28.8231 84.0942 28.6145V27.122C84.0942 26.9134 83.9201 26.7442 83.7056 26.7442H77.0772C76.862 26.7442 76.6879 26.5751 76.6879 26.3664V25.6674C76.6879 25.4587 76.862 25.2896 77.0772 25.2896H83.8835C84.098 25.2896 84.2721 25.1205 84.2721 24.9118V23.4326C84.2721 23.2239 84.098 23.0548 83.8835 23.0548H73.9286ZM85.8612 23.4326C85.8612 23.2239 86.0353 23.0548 86.2505 23.0548H88.6622C88.8774 23.0548 89.0515 23.2239 89.0515 23.4326V30.0691C89.0515 30.2777 89.2255 30.4469 89.44 30.4469H95.2428C95.5313 30.4469 95.7191 30.7414 95.591 30.9925L94.728 32.6833C94.6621 32.8119 94.5272 32.8933 94.3799 32.8933H86.2505C86.0353 32.8933 85.8612 32.7241 85.8612 32.5155V23.4326ZM104.981 28.3214C105.116 28.5729 104.927 28.8732 104.636 28.8732H102.043C101.754 28.8732 101.567 28.5784 101.695 28.3272L102.964 25.8493C103.105 25.5727 103.51 25.5693 103.657 25.8435L104.981 28.3214ZM107.303 32.6892C107.369 32.8145 107.503 32.8933 107.648 32.8933H110.197C110.491 32.8933 110.678 32.5882 110.539 32.3365L105.509 23.2536C105.441 23.1311 105.31 23.0548 105.167 23.0548H101.503C101.357 23.0548 101.223 23.1346 101.157 23.2614L96.4049 32.3443C96.2731 32.5957 96.4608 32.8933 96.7512 32.8933H99.1207C99.2687 32.8933 99.4036 32.8119 99.4689 32.6832L100.172 31.3049C100.237 31.1763 100.373 31.0948 100.52 31.0948H106.217C106.362 31.0948 106.495 31.1736 106.562 31.2989L107.303 32.6892ZM111.408 23.4326C111.408 23.2239 111.582 23.0548 111.797 23.0548H114.809C114.91 23.0548 115.008 23.0935 115.08 23.1627L120.809 28.6144C121.055 28.8487 121.47 28.6793 121.47 28.3446V23.4326C121.47 23.2239 121.644 23.0548 121.859 23.0548H124.229C124.445 23.0548 124.619 23.2239 124.619 23.4326V32.5155C124.619 32.7241 124.445 32.8933 124.229 32.8933H121.627C121.527 32.8933 121.429 32.855 121.357 32.7865L115.217 26.9961C114.97 26.7635 114.557 26.9333 114.557 27.2671V32.5155C114.557 32.7241 114.383 32.8933 114.168 32.8933H111.797C111.582 32.8933 111.408 32.7241 111.408 32.5155V23.4326ZM126.181 32.5155C126.181 32.7241 126.355 32.8933 126.569 32.8933H132.684C133.825 32.8933 134.833 32.7919 135.709 32.5891C136.586 32.3864 137.279 32.1307 137.79 31.8221C138.301 31.5136 138.716 31.1389 139.036 30.6981C139.365 30.2573 139.584 29.8342 139.693 29.4287C139.802 29.0143 139.857 28.5735 139.857 28.1063V27.7096C139.857 27.3128 139.812 26.9426 139.72 26.5988C139.638 26.2461 139.502 25.8891 139.309 25.5276C139.118 25.1662 138.84 24.8444 138.474 24.5623C138.109 24.2714 137.672 24.0113 137.161 23.7821C136.65 23.5441 136.01 23.3633 135.244 23.2399C134.477 23.1165 133.619 23.0548 132.67 23.0548H126.569C126.355 23.0548 126.181 23.2239 126.181 23.4326V32.5155ZM129.37 25.7599C129.37 25.5513 129.544 25.3822 129.759 25.3822H132.683C135.412 25.3822 136.776 26.2241 136.776 27.9079V27.9873C136.776 29.6799 135.412 30.5262 132.683 30.5262H129.759C129.544 30.5262 129.37 30.3571 129.37 30.1485V25.7599Z" fill="#1A1A1A"/>
</g>
<defs>
<clipPath id="clip0_7352_20057">
<rect width="140" height="9.94801" fill="white" transform="translate(0 23)"/>
</clipPath>
</defs>
</svg>
