<svg width="101" height="100" viewBox="0 0 101 100" fill="none" xmlns="http://www.w3.org/2000/svg">
<path d="M49.89 41.5365C49.89 41.2603 50.1138 41.0365 50.39 41.0365H57.7233C57.9994 41.0365 58.2233 41.2603 58.2233 41.5365V65.5365C58.2233 65.8126 57.9994 66.0365 57.7233 66.0365H50.39C50.1138 66.0365 49.89 65.8126 49.89 65.5365V41.5365ZM66.5566 29.0365C66.5566 28.7603 66.7805 28.5365 67.0566 28.5365H74.39C74.6661 28.5365 74.89 28.7603 74.89 29.0365V78.0365C74.89 78.3126 74.6661 78.5365 74.39 78.5365H67.0566C66.7805 78.5365 66.5566 78.3126 66.5566 78.0365V29.0365ZM33.2233 20.7031C33.2233 20.427 33.4472 20.2031 33.7233 20.2031H41.0566C41.3328 20.2031 41.5566 20.427 41.5566 20.7031V86.3698C41.5566 86.6459 41.3328 86.8698 41.0566 86.8698H33.7233C33.4472 86.8698 33.2233 86.6459 33.2233 86.3698V20.7031ZM83.2233 49.8698C83.2233 49.5936 83.4472 49.3698 83.7233 49.3698H91.0566C91.3328 49.3698 91.5566 49.5936 91.5566 49.8698V57.2031C91.5566 57.4793 91.3328 57.7031 91.0566 57.7031H83.7233C83.4472 57.7031 83.2233 57.4793 83.2233 57.2031V49.8698ZM16.5566 45.7031C16.5566 45.427 16.7805 45.2031 17.0566 45.2031H24.39C24.6661 45.2031 24.89 45.427 24.89 45.7031V61.3698C24.89 61.6459 24.6661 61.8698 24.39 61.8698H17.0566C16.7805 61.8698 16.5566 61.6459 16.5566 61.3698V45.7031Z" fill="#2F3134"/>
<path d="M46.8275 37.974H54.1608V61.974H46.8275V37.974ZM63.4941 25.474L70.8275 25.474V74.474H63.4941L63.4941 25.474ZM30.1608 17.1406L37.4941 17.1406V82.8073H30.1608V17.1406ZM80.1608 46.3073L87.4941 46.3073V53.6406H80.1608V46.3073ZM13.4941 42.1406L20.8275 42.1406L20.8275 57.8073H13.4941L13.4941 42.1406Z" fill="white" stroke="#2F3134"/>
</svg>
