<svg xmlns="http://www.w3.org/2000/svg" width="101" height="100" viewBox="0 0 101 100" fill="none">
    <path d="M94.499 25.6031L82.0031 13.1115C81.6169 12.7238 81.1577 12.4163 80.6521 12.2068C80.1466 11.9973 79.6046 11.8898 79.0573 11.8906H29.0573C28.51 11.8898 27.968 11.9973 27.4624 12.2068C26.9569 12.4163 26.4977 12.7238 26.1115 13.1115L13.6156 25.6031C13.2263 25.9893 12.9176 26.4489 12.7073 26.9553C12.497 27.4617 12.3894 28.0048 12.3906 28.5531V82.724C12.3906 87.3198 16.1281 91.0573 20.724 91.0573H87.3906C91.9865 91.0573 95.724 87.3198 95.724 82.724V28.5531C95.7252 28.0048 95.6176 27.4617 95.4073 26.9553C95.197 26.4489 94.8883 25.9893 94.499 25.6031ZM30.6359 20.3704C30.7296 20.2766 30.8568 20.224 30.9894 20.224H77.1252C77.2578 20.224 77.385 20.2766 77.4787 20.3704L80.6412 23.5329C80.9562 23.8479 80.7331 24.3865 80.2877 24.3865H27.8269C27.3815 24.3865 27.1584 23.8479 27.4734 23.5329L30.6359 20.3704ZM21.224 82.724C20.9478 82.724 20.724 82.5001 20.724 82.224V33.2198C20.724 32.9437 20.9478 32.7198 21.224 32.7198H86.8907C87.1668 32.7198 87.3907 32.9436 87.3907 33.2197L87.3989 82.2239C87.3989 82.5001 87.175 82.724 86.8989 82.724H21.224Z" fill="#2F3134"/>
    <path d="M66.5573 53.0573C66.5573 53.3334 66.3334 53.5573 66.0573 53.5573H42.0573C41.7812 53.5573 41.5573 53.3334 41.5573 53.0573V45.724C41.5573 45.4478 41.3334 45.224 41.0573 45.224H33.724C33.4478 45.224 33.224 45.4478 33.224 45.724V61.3906C33.224 61.6668 33.4478 61.8906 33.724 61.8906H74.3906C74.6668 61.8906 74.8906 61.6668 74.8906 61.3906V45.724C74.8906 45.4478 74.6668 45.224 74.3906 45.224H67.0573C66.7812 45.224 66.5573 45.4478 66.5573 45.724V53.0573Z" fill="#2F3134"/>
    <path d="M22.549 9.54896C22.9352 9.16129 23.3944 8.85384 23.8999 8.64431C24.4055 8.43479 24.9475 8.32734 25.4948 8.32813H75.4948L90.9365 22.0406C91.3258 22.4268 91.6345 22.8864 91.8448 23.3928C92.0551 23.8992 92.1627 24.4423 92.1615 24.9906V79.1615C92.1615 83.7573 88.424 87.4948 83.8281 87.4948H17.1615C12.5656 87.4948 8.82814 83.7573 8.82814 79.1615V24.9906C8.82688 24.4423 8.93451 23.8992 9.1448 23.3928C9.35509 22.8864 9.66383 22.4268 10.0531 22.0406M22.549 9.54896L10.0531 22.0406M22.549 9.54896L22.549 9.54897L22.549 9.54896ZM10.0531 22.0406L10.0531 22.0406L10.0531 22.0406ZM90.583 22.3942L90.5843 22.3956C90.9267 22.7351 91.1981 23.1393 91.383 23.5845C91.5679 24.0298 91.6626 24.5074 91.6615 24.9895V24.9906V79.1615C91.6615 83.4812 88.1478 86.9948 83.8281 86.9948H17.1615C12.8418 86.9948 9.32814 83.4812 9.32814 79.1615L9.32814 24.9906L9.32813 24.9895C9.32703 24.5074 9.42167 24.0298 9.60657 23.5845C9.79147 23.1393 10.0629 22.7351 10.4052 22.3956L10.4066 22.3942L22.9025 9.90258L22.9032 9.90187C23.2429 9.5609 23.6467 9.2905 24.0914 9.10622C24.536 8.92194 25.0127 8.82743 25.4941 8.82813H25.4948L75.4948 8.82813L75.4955 8.82813C75.9768 8.82743 76.4536 8.92194 76.8982 9.10622C77.3429 9.2905 77.7467 9.56091 78.0864 9.90187L78.0871 9.90257L90.583 22.3942ZM27.4269 16.1615C27.1617 16.1615 26.9073 16.2668 26.7198 16.4544L23.5573 19.6169C22.9273 20.2468 23.3735 21.324 24.2644 21.324H76.7252C77.6161 21.324 78.0622 20.2468 77.4323 19.6169L74.2698 16.4544C74.0823 16.2668 73.8279 16.1615 73.5627 16.1615H27.4269ZM16.6615 78.6615C16.6615 79.2138 17.1092 79.6615 17.6615 79.6615H83.3364C83.8887 79.6615 84.3365 79.2137 84.3364 78.6613L84.3282 29.6571C84.3281 29.1049 83.8804 28.6573 83.3282 28.6573H17.6615C17.1092 28.6573 16.6615 29.105 16.6615 29.6573V78.6615ZM62.4948 50.4948C63.0471 50.4948 63.4948 50.0471 63.4948 49.4948V42.1615H70.8281V57.8281H30.1615V42.1615H37.4948V49.4948C37.4948 50.0471 37.9425 50.4948 38.4948 50.4948H62.4948Z" fill="white" stroke="#2F3134"/>
</svg>