<svg width="101" height="100" viewBox="0 0 101 100" fill="none" xmlns="http://www.w3.org/2000/svg">
<path d="M94.499 25.6031L82.0031 13.1115C81.6169 12.7238 81.1577 12.4163 80.6521 12.2068C80.1466 11.9973 79.6046 11.8898 79.0573 11.8906H29.0573C28.51 11.8898 27.968 11.9973 27.4624 12.2068C26.9569 12.4163 26.4977 12.7238 26.1115 13.1115L13.6156 25.6031C13.2263 25.9893 12.9176 26.4489 12.7073 26.9553C12.497 27.4617 12.3894 28.0048 12.3906 28.5531V82.724C12.3906 87.3198 16.1281 91.0573 20.724 91.0573H87.3906C91.9865 91.0573 95.724 87.3198 95.724 82.724V28.5531C95.7252 28.0048 95.6176 27.4617 95.4073 26.9553C95.197 26.4489 94.8883 25.9893 94.499 25.6031ZM30.6359 20.3704C30.7296 20.2766 30.8568 20.224 30.9894 20.224H77.1252C77.2578 20.224 77.385 20.2766 77.4787 20.3704L80.6412 23.5329C80.9562 23.8479 80.7331 24.3865 80.2877 24.3865H27.8269C27.3815 24.3865 27.1584 23.8479 27.4734 23.5329L30.6359 20.3704ZM21.224 82.724C20.9478 82.724 20.724 82.5001 20.724 82.224V33.2198C20.724 32.9437 20.9478 32.7198 21.224 32.7198H86.8907C87.1668 32.7198 87.3907 32.9436 87.3907 33.2197L87.3989 82.2239C87.3989 82.5001 87.175 82.724 86.8989 82.724H21.224Z" fill="#2F3134"/>
<path d="M66.5573 53.0573C66.5573 53.3334 66.3334 53.5573 66.0573 53.5573H42.0573C41.7812 53.5573 41.5573 53.3334 41.5573 53.0573V45.724C41.5573 45.4478 41.3334 45.224 41.0573 45.224H33.724C33.4478 45.224 33.224 45.4478 33.224 45.724V61.3906C33.224 61.6668 33.4478 61.8906 33.724 61.8906H74.3906C74.6668 61.8906 74.8906 61.6668 74.8906 61.3906V45.724C74.8906 45.4478 74.6668 45.224 74.3906 45.224H67.0573C66.7812 45.224 66.5573 45.4478 66.5573 45.724V53.0573Z" fill="#2F3134"/>
<path d="M22.548 9.54896C22.9343 9.16129 23.3934 8.85384 23.899 8.64431C24.4045 8.43479 24.9466 8.32734 25.4938 8.32813H75.4938L90.9355 22.0406C91.3248 22.4268 91.6335 22.8864 91.8438 23.3928C92.0541 23.8992 92.1617 24.4423 92.1605 24.9906V79.1615C92.1605 83.7573 88.423 87.4948 83.8271 87.4948H17.1605C12.5647 87.4948 8.82716 83.7573 8.82716 79.1615V24.9906C8.8259 24.4423 8.93354 23.8992 9.14382 23.3928C9.35411 22.8864 9.66286 22.4268 10.0522 22.0406M22.548 9.54896L10.0522 22.0406M22.548 9.54896L22.548 9.54897L22.548 9.54896ZM10.0522 22.0406L10.0522 22.0406L10.0522 22.0406ZM90.582 22.3942L90.5834 22.3956C90.9257 22.7351 91.1971 23.1393 91.382 23.5845C91.5669 24.0298 91.6616 24.5074 91.6605 24.9895V24.9906V79.1615C91.6605 83.4812 88.1468 86.9948 83.8271 86.9948H17.1605C12.8408 86.9948 9.32716 83.4812 9.32716 79.1615L9.32716 24.9906L9.32716 24.9895C9.32605 24.5074 9.42069 24.0298 9.60559 23.5845C9.79049 23.1393 10.062 22.7351 10.4043 22.3956L10.4057 22.3942L22.9015 9.90258L22.9022 9.90187C23.2419 9.5609 23.6457 9.2905 24.0904 9.10622C24.5351 8.92194 25.0118 8.82743 25.4931 8.82813H25.4938L75.4938 8.82813L75.4945 8.82813C75.9759 8.82743 76.4526 8.92194 76.8972 9.10622C77.3419 9.2905 77.7457 9.56091 78.0855 9.90187L78.0862 9.90257L90.582 22.3942ZM27.4259 16.1615C27.1607 16.1615 26.9064 16.2668 26.7188 16.4544L23.5563 19.6169C22.9264 20.2468 23.3725 21.324 24.2634 21.324H76.7242C77.6151 21.324 78.0613 20.2468 77.4313 19.6169L74.2688 16.4544C74.0813 16.2668 73.8269 16.1615 73.5617 16.1615H27.4259ZM16.6605 78.6615C16.6605 79.2138 17.1082 79.6615 17.6605 79.6615H83.3354C83.8877 79.6615 84.3355 79.2137 84.3354 78.6613L84.3272 29.6571C84.3271 29.1049 83.8794 28.6573 83.3272 28.6573H17.6605C17.1082 28.6573 16.6605 29.105 16.6605 29.6573V78.6615ZM62.4938 50.4948C63.0461 50.4948 63.4938 50.0471 63.4938 49.4948V42.1615H70.8271V57.8281H30.1605V42.1615H37.4938V49.4948C37.4938 50.0471 37.9415 50.4948 38.4938 50.4948H62.4938Z" fill="white" stroke="#2F3134"/>
</svg>
