<svg width="101" height="100" viewBox="0 0 101 100" fill="none" xmlns="http://www.w3.org/2000/svg">
<path d="M86.9851 39.3323C86.7876 38.8801 86.5111 38.4667 86.1685 38.1115L61.1685 13.1115C60.8133 12.7689 60.3999 12.4923 59.9477 12.2948C59.8227 12.2365 59.6893 12.2031 59.556 12.1573C59.2073 12.0387 58.8444 11.9672 58.4768 11.9448C58.3893 11.9365 58.3102 11.8906 58.2226 11.8906H29.056C24.4602 11.8906 20.7227 15.6281 20.7227 20.224V86.8906C20.7227 91.4865 24.4602 95.224 29.056 95.224H79.056C83.6518 95.224 87.3893 91.4865 87.3893 86.8906V41.0573C87.3893 40.9698 87.3435 40.8906 87.3351 40.799C87.3148 40.4311 87.2433 40.0679 87.1227 39.7198C87.081 39.5865 87.0435 39.4573 86.9851 39.3323ZM72.3108 36.0371C72.6257 36.3521 72.4027 36.8906 71.9572 36.8906H62.8893C62.6132 36.8906 62.3893 36.6668 62.3893 36.3906V27.3227C62.3893 26.8773 62.9279 26.6542 63.2429 26.9692L72.3108 36.0371ZM29.556 86.8906C29.2798 86.8906 29.056 86.6668 29.056 86.3906V20.724C29.056 20.4478 29.2798 20.224 29.556 20.224H53.556C53.8321 20.224 54.056 20.4478 54.056 20.724V41.0573C54.056 42.1624 54.495 43.2222 55.2764 44.0036C56.0578 44.785 57.1176 45.224 58.2226 45.224H78.5561C78.8322 45.224 79.056 45.4478 79.0561 45.7239L79.0642 86.3905C79.0643 86.6667 78.8404 86.8906 78.5642 86.8906H29.556Z" fill="#2F3134"/>
<path d="M37.3893 54.0573C37.3893 53.7811 37.6132 53.5573 37.8893 53.5573H70.2226C70.4988 53.5573 70.7226 53.7811 70.7226 54.0573V61.3906C70.7226 61.6668 70.4988 61.8906 70.2226 61.8906H37.8893C37.6132 61.8906 37.3893 61.6668 37.3893 61.3906V54.0573ZM37.3893 70.724C37.3893 70.4478 37.6132 70.224 37.8893 70.224H70.2226C70.4988 70.224 70.7226 70.4478 70.7226 70.724V78.0573C70.7226 78.3334 70.4988 78.5573 70.2226 78.5573H37.8893C37.6132 78.5573 37.3893 78.3334 37.3893 78.0573V70.724ZM37.3893 37.3906C37.3893 37.1145 37.6132 36.8906 37.8893 36.8906H45.2227C45.4988 36.8906 45.7227 37.1145 45.7227 37.3906V44.724C45.7227 45.0001 45.4988 45.224 45.2227 45.224H37.8893C37.6132 45.224 37.3893 45.0001 37.3893 44.724V37.3906Z" fill="#2F3134"/>
<path d="M82.9654 35.9699L82.9653 35.97L82.9705 35.9812C83.0069 36.0592 83.0318 36.1391 83.0699 36.2615C83.0743 36.2759 83.079 36.2908 83.0839 36.3064L83.0862 36.3137L83.0887 36.321C83.1941 36.6252 83.2566 36.9426 83.2744 37.2641L83.2749 37.2729L83.2757 37.2817C83.2809 37.3389 83.2914 37.3882 83.3008 37.4255C83.3095 37.4599 83.3201 37.4946 83.3244 37.5092C83.3258 37.5138 83.3269 37.5176 83.3278 37.5209V83.3281C83.3278 87.6478 79.8142 91.1615 75.4945 91.1615H25.4945C21.1748 91.1615 17.6611 87.6478 17.6611 83.3281V16.6615C17.6611 12.3418 21.1748 8.82812 25.4945 8.82812H54.6347C54.6375 8.82892 54.6408 8.82987 54.6445 8.831L54.6519 8.83322C54.6682 8.83816 54.6974 8.84703 54.7255 8.85431C54.7617 8.86369 54.8107 8.87459 54.8679 8.88004L54.8764 8.88085L54.8849 8.88137C55.2078 8.90104 55.5267 8.9638 55.8329 9.06799C55.9073 9.09353 55.9615 9.11033 56.0057 9.12402C56.0733 9.14501 56.1175 9.1587 56.1747 9.18538L56.1746 9.18552L56.186 9.19048C56.5824 9.36366 56.9449 9.60585 57.2567 9.90577C57.2577 9.9068 57.2588 9.90783 57.2599 9.90885L82.2471 34.8961C82.2481 34.8971 82.2491 34.8982 82.2502 34.8993C82.5501 35.211 82.7923 35.5735 82.9654 35.9699ZM68.3957 33.8281C69.2866 33.8281 69.7328 32.751 69.1028 32.121L60.0349 23.0531C59.4049 22.4232 58.3278 22.8693 58.3278 23.7602V32.8281C58.3278 33.3804 58.7755 33.8281 59.3278 33.8281H68.3957ZM24.9945 82.8281C24.9945 83.3804 25.4422 83.8281 25.9945 83.8281H75.0027C75.5551 83.8281 76.0028 83.3803 76.0027 82.8279L75.9946 42.1613C75.9944 41.6091 75.5468 41.1615 74.9946 41.1615H54.6611C53.6887 41.1615 52.756 40.7752 52.0684 40.0875C51.3808 39.3999 50.9945 38.4673 50.9945 37.4948V17.1615C50.9945 16.6092 50.5467 16.1615 49.9945 16.1615H25.9945C25.4422 16.1615 24.9945 16.6092 24.9945 17.1615V82.8281ZM66.6611 50.4948V57.8281H34.3278V50.4948H66.6611ZM66.6611 67.1615V74.4948H34.3278V67.1615H66.6611ZM34.3278 33.8281H41.6611L41.6611 41.1615H34.3278V33.8281Z" fill="white" stroke="#2F3134"/>
</svg>
