<svg width="101" height="100" viewBox="0 0 101 100" fill="none" xmlns="http://www.w3.org/2000/svg">
<path d="M49.8906 49.8906C49.8906 49.6145 49.6668 49.3906 49.3906 49.3906H42.0573C41.7812 49.3906 41.5573 49.6145 41.5573 49.8906V57.224C41.5573 57.5001 41.7812 57.724 42.0573 57.724H49.3906C49.6668 57.724 49.8906 57.5001 49.8906 57.224V49.8906Z" fill="#2F3134"/>
<path fill-rule="evenodd" clip-rule="evenodd" d="M22.8073 53.5573C22.8073 59.8073 16.5573 59.8073 16.5573 59.8073H12.8906C12.6145 59.8073 12.3906 60.0311 12.3906 60.3073V78.5573C12.3906 79.6624 12.8296 80.7222 13.611 81.5036C14.3924 82.285 15.4522 82.724 16.5573 82.724H91.5573C92.6624 82.724 93.7222 82.285 94.5036 81.5036C95.285 80.7222 95.724 79.6624 95.724 78.5573V60.3073C95.724 60.0311 95.5001 59.8073 95.224 59.8073H91.5573C91.5573 59.8073 85.3073 59.8073 85.3073 53.5573C85.3073 47.3073 91.5573 47.3073 91.5573 47.3073H95.224C95.5001 47.3073 95.724 47.0834 95.724 46.8073V28.5573C95.724 27.4522 95.285 26.3924 94.5036 25.611C93.7222 24.8296 92.6624 24.3906 91.5573 24.3906H16.5573C15.4522 24.3906 14.3924 24.8296 13.611 25.611C12.8296 26.3924 12.3906 27.4522 12.3906 28.5573V46.8073C12.3906 47.0834 12.6145 47.3073 12.8906 47.3073H16.5573C16.5573 47.3073 22.8073 47.3073 22.8073 53.5573ZM84.7055 66.4796C85.5157 66.8847 86.304 67.1863 87.0293 67.4119C87.2425 67.4783 87.3906 67.6737 87.3906 67.8969V73.8906C87.3906 74.1668 87.1668 74.3906 86.8906 74.3906H50.3906C50.1145 74.3906 49.8906 74.1668 49.8906 73.8906V66.5573C49.8906 66.2811 49.6668 66.0573 49.3906 66.0573H42.0573C41.7812 66.0573 41.5573 66.2811 41.5573 66.5573V73.8906C41.5573 74.1668 41.3334 74.3906 41.0573 74.3906H21.224C20.9478 74.3906 20.724 74.1668 20.724 73.8906V67.8969C20.724 67.6737 20.8721 67.4783 21.0853 67.4119C21.8106 67.1863 22.5989 66.8847 23.4091 66.4796C25.1789 65.5947 27.2022 64.1364 28.7645 61.7931C30.3615 59.3975 31.1406 56.578 31.1406 53.5573C31.1406 50.5366 30.3615 47.717 28.7645 45.3215C27.2022 42.9781 25.1789 41.5199 23.4091 40.635C22.5989 40.2299 21.8106 39.9283 21.0853 39.7026C20.8721 39.6363 20.724 39.4409 20.724 39.2177V33.224C20.724 32.9478 20.9478 32.724 21.224 32.724H41.0573C41.3334 32.724 41.5573 32.9478 41.5573 33.224V40.5573C41.5573 40.8334 41.7812 41.0573 42.0573 41.0573H49.3906C49.6668 41.0573 49.8906 40.8334 49.8906 40.5573V33.224C49.8906 32.9478 50.1145 32.724 50.3906 32.724H86.8906C87.1668 32.724 87.3906 32.9478 87.3906 33.224V39.2177C87.3906 39.4409 87.2425 39.6363 87.0293 39.7026C86.304 39.9283 85.5157 40.2299 84.7055 40.635C82.9357 41.5199 80.9124 42.9781 79.3501 45.3215C77.7531 47.717 76.974 50.5366 76.974 53.5573C76.974 56.578 77.7531 59.3975 79.3501 61.7931C80.9124 64.1364 82.9357 65.5947 84.7055 66.4796Z" fill="#2F3134"/>
<path d="M38.4938 46.3281H45.8272V53.6615H38.4938V46.3281ZM12.9938 43.7448V43.2448H9.32715V24.9948C9.32715 24.0223 9.71346 23.0897 10.4011 22.4021C11.0887 21.7144 12.0214 21.3281 12.9938 21.3281H87.9938C88.9663 21.3281 89.8989 21.7144 90.5865 22.4021C91.2742 23.0897 91.6605 24.0223 91.6605 24.9948V43.2448H87.9938V43.7448C87.9938 43.2448 87.9936 43.2448 87.9933 43.2448L87.9926 43.2448L87.9907 43.2448L87.9853 43.2448L87.9678 43.245C87.9532 43.2453 87.9328 43.2457 87.907 43.2466C87.8553 43.2483 87.7818 43.2517 87.6896 43.2583C87.5054 43.2714 87.2456 43.2975 86.9351 43.3493C86.3164 43.4524 85.4838 43.6595 84.6452 44.0788C83.8046 44.4991 82.9489 45.1374 82.3044 46.1042C81.6578 47.0741 81.2438 48.3448 81.2438 49.9948C81.2438 51.6448 81.6578 52.9155 82.3044 53.8854C82.9489 54.8522 83.8046 55.4905 84.6452 55.9108C85.4838 56.3301 86.3164 56.5372 86.9351 56.6403C87.2456 56.6921 87.5054 56.7182 87.6896 56.7313C87.7818 56.7379 87.8553 56.7413 87.907 56.743C87.9328 56.7438 87.9532 56.7443 87.9678 56.7445L87.9853 56.7448L87.9907 56.7448L87.9926 56.7448H87.9933C87.9936 56.7448 87.9938 56.7448 87.9938 56.2448V56.7448H91.6605V74.9948C91.6605 75.9673 91.2742 76.8999 90.5865 77.5875C89.8989 78.2752 88.9663 78.6615 87.9938 78.6615H12.9938C12.0214 78.6615 11.0887 78.2752 10.4011 77.5875C9.71346 76.8999 9.32715 75.9673 9.32715 74.9948V56.7448H12.9938V56.2448C12.9938 56.7448 12.9941 56.7448 12.9944 56.7448H12.9951L12.9969 56.7448L13.0023 56.7448L13.0198 56.7445C13.0344 56.7443 13.0548 56.7438 13.0807 56.743C13.1323 56.7413 13.2058 56.7379 13.298 56.7313C13.4822 56.7182 13.7421 56.6921 14.0526 56.6403C14.6713 56.5372 15.5038 56.3301 16.3424 55.9108C17.183 55.4905 18.0388 54.8522 18.6833 53.8854C19.3299 52.9155 19.7438 51.6448 19.7438 49.9948C19.7438 48.3448 19.3299 47.0741 18.6833 46.1042C18.0388 45.1374 17.183 44.4991 16.3424 44.0788C15.5038 43.6595 14.6713 43.4524 14.0526 43.3493C13.7421 43.2975 13.4822 43.2714 13.298 43.2583C13.2058 43.2517 13.1323 43.2483 13.0807 43.2466C13.0548 43.2457 13.0344 43.2453 13.0198 43.245L13.0023 43.2448L12.9969 43.2448L12.9951 43.2448L12.9944 43.2448C12.9941 43.2448 12.9938 43.2448 12.9938 43.7448ZM83.6144 63.372C82.9114 63.1533 82.1487 62.8614 81.3657 62.4699C79.6549 61.6145 77.7062 60.2085 76.2027 57.9532C74.6664 55.6488 73.9105 52.9282 73.9105 49.9948C73.9105 47.0614 74.6664 44.3407 76.2027 42.0364C77.7062 39.781 79.6549 38.3751 81.3657 37.5197C82.1487 37.1282 82.9114 36.8362 83.6143 36.6176C84.03 36.4882 84.3272 36.1041 84.3272 35.6552V29.6615C84.3272 29.1092 83.8794 28.6615 83.3272 28.6615H46.8272C46.2749 28.6615 45.8272 29.1092 45.8272 29.6615V36.9948H38.4938V29.6615C38.4938 29.1092 38.0461 28.6615 37.4938 28.6615H17.6605C17.1082 28.6615 16.6605 29.1092 16.6605 29.6615V35.6552C16.6605 36.1041 16.9576 36.4882 17.3733 36.6176C18.0762 36.8362 18.8389 37.1282 19.622 37.5197C21.3327 38.3751 23.2814 39.781 24.785 42.0364C26.3212 44.3407 27.0772 47.0614 27.0772 49.9948C27.0772 52.9282 26.3212 55.6488 24.785 57.9532C23.2814 60.2085 21.3327 61.6145 19.622 62.4699C18.8389 62.8614 18.0762 63.1533 17.3733 63.372C16.9576 63.5014 16.6605 63.8855 16.6605 64.3344V70.3281C16.6605 70.8804 17.1082 71.3281 17.6605 71.3281H37.4938C38.0461 71.3281 38.4938 70.8804 38.4938 70.3281V62.9948H45.8272V70.3281C45.8272 70.8804 46.2749 71.3281 46.8272 71.3281H83.3272C83.8794 71.3281 84.3272 70.8804 84.3272 70.3281V64.3344C84.3272 63.8855 84.03 63.5013 83.6144 63.372Z" fill="white" stroke="#2F3134"/>
</svg>
