<svg width="101" height="100" viewBox="0 0 101 100" fill="none" xmlns="http://www.w3.org/2000/svg">
<path fill-rule="evenodd" clip-rule="evenodd" d="M37.3906 53.5573C37.3906 44.524 45.024 36.8906 54.0573 36.8906C63.0906 36.8906 70.724 44.524 70.724 53.5573C70.724 62.5906 63.0906 70.224 54.0573 70.224C45.024 70.224 37.3906 62.5906 37.3906 53.5573ZM45.724 53.5573C45.724 57.9948 49.6198 61.8906 54.0573 61.8906C58.4948 61.8906 62.3906 57.9948 62.3906 53.5573C62.3906 49.1198 58.4948 45.224 54.0573 45.224C49.6198 45.224 45.724 49.1198 45.724 53.5573Z" fill="#2F3134"/>
<path fill-rule="evenodd" clip-rule="evenodd" d="M76.4692 24.2442C76.5629 24.3379 76.6901 24.3906 76.8227 24.3906H87.3906C91.9865 24.3906 95.724 28.1281 95.724 32.724V78.5573C95.724 83.1531 91.9865 86.8906 87.3906 86.8906H20.724C16.1281 86.8906 12.3906 83.1531 12.3906 78.5573V32.724C12.3906 28.1281 16.1281 24.3906 20.724 24.3906H31.2919C31.4245 24.3906 31.5516 24.3379 31.6454 24.2442L42.7781 13.1115C43.1644 12.7238 43.6235 12.4163 44.1291 12.2068C44.6347 11.9973 45.1767 11.8898 45.724 11.8906H62.3906C62.9379 11.8898 63.4799 11.9973 63.9855 12.2068C64.491 12.4163 64.9502 12.7238 65.3365 13.1115L76.4692 24.2442ZM21.224 32.724C20.9478 32.724 20.724 32.9478 20.724 33.224V78.0573C20.724 78.3334 20.9478 78.5573 21.224 78.5573H86.8989C87.175 78.5573 87.3989 78.3334 87.3989 78.0572L87.3907 33.2239C87.3907 32.9478 87.1668 32.724 86.8907 32.724H74.8906C74.3434 32.7248 73.8013 32.6173 73.2958 32.4078C72.7902 32.1983 72.3311 31.8908 71.9448 31.5031L60.8121 20.3704C60.7183 20.2766 60.5911 20.224 60.4585 20.224H47.6561C47.5235 20.224 47.3963 20.2766 47.3025 20.3704L36.1698 31.5031C35.3906 32.2865 34.3323 32.724 33.224 32.724H21.224Z" fill="#2F3134"/>
<path d="M39.5692 9.90252L39.5698 9.90187C39.9096 9.5609 40.3134 9.2905 40.758 9.10622C41.2027 8.92194 41.6794 8.82743 42.1607 8.82813H42.1615L58.8281 8.82813L58.8288 8.82813C59.3102 8.82743 59.7869 8.92194 60.2315 9.10622C60.6762 9.2905 61.08 9.5609 61.4198 9.90187L61.4204 9.90252L72.5531 21.0352L72.9067 20.6817L72.5531 21.0352C72.7407 21.2228 72.995 21.3281 73.2602 21.3281H83.8281C88.1478 21.3281 91.6615 24.8418 91.6615 29.1615V74.9948C91.6615 79.3145 88.1478 82.8281 83.8281 82.8281H17.1615C12.8418 82.8281 9.32812 79.3145 9.32812 74.9948V29.1615C9.32812 24.8418 12.8418 21.3281 17.1615 21.3281H27.7294C27.9946 21.3281 28.2489 21.2228 28.4365 21.0352L39.5692 9.90252ZM71.3281 28.6615H71.3274C70.8461 28.6622 70.3694 28.5676 69.9247 28.3834C69.48 28.1991 69.0762 27.9287 68.7365 27.5877L68.7358 27.5871L57.6031 16.4544C57.4156 16.2668 57.1612 16.1615 56.896 16.1615H44.0936C43.8283 16.1615 43.574 16.2668 43.3865 16.4544L32.2537 27.5871L32.2528 27.588C31.5682 28.2763 30.6377 28.6615 29.6615 28.6615H17.6615C17.1092 28.6615 16.6615 29.1092 16.6615 29.6615V74.4948C16.6615 75.0471 17.1092 75.4948 17.6615 75.4948H83.3364C83.8887 75.4948 84.3365 75.047 84.3364 74.4946L84.3282 29.6613C84.3281 29.1091 83.8804 28.6615 83.3282 28.6615H71.3281ZM34.3281 49.9948C34.3281 41.2376 41.7376 33.8281 50.4948 33.8281C59.252 33.8281 66.6615 41.2376 66.6615 49.9948C66.6615 58.752 59.252 66.1615 50.4948 66.1615C41.7376 66.1615 34.3281 58.752 34.3281 49.9948ZM41.6615 49.9948C41.6615 54.7084 45.7811 58.8281 50.4948 58.8281C55.2084 58.8281 59.3281 54.7084 59.3281 49.9948C59.3281 45.2811 55.2084 41.1615 50.4948 41.1615C45.7811 41.1615 41.6615 45.2811 41.6615 49.9948Z" fill="white" stroke="#2F3134"/>
</svg>
