<svg width="101" height="100" viewBox="0 0 101 100" fill="none" xmlns="http://www.w3.org/2000/svg">
<path d="M35.3014 49.3854C38.7532 49.3854 41.5514 46.5872 41.5514 43.1354C41.5514 39.6836 38.7532 36.8854 35.3014 36.8854C31.8497 36.8854 29.0514 39.6836 29.0514 43.1354C29.0514 46.5872 31.8497 49.3854 35.3014 49.3854Z" fill="#2F3134"/>
<path d="M48.2014 61.3521C48.0014 61.6187 47.6014 61.6187 47.4014 61.3521L41.9514 54.0854C41.7514 53.8187 41.3514 53.8187 41.1514 54.0854L29.6514 69.4187C29.4042 69.7484 29.6394 70.2187 30.0514 70.2187H78.0514C78.4635 70.2187 78.6986 69.7484 78.4514 69.4187L60.7014 45.7521C60.5014 45.4854 60.1014 45.4854 59.9014 45.7521L48.2014 61.3521Z" fill="#2F3134"/>
<path d="M87.3848 20.2188H20.7181C16.1223 20.2188 12.3848 23.9562 12.3848 28.5521V78.5521C12.3848 83.1479 16.1223 86.8854 20.7181 86.8854H87.3848C91.9806 86.8854 95.7181 83.1479 95.7181 78.5521V28.5521C95.7181 23.9562 91.9806 20.2188 87.3848 20.2188ZM21.2181 78.5521C20.942 78.5521 20.7181 78.3282 20.7181 78.0521V29.0521C20.7181 28.7759 20.942 28.5521 21.2181 28.5521H86.8848C87.1609 28.5521 87.3848 28.7759 87.3848 29.052L87.393 78.052C87.3931 78.3282 87.1692 78.5521 86.893 78.5521H21.2181Z" fill="#2F3134"/>
<path d="M37.4899 39.5729C37.4899 42.7486 34.9155 45.3229 31.7399 45.3229C28.5643 45.3229 25.9899 42.7486 25.9899 39.5729C25.9899 36.3973 28.5643 33.8229 31.7399 33.8229C34.9155 33.8229 37.4899 36.3973 37.4899 39.5729ZM43.4399 58.0896C43.8399 58.6229 44.6399 58.6229 45.0399 58.0896L56.7399 42.4896L74.4899 66.1562H26.4899L37.9899 50.8229L43.4399 58.0896ZM17.1566 17.1562H83.8232C88.1429 17.1562 91.6566 20.6699 91.6566 24.9896V74.9896C91.6566 79.3093 88.1429 82.8229 83.8232 82.8229H17.1566C12.8369 82.8229 9.32324 79.3093 9.32324 74.9896V24.9896C9.32324 20.6699 12.8369 17.1562 17.1566 17.1562ZM16.6566 74.4896C16.6566 75.0419 17.1043 75.4896 17.6566 75.4896H83.3315C83.8838 75.4896 84.3316 75.0418 84.3315 74.4894L84.3233 25.4894C84.3232 24.9372 83.8755 24.4896 83.3233 24.4896H17.6566C17.1043 24.4896 16.6566 24.9373 16.6566 25.4896V74.4896Z" fill="white" stroke="#2F3134"/>
</svg>
