<svg width="101" height="100" viewBox="0 0 101 100" fill="none" xmlns="http://www.w3.org/2000/svg">
<path d="M78.6208 18.3589C78.2743 17.6665 77.742 17.0843 77.0834 16.6773C76.4247 16.2704 75.6659 16.0548 74.8917 16.0547H33.225C31.6458 16.0547 30.2042 16.9464 29.4958 18.3589L12.8292 51.6922C12.5395 52.2711 12.3887 52.9095 12.3887 53.5568C12.3887 54.2041 12.5395 54.8425 12.8292 55.4214L29.4958 88.7547C30.2042 90.163 31.6458 91.0547 33.225 91.0547H74.8917C76.4708 91.0547 77.9125 90.163 78.6208 88.7505L95.2875 55.4172C95.5772 54.8383 95.728 54.1999 95.728 53.5526C95.728 52.9053 95.5772 52.2669 95.2875 51.688L78.6208 18.3589ZM84.4548 48.6644C84.6211 48.9969 84.3793 49.388 84.0076 49.388H52.7757C52.5863 49.388 52.4132 49.281 52.3285 49.1116L40.3285 25.1116C40.1622 24.7792 40.404 24.388 40.7757 24.388H72.0076C72.197 24.388 72.3702 24.495 72.4549 24.6644L84.4548 48.6644ZM21.3285 53.7783C21.2581 53.6375 21.2581 53.4718 21.3285 53.3311L32.7778 30.4324C32.962 30.0639 33.4879 30.0639 33.6722 30.4324L45.1215 53.3311C45.1919 53.4718 45.1919 53.6375 45.1215 53.7783L33.6722 76.6769C33.4879 77.0454 32.962 77.0454 32.7778 76.6769L21.3285 53.7783ZM72.4548 82.445C72.3702 82.6144 72.197 82.7214 72.0076 82.7214H40.7757C40.404 82.7214 40.1622 82.3302 40.3285 81.9977L52.3285 57.9977C52.4132 57.8284 52.5863 57.7214 52.7757 57.7214H84.0076C84.3793 57.7214 84.6211 58.1125 84.4548 58.445L72.4548 82.445Z" fill="#2F3134"/>
<path d="M9.71282 48.3534L9.71289 48.3533L26.3793 15.0205C27.003 13.7767 28.272 12.9922 29.6615 12.9922H71.3281C71.3281 12.9922 71.3282 12.9922 71.3282 12.9922C72.0095 12.9923 72.6774 13.1821 73.2571 13.5402C73.8367 13.8984 74.3053 14.4108 74.6102 15.0201L91.2768 48.3491L91.2769 48.3493C91.5318 48.8587 91.6645 49.4205 91.6645 49.9901C91.6645 50.5597 91.5318 51.1215 91.2769 51.6309L91.2768 51.6311L74.6104 84.9639C73.9866 86.2077 72.7177 86.9922 71.3282 86.9922H29.6615C28.272 86.9922 27.0031 86.2077 26.3793 84.9681C26.3792 84.9679 26.3791 84.9677 26.379 84.9675L9.71289 51.6352L9.71282 51.6351C9.45791 51.1257 9.3252 50.5639 9.3252 49.9943C9.3252 49.4246 9.45791 48.8628 9.71282 48.3534ZM49.2122 46.3255H80.4442C81.1875 46.3255 81.671 45.5432 81.3386 44.8783L69.3386 20.8783C69.1692 20.5395 68.8229 20.3255 68.4442 20.3255H37.2122C36.4688 20.3255 35.9853 21.1078 36.3178 21.7727L48.3178 45.7727C48.4872 46.1115 48.8334 46.3255 49.2122 46.3255ZM28.7671 26.6463L17.3178 49.545C17.177 49.8265 17.177 50.1579 17.3178 50.4394L28.7671 73.338C29.1356 74.0751 30.1874 74.0751 30.5559 73.338L42.0053 50.4394C42.146 50.1579 42.146 49.8265 42.0053 49.545L30.5559 26.6463C30.1874 25.9093 29.1356 25.9093 28.7671 26.6463ZM37.2122 79.6589H68.4442C68.8229 79.6589 69.1692 79.4448 69.3386 79.1061L81.3386 55.1061C81.671 54.4412 81.1875 53.6589 80.4442 53.6589H49.2122C48.8334 53.6589 48.4872 53.8729 48.3178 54.2116L36.3178 78.2116C35.9853 78.8765 36.4688 79.6589 37.2122 79.6589Z" fill="white" stroke="#2F3134"/>
</svg>
