<svg width="101" height="100" viewBox="0 0 101 100" fill="none" xmlns="http://www.w3.org/2000/svg">
<path d="M86.074 27.8113L48.574 14.178C47.3152 13.7178 45.964 13.5684 44.6352 13.7423C43.3063 13.9162 42.0391 14.4084 40.9412 15.177C39.8433 15.9456 38.9472 16.9679 38.3291 18.157C37.7109 19.3462 37.389 20.6669 37.3906 22.0071V46.6647C37.3906 47.0527 36.9664 47.2951 36.623 47.1146C34.2926 45.8898 31.6984 45.2394 29.0573 45.2238C19.8656 45.2238 12.3906 52.6988 12.3906 61.8905C12.3906 71.0821 19.8656 78.5571 29.0573 78.5571C38.249 78.5571 45.724 71.0821 45.724 61.8905V22.7209C45.724 22.374 46.0687 22.1325 46.3948 22.251L82.8948 35.5208C83.0924 35.5926 83.224 35.7804 83.224 35.9907V63.3283C83.224 63.716 82.8003 63.9585 82.4569 63.7785C80.1256 62.5559 77.5315 61.9065 74.8906 61.8905C65.699 61.8905 58.224 69.3655 58.224 78.5571C58.224 87.7488 65.699 95.2238 74.8906 95.2238C84.0823 95.2238 91.5573 87.7488 91.5573 78.5571V35.6405C91.5573 32.1488 89.3531 28.9988 86.074 27.8113ZM29.0573 70.2238C24.4615 70.2238 20.724 66.4863 20.724 61.8905C20.724 57.2946 24.4615 53.5571 29.0573 53.5571C33.6531 53.5571 37.3906 57.2946 37.3906 61.8905C37.3906 66.4863 33.6531 70.2238 29.0573 70.2238ZM74.8906 86.8905C70.2948 86.8905 66.5573 83.153 66.5573 78.5571C66.5573 73.9613 70.2948 70.2238 74.8906 70.2238C79.4865 70.2238 83.224 73.9613 83.224 78.5571C83.224 83.153 79.4865 86.8905 74.8906 86.8905Z" fill="#2F3134"/>
<path d="M82.3396 24.7187L82.3402 24.7189C85.4208 25.8345 87.4938 28.7961 87.4938 32.078V74.9946C87.4938 83.9101 80.2427 91.1613 71.3271 91.1613C62.4116 91.1613 55.1605 83.9101 55.1605 74.9946C55.1605 66.0797 62.4107 58.8289 71.3254 58.828C73.8858 58.8438 76.4009 59.4734 78.6612 60.6588C79.3179 61.0032 80.1605 60.5514 80.1605 59.7658V32.4282C80.1605 32.0077 79.8974 31.6321 79.5022 31.4884L43.0022 18.2186C42.35 17.9815 41.6605 18.4645 41.6605 19.1584V58.328C41.6605 67.2435 34.4093 74.4946 25.4938 74.4946C16.5783 74.4946 9.32715 67.2435 9.32715 58.328C9.32715 49.413 16.5774 42.1622 25.4922 42.1613C28.0527 42.1766 30.5677 42.8073 32.8269 43.9947C33.4836 44.3399 34.3271 43.8883 34.3271 43.1022V18.4446V18.444C34.3256 17.1843 34.6282 15.9429 35.2092 14.8252C35.7902 13.7075 36.6325 12.7466 37.6645 12.0241C38.6964 11.3017 39.8875 10.839 41.1366 10.6756C42.3856 10.5121 43.6557 10.6526 44.8388 11.0851L44.8396 11.0854L82.3396 24.7187ZM16.6605 58.328C16.6605 63.1999 20.6218 67.1613 25.4938 67.1613C30.3658 67.1613 34.3271 63.1999 34.3271 58.328C34.3271 53.456 30.3658 49.4946 25.4938 49.4946C20.6218 49.4946 16.6605 53.456 16.6605 58.328ZM62.4938 74.9946C62.4938 79.8666 66.4552 83.828 71.3271 83.828C76.1991 83.828 80.1605 79.8666 80.1605 74.9946C80.1605 70.1226 76.1991 66.1613 71.3271 66.1613C66.4552 66.1613 62.4938 70.1226 62.4938 74.9946Z" fill="white" stroke="#2F3134"/>
</svg>
