<svg width="101" height="100" viewBox="0 0 101 100" fill="none" xmlns="http://www.w3.org/2000/svg">
<path d="M87.3906 16.0547H20.724C16.1281 16.0547 12.3906 19.7922 12.3906 24.388V82.7214C12.3906 87.3172 16.1281 91.0547 20.724 91.0547H87.3906C91.9865 91.0547 95.724 87.3172 95.724 82.7214V24.388C95.724 19.7922 91.9865 16.0547 87.3906 16.0547ZM87.3948 41.0547C87.3906 41.0547 87.3906 41.0547 87.3948 41.0547H85.7249C85.5577 41.0547 85.4016 40.9711 85.3088 40.8321L74.8631 25.1654C74.6416 24.8331 74.8797 24.388 75.2791 24.388H86.8907C87.1668 24.388 87.3907 24.6118 87.3907 24.8879L87.3948 41.0547ZM44.0582 41.0547C43.891 41.0547 43.7349 40.9711 43.6422 40.8321L33.1964 25.1654C32.9749 24.8331 33.2131 24.388 33.6124 24.388H43.2272C43.3944 24.388 43.5505 24.4716 43.6432 24.6106L54.089 40.2773C54.3105 40.6096 54.0723 41.0547 53.673 41.0547H44.0582ZM64.8915 41.0547C64.7244 41.0547 64.5683 40.9711 64.4755 40.8321L54.0298 25.1654C53.8082 24.8331 54.0464 24.388 54.4458 24.388H64.0605C64.2277 24.388 64.3838 24.4716 64.4766 24.6106L74.9223 40.2773C75.1439 40.6096 74.9057 41.0547 74.5063 41.0547H64.8915ZM20.724 24.888C20.724 24.6119 20.9478 24.388 21.224 24.388H22.3939C22.5611 24.388 22.7172 24.4716 22.8099 24.6106L33.2556 40.2773C33.4772 40.6096 33.239 41.0547 32.8396 41.0547H21.224C20.9478 41.0547 20.724 40.8308 20.724 40.5547V24.888ZM21.224 82.7214C20.9478 82.7214 20.724 82.4975 20.724 82.2214V49.888C20.724 49.6119 20.9478 49.388 21.224 49.388H86.8907C87.1668 49.388 87.3907 49.6118 87.3907 49.8879L87.3988 82.2212C87.3989 82.4974 87.175 82.7214 86.8988 82.7214H21.224Z" fill="#2F3134"/>
<path d="M45.724 77.7124C45.724 78.0919 46.1302 78.3331 46.4634 78.1514L67.8359 66.4936C68.1833 66.3041 68.1833 65.8052 67.8359 65.6157L46.4634 53.958C46.1302 53.7763 45.724 54.0174 45.724 54.397V77.7124Z" fill="#2F3134"/>
<path d="M83.8313 37.9922H84.3314L84.3313 37.4921L84.3273 21.3253C84.3271 20.7731 83.8795 20.3255 83.3273 20.3255H71.7156C70.9169 20.3255 70.4405 21.2157 70.8836 21.8803L81.3294 37.5469C81.5148 37.8251 81.827 37.9922 82.1614 37.9922H83.8282H83.8282H83.8283H83.8284H83.8284H83.8285H83.8286H83.8286H83.8287H83.8288H83.8288H83.8289H83.8289H83.829H83.8291H83.8291H83.8292H83.8293H83.8293H83.8294H83.8295H83.8295H83.8296H83.8297H83.8297H83.8298H83.8299H83.8299H83.83H83.8301H83.8301H83.8302H83.8303H83.8303H83.8304H83.8305H83.8305H83.8306H83.8307H83.8307H83.8308H83.8309H83.8309H83.831H83.8311H83.8311H83.8312H83.8313ZM17.1605 12.9922H83.8271C88.1468 12.9922 91.6605 16.5058 91.6605 20.8255V79.1589C91.6605 83.4785 88.1468 86.9922 83.8271 86.9922H17.1605C12.8408 86.9922 9.32715 83.4785 9.32715 79.1589V20.8255C9.32715 16.5058 12.8408 12.9922 17.1605 12.9922ZM39.6627 37.5469C39.8482 37.8251 40.1604 37.9922 40.4947 37.9922H50.1095C50.9082 37.9922 51.3846 37.102 50.9415 36.4374L40.4958 20.7708C40.3103 20.4926 39.9981 20.3255 39.6637 20.3255H30.049C29.2502 20.3255 28.7739 21.2157 29.217 21.8803L39.6627 37.5469ZM60.496 37.5469C60.6815 37.8251 60.9937 37.9922 61.3281 37.9922H70.9428C71.7415 37.9922 72.2179 37.102 71.7748 36.4374L61.3291 20.7708C61.1436 20.4926 60.8314 20.3255 60.4971 20.3255H50.8823C50.0836 20.3255 49.6072 21.2157 50.0503 21.8803L60.496 37.5469ZM17.6605 20.3255C17.1082 20.3255 16.6605 20.7732 16.6605 21.3255V36.9922C16.6605 37.5445 17.1082 37.9922 17.6605 37.9922H29.2762C30.0749 37.9922 30.5513 37.102 30.1082 36.4374L19.6624 20.7708C19.477 20.4926 19.1647 20.3255 18.8304 20.3255H17.6605ZM16.6605 78.6589C16.6605 79.2111 17.1082 79.6589 17.6605 79.6589H83.3354C83.8877 79.6589 84.3355 79.211 84.3354 78.6586L84.3273 46.3253C84.3271 45.7731 83.8794 45.3255 83.3273 45.3255H17.6605C17.1082 45.3255 16.6605 45.7732 16.6605 46.3255V78.6589ZM64.033 62.4922L42.6605 74.1499V50.8345L64.033 62.4922Z" fill="white" stroke="#2F3134"/>
</svg>
