<svg width="100" height="100" viewBox="0 0 100 100" fill="none" xmlns="http://www.w3.org/2000/svg">
<path d="M94.0048 25.6109L81.509 13.1193C81.1227 12.7316 80.6636 12.4241 80.158 12.2146C79.6524 12.0051 79.1104 11.8976 78.5631 11.8984H28.5632C28.0159 11.8976 27.4739 12.0051 26.9683 12.2146C26.4627 12.4241 26.0036 12.7316 25.6173 13.1193L13.1215 25.6109C12.7322 25.9971 12.4234 26.4567 12.2132 26.9631C12.0029 27.4695 11.8952 28.0126 11.8965 28.5609V82.7318C11.8965 87.3276 15.634 91.0651 20.2298 91.0651H86.8965C91.4923 91.0651 95.2298 87.3276 95.2298 82.7318V28.5609C95.2311 28.0126 95.1234 27.4695 94.9132 26.9631C94.7029 26.4567 94.3941 25.9971 94.0048 25.6109ZM30.1417 20.3782C30.2355 20.2845 30.3627 20.2318 30.4953 20.2318H76.631C76.7637 20.2318 76.8908 20.2845 76.9846 20.3782L80.1471 23.5407C80.4621 23.8557 80.239 24.3943 79.7935 24.3943H27.3328C26.8873 24.3943 26.6642 23.8557 26.9792 23.5407L30.1417 20.3782ZM20.7298 82.7318C20.4537 82.7318 20.2298 82.5079 20.2298 82.2318V33.2276C20.2298 32.9515 20.4537 32.7276 20.7298 32.7276H86.3966C86.6727 32.7276 86.8965 32.9514 86.8966 33.2275L86.9047 82.2317C86.9048 82.5079 86.6809 82.7318 86.4047 82.7318H20.7298Z" fill="#2F3134"/>
<path d="M66.0632 53.0651C66.0632 53.3412 65.8393 53.5651 65.5632 53.5651H41.5632C41.287 53.5651 41.0632 53.3412 41.0632 53.0651V45.7318C41.0632 45.4556 40.8393 45.2318 40.5632 45.2318H33.2298C32.9537 45.2318 32.7298 45.4556 32.7298 45.7318V61.3984C32.7298 61.6746 32.9537 61.8984 33.2298 61.8984H73.8965C74.1726 61.8984 74.3965 61.6746 74.3965 61.3984V45.7318C74.3965 45.4556 74.1726 45.2318 73.8965 45.2318H66.5632C66.287 45.2318 66.0632 45.4556 66.0632 45.7318V53.0651Z" fill="#2F3134"/>
<path d="M90.0878 22.4021L90.0892 22.4034C90.4315 22.743 90.703 23.1471 90.8879 23.5923C91.0728 24.0376 91.1674 24.5152 91.1663 24.9973V24.9984V79.1693C91.1663 83.489 87.6527 87.0026 83.333 87.0026H16.6664C12.3467 87.0026 8.83302 83.489 8.83302 79.1693L8.83302 24.9984L8.83302 24.9973C8.83191 24.5152 8.92655 24.0376 9.11145 23.5923C9.29635 23.1471 9.56783 22.743 9.91013 22.4034L9.91151 22.4021L22.4073 9.91039L22.408 9.90969C22.7478 9.56872 23.1516 9.29831 23.5963 9.11403C24.0409 8.92975 24.5176 8.83524 24.999 8.83594H24.9997L74.9997 8.83594L75.0004 8.83594C75.4817 8.83524 75.9584 8.92975 76.4031 9.11403C76.8478 9.29831 77.2516 9.56872 77.5913 9.90969L77.592 9.91039L90.0878 22.4021ZM73.0676 16.1693H26.9318C26.6666 16.1693 26.4122 16.2746 26.2247 16.4622L23.0622 19.6247C22.4322 20.2546 22.8784 21.3318 23.7693 21.3318H76.2301C77.121 21.3318 77.5671 20.2546 76.9372 19.6247L73.7747 16.4622C73.5871 16.2746 73.3328 16.1693 73.0676 16.1693ZM16.1664 29.6651V78.6693C16.1664 79.2216 16.6141 79.6693 17.1663 79.6693H82.8413C83.3936 79.6693 83.8413 79.2215 83.8413 78.6691L83.8331 29.6649C83.833 29.1127 83.3853 28.6651 82.8331 28.6651H17.1664C16.6141 28.6651 16.1664 29.1128 16.1664 29.6651ZM37.9997 50.5026H61.9997C62.552 50.5026 62.9997 50.0549 62.9997 49.5026V42.1693H70.333V57.8359H29.6663V42.1693H36.9997V49.5026C36.9997 50.0549 37.4474 50.5026 37.9997 50.5026Z" fill="white" stroke="#2F3134"/>
</svg>
