<svg viewBox="0 0 25 24" fill="none" xmlns="http://www.w3.org/2000/svg">
<g id="Frame">
<path id="Vector" d="M12.667 15C10.827 15 10.667 14.14 10.667 14H8.66699C8.66699 14.92 9.32699 16.55 11.667 16.92V18H13.667V16.92C15.667 16.58 16.667 15.29 16.667 14C16.667 12.88 16.147 11 12.667 11C10.667 11 10.667 10.37 10.667 10C10.667 9.63 11.367 9 12.667 9C13.967 9 14.057 9.64 14.067 10H16.067C16.0535 9.31875 15.8085 8.66241 15.3722 8.13896C14.936 7.61551 14.3346 7.25614 13.667 7.12V6H11.667V7.09C9.66699 7.42 8.66699 8.71 8.66699 10C8.66699 11.12 9.18699 13 12.667 13C14.667 13 14.667 13.68 14.667 14C14.667 14.32 14.047 15 12.667 15Z" fill="#898E94"/>
<path id="Vector_2" d="M5.66699 2H2.66699V4H4.66699V21C4.66699 21.2652 4.77235 21.5196 4.95989 21.7071C5.14742 21.8946 5.40178 22 5.66699 22H19.667C19.9322 22 20.1866 21.8946 20.3741 21.7071C20.5616 21.5196 20.667 21.2652 20.667 21V4H22.667V2H5.66699ZM18.667 20H6.66699V4H18.667V20Z" fill="#898E94"/>
</g>
</svg>
