<svg width="24" height="24" viewBox="0 0 24 24" fill="none" xmlns="http://www.w3.org/2000/svg">
<path d="M20.2029 2.37743C20.5934 1.9869 21.2266 1.98689 21.6171 2.37743C22.0076 2.76796 22.0076 3.40114 21.6171 3.79167L3.76335 21.6454C3.37282 22.036 2.73964 22.036 2.34911 21.6454C1.95858 21.2549 1.95858 20.6217 2.34911 20.2312L20.2029 2.37743Z" fill="#898E94"/>
<path fill-rule="evenodd" clip-rule="evenodd" d="M6.50008 2C4.01529 2 2.00098 4.01431 2.00098 6.4991C2.00098 8.98388 4.01529 10.9982 6.50008 10.9982C8.98486 10.9982 10.9992 8.98388 10.9992 6.4991C10.9992 4.01431 8.98486 2 6.50008 2ZM3.99902 6.4991C3.99902 5.1178 5.11878 3.99804 6.50008 3.99804C7.88137 3.99804 9.00113 5.1178 9.00113 6.4991C9.00113 7.88039 7.88137 9.00015 6.50008 9.00015C5.11878 9.00015 3.99902 7.88039 3.99902 6.4991Z" fill="#898E94"/>
<path fill-rule="evenodd" clip-rule="evenodd" d="M17.4995 13.0018C15.0148 13.0018 13.0004 15.0161 13.0004 17.5009C13.0004 19.9857 15.0148 22 17.4995 22C19.9843 22 21.9986 19.9857 21.9986 17.5009C21.9986 15.0161 19.9843 13.0018 17.4995 13.0018ZM14.9985 17.5009C14.9985 16.1196 16.1182 14.9998 17.4995 14.9998C18.8808 14.9998 20.0006 16.1196 20.0006 17.5009C20.0006 18.8822 18.8808 20.002 17.4995 20.002C16.1182 20.002 14.9985 18.8822 14.9985 17.5009Z" fill="#898E94"/>
</svg>
