<svg viewBox="0 0 24 24" fill="none" xmlns="http://www.w3.org/2000/svg">
<path d="M8.855 18.441C10.038 18.275 12.062 17.652 12.934 15.354C13.829 13 14.534 13 15 13L15.163 13C15.597 14.44 16.92 15.5 18.5 15.5C20.43 15.5 22 13.93 22 12C22 10.07 20.43 8.5 18.5 8.5C16.92 8.5 15.597 9.56 15.163 11L15 11C14.534 11 13.829 11 12.935 8.646C12.063 6.348 10.039 5.725 8.856 5.559C8.441 4.088 7.102 3 5.5 3C3.57 3 2 4.57 2 6.5C2 8.43 3.57 10 5.5 10C7.052 10 8.355 8.978 8.813 7.576C9.548 7.722 10.604 8.141 11.065 9.354C11.517 10.546 12.018 11.407 12.601 12C12.018 12.593 11.517 13.453 11.065 14.646C10.604 15.859 9.548 16.279 8.813 16.424C8.355 15.022 7.052 14 5.5 14C3.57 14 2 15.57 2 17.5C2 19.43 3.57 21 5.5 21C7.102 21 8.441 19.912 8.855 18.441ZM4 6.5C4 5.673 4.673 5 5.5 5C6.327 5 7 5.673 7 6.5C7 7.327 6.327 8 5.5 8C4.673 8 4 7.327 4 6.5ZM18.5 10.5C19.327 10.5 20 11.173 20 12C20 12.827 19.327 13.5 18.5 13.5C17.673 13.5 17 12.827 17 12C17 11.173 17.673 10.5 18.5 10.5ZM4 17.5C4 16.673 4.673 16 5.5 16C6.327 16 7 16.673 7 17.5C7 18.327 6.327 19 5.5 19C4.673 19 4 18.327 4 17.5Z" fill="#898E94"/>
</svg>
