<svg viewBox="0 0 25 24" fill="none" xmlns="http://www.w3.org/2000/svg">
<path d="M12.667 4C14.321 4 15.667 5.346 15.667 7H17.667C17.667 4.243 15.424 2 12.667 2C9.90999 2 7.66699 4.243 7.66699 7V9H6.66699C5.56399 9 4.66699 9.897 4.66699 11V20C4.66699 21.103 5.56399 22 6.66699 22H18.667C19.77 22 20.667 21.103 20.667 20V11C20.667 9.897 19.77 9 18.667 9H9.66699V7C9.66699 5.346 11.013 4 12.667 4ZM18.669 20H13.667V17.722C14.262 17.375 14.667 16.737 14.667 16C14.667 14.897 13.77 14 12.667 14C11.564 14 10.667 14.897 10.667 16C10.667 16.736 11.072 17.375 11.667 17.722V20H6.66699V11H18.667L18.669 20Z" fill="#898E94"/>
</svg>
