<svg viewBox="0 0 25 24" fill="none" xmlns="http://www.w3.org/2000/svg">
<g id="Frame">
<path id="Vector" d="M12.333 2C10.3552 2 8.4218 2.58649 6.77731 3.6853C5.13282 4.78412 3.85109 6.3459 3.09422 8.17317C2.33734 10.0004 2.13931 12.0111 2.52516 13.9509C2.91101 15.8907 3.86342 17.6725 5.26194 19.0711C6.66047 20.4696 8.4423 21.422 10.3821 21.8079C12.3219 22.1937 14.3326 21.9957 16.1598 21.2388C17.9871 20.4819 19.5489 19.2002 20.6477 17.5557C21.7465 15.9112 22.333 13.9778 22.333 12C22.333 10.6868 22.0744 9.38642 21.5718 8.17317C21.0693 6.95991 20.3327 5.85752 19.4041 4.92893C18.4755 4.00035 17.3731 3.26375 16.1598 2.7612C14.9466 2.25866 13.6462 2 12.333 2ZM12.333 20C10.7508 20 9.20404 19.5308 7.88845 18.6518C6.57286 17.7727 5.54748 16.5233 4.94198 15.0615C4.33648 13.5997 4.17805 11.9911 4.48673 10.4393C4.79541 8.88743 5.55734 7.46197 6.67616 6.34315C7.79498 5.22433 9.22044 4.4624 10.7723 4.15372C12.3241 3.84504 13.9327 4.00346 15.3945 4.60896C16.8563 5.21447 18.1057 6.23984 18.9848 7.55544C19.8638 8.87103 20.333 10.4177 20.333 12C20.333 14.1217 19.4902 16.1566 17.9899 17.6569C16.4896 19.1571 14.4547 20 12.333 20Z" fill="#898E94"/>
<path id="Vector_2" d="M12.333 11C10.333 11 10.333 10.37 10.333 10C10.333 9.63 11.033 9 12.333 9C13.633 9 13.723 9.64 13.733 10H15.733C15.7195 9.31875 15.4745 8.66241 15.0383 8.13896C14.6021 7.61551 14.0006 7.25614 13.333 7.12V6H11.333V7.09C9.33301 7.42 8.33301 8.71 8.33301 10C8.33301 11.12 8.85301 13 12.333 13C14.333 13 14.333 13.68 14.333 14C14.333 14.32 13.713 15 12.333 15C10.493 15 10.333 14.14 10.333 14H8.33301C8.33301 14.92 8.99301 16.55 11.333 16.92V18H13.333V16.92C15.333 16.58 16.333 15.29 16.333 14C16.333 12.88 15.813 11 12.333 11Z" fill="#898E94"/>
</g>
</svg>
