<svg viewBox="0 0 25 24" fill="none" xmlns="http://www.w3.org/2000/svg">
<g id="Frame">
<path id="Vector" d="M5.66699 22H19.667C20.77 22 21.667 21.103 21.667 20V9C21.667 8.73478 21.5616 8.48043 21.3741 8.29289C21.1866 8.10536 20.9322 8 20.667 8H17.667V7C17.667 4.243 15.424 2 12.667 2C9.90999 2 7.66699 4.243 7.66699 7V8H4.66699C4.40178 8 4.14742 8.10536 3.95989 8.29289C3.77235 8.48043 3.66699 8.73478 3.66699 9V20C3.66699 21.103 4.56399 22 5.66699 22ZM9.66699 7C9.66699 5.346 11.013 4 12.667 4C14.321 4 15.667 5.346 15.667 7V8H9.66699V7ZM5.66699 10H7.66699V12H9.66699V10H15.667V12H17.667V10H19.667L19.669 20H5.66699V10Z" fill="#898E94"/>
</g>
</svg>
