<svg viewBox="0 0 25 24" fill="none" xmlns="http://www.w3.org/2000/svg">
<g id="Frame">
<path id="Vector" d="M22.316 13.821L20.465 3.641C20.3814 3.18036 20.1386 2.76372 19.7791 2.4638C19.4196 2.16388 18.9662 1.99973 18.498 2H6.16801C5.69948 1.99997 5.2458 2.16444 4.88614 2.46471C4.52647 2.76498 4.28364 3.18199 4.20001 3.643L2.35001 13.821L2.36901 13.824C2.35701 13.884 2.33301 13.938 2.33301 14V19C2.33301 20.103 3.23001 21 4.33301 21H20.333C21.436 21 22.333 20.103 22.333 19V14C22.333 13.937 22.309 13.884 22.298 13.824L22.316 13.821ZM6.16801 4H18.499L20.136 13H4.53101L6.16801 4ZM4.33301 19V15H20.333L20.335 19H4.33301Z" fill="#898E94"/>
<path id="Vector_2" d="M17.333 16H19.333V18H17.333V16ZM14.333 16H16.333V18H14.333V16Z" fill="#898E94"/>
</g>
</svg>
