<svg viewBox="0 0 24 24" fill="none" xmlns="http://www.w3.org/2000/svg">
<path d="M20.9954 6.90072C20.9788 6.73266 20.9198 6.57157 20.824 6.43253C20.7281 6.29349 20.5986 6.18104 20.4474 6.10572L12.4474 2.10572C12.3085 2.0362 12.1553 2 11.9999 2C11.8446 2 11.6914 2.0362 11.5524 2.10572L3.55243 6.10572C3.4017 6.18147 3.27254 6.29405 3.17692 6.43303C3.0813 6.572 3.02231 6.73287 3.00543 6.90072C2.99443 7.00772 2.04443 17.6677 11.5944 21.9147C11.722 21.9723 11.8604 22.0021 12.0004 22.0021C12.1404 22.0021 12.2788 21.9723 12.4064 21.9147C21.9564 17.6677 21.0064 7.00872 20.9954 6.90072ZM12.0004 19.8977C5.23143 16.6257 4.91143 9.64272 4.96643 7.63572L12.0004 4.11872L19.0294 7.63372C19.0664 9.62272 18.7014 16.6517 12.0004 19.8977Z" fill="#898E94"/>
<path d="M11 12.5899L8.70697 10.2969L7.29297 11.7109L11 15.4179L16.707 9.71087L15.293 8.29688L11 12.5899Z" fill="#898E94"/>
</svg>
