<svg width="80" height="80" viewBox="0 0 80 80" fill="none" xmlns="http://www.w3.org/2000/svg">
<path fill-rule="evenodd" clip-rule="evenodd" d="M40.001 80C62.0924 80 80.001 62.0914 80.001 40C80.001 17.9086 62.0924 0 40.001 0C17.9096 0 0.000976562 17.9086 0.000976562 40C0.000976562 62.0914 17.9096 80 40.001 80ZM7.79566 40C7.79566 50.5674 12.8855 59.9468 20.7471 65.8203C26.0184 69.4418 31.2897 68.8561 34.7627 66.3813C38.2769 63.89 40.0257 59.4519 38.2439 54.8983C37.6334 53.3391 36.3878 51.9698 34.6967 50.7901C33.0056 49.6105 30.968 48.6865 28.9551 47.9853C26.9506 47.2841 25.0285 46.8222 23.6013 46.5335C21.4565 46.1045 17.1091 45.6425 17.1091 45.6425C17.1091 45.6425 20.4749 42.6728 20.6893 42.4995C20.9368 42.2933 21.308 41.9963 21.77 41.6499C22.6939 40.9487 24.0138 40.0165 25.5977 39.0843C28.221 37.5417 31.7187 35.9001 35.4474 35.4134C34.8534 33.6645 33.3933 32.2456 31.6362 31.1155C30.5225 30.3978 29.3924 29.8698 28.5344 29.5234C28.1055 29.3501 27.7507 29.2264 27.5115 29.1439C27.4658 29.1287 27.4245 29.1145 27.3878 29.1019C27.3252 29.0805 27.2757 29.0636 27.2393 29.0532C25.6059 28.55 22.3145 27.6425 22.3145 27.6425C22.864 27.3854 23.4126 27.1202 23.962 26.8547C25.0871 26.3109 26.2158 25.7654 27.363 25.2832C27.66 25.1595 28.0807 24.9862 28.6087 24.7965C29.6563 24.417 31.1412 23.9468 32.8653 23.5921C36.264 22.8992 40.8919 22.5775 45.0743 24.549C49.3227 26.5536 51.7727 28.9047 53.9506 31L54.0743 31.1237C56.2521 33.2108 58.1577 35.0009 61.5317 36.3456C63.627 37.187 66.7122 37.6489 69.4098 37.8799C70.7297 37.9954 71.9093 38.0532 72.759 38.0779C73.188 38.0944 73.5262 38.1027 73.7572 38.1027H74.0211H76.001V40C76.001 59.8808 59.8818 76 40.001 76C20.1201 76 4.00098 59.8808 4.00098 40C4.00098 20.1192 20.1201 4 40.001 4C56.4171 4 70.2595 14.9881 74.5903 30.0018C70.7132 16.572 54.6848 7.79468 40.001 7.79468C22.2155 7.79468 7.79566 22.2145 7.79566 40ZM36.9652 69.483C35.7691 70.3245 34.4492 70.9927 33.0303 71.4546C35.2741 71.9496 37.6087 72.2136 40.001 72.2136C56.4831 72.2136 70.078 59.8396 71.9836 43.8689C69.8387 45.0321 66.7288 46.1622 62.7361 46.1622C58.6197 46.1622 55.0807 44.5041 51.7067 42.9203C51.6221 42.8799 51.5378 42.8396 51.4539 42.7994C51.1944 42.6751 50.9374 42.552 50.6756 42.4335C46.9057 40.6847 42.9542 39.0596 37.6417 39.0596C34.1192 39.0596 30.4483 40.6352 27.528 42.3511C27.0331 42.6398 26.5628 42.9368 26.1256 43.2172C27.3465 43.5142 28.7489 43.9102 30.2008 44.4134C32.4116 45.1806 34.7957 46.2447 36.8662 47.6884C38.9368 49.132 40.8012 51.0376 41.7746 53.5289C44.2576 59.8643 41.7416 66.0843 36.9652 69.483ZM62.7443 42.3675C64.7572 42.3675 66.473 42.0211 67.8919 41.5344C65.3594 41.2621 62.4061 40.7754 60.1376 39.868C56.0376 38.2264 53.6866 35.9908 51.4593 33.8543L51.385 33.78L51.3678 33.7635C49.2127 31.6988 47.1351 29.7085 43.4657 27.9808C40.3639 26.5206 36.7013 26.6774 33.6325 27.3126C33.5005 27.3399 33.3711 27.3697 33.2428 27.3992C33.1385 27.4232 33.0349 27.4471 32.9313 27.4693C33.1788 27.6095 33.4345 27.7663 33.6903 27.9313C35.9753 29.3914 38.6398 31.8002 39.3493 35.3144C44.6618 35.6279 48.737 37.3602 52.2677 38.9936C52.381 39.0459 52.4933 39.0972 52.605 39.1482C52.8103 39.2419 53.0133 39.3346 53.2164 39.4308C56.7388 41.0724 59.5189 42.3675 62.7443 42.3675Z" fill="#2F3134"/>
</svg>
