<svg width="295" height="80" viewBox="0 0 295 80" fill="none" xmlns="http://www.w3.org/2000/svg">
<g clip-path="url(#clip0_8294_20531)">
<path d="M2.5 36H7L6 41L2 40L2.5 36Z" fill="#4E5156"/>
<path d="M3 33C3 33.0028 7.5 33.0033 7.5 33.0033L7 36H2.5L3 33Z" fill="#898E94"/>
<path d="M3.5 31C3.5 31 8 29.995 8 30L7.49609 33H3L3.5 31Z" fill="#4E5156"/>
<path d="M1.21606 44.0078L5.55695 44.0258L4.62245 49.7818C4.62245 49.7818 1.39441 49.6358 0.22168 49.639L1.21606 44.0078Z" fill="#4E5156"/>
<path d="M2.31207 37.75L6.64051 37.7684L5.55671 44.0256L1.21582 44.0076L2.31207 37.75Z" fill="#6B6F76"/>
<path d="M3.5 31C4.34656 27.9184 5.24519 26.0676 8.09619 24.4356C10.0598 23.3112 12.1575 22.8296 14.3802 22.5292C18.2008 22.0132 32.891 22.3518 36.7495 22.345L35.9891 25.6204L21.3273 25.3672C17.8284 25.2244 11.8901 25.3552 9.25264 27.8688C9 28 7.96698 29.6824 7.83405 31H3.5Z" fill="#2F3134"/>
<path d="M0.220789 49.6329C1.39352 49.6297 4.62156 49.7783 4.62156 49.7757C4.58443 50.2393 4.55889 50.7053 4.7002 51.1549C6.06502 55.4913 17 55 17 55L30.7496 55.1121L30.2179 58.2249L8.3887 57.7545C5.81074 57.4133 3.2268 57.1521 1.39536 55.0389C0.0558866 53.4933 0.0747659 51.5485 0.220789 49.6329Z" fill="#2F3134"/>
<path d="M269.103 31.0264C270.208 30.8352 271.597 30.9876 272.734 30.9812L272.585 31.852C272.533 32.1368 272.169 34.1076 272.052 34.1956C271.999 34.2356 270.753 34.1516 270.602 34.148L267.039 34.19C265.061 34.3068 262.879 34.5992 261.228 35.7576C260.511 36.2612 259.9 36.8648 259.559 37.6856C258.644 39.8836 258.483 42.6392 258.079 44.9788L255.782 58.2436L251.608 58.2576L254.01 45.4152C254.449 42.9924 254.703 40.3944 255.423 38.046C255.777 36.8944 256.33 35.5924 257.165 34.718C260.164 31.5788 265.049 31.1572 269.103 31.0264Z" fill="#2F3134"/>
<path d="M166.129 31.0176C168.006 30.712 170.33 30.9548 172.242 31.0272L171.733 33.8324C171.716 33.906 171.622 34.262 171.536 34.3036C171.4 34.3692 170.462 34.2364 170.264 34.2276C167.422 34.0996 163.684 33.7664 161.206 35.4112C160.366 35.9688 159.665 36.6184 159.239 37.5448C158.13 39.9548 157.966 43.3644 157.536 45.9812L155.735 55.7804L155.295 58.104L151.303 58.2388C151.46 55.254 152.357 52.0952 152.884 49.1376C153.515 45.5924 153.872 41.752 154.872 38.3016C155.215 37.1172 155.655 36.0048 156.441 35.0364C158.76 32.1808 162.658 31.3348 166.129 31.0176Z" fill="#2F3134"/>
<path fill-rule="evenodd" clip-rule="evenodd" d="M226.134 17.5785C226.894 17.8169 227.917 18.2664 228.493 18.8148L228.445 19.2864C227.735 19.5667 226.989 19.1559 226.272 18.7611C225.835 18.521 225.41 18.2867 225.01 18.2176C224.888 18.1966 224.123 18.5805 223.543 18.8716L223.542 18.8716C223.259 19.0139 223.019 19.1341 222.921 19.174C221.907 19.584 220.218 20.108 219.138 19.992C218.998 19.9771 218.898 19.8416 218.807 19.7178L218.807 19.7178C218.781 19.6822 218.756 19.6477 218.73 19.6172C218.744 19.5812 218.752 19.5417 218.761 19.5022C218.777 19.4234 218.794 19.3447 218.851 19.2944C218.906 19.2464 219.234 19.1879 219.51 19.1387L219.51 19.1386L219.51 19.1386C219.672 19.1098 219.815 19.0842 219.877 19.0656C220.83 18.7788 221.825 18.4228 222.683 17.916C222.506 17.6288 222.294 17.5746 222.018 17.5037C221.952 17.4869 221.883 17.4692 221.81 17.4472C221.48 17.6132 221.185 17.7412 220.824 17.8188L220.42 17.486C220.435 17.0725 221.142 16.3477 221.709 15.766C221.931 15.5391 222.131 15.334 222.26 15.1776C221.177 15.1532 220.257 14.9772 219.216 14.6848C220.522 14.3088 221.792 14.2372 223.143 14.1696L224.231 12.8708L221.159 12.7712C221.167 11.9024 221.303 10.9995 221.436 10.1243L221.436 10.1243C221.465 9.93168 221.494 9.74043 221.522 9.55119C221.821 9.54983 222.169 9.56452 222.538 9.58011H222.538C223.585 9.6243 224.802 9.67572 225.576 9.38919C225.591 9.33988 225.608 9.29118 225.623 9.24294C225.747 8.86734 225.862 8.51856 225.755 8.11199C224.693 7.86794 223.566 7.90911 222.468 7.94926H222.468H222.468C222.244 7.95741 222.023 7.96552 221.803 7.97119C221.792 7.61288 221.88 7.26627 221.969 6.91947C222.071 6.51829 222.174 6.11686 222.122 5.69679L221.451 5.42079L221.289 4.97799C221.562 4.72959 221.787 4.64399 222.133 4.54039L222.258 4.50439C222.58 4.04345 222.656 3.3667 222.724 2.76395L222.724 2.76393C222.74 2.61505 222.757 2.47068 222.776 2.33519L226.784 2.27999L227.248 0.745587C227.638 0.556061 227.676 0.564701 228.076 0.655042L228.121 0.665189L228.048 2.19119C229.206 2.41077 230.483 2.35029 231.681 2.29351C231.838 2.28606 231.994 2.27867 232.148 2.27199L231.619 4.43879C231.912 4.62477 232.228 4.63867 232.535 4.65217C232.855 4.66624 233.166 4.67988 233.429 4.88799C233.099 5.16561 232.581 5.37262 232.112 5.56048C231.927 5.63409 231.751 5.70476 231.596 5.77559C231.356 6.25168 231.267 6.89383 231.185 7.48242C231.158 7.67913 231.131 7.86985 231.1 8.04639C230.921 8.03768 230.709 8.02363 230.478 8.00822L230.478 8.00822C229.347 7.93305 227.728 7.82546 226.963 8.14679C226.945 8.24216 226.922 8.33345 226.901 8.42202L226.901 8.42207C226.818 8.75807 226.746 9.05507 226.921 9.38839C227.772 9.52359 228.644 9.53176 229.508 9.53985C229.669 9.54136 229.83 9.54286 229.99 9.54519C230.032 9.54583 230.096 9.5492 230.17 9.55316H230.17C230.418 9.56634 230.788 9.58603 230.891 9.53279C230.966 9.49332 231.158 9.13431 231.304 8.85896L231.304 8.85893C231.372 8.73249 231.43 8.6237 231.463 8.57159L234.06 4.51279C234.27 4.15814 234.477 3.63042 234.699 3.06538C235.121 1.98812 235.597 0.775185 236.245 0.367188L236.744 0.48559L236.927 0.934787C236.669 1.91029 236.159 2.84263 235.664 3.74515C235.547 3.95877 235.431 4.17073 235.32 4.38119C235.661 4.38258 236.081 4.36448 236.539 4.34478C237.922 4.28518 239.644 4.21099 240.556 4.61839L240.343 5.05599C239.971 5.35199 239.751 5.43559 239.291 5.46599L239.163 5.47199C238.105 8.98719 237.015 11.9372 235.146 15.1188C235.166 15.7397 236.362 17.1816 237.181 18.1688C237.424 18.4612 237.634 18.7137 237.77 18.8932C237.735 19.3138 237.642 19.3983 237.396 19.6207C237.358 19.6551 237.316 19.6928 237.271 19.7356L236.812 19.7132C235.988 19.2325 235.255 18.0445 234.651 17.0646L234.651 17.0646C234.482 16.7905 234.324 16.5327 234.175 16.3112C234.019 16.4743 233.844 16.664 233.654 16.8702C232.463 18.1604 230.678 20.0948 229.252 20.1872L229.035 19.8032C229.036 19.7684 229.035 19.722 229.033 19.6715C229.03 19.557 229.025 19.4216 229.05 19.3536C229.149 19.0841 230.816 17.6232 232.136 16.4663L232.136 16.4663C232.854 15.8375 233.469 15.2986 233.674 15.0896C233.245 13.0492 232.849 10.9928 232.772 8.90559C232.135 9.66039 231.523 10.0416 230.666 10.4916L230.235 12.7692L224.998 12.848C225.011 13.3124 224.913 13.6304 224.747 14.0572L224.688 14.2088C224.397 14.4108 224.284 14.5196 224.163 14.856L223.779 15.1364C223.296 15.3578 223.037 15.7323 222.75 16.1464L222.75 16.1465C222.718 16.1932 222.685 16.2404 222.652 16.288C222.775 16.3484 222.898 16.4122 223.023 16.4766C223.735 16.844 224.479 17.2278 225.284 17.078C225.284 17.078 225.284 17.078 225.284 17.078L227.33 15.1685L223.778 15.1385L224.162 14.8581C224.283 14.5217 224.397 14.4129 224.687 14.2109L230.417 14.2129L230.53 14.5041L230.272 15.0741C230.137 15.0879 229.997 15.099 229.855 15.1102L229.855 15.1102C229.445 15.1426 229.019 15.1763 228.643 15.2805L228.641 15.2802C228.548 15.3765 228.454 15.473 228.361 15.5695L228.36 15.5701C227.663 16.2918 226.969 17.0095 226.134 17.5785ZM236.409 5.32399C236.336 5.32878 236.234 5.33117 236.116 5.33392C235.653 5.34473 234.945 5.36122 234.779 5.55119C233.748 6.73039 234.011 9.78679 234.188 11.2544C234.197 11.3291 234.206 11.4184 234.217 11.5179C234.287 12.1715 234.404 13.2686 234.721 13.59L235.083 13.1008C236.436 10.57 237.312 8.17839 237.973 5.38239L236.409 5.32399ZM224.086 5.51679L223.399 5.69679L223.164 6.95439C223.58 7.20962 224.331 7.17532 224.938 7.1476H224.938C225.105 7.13996 225.261 7.13282 225.397 7.13239L226.007 6.95439L226.268 5.69679C225.868 5.44767 225.129 5.47868 224.537 5.50358C224.372 5.51051 224.218 5.51696 224.086 5.51679ZM223.464 10.3396C223.376 10.3615 223.291 10.378 223.208 10.3939C222.887 10.4561 222.608 10.5099 222.431 10.8416C222.321 11.0487 222.307 11.2975 222.293 11.5323C222.291 11.5641 222.289 11.5956 222.287 11.6268C222.786 11.943 223.321 11.9252 223.888 11.9063C224.03 11.9016 224.174 11.8968 224.32 11.8972L225.075 11.8064C225.101 11.7129 225.133 11.6133 225.167 11.5104C225.282 11.1575 225.411 10.7663 225.307 10.4516C224.684 10.3736 224.091 10.3144 223.464 10.3396ZM226.601 10.5484L226.33 11.8064C226.975 12.0052 228.635 12.096 229.227 11.8064L229.382 10.6384C228.946 10.3388 227.505 10.3608 226.972 10.4588L226.601 10.5484ZM227.438 5.69679L227.214 6.86479C227.576 7.16137 228.387 7.12883 229.026 7.10319C229.21 7.09581 229.38 7.089 229.521 7.09079C229.565 7.06382 229.609 7.03729 229.653 7.01068L229.653 7.01066L229.653 7.01066C229.777 6.93662 229.902 6.86187 230.015 6.77479L230.262 5.81519C229.828 5.50199 228.285 5.54439 227.737 5.62479L227.438 5.69679ZM223.855 3.36079L223.584 4.31199C224.169 4.76279 225.557 4.73119 226.293 4.67999C226.578 4.31616 226.598 4.01389 226.628 3.58266L226.63 3.54039C226.223 3.17839 224.939 3.20479 224.363 3.25639L223.855 3.36079ZM228.027 3.36079L228 3.40416C227.793 3.74466 227.625 4.02156 227.594 4.43879C228.217 4.78001 229.34 4.69625 230.13 4.63735L230.13 4.63734C230.222 4.63044 230.31 4.62388 230.392 4.61839C230.415 4.55185 230.44 4.48562 230.465 4.41953L230.465 4.41948C230.597 4.0656 230.728 3.71555 230.597 3.34279C229.713 3.22439 228.907 3.27719 228.027 3.36079ZM276.232 12.2694L276.232 12.2686L276.076 12.3956C275.345 12.991 274.646 13.5613 273.724 13.8414L273.674 13.8051C273.316 13.5429 273.313 13.5403 273.238 13.0634C273.864 12.4637 274.581 12.0077 275.306 11.546L275.312 11.542C275.391 11.4917 275.47 11.4413 275.55 11.3906L275.55 11.3911C276.861 10.4904 277.898 9.41404 278.623 7.98856L275.025 8.05376C274.775 7.75134 274.776 7.63468 274.778 7.31349V7.31337C274.778 7.2599 274.778 7.20077 274.778 7.13416C275.398 6.82222 277.186 6.90075 278.174 6.94411C278.3 6.94967 278.414 6.95466 278.51 6.95816L278.848 4.01416C278.718 4.01544 278.573 4.02221 278.418 4.02939L278.418 4.02939C277.798 4.0582 277.035 4.09362 276.593 3.80736L276.44 3.36056C276.98 2.91752 277.487 2.8878 278.128 2.85029L278.128 2.85029L278.128 2.85028L278.128 2.85027C278.235 2.84403 278.345 2.83758 278.459 2.82896C278.488 2.82674 278.548 2.82533 278.621 2.8236L278.621 2.82359C278.826 2.81876 279.137 2.81139 279.187 2.77696C279.313 2.6898 279.388 2.36033 279.477 1.96914L279.477 1.96905L279.477 1.9689C279.598 1.43201 279.747 0.778966 280.09 0.476562L280.568 0.664963C280.711 1.23731 280.6 1.85848 280.494 2.44853L280.494 2.45035C280.473 2.56814 280.452 2.68469 280.433 2.79936L284.514 2.83257C284.537 2.72508 284.56 2.60736 284.584 2.4834L284.584 2.48316L284.584 2.48301L284.584 2.48293C284.713 1.82273 284.877 0.985901 285.29 0.578162L285.828 0.667361C286.125 1.11879 286.015 1.71097 285.91 2.27247C285.883 2.42245 285.855 2.57023 285.836 2.71256C285.989 2.72265 286.201 2.72788 286.443 2.73387C287.316 2.75546 288.591 2.78697 288.983 3.09096L289.002 3.62976C288.616 4.02656 287.891 4.09176 287.352 4.10176L285.429 3.98216L285.074 6.85056C285.313 6.85515 285.556 6.85656 285.8 6.85798C286.856 6.8641 287.947 6.87042 288.948 7.13416L289.141 7.49336L288.925 7.88736C288.615 7.90773 288.213 7.90243 287.779 7.89669C286.721 7.88271 285.469 7.86617 284.868 8.21216C285.053 9.61441 286.119 10.658 287.107 11.6244C287.236 11.751 287.364 11.8763 287.489 12.001C287.514 12.0261 287.552 12.0623 287.597 12.1057L287.598 12.1063L287.6 12.1087L287.601 12.109L287.601 12.1091C287.81 12.3089 288.174 12.6571 288.2 12.7946C288.206 12.8316 288.149 12.9781 288.109 13.079C288.095 13.1155 288.083 13.1461 288.077 13.1634L287.352 13.6578C286.6 13.4467 286.181 12.7767 285.777 12.1319L285.777 12.1317C285.463 11.6303 285.159 11.1441 284.715 10.9006L283.929 15.6294C283.3 15.634 282.659 15.6258 282.014 15.6175C280.335 15.5958 278.624 15.5738 277.006 15.7778C276.977 15.9412 276.938 16.1152 276.897 16.2944L276.897 16.2946C276.757 16.9146 276.602 17.5971 276.833 18.1206C277.714 18.451 283.566 18.6318 284.352 18.2034C284.906 17.9019 285.076 17.3676 285.24 16.8537C285.443 16.2147 285.637 15.6073 286.545 15.5186L286.815 15.6698C286.684 16.7458 285.895 18.4838 285.018 19.151C284.115 19.8382 282.289 19.7475 280.863 19.6767H280.863C280.478 19.6575 280.122 19.6399 279.821 19.6394C279.583 19.6389 279.34 19.6451 279.094 19.6514H279.094H279.094H279.094C278.425 19.6685 277.738 19.686 277.103 19.5714C276.33 19.4322 275.998 19.2666 275.544 18.6346C275.459 17.9472 275.704 16.5935 275.938 15.3026L275.938 15.3023L275.938 15.302L275.938 15.3019C276.188 13.9224 276.425 12.6148 276.232 12.2694ZM283.137 11.8062L277.585 11.8174L277.162 14.4702L277.579 14.5334L281.82 14.4482C281.903 14.4465 282.004 14.4494 282.112 14.4525C282.464 14.4628 282.904 14.4756 283.14 14.3398L283.368 11.9126L283.137 11.8062ZM280.342 7.99457C279.504 8.27547 278.554 9.58325 277.918 10.4591C277.823 10.5898 277.735 10.7108 277.655 10.8174L282.197 10.7726L284.747 10.8214L283.527 8.08337L280.342 7.99457ZM280.075 4.00736L279.645 6.86696C279.861 6.8835 280.106 6.90897 280.368 6.93627L280.368 6.93628L280.368 6.93628L280.368 6.93629C281.452 7.04902 282.835 7.1929 283.676 6.86736C284.16 6.17455 284.187 5.23325 284.211 4.38376L284.211 4.38175C284.214 4.26131 284.218 4.14273 284.222 4.02696L280.075 4.00736ZM272.644 1.20312C272.962 1.21432 273.132 1.28793 273.374 1.49113C273.939 1.96353 275.249 3.09632 275.286 3.82512C275.292 3.94402 275.005 4.2377 274.825 4.42272C274.777 4.47238 274.736 4.5142 274.711 4.54273C274.605 4.56979 274.482 4.56981 274.366 4.56984C274.324 4.56985 274.282 4.56986 274.243 4.57113C274.184 4.5143 274.121 4.45511 274.057 4.39376L274.043 4.38078L274.04 4.3776L274.04 4.37748C273.278 3.6543 272.206 2.63724 272.146 1.65233L272.644 1.20312ZM271.308 6.45312L270.851 6.59432L270.649 7.04633C271.078 8.02513 271.845 8.72432 272.648 9.39872C273.027 9.46552 273.066 9.45392 273.415 9.28992L273.741 8.93032C273.54 8.17472 272.35 7.03112 271.679 6.64152L271.308 6.45312ZM271.884 11.8202L271.811 11.8047C271.285 12.4938 270.98 13.4071 270.689 14.2793L270.689 14.2795C270.586 14.5903 270.484 14.8959 270.374 15.1843L268.696 19.2623L268.704 19.3049L268.704 19.305C268.747 19.5557 268.769 19.6833 268.832 19.7856C268.898 19.8916 269.008 19.9704 269.231 20.1307L269.231 20.131L269.238 20.1359L269.689 19.9883C270.314 19.0575 270.69 17.9661 271.061 16.8869L271.061 16.8868L271.061 16.8867L271.061 16.8863L271.061 16.8861C271.218 16.4294 271.375 15.975 271.549 15.5359C271.688 15.1841 271.849 14.8356 272.01 14.486L272.01 14.4857C272.333 13.7875 272.657 13.0851 272.817 12.3439C272.463 11.9419 272.348 11.9178 271.884 11.8202ZM254.855 1.5368L260.146 1.484C260.458 1.48322 260.778 1.47604 261.099 1.46881C261.928 1.45019 262.775 1.43116 263.572 1.5196C263.634 1.52638 263.691 1.53174 263.743 1.53673C264.104 1.57084 264.279 1.5874 264.547 1.9228L264.374 2.5256C263.59 2.75569 262.465 2.70593 261.46 2.66146C261.064 2.64393 260.686 2.62722 260.355 2.6288L260.062 4.8012L263.412 4.8524L263.641 5.2472L263.484 5.6964C262.921 5.97467 261.679 5.90513 260.722 5.85152L260.722 5.85152L260.722 5.85152C260.412 5.83416 260.131 5.81847 259.914 5.8168C259.669 6.26439 259.565 6.89503 259.471 7.46832C259.438 7.66712 259.406 7.85902 259.37 8.034C259.584 8.03775 259.798 8.04313 260.014 8.04852L260.014 8.04852C260.97 8.07248 261.936 8.09669 262.881 7.9788L263.054 7.956C263.06 8.02223 263.069 8.08847 263.077 8.15453L263.077 8.15463L263.077 8.15473L263.077 8.15573C263.121 8.50979 263.164 8.85871 262.964 9.1736C262.083 9.29277 261.092 9.21722 260.143 9.14491C259.78 9.11723 259.423 9.09002 259.081 9.0744L258.769 11.2924L263.19 11.3288L262.364 15.6252C262.336 15.7299 262.31 15.8355 262.283 15.9415L262.282 15.943L262.281 15.9462C261.998 17.0601 261.703 18.223 260.812 19.0116C259.761 19.9436 257.594 20.0308 256.239 19.9672L256.186 19.8967C255.94 19.5749 255.909 19.5354 255.929 19.084C256.429 18.7106 257.142 18.7142 257.884 18.7178C258.695 18.7218 259.54 18.726 260.177 18.238C261.206 17.4496 261.603 14.5502 261.826 12.9275L261.827 12.9198L261.827 12.9194C261.858 12.693 261.886 12.4917 261.911 12.3248L255.962 12.3452C255.76 12.3434 255.517 12.3244 255.261 12.3046C254.729 12.2631 254.144 12.2175 253.767 12.314C253.69 12.3335 253.575 12.4686 253.437 12.6313L253.437 12.6314L253.437 12.6315C253.238 12.8653 252.99 13.1563 252.739 13.2436L252.512 12.8844C252.614 12.1058 252.708 11.3073 252.803 10.4986L252.803 10.4981L252.803 10.4969L252.804 10.4941L252.804 10.494C253.148 7.57526 253.507 4.52499 254.316 1.808L254.855 1.5368ZM255.078 3.75568V3.75571L255.078 3.75647L255.078 3.75849L255.078 3.75916C255.071 3.81852 255.065 3.88042 255.057 3.9452L254.972 4.7608L258.571 4.8444C259.012 4.36182 259.095 3.7296 259.179 3.08703C259.201 2.92057 259.223 2.75342 259.252 2.588C258.937 2.58706 258.618 2.58053 258.297 2.57395C257.389 2.55539 256.464 2.53647 255.586 2.6416C255.166 2.96908 255.131 3.28145 255.078 3.75568ZM254.738 5.8592C254.705 6.03559 254.665 6.21747 254.625 6.40215L254.625 6.40226C254.511 6.92864 254.391 7.47783 254.396 7.988C255.412 8.08864 256.34 8.03892 257.303 7.98735C257.669 7.9678 258.039 7.94798 258.42 7.936L258.682 5.8432L254.738 5.8592ZM254.108 9.0928L253.665 11.3476L257.729 11.2452L258.165 9.1896C257.781 9.18502 257.384 9.19163 256.982 9.19832C256.014 9.21444 255.017 9.23103 254.108 9.0928ZM246.198 17.2853L246.205 17.3154C246.221 17.3868 246.231 17.4298 246.224 17.5227C246.188 17.9863 246.069 18.1899 245.729 18.4851L245.453 18.3583C245.396 16.213 245.915 13.7282 246.381 11.4952C246.474 11.0503 246.565 10.6154 246.649 10.1951C246.547 10.3325 246.441 10.4909 246.33 10.6565C245.965 11.2022 245.548 11.8265 245.032 12.0379L245.021 12.0246C244.925 11.908 244.809 11.7684 244.765 11.6244C244.731 11.5132 244.678 11.1039 244.715 10.9951C244.913 10.4123 245.503 9.66936 246.052 8.97703L246.052 8.97698C246.38 8.56415 246.693 8.16931 246.901 7.83715C247.828 6.35355 248.516 4.86795 249.187 3.25395C249.075 3.25768 248.922 3.26949 248.745 3.28302L248.745 3.28303C248.109 3.33194 247.18 3.40337 246.865 3.19755C246.702 3.09088 246.678 2.90053 246.654 2.70959C246.648 2.65566 246.641 2.60169 246.631 2.54955L246.915 2.29635C248.353 1.95515 250.103 1.94155 251.578 2.05875C251.663 2.06547 251.745 2.0697 251.826 2.07382L251.826 2.07382C252.242 2.0952 252.596 2.11343 252.892 2.45955L252.808 2.96155C252.316 3.2438 251.646 3.27869 251.041 3.31016C250.891 3.31799 250.744 3.3256 250.606 3.33675C250.029 3.94915 248.221 7.24755 248.231 7.96915L248.238 7.97395C248.379 7.96961 248.578 7.95584 248.808 7.9399L248.808 7.93989C249.653 7.88137 250.922 7.79359 251.299 8.03537C251.306 9.06241 251.128 9.97701 250.941 10.9427L250.941 10.9441L250.941 10.9458L250.94 10.948L250.94 10.9497L250.94 10.9509C250.894 11.1838 250.849 11.4198 250.805 11.661L249.773 17.2346L246.198 17.2853ZM250.36 8.6571L250.214 8.90715C250.102 8.91263 249.942 8.91301 249.758 8.91344H249.757H249.757H249.757C249.107 8.91497 248.146 8.91723 247.873 9.14555L246.678 16.0115L246.632 16.0756C246.37 16.4346 246.258 16.5878 246.217 16.9458C246.259 16.5914 246.37 16.4379 246.631 16.0806L246.678 16.0166L248.956 16.0214C249.168 15.6164 249.243 14.9823 249.31 14.4256L249.31 14.4255C249.333 14.2295 249.355 14.0432 249.382 13.8798L250.213 8.91216L250.361 8.65937L250.36 8.6571ZM259.724 13.7726C259.577 13.6889 259.44 13.6104 259.263 13.6016L258.89 13.9608C258.907 14.1025 258.923 14.247 258.938 14.3928V14.3931C259.002 14.9897 259.068 15.609 259.288 16.1528L259.777 16.2968L259.828 16.2443L259.828 16.2442C260.122 15.9404 260.13 15.9316 260.121 15.4628C260.11 14.882 259.993 14.3828 259.827 13.83L259.798 13.8143C259.773 13.8005 259.749 13.7866 259.724 13.7728L259.724 13.7726ZM257.295 13.9297L256.832 13.9653C256.487 14.6378 256.567 15.5245 256.639 16.318V16.3181L256.639 16.3188C256.655 16.4987 256.671 16.6738 256.681 16.8405C257.01 16.9561 257.161 16.9369 257.492 16.8405L257.79 16.4809C257.775 16.322 257.763 16.1523 257.752 15.977C257.704 15.2718 257.651 14.4766 257.295 13.9297ZM254.17 14.4999L254.21 14.4931C254.584 14.4307 254.631 14.4228 254.985 14.6071L255.08 14.9399C255.294 15.7963 255.435 16.9019 254.985 17.6431L254.942 17.6617C254.63 17.7983 254.616 17.8043 254.267 17.6851L254.251 17.5963L254.223 17.4401L254.223 17.4399L254.223 17.4397L254.223 17.4397C254.06 16.5458 253.83 15.2783 254.17 14.4999ZM252.738 14.4407C252.58 14.3894 252.413 14.335 252.265 14.3203C251.787 14.6823 250.347 17.6063 250.295 18.1939C250.289 18.2582 250.305 18.361 250.316 18.4328V18.4328L250.316 18.4329L250.322 18.4727C250.364 18.5104 250.401 18.546 250.434 18.579L250.434 18.579C250.571 18.7129 250.663 18.8028 250.897 18.8127C251.545 17.9511 252.926 15.5615 252.928 14.4999C252.868 14.4828 252.804 14.462 252.738 14.4407Z" fill="#2F3134"/>
<path d="M282.175 22.3162C283.628 22.2118 285.075 22.2746 286.518 22.4538L284.956 30.8822L294.887 31.0282L294.486 34.189L284.433 34.1242L280.717 53.8906L279.932 58.2378L275.906 58.2314L280.264 34.195L275.397 34.1866C275.48 33.075 275.743 32.0398 276.018 30.9634L280.86 30.9778L282.175 22.3162Z" fill="#2F3134"/>
<path d="M42.5727 30.8499L45.8321 30.8047C45.7183 32.6615 45.2481 34.5971 44.9195 36.4279L43.2605 45.6847C42.9847 47.2375 42.5807 48.8475 42.5352 50.4255C42.5069 51.4115 42.4562 52.3875 43.2022 53.1399C43.9348 53.8783 45.1227 54.4423 46.1303 54.6611C48.2456 55.1207 50.7413 54.9275 52.9065 54.9287L62.9357 54.9907L67.1591 30.9639L71.0747 30.9815C71.2576 31.5763 67.3994 52.5319 66.9687 55.1667C66.6122 57.4707 66.1296 60.8427 64.5412 62.6071C60.2456 67.3787 52.162 65.8351 46.3646 66.1375C46.5806 65.0823 46.7259 64.0763 47.0444 63.0411C48.6931 63.1311 50.3876 63.0583 52.0407 63.0499C54.728 63.0367 58.1606 63.3191 60.5118 61.7731C61.7972 60.9283 62.0651 59.6615 62.3756 58.2639L46.1758 58.0475C43.9799 57.8283 40.9085 57.1707 39.4874 55.3451C38.8192 54.4867 38.3585 53.2387 38.3138 52.1515C38.2455 50.4971 38.8679 48.5547 39.1565 46.9127L42.0123 31.0367L42.5727 30.8499Z" fill="#2F3134"/>
<path d="M129.827 31.0211L137.326 30.9531C139.317 30.9743 141.485 30.9611 143.431 31.4171C145.416 31.8823 146.844 32.8623 147.953 34.5567C148.591 36.7803 147.223 44.4535 146.023 46.3811L118.674 46.5815C118.316 48.0083 117.569 50.8419 118.179 52.2467C118.755 53.5711 120.123 54.1195 121.37 54.5831C124.923 55.2107 128.713 54.9587 132.315 54.9935L131.727 58.2603C128.064 58.2479 124.431 58.2943 120.801 57.7231C119.193 57.4699 117.139 56.9575 115.889 55.8479C114.986 55.0467 114.009 53.7191 113.938 52.4859C113.799 50.0479 114.525 47.2667 114.943 44.8547C115.375 42.3615 115.653 39.5559 116.521 37.1811C116.831 36.3319 117.346 35.5431 117.955 34.8787C120.974 31.5911 125.654 31.2427 129.827 31.0211ZM128.242 34.0731C125.719 34.2799 122.745 34.5995 121.013 36.6923C119.597 38.4019 119.824 41.0883 119.316 43.1551L136.229 43.1411L143.252 43.1647C143.562 41.4595 144.811 37.7035 143.812 36.1807C143.18 35.2171 141.846 34.4527 140.73 34.2639C138.242 33.8427 128.242 34.0731 128.242 34.0731Z" fill="#2F3134"/>
<path d="M227.561 31.0196L227.824 31.0036L234.449 30.9644C238.422 30.9476 244.092 30.5436 247.174 33.5508C248.327 34.6752 248.774 35.9264 248.778 37.5152C248.784 40.212 247.956 43.1192 247.457 45.7672C247.031 48.0292 246.749 50.5628 246.043 52.7388C245.694 53.81 245.166 54.8884 244.366 55.6872C241.814 58.2384 238.468 58.1288 235.126 58.1164L227.632 58.1912C223.676 58.1992 218.497 58.3944 215.235 55.7704C214.401 55.0988 213.743 53.9204 213.65 52.852C213.388 49.8788 214.277 46.644 214.785 43.7212C215.105 41.8828 215.293 39.8852 215.866 38.1096C216.23 36.9824 216.803 35.8032 217.574 34.8968C219.835 32.236 224.263 31.3056 227.561 31.0196ZM226.318 34.2156C224.138 34.6164 221.816 35.1448 220.455 37.0904C219.197 38.888 219.17 41.9352 218.795 44.0648C218.382 46.4172 217.426 49.41 217.805 51.7524C217.931 52.5332 218.666 53.1692 219.281 53.5896C222.157 55.5564 227.257 55.0344 230.613 55.0244C232.4 55.0196 234.352 55.1552 236.108 54.8352C238.183 54.5168 240.295 54.1272 241.612 52.2948C242.588 50.9368 242.783 48.9148 243.067 47.2976L244.042 41.7472C244.267 40.4336 244.842 38.622 244.583 37.3108C244.388 36.3212 243.58 35.6628 242.771 35.1516C242.007 34.6692 241.131 34.3724 240.237 34.2484C238.403 33.9944 236.326 34.1484 234.463 34.1464C231.776 34.1432 228.994 34.022 226.318 34.2156Z" fill="#2F3134"/>
<path d="M190.413 31.0186L191.146 30.9722C193.949 30.903 196.756 30.9286 199.552 31.1294C202.747 31.359 206.033 31.5242 208.458 33.9334C209.414 34.8826 209.504 35.6882 209.504 36.991C209.503 40.3378 208.541 44.0022 207.925 47.2974C207.575 49.171 207.367 51.2618 206.728 53.0526C206.344 54.1302 205.732 55.1654 204.912 55.9658C203.757 57.0926 202.341 57.5842 200.787 57.8766C197.559 58.4838 193.964 58.1962 190.68 58.181L178.032 58.129L176.662 65.851L174.001 79.6466L170.041 79.6198L174.847 53.1786C175.755 48.1594 176.386 42.8566 177.719 37.9442C177.999 36.9122 178.464 35.7546 179.144 34.9214C181.855 31.6026 186.518 31.3874 190.413 31.0186ZM195.885 34.0906C192.147 34.113 185.593 33.4246 182.737 36.3594C182.325 36.7834 181.985 37.3006 181.792 37.8614C181.299 39.2982 181.189 40.9166 180.909 42.4066L178.568 54.9898L188.097 55.015L193.373 55.0234C196.155 55.0214 199.742 55.0858 201.886 52.9626C202.467 52.3874 202.875 51.6938 203.136 50.9202C203.779 49.0074 203.886 46.8094 204.236 44.8218C204.62 42.6462 205.393 40.113 205.407 37.9238C205.413 37.1062 205.07 36.571 204.48 36.0114C202.359 33.9998 198.615 33.9878 195.885 34.0906Z" fill="#2F3134"/>
<path d="M82.6912 8.75018C83.8153 8.49098 85.2571 8.66618 86.4192 8.68058L82.7606 30.9234L101.033 31.1474C103.344 31.3546 107.038 32.0614 108.557 33.9194C109.693 35.309 109.896 36.9042 109.698 38.6354L108.468 46.2326C108.077 48.385 107.713 50.9674 106.615 52.889C105.889 54.1594 104.86 55.0122 103.736 55.9034C101.157 57.2194 97.941 57.8894 95.0432 58.0006L89.2051 58.0466C85.4779 58.0742 79.7607 58.3426 76.8147 55.5514C75.9201 54.7038 75.2311 53.5514 75.1936 52.3042C75.1094 49.5114 75.915 46.4386 76.3932 43.6822L79.2007 27.785L81.3467 15.0998C81.67 13.2098 81.8724 11.1426 82.3658 9.29618C82.4225 9.08338 82.5415 8.90898 82.6912 8.75018ZM82.3287 34.1502L80.3715 44.3018C79.9432 46.5494 78.9967 49.4918 79.1979 51.7554C80.304 53.3198 81.6038 54.2722 83.541 54.6066C85.8495 55.0054 88.2982 54.8966 90.6358 54.895C94.1918 54.893 98.2551 55.347 101.469 53.5646C102.162 52.917 102.841 52.2746 103.226 51.3854C104.129 49.299 104.3 46.5426 104.668 44.301C104.998 42.2986 105.503 40.2498 105.579 38.2202C105.609 37.4438 105.121 36.5986 104.582 36.0418C102.176 33.5594 97.4531 34.1518 94.2477 34.169L82.3287 34.1502Z" fill="#2F3134"/>
</g>
<defs>
<clipPath id="clip0_8294_20531">
<rect width="295" height="80" fill="white" transform="translate(0.000976562)"/>
</clipPath>
</defs>
</svg>
