<svg width="332" height="60" viewBox="0 0 332 60" fill="none" xmlns="http://www.w3.org/2000/svg">
<g clip-path="url(#clip0_8294_20529)">
<path d="M301.056 49.7891L331.905 49.8145L331.863 59.7145L301.149 59.7414C300.931 58.6289 301.052 57.3333 301.052 56.1974L301.056 49.7891Z" fill="#898E94"/>
<path d="M262.879 12.5781L264.941 12.6107L264.981 23.8119L263.627 23.7473C260.911 23.6695 257.455 23.5373 255.377 25.5874C254.39 26.5617 253.951 27.8222 253.716 29.163C253.301 31.5203 253.532 34.2346 253.531 36.6427L253.478 49.9937L242.167 49.9515V46.9571L242.183 12.8802L253.178 12.8639L253.18 19.108L255.019 16.2641C257.082 13.6947 259.735 12.9107 262.879 12.5781Z" fill="#2F3134"/>
<path d="M5.83072 2.78005L17.2348 2.77344L17.2647 12.7685L25.3265 12.8677L25.332 20.9763L17.4051 21.0384L17.2683 21.0256L17.2571 32.8324C17.2546 34.8206 17.0898 37.009 17.3179 38.9748C17.3803 39.5102 17.5349 40.1479 17.9089 40.5562C19.3474 42.1268 23.3887 41.7068 25.3498 41.7317L25.3437 48.5524C25.3599 49.0553 25.3731 49.4428 25.1673 49.9172C24.9483 49.9645 24.7268 50.0041 24.5028 50.0133L18.9196 50.0229C15.5241 50.0092 10.5842 50.2172 7.96921 47.6377C6.80645 46.4906 6.29349 44.9341 6.01066 43.364C5.5636 40.8811 5.79524 38.0906 5.79068 35.569L5.79829 21.1014L0.0214844 20.9845L0.0326371 12.9251C0.416338 12.7243 1.00988 12.8184 1.43616 12.8204L5.79474 12.8539L5.83072 2.78005Z" fill="#2F3134"/>
<path d="M182.618 2.77344L194.102 2.78005L194.12 12.7833L202.255 12.8728L202.256 20.9906L194.13 20.9931L194.118 33.7075C194.117 35.4567 193.89 37.5399 194.179 39.2484C194.269 39.7782 194.559 40.367 194.938 40.7494C196.247 42.0729 200.491 41.7114 202.238 41.7465L202.204 47.5172L202.16 49.8983L200.521 50.0077C196.168 50.0606 188.078 50.9194 184.817 47.6041C183.875 46.6456 183.353 45.4624 183.047 44.1694C182.322 41.0951 182.585 37.6523 182.581 34.5129L182.586 21.0953L176.826 20.9321L176.814 12.8758L182.563 12.8682L182.618 2.77344Z" fill="#2F3134"/>
<path d="M81.2374 11.8908C86.0892 11.6198 90.7301 11.9447 94.9574 14.5974C99.3443 17.3508 101.433 21.6073 102.554 26.5079L91.868 26.6101L91.391 25.224C90.728 23.5085 89.7417 22.0903 88.0127 21.3408C86.223 20.5654 83.5583 20.569 81.7656 21.3281C79.8232 22.1508 78.5434 23.7891 77.7694 25.703C76.485 28.88 76.5174 34.0944 77.8814 37.2352C78.7147 39.1537 80.0503 40.7157 82.0357 41.4708C83.9958 42.2157 86.6057 42.0637 88.4948 41.1983C90.7346 40.1722 91.5522 38.4388 92.3906 36.2432L96.4379 36.2356L103.072 36.2518C102.354 38.6173 101.673 40.8037 100.311 42.9012C97.6874 46.9435 93.3759 49.5256 88.7218 50.5003C83.3815 51.6195 77.1966 50.7622 72.6277 47.72C68.7562 45.1425 66.4809 40.7061 65.6126 36.2244C64.5173 30.5696 65.4382 23.869 68.7116 19.1005C71.7361 14.6935 76.1874 12.8132 81.2374 11.8908Z" fill="#2F3134"/>
<path d="M280.778 11.9224C285.624 11.7216 290.901 12.2148 295.016 15.0272C298.218 17.2162 299.812 20.1124 300.531 23.8721L289.945 23.8945C289.562 23.3143 289.287 22.6228 288.813 22.1143C287.471 20.6748 285.322 20.4775 283.476 20.4048C281.895 20.3428 278.823 20.2609 277.619 21.4873C277.058 22.0594 276.817 22.5684 276.89 23.3763C276.983 24.4233 277.976 25.1128 278.856 25.4895C280.328 26.1206 282.048 26.3407 283.619 26.6275C288.499 27.5178 294.808 28.036 298.645 31.4723C300.409 33.0521 301.179 35.1989 301.297 37.5302C301.444 40.4356 300.695 43.4458 298.701 45.6323C294.904 49.7946 289.42 50.6651 284.099 50.9153C279.707 51.0007 274.983 50.2975 271.263 47.807C267.604 45.3582 266.086 42.0623 265.229 37.8638L275.745 37.9136L276.579 39.4568C277.582 41.0275 278.972 41.8339 280.754 42.2311C283.174 42.7701 287.05 42.6633 289.173 41.2497C289.965 40.7224 290.169 40.1799 290.35 39.2682C290.194 38.6941 290.152 38.2075 289.714 37.7814C288.152 36.2636 284.942 35.957 282.907 35.6346C280.507 35.2548 278.063 34.9217 275.704 34.3278C273.532 33.7812 271.466 32.8233 269.687 31.4484C267.753 29.9519 266.462 27.6023 266.17 25.1753C265.845 22.4773 266.291 19.6523 268.017 17.4867C271.151 13.5536 276.044 12.4894 280.778 11.9224Z" fill="#2F3134"/>
<path d="M156.336 11.9184C161.158 11.832 166.047 12.1467 170.235 14.8299C173.701 17.0504 175.208 19.9574 176.076 23.8727L165.45 23.8976C165.126 23.2589 164.764 22.5832 164.274 22.0554C163.04 20.7247 160.998 20.4938 159.292 20.4155C157.142 20.3174 154.482 20.2498 152.806 21.7833C152.624 22.1881 152.413 22.6437 152.428 23.0952C152.468 24.2784 153.23 24.9511 154.237 25.4433C155.446 26.0342 157.008 26.2218 158.323 26.476C163.404 27.4574 170.239 27.886 174.231 31.4947C176.015 33.1071 176.756 35.3672 176.876 37.7169C177.03 40.7052 176.085 43.6416 174.055 45.8489C170.273 49.962 164.591 50.6815 159.339 50.9184C154.917 50.9901 150.516 50.2264 146.76 47.7618C143.093 45.3547 141.625 41.9901 140.77 37.8298L149.202 37.8603C149.588 37.8679 150.994 37.782 151.23 37.9304C151.352 38.0072 151.705 38.773 151.801 38.9372C152.247 39.6984 152.714 40.3564 153.402 40.9228C155.423 42.5865 158.547 42.6343 161.033 42.401C162.451 42.2677 164.485 41.8066 165.393 40.6182C165.737 40.1677 165.92 39.4976 165.853 38.9337C165.481 35.8335 154.296 35.0637 151.653 34.4128C149.547 33.8947 147.323 33.1121 145.606 31.7504C143.33 29.9464 141.979 27.8271 141.635 24.9125C141.296 22.0462 141.989 19.4347 143.77 17.1699C146.676 13.4738 151.943 12.4498 156.336 11.9184Z" fill="#2F3134"/>
<path d="M221.714 11.6868C225.743 11.5424 230.434 12.0463 233.837 14.3746C240.346 18.8268 239.077 27.3808 239.015 34.2213C238.969 39.4164 238.815 44.8525 239.784 49.98L228.646 49.9769L228.479 45.9071C227.04 47.2103 225.766 48.482 224.013 49.3774C220.356 51.2451 214.886 51.4068 211.028 50.1305C207.662 49.0169 205.552 47.098 203.969 43.9622C203.643 42.9498 203.426 41.9486 203.339 40.8869C203.12 38.2322 203.725 35.7717 205.454 33.7296C210.247 28.0673 220.894 27.3061 227.803 26.7468C227.808 25.199 227.907 23.5388 227.203 22.1141C226.593 20.88 225.659 20.2836 224.378 19.8819C222.871 19.409 219.481 19.592 218.114 20.3222C216.247 21.3193 215.656 22.9266 215.069 24.8461C214.086 25.1008 212.777 24.9422 211.757 24.9407L204.368 24.9198C204.723 22.2417 205.721 19.5986 207.525 17.5576C211.229 13.3678 216.331 12.0152 221.714 11.6868ZM227.793 33.7108C224.532 34.0007 218.008 34.1624 215.778 36.989C215.271 37.6322 214.95 38.6313 215.063 39.4495C215.229 40.6551 215.872 41.3502 216.722 42.1332C218.676 43.1339 221.292 43.3571 223.392 42.6285C225.144 42.0198 226.456 40.8422 227.239 39.1591C227.96 37.6078 228.084 35.5749 228.1 33.8791L227.793 33.7108Z" fill="#2F3134"/>
<path d="M41.7823 11.8895L44.4069 11.7735C49.4482 11.7603 54.412 13.1957 58.0508 16.872C62.819 21.6893 63.7587 27.8561 63.7161 34.3376L36.3107 34.4144C36.6487 36.5423 37.2053 38.2651 38.8197 39.7722C40.7346 41.56 43.2345 42.0029 45.7678 41.8956C48.9378 41.7613 50.9764 40.5674 53.0931 38.2757L61.7378 38.2706L63.3507 38.3256C63.486 39.4056 62.0399 41.6073 61.4443 42.5093C58.6418 46.7525 54.0283 49.6147 49.0747 50.5808C43.8595 51.5978 37.2342 50.5813 32.8077 47.5864C28.6574 44.7776 26.154 40.7388 25.2082 35.8101C24.1544 30.3196 25.0683 24.463 28.2241 19.8171C31.5025 14.9901 36.261 12.941 41.7823 11.8895ZM42.5948 20.7771C40.4341 21.3552 38.6717 22.2105 37.5033 24.2306C36.9731 25.1479 36.7116 26.3444 36.4293 27.3623L46.4668 27.3151L52.3678 27.3313C51.906 24.9934 51.4296 23.2056 49.3433 21.8068C47.3635 20.4786 44.8722 20.6139 42.5948 20.7771Z" fill="#2F3134"/>
<path d="M104.165 0.0709086L115.574 0.03125L115.646 17.4526C116.126 16.7596 116.665 16.1545 117.27 15.5692C120.083 12.8494 123.97 11.9707 127.77 12.0475C130.742 12.108 133.963 12.9063 136.076 15.1457C137.361 16.5089 138.23 18.3292 138.685 20.1384C139.845 24.7497 139.51 29.7658 139.516 34.4835L139.442 49.9909L128.105 49.966L128.124 37.9365L128.042 30.1446C128.002 28.4199 128.035 26.5558 127.616 24.8809C127.389 23.9753 127.05 23.0555 126.399 22.3685C125.354 21.2641 124.118 21.0974 122.677 21.0613C120.868 21.016 119.171 21.3384 117.85 22.668C117.06 23.4633 116.49 24.6435 116.219 25.7275C115.344 29.2146 115.597 33.0485 115.589 36.6221L115.571 49.9802L104.143 49.937L104.165 0.0709086Z" fill="#2F3134"/>
</g>
<defs>
<clipPath id="clip0_8294_20529">
<rect width="332" height="60" fill="white"/>
</clipPath>
</defs>
</svg>
