<svg width="64" height="69" viewBox="0 0 64 69" fill="none" xmlns="http://www.w3.org/2000/svg">
<path d="M33.8977 10.4448C32.9 9.28142 31.1 9.28143 30.1023 10.4448L26.8069 14.2875C26.3896 14.774 25.7094 14.9417 25.1138 14.7048L20.4101 12.8337C18.986 12.2672 17.3922 13.1038 17.0494 14.5976L15.9172 19.5315C15.7739 20.1562 15.2495 20.6208 14.612 20.6878L9.57757 21.217C8.05337 21.3772 7.03082 22.8586 7.42151 24.3406L8.71196 29.2355C8.87534 29.8553 8.62689 30.5104 8.09362 30.866L3.88176 33.6742C2.60659 34.5244 2.38962 36.3113 3.42426 37.4419L6.84169 41.1765C7.27438 41.6493 7.35883 42.3449 7.05188 42.9075L4.62749 47.3514C3.89349 48.6968 4.53181 50.3799 5.97338 50.9002L10.7349 52.6188C11.3378 52.8364 11.7358 53.4131 11.7254 54.0539L11.6439 59.1154C11.6193 60.6478 12.9666 61.8415 14.4849 61.6323L19.4997 60.9413C20.1346 60.8538 20.755 61.1794 21.0437 61.7516L23.3237 66.2713C24.014 67.6396 25.7618 68.0704 27.0089 67.1796L31.1281 64.2372C31.6497 63.8647 32.3503 63.8647 32.8719 64.2372L36.9911 67.1796C38.2382 68.0704 39.986 67.6396 40.6763 66.2713L42.9563 61.7516C43.245 61.1794 43.8654 60.8538 44.5003 60.9413L49.5151 61.6323C51.0334 61.8415 52.3807 60.6478 52.3561 59.1154L52.2746 54.0539C52.2642 53.4131 52.6622 52.8364 53.2651 52.6188L58.0266 50.9002C59.4682 50.3799 60.1065 48.6968 59.3725 47.3514L56.9481 42.9075C56.6412 42.3449 56.7256 41.6493 57.1583 41.1765L60.5757 37.4419C61.6104 36.3113 61.3934 34.5244 60.1182 33.6742L55.9064 30.866C55.3731 30.5104 55.1247 29.8553 55.288 29.2356L56.5785 24.3406C56.9692 22.8586 55.9466 21.3772 54.4224 21.217L49.388 20.6878C48.7505 20.6208 48.2261 20.1562 48.0828 19.5315L46.9506 14.5976C46.6078 13.1038 45.014 12.2672 43.5899 12.8337L38.8862 14.7048C38.2906 14.9417 37.6104 14.774 37.1931 14.2875L33.8977 10.4448Z" fill="url(#paint0_linear_8295_8319)" stroke="#2F3134"/>
<path d="M33.8977 1.44481C32.9 0.281425 31.1 0.281425 30.1023 1.44481L26.424 5.73397C26.0067 6.2205 25.3265 6.38817 24.7309 6.15127L19.4806 4.06281C18.0566 3.49633 16.4627 4.33286 16.1199 5.82664L14.8562 11.3339C14.7129 11.9586 14.1885 12.4232 13.551 12.4902L7.93161 13.0809C6.4074 13.2411 5.38485 14.7225 5.77554 16.2045L7.21593 21.6682C7.37931 22.2879 7.13087 22.943 6.59759 23.2986L1.89634 26.4331C0.621175 27.2833 0.404204 29.0702 1.43885 30.2009L5.25336 34.3694C5.68605 34.8422 5.7705 35.5377 5.46354 36.1004L2.75746 41.0606C2.02346 42.406 2.66177 44.0891 4.10335 44.6094L9.41812 46.5277C10.021 46.7453 10.419 47.322 10.4087 47.9628L10.3177 53.6125C10.293 55.1449 11.6404 56.3385 13.1586 56.1293L18.7561 55.358C19.3911 55.2705 20.0114 55.5961 20.3001 56.1684L22.8451 61.2132C23.5354 62.5815 25.2831 63.0123 26.5302 62.1215L31.1281 58.8372C31.6497 58.4647 32.3503 58.4647 32.8719 58.8372L37.4697 62.1215C38.7169 63.0123 40.4646 62.5815 41.1549 61.2132L43.6999 56.1684C43.9886 55.5961 44.6089 55.2705 45.2439 55.358L50.8414 56.1293C52.3596 56.3385 53.707 55.1449 53.6823 53.6125L53.5913 47.9628C53.581 47.322 53.979 46.7453 54.5819 46.5277L59.8967 44.6094C61.3382 44.0891 61.9765 42.406 61.2425 41.0606L58.5365 36.1004C58.2295 35.5377 58.3139 34.8422 58.7466 34.3694L62.5611 30.2009C63.5958 29.0702 63.3788 27.2833 62.1037 26.4331L57.4024 23.2986C56.8691 22.943 56.6207 22.2879 56.7841 21.6682L58.2245 16.2045C58.6152 14.7225 57.5926 13.2411 56.0684 13.0809L50.449 12.4902C49.8115 12.4232 49.2871 11.9586 49.1438 11.3339L47.8801 5.82664C47.5373 4.33286 45.9434 3.49633 44.5193 4.06281L39.2691 6.15127C38.6735 6.38817 37.9933 6.2205 37.576 5.73397L33.8977 1.44481Z" fill="white" stroke="#2F3134"/>
<g clip-path="url(#clip0_8295_8319)">
<path fill-rule="evenodd" clip-rule="evenodd" d="M32 48C40.8366 48 48 40.8366 48 32C48 23.1634 40.8366 16 32 16C23.1634 16 16 23.1634 16 32C16 40.8366 23.1634 48 32 48ZM19.1179 32C19.1179 36.2269 21.1538 39.9787 24.2984 42.3281C26.407 43.7767 28.5155 43.5424 29.9047 42.5525C31.3104 41.556 32.0099 39.7808 31.2972 37.9593C31.053 37.3357 30.5547 36.7879 29.8783 36.316C29.2018 35.8442 28.3868 35.4746 27.5817 35.1941C26.7798 34.9137 26.011 34.7289 25.4401 34.6134C24.5822 34.4418 22.8433 34.257 22.8433 34.257C22.8433 34.257 24.1896 33.0691 24.2753 32.9998C24.3743 32.9173 24.5228 32.7985 24.7076 32.6599C25.0772 32.3795 25.6051 32.0066 26.2387 31.6337C27.288 31.0167 28.6871 30.36 30.1786 30.1654C29.941 29.4658 29.3569 28.8983 28.6541 28.4462C28.2086 28.1591 27.7566 27.9479 27.4134 27.8094C27.2418 27.7401 27.0999 27.6906 27.0042 27.6576C26.9859 27.6515 26.9694 27.6458 26.9547 27.6408C26.9297 27.6322 26.9099 27.6254 26.8953 27.6213C26.242 27.42 24.9254 27.057 24.9254 27.057C25.1452 26.9541 25.3646 26.8481 25.5844 26.7419C26.0344 26.5244 26.4859 26.3062 26.9448 26.1133C27.0636 26.0638 27.2319 25.9945 27.4431 25.9186C27.8621 25.7668 28.4561 25.5787 29.1457 25.4368C30.5052 25.1597 32.3564 25.031 34.0293 25.8196C35.7287 26.6214 36.7087 27.5619 37.5798 28.4L37.6293 28.4495C38.5005 29.2843 39.2627 30.0004 40.6123 30.5382C41.4504 30.8748 42.6845 31.0596 43.7635 31.152C44.2915 31.1982 44.7633 31.2213 45.1032 31.2312C45.2748 31.2378 45.4101 31.2411 45.5025 31.2411H45.6081H46.4V32C46.4 39.9523 39.9523 46.4 32 46.4C24.0477 46.4 17.6 39.9523 17.6 32C17.6 24.0477 24.0477 17.6 32 17.6C38.5665 17.6 44.1034 21.9952 45.8357 28.0007C44.2849 22.6288 37.8735 19.1179 32 19.1179C24.8858 19.1179 19.1179 24.8858 19.1179 32ZM30.7857 43.7932C30.3072 44.1298 29.7793 44.3971 29.2117 44.5819C30.1093 44.7798 31.0431 44.8854 32 44.8854C38.5929 44.8854 44.0308 39.9358 44.793 33.5476C43.9351 34.0128 42.6911 34.4649 41.094 34.4649C39.4475 34.4649 38.0319 33.8016 36.6823 33.1681C36.6484 33.1519 36.6146 33.1358 36.581 33.1197C36.4773 33.07 36.3745 33.0208 36.2698 32.9734C34.7619 32.2739 33.1813 31.6238 31.0563 31.6238C29.6473 31.6238 28.1789 32.2541 27.0108 32.9404C26.8128 33.0559 26.6247 33.1747 26.4499 33.2869C26.9382 33.4057 27.4992 33.5641 28.0799 33.7654C28.9643 34.0722 29.9179 34.4979 30.7461 35.0753C31.5743 35.6528 32.3201 36.415 32.7094 37.4115C33.7027 39.9457 32.6962 42.4337 30.7857 43.7932ZM41.0973 32.947C41.9025 32.947 42.5888 32.8084 43.1564 32.6137C42.1434 32.5049 40.9621 32.3102 40.0546 31.9472C38.4147 31.2906 37.4742 30.3963 36.5833 29.5417L36.5536 29.512L36.5467 29.5054C35.6847 28.6795 34.8537 27.8834 33.3859 27.1923C32.1452 26.6082 30.6801 26.6709 29.4526 26.925C29.3998 26.9359 29.348 26.9479 29.2967 26.9597C29.255 26.9693 29.2136 26.9788 29.1721 26.9877C29.2711 27.0438 29.3734 27.1065 29.4757 27.1725C30.3897 27.7566 31.4555 28.7201 31.7393 30.1258C33.8643 30.2511 35.4944 30.9441 36.9067 31.5974C36.952 31.6183 36.9969 31.6389 37.0416 31.6592C37.1237 31.6967 37.2049 31.7338 37.2862 31.7723C38.6951 32.429 39.8072 32.947 41.0973 32.947Z" fill="#2F3134"/>
</g>
<defs>
<linearGradient id="paint0_linear_8295_8319" x1="2.46012" y1="10.0811" x2="67.8982" y2="17.5885" gradientUnits="userSpaceOnUse">
<stop stop-color="#028FFF"/>
<stop offset="1" stop-color="#04E762"/>
</linearGradient>
<clipPath id="clip0_8295_8319">
<rect width="32" height="32" fill="white" transform="translate(16 16)"/>
</clipPath>
</defs>
</svg>
