<svg width="64" height="69" viewBox="0 0 64 69" fill="none" xmlns="http://www.w3.org/2000/svg">
<path d="M33.8977 10.4448C32.9 9.28142 31.1 9.28143 30.1023 10.4448L26.8069 14.2875C26.3896 14.774 25.7094 14.9417 25.1138 14.7048L20.4101 12.8337C18.986 12.2672 17.3922 13.1038 17.0494 14.5976L15.9172 19.5315C15.7739 20.1562 15.2495 20.6208 14.612 20.6878L9.57757 21.217C8.05337 21.3772 7.03082 22.8586 7.42151 24.3406L8.71196 29.2355C8.87534 29.8553 8.62689 30.5104 8.09362 30.866L3.88176 33.6742C2.60659 34.5244 2.38962 36.3113 3.42426 37.4419L6.84169 41.1765C7.27438 41.6493 7.35883 42.3449 7.05188 42.9075L4.62749 47.3514C3.89349 48.6968 4.53181 50.3799 5.97338 50.9002L10.7349 52.6188C11.3378 52.8364 11.7358 53.4131 11.7254 54.0539L11.6439 59.1154C11.6193 60.6478 12.9666 61.8415 14.4849 61.6323L19.4997 60.9413C20.1346 60.8538 20.755 61.1794 21.0437 61.7516L23.3237 66.2713C24.014 67.6396 25.7618 68.0704 27.0089 67.1796L31.1281 64.2372C31.6497 63.8647 32.3503 63.8647 32.8719 64.2372L36.9911 67.1796C38.2382 68.0704 39.986 67.6396 40.6763 66.2713L42.9563 61.7516C43.245 61.1794 43.8654 60.8538 44.5003 60.9413L49.5151 61.6323C51.0334 61.8415 52.3807 60.6478 52.3561 59.1154L52.2746 54.0539C52.2642 53.4131 52.6622 52.8364 53.2651 52.6188L58.0266 50.9002C59.4682 50.3799 60.1065 48.6968 59.3725 47.3514L56.9481 42.9075C56.6412 42.3449 56.7256 41.6493 57.1583 41.1765L60.5757 37.4419C61.6104 36.3113 61.3934 34.5244 60.1182 33.6742L55.9064 30.866C55.3731 30.5104 55.1247 29.8553 55.288 29.2356L56.5785 24.3406C56.9692 22.8586 55.9466 21.3772 54.4224 21.217L49.388 20.6878C48.7505 20.6208 48.2261 20.1562 48.0828 19.5315L46.9506 14.5976C46.6078 13.1038 45.014 12.2672 43.5899 12.8337L38.8862 14.7048C38.2906 14.9417 37.6104 14.774 37.1931 14.2875L33.8977 10.4448Z" fill="url(#paint0_linear_8294_21128)" stroke="#2F3134"/>
<path d="M33.8977 1.44481C32.9 0.281425 31.1 0.281425 30.1023 1.44481L26.424 5.73397C26.0067 6.2205 25.3265 6.38817 24.7309 6.15127L19.4806 4.06281C18.0566 3.49633 16.4627 4.33286 16.1199 5.82664L14.8562 11.3339C14.7129 11.9586 14.1885 12.4232 13.551 12.4902L7.93161 13.0809C6.4074 13.2411 5.38485 14.7225 5.77554 16.2045L7.21593 21.6682C7.37931 22.2879 7.13087 22.943 6.59759 23.2986L1.89634 26.4331C0.621175 27.2833 0.404204 29.0702 1.43885 30.2009L5.25336 34.3694C5.68605 34.8422 5.7705 35.5377 5.46354 36.1004L2.75746 41.0606C2.02346 42.406 2.66177 44.0891 4.10335 44.6094L9.41812 46.5277C10.021 46.7453 10.419 47.322 10.4087 47.9628L10.3177 53.6125C10.293 55.1449 11.6404 56.3385 13.1586 56.1293L18.7561 55.358C19.3911 55.2705 20.0114 55.5961 20.3001 56.1684L22.8451 61.2132C23.5354 62.5815 25.2831 63.0123 26.5302 62.1215L31.1281 58.8372C31.6497 58.4647 32.3503 58.4647 32.8719 58.8372L37.4697 62.1215C38.7169 63.0123 40.4646 62.5815 41.1549 61.2132L43.6999 56.1684C43.9886 55.5961 44.6089 55.2705 45.2439 55.358L50.8414 56.1293C52.3596 56.3385 53.707 55.1449 53.6823 53.6125L53.5913 47.9628C53.581 47.322 53.979 46.7453 54.5819 46.5277L59.8967 44.6094C61.3382 44.0891 61.9765 42.406 61.2425 41.0606L58.5365 36.1004C58.2295 35.5377 58.3139 34.8422 58.7466 34.3694L62.5611 30.2009C63.5958 29.0702 63.3788 27.2833 62.1037 26.4331L57.4024 23.2986C56.8691 22.943 56.6207 22.2879 56.7841 21.6682L58.2245 16.2045C58.6152 14.7225 57.5926 13.2411 56.0684 13.0809L50.449 12.4902C49.8115 12.4232 49.2871 11.9586 49.1438 11.3339L47.8801 5.82664C47.5373 4.33286 45.9434 3.49633 44.5193 4.06281L39.2691 6.15127C38.6735 6.38817 37.9933 6.2205 37.576 5.73397L33.8977 1.44481Z" fill="white" stroke="#2F3134"/>
<path d="M27.1281 16.0045L35.2319 16L35.2531 22.7692L40.9819 22.8364L40.9859 28.328L35.3529 28.37L35.2557 28.3614L35.2477 36.3576C35.2459 37.7041 35.1289 39.1863 35.291 40.5176C35.3353 40.8802 35.4451 41.312 35.7109 41.5886C36.7331 42.6523 39.6049 42.3679 40.9985 42.3847L40.9941 47.0041C41.0057 47.3447 41.015 47.6071 40.8688 47.9284C40.7132 47.9604 40.5558 47.9873 40.3966 47.9935L36.4292 48C34.0163 47.9907 30.5059 48.1315 28.6477 46.3846C27.8214 45.6077 27.4569 44.5536 27.2559 43.4902C26.9383 41.8086 27.1029 39.9187 27.0996 38.211L27.105 28.4127L23 28.3335L23.0079 22.8753C23.2806 22.7393 23.7024 22.803 24.0053 22.8044L27.1025 22.8271L27.1281 16.0045Z" fill="#2F3134"/>
<defs>
<linearGradient id="paint0_linear_8294_21128" x1="2.46012" y1="10.0811" x2="67.8982" y2="17.5885" gradientUnits="userSpaceOnUse">
<stop stop-color="#028FFF"/>
<stop offset="1" stop-color="#04E762"/>
</linearGradient>
</defs>
</svg>
