<svg width="5" height="44" viewBox="0 0 5 44" fill="none" xmlns="http://www.w3.org/2000/svg">
<path d="M4.33301 2C4.33301 3.10457 3.43758 4 2.33301 4C1.22844 4 0.333008 3.10457 0.333008 2C0.333008 0.89543 1.22844 0 2.33301 0C3.43758 0 4.33301 0.89543 4.33301 2Z" fill="url(#paint0_linear_7776_17173)"/>
<path d="M4.33301 10C4.33301 11.1046 3.43758 12 2.33301 12C1.22844 12 0.333008 11.1046 0.333008 10C0.333008 8.89543 1.22844 8 2.33301 8C3.43758 8 4.33301 8.89543 4.33301 10Z" fill="url(#paint1_linear_7776_17173)"/>
<path d="M4.33301 18C4.33301 19.1046 3.43758 20 2.33301 20C1.22844 20 0.333008 19.1046 0.333008 18C0.333008 16.8954 1.22844 16 2.33301 16C3.43758 16 4.33301 16.8954 4.33301 18Z" fill="url(#paint2_linear_7776_17173)"/>
<path d="M4.33301 26C4.33301 27.1046 3.43758 28 2.33301 28C1.22844 28 0.333008 27.1046 0.333008 26C0.333008 24.8954 1.22844 24 2.33301 24C3.43758 24 4.33301 24.8954 4.33301 26Z" fill="url(#paint3_linear_7776_17173)"/>
<path d="M4.33301 34C4.33301 35.1046 3.43758 36 2.33301 36C1.22844 36 0.333008 35.1046 0.333008 34C0.333008 32.8954 1.22844 32 2.33301 32C3.43758 32 4.33301 32.8954 4.33301 34Z" fill="url(#paint4_linear_7776_17173)"/>
<path d="M4.33301 42C4.33301 43.1046 3.43758 44 2.33301 44C1.22844 44 0.333008 43.1046 0.333008 42C0.333008 40.8954 1.22844 40 2.33301 40C3.43758 40 4.33301 40.8954 4.33301 42Z" fill="url(#paint5_linear_7776_17173)"/>
<defs>
<linearGradient id="paint0_linear_7776_17173" x1="2.33301" y1="-8" x2="2.33301" y2="44" gradientUnits="userSpaceOnUse">
<stop stop-color="#6B6F76"/>
<stop offset="1" stop-color="#6B6F76" stop-opacity="0.25"/>
</linearGradient>
<linearGradient id="paint1_linear_7776_17173" x1="2.33301" y1="-8" x2="2.33301" y2="44" gradientUnits="userSpaceOnUse">
<stop stop-color="#6B6F76"/>
<stop offset="1" stop-color="#6B6F76" stop-opacity="0.25"/>
</linearGradient>
<linearGradient id="paint2_linear_7776_17173" x1="2.33301" y1="-8" x2="2.33301" y2="44" gradientUnits="userSpaceOnUse">
<stop stop-color="#6B6F76"/>
<stop offset="1" stop-color="#6B6F76" stop-opacity="0.25"/>
</linearGradient>
<linearGradient id="paint3_linear_7776_17173" x1="2.33301" y1="-8" x2="2.33301" y2="44" gradientUnits="userSpaceOnUse">
<stop stop-color="#6B6F76"/>
<stop offset="1" stop-color="#6B6F76" stop-opacity="0.25"/>
</linearGradient>
<linearGradient id="paint4_linear_7776_17173" x1="2.33301" y1="-8" x2="2.33301" y2="44" gradientUnits="userSpaceOnUse">
<stop stop-color="#6B6F76"/>
<stop offset="1" stop-color="#6B6F76" stop-opacity="0.25"/>
</linearGradient>
<linearGradient id="paint5_linear_7776_17173" x1="2.33301" y1="-8" x2="2.33301" y2="44" gradientUnits="userSpaceOnUse">
<stop stop-color="#6B6F76"/>
<stop offset="1" stop-color="#6B6F76" stop-opacity="0.25"/>
</linearGradient>
</defs>
</svg>
