<svg width="41" height="40" viewBox="0 0 41 40" fill="none" xmlns="http://www.w3.org/2000/svg">
<path d="M21.3317 26.0026C18.265 26.0026 17.9984 24.5693 17.9984 24.3359H14.665C14.665 25.8693 15.765 28.5859 19.665 29.2026V31.0026H22.9984V29.2026C26.3317 28.6359 27.9984 26.4859 27.9984 24.3359C27.9984 22.4693 27.1317 19.3359 21.3317 19.3359C17.9984 19.3359 17.9984 18.2859 17.9984 17.6693C17.9984 17.0526 19.165 16.0026 21.3317 16.0026C23.4984 16.0026 23.6484 17.0693 23.665 17.6693H26.9984C26.9758 16.5339 26.5675 15.4399 25.8405 14.5675C25.1134 13.6951 24.1111 13.0962 22.9984 12.8693V11.0026H19.665V12.8193C16.3317 13.3693 14.665 15.5193 14.665 17.6693C14.665 19.5359 15.5317 22.6693 21.3317 22.6693C24.665 22.6693 24.665 23.8026 24.665 24.3359C24.665 24.8693 23.6317 26.0026 21.3317 26.0026Z" fill="url(#paint0_linear_7340_18657)"/>
<path d="M4.66504 4.33594V7.66927H7.99837V36.0026C7.99837 36.4446 8.17397 36.8686 8.48653 37.1811C8.79909 37.4937 9.22301 37.6693 9.66504 37.6693H32.9984C33.4404 37.6693 33.8643 37.4937 34.1769 37.1811C34.4894 36.8686 34.665 36.4446 34.665 36.0026V7.66927H37.9984V4.33594H4.66504ZM31.3317 34.3359H11.3317V7.66927H31.3317V34.3359Z" fill="url(#paint1_linear_7340_18657)"/>
<path d="M18.916 28.2026V27.989L18.7051 27.9557C15.1503 27.3936 14.0394 25.0448 13.926 23.5859H16.7866C16.8484 23.819 17.0022 24.1442 17.3529 24.4462C17.8635 24.8859 18.7632 25.2526 20.3327 25.2526C21.5237 25.2526 22.4053 24.959 22.9968 24.5797C23.2918 24.3906 23.5168 24.1786 23.6703 23.9691C23.82 23.7647 23.916 23.5425 23.916 23.3359V23.3299C23.916 23.0546 23.9161 22.5362 23.4101 22.1112C22.9232 21.7021 22.0135 21.4193 20.3327 21.4193C17.4764 21.4193 15.887 20.6486 15.0078 19.6994C14.1252 18.7465 13.916 17.5685 13.916 16.6693C13.916 14.6659 15.4685 12.6002 18.7067 12.0659L18.916 12.0314V11.8193V10.2526H21.7493V11.8693V12.0734L21.9494 12.1142C23.0065 12.3298 23.9587 12.8988 24.6494 13.7276C25.2855 14.4909 25.6648 15.4326 25.7375 16.4193H22.9007C22.8697 16.1252 22.778 15.7591 22.4906 15.4428C22.1138 15.028 21.452 14.7526 20.3327 14.7526C19.2096 14.7526 18.3305 15.0247 17.7243 15.3907C17.4218 15.5733 17.1832 15.7818 17.0178 15.9957C16.8551 16.206 16.7493 16.44 16.7493 16.6693L16.7493 16.6795C16.7493 16.991 16.7492 17.5129 17.2581 17.9276C17.7458 18.3251 18.6558 18.5859 20.3327 18.5859C23.189 18.5859 24.7784 19.3566 25.6576 20.3058C26.5402 21.2587 26.7493 22.4367 26.7493 23.3359C26.7493 25.3394 25.1967 27.4055 21.9574 27.9561L21.7493 27.9915V28.2026V29.7526H18.916V28.2026ZM7.24935 6.66927V6.41927H6.99935H3.91602V3.58594H36.7493V6.41927H33.666H33.416V6.66927V35.0026C33.416 35.3783 33.2668 35.7387 33.0011 36.0043C32.7354 36.27 32.3751 36.4193 31.9993 36.4193H8.66602C8.29029 36.4193 7.92996 36.27 7.66428 36.0043C7.3986 35.7387 7.24935 35.3783 7.24935 35.0026V6.66927ZM30.3327 33.5859H30.5827V33.3359V6.66927V6.41927H30.3327H10.3327H10.0827V6.66927V33.3359V33.5859H10.3327H30.3327Z" fill="url(#paint2_linear_7340_18657)" stroke="#EAEAEC" stroke-width="0.5"/>
<defs>
<linearGradient id="paint0_linear_7340_18657" x1="4.92066" y1="4.93654" x2="41.2751" y2="9.1073" gradientUnits="userSpaceOnUse">
<stop stop-color="#028FFF"/>
<stop offset="1" stop-color="#04E762"/>
</linearGradient>
<linearGradient id="paint1_linear_7340_18657" x1="4.92066" y1="4.93654" x2="41.2751" y2="9.1073" gradientUnits="userSpaceOnUse">
<stop stop-color="#028FFF"/>
<stop offset="1" stop-color="#04E762"/>
</linearGradient>
<linearGradient id="paint2_linear_7340_18657" x1="3.92164" y1="3.93654" x2="40.2761" y2="8.1073" gradientUnits="userSpaceOnUse">
<stop stop-color="#028FFF"/>
<stop offset="1" stop-color="#04E762"/>
</linearGradient>
</defs>
</svg>
