<svg width="40" height="40" viewBox="0 0 40 40" fill="none" xmlns="http://www.w3.org/2000/svg">
<path d="M34.6717 4.96497C35.3226 4.3141 36.3779 4.3141 37.0288 4.96497C37.6796 5.61584 37.6796 6.67112 37.0288 7.32199L7.27317 37.0776C6.62229 37.7285 5.56702 37.7285 4.91614 37.0776C4.26527 36.4267 4.26527 35.3714 4.91614 34.7206L34.6717 4.96497Z" fill="url(#paint0_linear_7340_18647)"/>
<path fill-rule="evenodd" clip-rule="evenodd" d="M11.8343 4.33594C7.69306 4.33594 4.33594 7.69306 4.33594 11.8343C4.33594 15.9755 7.69306 19.3326 11.8343 19.3326C15.9755 19.3326 19.3326 15.9755 19.3326 11.8343C19.3326 7.69306 15.9755 4.33594 11.8343 4.33594ZM7.66594 11.8343C7.66594 9.53216 9.53216 7.66594 11.8343 7.66594C14.1364 7.66594 16.0026 9.53216 16.0026 11.8343C16.0026 14.1364 14.1364 16.0026 11.8343 16.0026C9.53216 16.0026 7.66594 14.1364 7.66594 11.8343Z" fill="url(#paint1_linear_7340_18647)"/>
<path fill-rule="evenodd" clip-rule="evenodd" d="M30.1663 22.6719C26.0251 22.6719 22.668 26.029 22.668 30.1702C22.668 34.3114 26.0251 37.6685 30.1663 37.6685C34.3075 37.6685 37.6646 34.3114 37.6646 30.1702C37.6646 26.029 34.3075 22.6719 30.1663 22.6719ZM25.998 30.1702C25.998 27.8681 27.8642 26.0019 30.1663 26.0019C32.4684 26.0019 34.3346 27.8681 34.3346 30.1702C34.3346 32.4723 32.4684 34.3385 30.1663 34.3385C27.8642 34.3385 25.998 32.4723 25.998 30.1702Z" fill="url(#paint2_linear_7340_18647)"/>
<path d="M33.8485 4.14175C34.4018 3.5885 35.2988 3.5885 35.852 4.14175C36.4052 4.69499 36.4052 5.59197 35.852 6.14522L6.09639 35.9008C5.54315 36.4541 4.64616 36.4541 4.09292 35.9008C3.53968 35.3476 3.53968 34.4506 4.09292 33.8974L33.8485 4.14175ZM3.58594 10.8343C3.58594 6.83113 6.83113 3.58594 10.8343 3.58594C14.8374 3.58594 18.0826 6.83113 18.0826 10.8343C18.0826 14.8374 14.8374 18.0826 10.8343 18.0826C6.83113 18.0826 3.58594 14.8374 3.58594 10.8343ZM10.8343 6.41594C8.39409 6.41594 6.41594 8.39409 6.41594 10.8343C6.41594 13.2744 8.39409 15.2526 10.8343 15.2526C13.2744 15.2526 15.2526 13.2744 15.2526 10.8343C15.2526 8.39409 13.2744 6.41594 10.8343 6.41594ZM21.918 29.1702C21.918 25.1671 25.1632 21.9219 29.1663 21.9219C33.1694 21.9219 36.4146 25.1671 36.4146 29.1702C36.4146 33.1734 33.1694 36.4185 29.1663 36.4185C25.1632 36.4185 21.918 33.1734 21.918 29.1702ZM29.1663 24.7519C26.7261 24.7519 24.748 26.73 24.748 29.1702C24.748 31.6104 26.7261 33.5885 29.1663 33.5885C31.6065 33.5885 33.5846 31.6104 33.5846 29.1702C33.5846 26.73 31.6065 24.7519 29.1663 24.7519Z" fill="url(#paint3_linear_7340_18647)" stroke="#EAEAEC" stroke-width="0.5"/>
<defs>
<linearGradient id="paint0_linear_7340_18647" x1="4.59153" y1="4.93652" x2="40.9411" y2="9.10623" gradientUnits="userSpaceOnUse">
<stop stop-color="#028FFF"/>
<stop offset="1" stop-color="#04E762"/>
</linearGradient>
<linearGradient id="paint1_linear_7340_18647" x1="4.59153" y1="4.93652" x2="40.9411" y2="9.10623" gradientUnits="userSpaceOnUse">
<stop stop-color="#028FFF"/>
<stop offset="1" stop-color="#04E762"/>
</linearGradient>
<linearGradient id="paint2_linear_7340_18647" x1="4.59153" y1="4.93652" x2="40.9411" y2="9.10623" gradientUnits="userSpaceOnUse">
<stop stop-color="#028FFF"/>
<stop offset="1" stop-color="#04E762"/>
</linearGradient>
<linearGradient id="paint3_linear_7340_18647" x1="3.59153" y1="3.93652" x2="39.9411" y2="8.10623" gradientUnits="userSpaceOnUse">
<stop stop-color="#028FFF"/>
<stop offset="1" stop-color="#04E762"/>
</linearGradient>
</defs>
</svg>
