<svg width="40" height="40" viewBox="0 0 40 40" fill="none" xmlns="http://www.w3.org/2000/svg">
<path d="M15.759 31.7272C17.7306 31.4505 21.104 30.4122 22.5573 26.5822C24.049 22.6589 25.224 22.6589 26.0006 22.6589L26.2723 22.6589C26.9957 25.0589 29.2007 26.8255 31.834 26.8255C35.0506 26.8255 37.6673 24.2089 37.6673 20.9922C37.6673 17.7755 35.0506 15.1589 31.834 15.1589C29.2007 15.1589 26.9957 16.9255 26.2723 19.3255L26.0006 19.3255C25.224 19.3255 24.049 19.3255 22.559 15.4022C21.1057 11.5722 17.7323 10.5339 15.7606 10.2572C15.069 7.80552 12.8373 5.99219 10.1673 5.99219C6.95065 5.99219 4.33398 8.60885 4.33398 11.8255C4.33398 15.0422 6.95065 17.6589 10.1673 17.6589C12.754 17.6589 14.9256 15.9555 15.689 13.6189C16.914 13.8622 18.674 14.5605 19.4423 16.5822C20.1956 18.5689 21.0307 20.0039 22.0023 20.9922C21.0307 21.9805 20.1956 23.4139 19.4423 25.4022C18.674 27.4239 16.914 28.1239 15.689 28.3655C14.9257 26.0289 12.754 24.3255 10.1673 24.3255C6.95065 24.3255 4.33398 26.9422 4.33398 30.1589C4.33398 33.3755 6.95065 35.9922 10.1673 35.9922C12.8373 35.9922 15.069 34.1789 15.759 31.7272ZM7.66732 11.8255C7.66732 10.4472 8.78898 9.32552 10.1673 9.32552C11.5456 9.32552 12.6673 10.4472 12.6673 11.8255C12.6673 13.2039 11.5457 14.3255 10.1673 14.3255C8.78898 14.3255 7.66732 13.2039 7.66732 11.8255ZM31.834 18.4922C33.2123 18.4922 34.334 19.6139 34.334 20.9922C34.334 22.3705 33.2123 23.4922 31.834 23.4922C30.4556 23.4922 29.334 22.3705 29.334 20.9922C29.334 19.6139 30.4556 18.4922 31.834 18.4922ZM7.66732 30.1589C7.66732 28.7805 8.78898 27.6589 10.1673 27.6589C11.5457 27.6589 12.6673 28.7805 12.6673 30.1589C12.6673 31.5372 11.5457 32.6589 10.1673 32.6589C8.78898 32.6589 7.66732 31.5372 7.66732 30.1589Z" fill="url(#paint0_linear_7340_18616)"/>
<path d="M14.7233 30.4796L14.5616 30.5023L14.5174 30.6595C13.8563 33.0083 11.7193 34.7422 9.16634 34.7422C6.08775 34.7422 3.58301 32.2374 3.58301 29.1589C3.58301 26.0803 6.08775 23.5755 9.16634 23.5755C11.6392 23.5755 13.7188 25.2039 14.4504 27.4432L14.5191 27.6537L14.7364 27.6108C15.9988 27.3618 17.8622 26.6299 18.675 24.491L18.6751 24.4908C19.4219 22.5197 20.2415 21.1216 21.1796 20.1675L21.3519 19.9922L21.1796 19.8169C20.2415 18.8628 19.4219 17.4631 18.6751 15.4935L18.675 15.4934C17.8621 13.3544 15.9986 12.6243 14.7367 12.3736L14.5192 12.3304L14.4504 12.5412C13.7188 14.7805 11.6392 16.4089 9.16634 16.4089C6.08775 16.4089 3.58301 13.9041 3.58301 10.8255C3.58301 7.74693 6.08774 5.24219 9.16634 5.24219C11.7192 5.24219 13.8564 6.97605 14.5191 9.32507L14.5634 9.48209L14.7249 9.50476C16.6603 9.77634 19.9189 10.7873 21.3243 14.4909L21.3243 14.4909C22.0741 16.4652 22.7588 17.4939 23.3844 18.0256C23.7015 18.295 24.002 18.4357 24.2826 18.5066C24.5555 18.5755 24.8006 18.5755 24.9923 18.5755L24.9997 18.5755L25.2713 18.5755L25.4571 18.5755L25.5107 18.3977C26.2038 16.0979 28.3154 14.4089 30.833 14.4089C33.9116 14.4089 36.4163 16.9136 36.4163 19.9922C36.4163 23.0708 33.9116 25.5755 30.833 25.5755C28.3154 25.5755 26.2038 23.8865 25.5107 21.5867L25.4571 21.4089L25.2713 21.4089L24.9997 21.4089L24.9923 21.4089C24.8006 21.4088 24.5555 21.4088 24.2825 21.4778C24.0019 21.5486 23.7014 21.6894 23.3843 21.9587C22.7584 22.4904 22.0733 23.5191 21.3227 25.4933L21.3226 25.4935C19.9172 29.1971 16.6586 30.208 14.7233 30.4796ZM9.16634 8.07552C7.64994 8.07552 6.41634 9.30912 6.41634 10.8255C6.41634 12.3419 7.64994 13.5755 9.16634 13.5755C10.6827 13.5755 11.9163 12.3419 11.9163 10.8255C11.9163 9.30912 10.6827 8.07552 9.16634 8.07552ZM33.583 19.9922C33.583 18.4758 32.3494 17.2422 30.833 17.2422C29.3166 17.2422 28.083 18.4758 28.083 19.9922C28.083 21.5086 29.3166 22.7422 30.833 22.7422C32.3494 22.7422 33.583 21.5086 33.583 19.9922ZM9.16634 26.4089C7.64994 26.4089 6.41634 27.6424 6.41634 29.1589C6.41634 30.6753 7.64994 31.9089 9.16634 31.9089C10.6827 31.9089 11.9163 30.6753 11.9163 29.1589C11.9163 27.6424 10.6827 26.4089 9.16634 26.4089Z" fill="url(#paint1_linear_7340_18616)" stroke="#EAEAEC" stroke-width="0.5"/>
<defs>
<linearGradient id="paint0_linear_7340_18616" x1="4.93458" y1="35.7621" x2="8.32126" y2="2.96214" gradientUnits="userSpaceOnUse">
<stop stop-color="#028FFF"/>
<stop offset="1" stop-color="#04E762"/>
</linearGradient>
<linearGradient id="paint1_linear_7340_18616" x1="3.93361" y1="34.7621" x2="7.32028" y2="1.96214" gradientUnits="userSpaceOnUse">
<stop stop-color="#028FFF"/>
<stop offset="1" stop-color="#04E762"/>
</linearGradient>
</defs>
</svg>
