<svg width="41" height="40" viewBox="0 0 41 40" fill="none" xmlns="http://www.w3.org/2000/svg">
<path d="M20.3324 6.33333C23.089 6.33333 25.3324 8.57667 25.3324 11.3333H28.6657C28.6657 6.73833 24.9274 3 20.3324 3C15.7374 3 11.999 6.73833 11.999 11.3333V14.6667H10.3324C8.49402 14.6667 6.99902 16.1617 6.99902 18V33C6.99902 34.8383 8.49402 36.3333 10.3324 36.3333H30.3324C32.1707 36.3333 33.6657 34.8383 33.6657 33V18C33.6657 16.1617 32.1707 14.6667 30.3324 14.6667H15.3324V11.3333C15.3324 8.57667 17.5757 6.33333 20.3324 6.33333ZM30.3357 33H21.999V29.2033C22.9907 28.625 23.6657 27.5617 23.6657 26.3333C23.6657 24.495 22.1707 23 20.3324 23C18.494 23 16.999 24.495 16.999 26.3333C16.999 27.56 17.674 28.625 18.6657 29.2033V33H10.3324V18H30.3324L30.3357 33Z" fill="url(#paint0_linear_7340_18594)"/>
<path d="M10.999 13.9167H11.249V13.6667V10.3333C11.249 5.8764 14.8754 2.25 19.3324 2.25C23.7057 2.25 27.2793 5.74159 27.4119 10.0833H24.5765C24.4455 7.3042 22.1433 5.08333 19.3324 5.08333C16.4376 5.08333 14.0824 7.4386 14.0824 10.3333V13.6667V13.9167H14.3324H29.3324C31.0326 13.9167 32.4157 15.2997 32.4157 17V32C32.4157 33.7003 31.0326 35.0833 29.3324 35.0833H9.33236C7.63209 35.0833 6.24902 33.7003 6.24902 32V17C6.24902 15.2997 7.63209 13.9167 9.33236 13.9167H10.999ZM29.3357 32.25H29.5857L29.5857 31.9999L29.5824 16.9999L29.5823 16.75H29.3324H9.33236H9.08236V17V32V32.25H9.33236H17.6657H17.9157V32V28.2033V28.0597L17.7916 27.9874C16.8716 27.4508 16.249 26.4652 16.249 25.3333C16.249 23.6331 17.6321 22.25 19.3324 22.25C21.0326 22.25 22.4157 23.6331 22.4157 25.3333C22.4157 26.4668 21.7932 27.4508 20.8731 27.9874L20.749 28.0597V28.2033V32V32.25H20.999H29.3357Z" fill="url(#paint1_linear_7340_18594)" stroke="#EAEAEC" stroke-width="0.5"/>
<defs>
<linearGradient id="paint0_linear_7340_18594" x1="7.20352" y1="3.6006" x2="36.4238" y2="6.28243" gradientUnits="userSpaceOnUse">
<stop stop-color="#028FFF"/>
<stop offset="1" stop-color="#04E762"/>
</linearGradient>
<linearGradient id="paint1_linear_7340_18594" x1="6.20352" y1="2.6006" x2="35.4238" y2="5.28243" gradientUnits="userSpaceOnUse">
<stop stop-color="#028FFF"/>
<stop offset="1" stop-color="#04E762"/>
</linearGradient>
</defs>
</svg>
