<svg width="41" height="40" viewBox="0 0 41 40" fill="none" xmlns="http://www.w3.org/2000/svg">
<path d="M21.6677 4.33594C18.3713 4.33594 15.149 5.31342 12.4081 7.14478C9.66733 8.97613 7.53112 11.5791 6.26966 14.6245C5.0082 17.67 4.67814 21.0211 5.32123 24.2541C5.96432 27.4871 7.55166 30.4568 9.88254 32.7877C12.2134 35.1186 15.1831 36.7059 18.4161 37.349C21.6492 37.9921 25.0003 37.6621 28.0457 36.4006C31.0911 35.1391 33.6941 33.0029 35.5255 30.2621C37.3568 27.5213 38.3343 24.299 38.3343 21.0026C38.3343 18.8139 37.9032 16.6466 37.0656 14.6245C36.2281 12.6025 35.0004 10.7651 33.4528 9.21749C31.9051 7.66985 30.0678 6.44219 28.0457 5.60461C26.0236 4.76703 23.8563 4.33594 21.6677 4.33594ZM21.6677 34.3359C19.0306 34.3359 16.4527 33.554 14.26 32.0889C12.0674 30.6238 10.3584 28.5414 9.34926 26.1051C8.34009 23.6687 8.07604 20.9878 8.59051 18.4014C9.10498 15.815 10.3749 13.4392 12.2396 11.5745C14.1043 9.70981 16.48 8.43994 19.0664 7.92547C21.6529 7.411 24.3337 7.67504 26.7701 8.68421C29.2064 9.69338 31.2888 11.4023 32.7539 13.595C34.219 15.7877 35.001 18.3655 35.001 21.0026C35.001 24.5388 33.5962 27.9302 31.0957 30.4307C28.5953 32.9312 25.2039 34.3359 21.6677 34.3359Z" fill="url(#paint0_linear_7340_18636)"/>
<path d="M21.6677 19.3359C18.3343 19.3359 18.3343 18.2859 18.3343 17.6693C18.3343 17.0526 19.501 16.0026 21.6677 16.0026C23.8343 16.0026 23.9843 17.0693 24.001 17.6693H27.3343C27.3118 16.5339 26.9034 15.4399 26.1764 14.5675C25.4494 13.6951 24.4471 13.0962 23.3343 12.8693V11.0026H20.001V12.8193C16.6677 13.3693 15.001 15.5193 15.001 17.6693C15.001 19.5359 15.8677 22.6693 21.6677 22.6693C25.001 22.6693 25.001 23.8026 25.001 24.3359C25.001 24.8693 23.9676 26.0026 21.6677 26.0026C18.601 26.0026 18.3343 24.5693 18.3343 24.3359H15.001C15.001 25.8693 16.101 28.5859 20.001 29.2026V31.0026H23.3343V29.2026C26.6677 28.6359 28.3343 26.4859 28.3343 24.3359C28.3343 22.4693 27.4676 19.3359 21.6677 19.3359Z" fill="url(#paint1_linear_7340_18636)"/>
<path d="M22.0843 11.8693V12.0734L22.2844 12.1142C23.3415 12.3298 24.2937 12.8988 24.9844 13.7276C25.6204 14.4909 25.9997 15.4326 26.0725 16.4193H23.2357C23.2047 16.1252 23.113 15.7591 22.8256 15.4428C22.4487 15.028 21.7869 14.7526 20.6677 14.7526C19.5446 14.7526 18.6654 15.0247 18.0593 15.3907C17.7568 15.5733 17.5182 15.7818 17.3527 15.9957C17.1901 16.206 17.0843 16.44 17.0843 16.6693L17.0843 16.6795C17.0843 16.991 17.0841 17.5129 17.593 17.9276C18.0808 18.3251 18.9907 18.5859 20.6677 18.5859C23.5239 18.5859 25.1133 19.3566 25.9926 20.3058C26.8752 21.2587 27.0843 22.4367 27.0843 23.3359C27.0843 25.3394 25.5316 27.4055 22.2924 27.9561L22.0843 27.9915V28.2026V29.7526H19.251V28.2026V27.989L19.04 27.9557C15.4853 27.3936 14.3743 25.0448 14.2609 23.5859H17.1216C17.1834 23.819 17.3371 24.1442 17.6879 24.4462C18.1985 24.8859 19.0982 25.2526 20.6677 25.2526C21.8587 25.2526 22.7403 24.959 23.3318 24.5797C23.6268 24.3906 23.8517 24.1786 24.0052 23.9691C24.155 23.7647 24.251 23.5425 24.251 23.3359V23.3299C24.251 23.0546 24.2511 22.5362 23.7451 22.1112C23.2582 21.7021 22.3485 21.4193 20.6677 21.4193C17.8114 21.4193 16.222 20.6486 15.3427 19.6994C14.4601 18.7465 14.251 17.5685 14.251 16.6693C14.251 14.6659 15.8035 12.6002 19.0417 12.0659L19.251 12.0314V11.8193V10.2526H22.0843V11.8693ZM11.547 6.35264C14.2467 4.54876 17.4207 3.58594 20.6677 3.58594C22.8235 3.58594 24.9583 4.01057 26.95 4.83558C28.9418 5.6606 30.7516 6.86984 32.276 8.39427C33.8004 9.9187 35.0097 11.7285 35.8347 13.7202C36.6597 15.712 37.0843 17.8467 37.0843 20.0026C37.0843 23.2495 36.1215 26.4235 34.3176 29.1232C32.5137 31.8229 29.9498 33.9271 26.95 35.1696C23.9503 36.4122 20.6494 36.7373 17.4649 36.1038C14.2804 35.4704 11.3552 33.9069 9.05931 31.6109C6.7634 29.315 5.19987 26.3899 4.56643 23.2053C3.93298 20.0208 4.25809 16.72 5.50063 13.7202C6.74317 10.7205 8.84733 8.15653 11.547 6.35264ZM13.1212 31.2967C15.3549 32.7893 17.9811 33.5859 20.6677 33.5859C24.2702 33.5859 27.7251 32.1548 30.2725 29.6075C32.8199 27.0601 34.251 23.6051 34.251 20.0026C34.251 17.3161 33.4543 14.6899 31.9618 12.4561C30.4692 10.2223 28.3478 8.48133 25.8658 7.45324C23.3837 6.42515 20.6526 6.15616 18.0177 6.68027C15.3828 7.20439 12.9624 8.49807 11.0628 10.3977C9.16312 12.2974 7.86943 14.7177 7.34532 17.3526C6.8212 19.9875 7.0902 22.7187 8.11829 25.2007C9.14638 27.6828 10.8874 29.8042 13.1212 31.2967Z" fill="url(#paint2_linear_7340_18636)" stroke="#EAEAEC" stroke-width="0.5"/>
<defs>
<linearGradient id="paint0_linear_7340_18636" x1="5.2566" y1="4.93654" x2="41.6111" y2="9.1073" gradientUnits="userSpaceOnUse">
<stop stop-color="#028FFF"/>
<stop offset="1" stop-color="#04E762"/>
</linearGradient>
<linearGradient id="paint1_linear_7340_18636" x1="5.2566" y1="4.93654" x2="41.6111" y2="9.1073" gradientUnits="userSpaceOnUse">
<stop stop-color="#028FFF"/>
<stop offset="1" stop-color="#04E762"/>
</linearGradient>
<linearGradient id="paint2_linear_7340_18636" x1="4.2566" y1="3.93654" x2="40.6111" y2="8.1073" gradientUnits="userSpaceOnUse">
<stop stop-color="#028FFF"/>
<stop offset="1" stop-color="#04E762"/>
</linearGradient>
</defs>
</svg>
