<svg width="41" height="40" viewBox="0 0 41 40" fill="none" xmlns="http://www.w3.org/2000/svg">
<path d="M9.66634 37.6693H32.9997C34.838 37.6693 36.333 36.1743 36.333 34.3359V16.0026C36.333 15.5606 36.1574 15.1367 35.8449 14.8241C35.5323 14.5115 35.1084 14.3359 34.6663 14.3359H29.6663V12.6693C29.6663 8.07427 25.928 4.33594 21.333 4.33594C16.738 4.33594 12.9997 8.07427 12.9997 12.6693V14.3359H7.99967C7.55765 14.3359 7.13372 14.5115 6.82116 14.8241C6.5086 15.1367 6.33301 15.5606 6.33301 16.0026V34.3359C6.33301 36.1743 7.82801 37.6693 9.66634 37.6693ZM16.333 12.6693C16.333 9.9126 18.5763 7.66927 21.333 7.66927C24.0897 7.66927 26.333 9.9126 26.333 12.6693V14.3359H16.333V12.6693ZM9.66634 17.6693H12.9997V21.0026H16.333V17.6693H26.333V21.0026H29.6663V17.6693H32.9997L33.003 34.3359H9.66634V17.6693Z" fill="url(#paint0_linear_7340_18626)"/>
<path d="M28.4163 13.3359V13.5859H28.6663H33.6663C34.0421 13.5859 34.4024 13.7352 34.6681 14.0009C34.9338 14.2665 35.083 14.6269 35.083 15.0026V33.3359C35.083 35.0362 33.6999 36.4193 31.9997 36.4193H8.66634C6.96608 36.4193 5.58301 35.0362 5.58301 33.3359V15.0026C5.58301 14.6269 5.73226 14.2665 5.99794 14.0009C6.26362 13.7352 6.62395 13.5859 6.99967 13.5859H11.9997H12.2497V13.3359V11.6693C12.2497 7.21234 15.8761 3.58594 20.333 3.58594C24.7899 3.58594 28.4163 7.21234 28.4163 11.6693V13.3359ZM25.333 13.5859H25.583V13.3359V11.6693C25.583 8.77453 23.2277 6.41927 20.333 6.41927C17.4383 6.41927 15.083 8.77453 15.083 11.6693V13.3359V13.5859H15.333H25.333ZM8.66634 16.4193H8.41634V16.6693V33.3359V33.5859H8.66634H32.003H32.2531L32.253 33.3359L32.2497 16.6692L32.2496 16.4193H31.9997H28.6663H28.4163V16.6693V19.7526H25.583V16.6693V16.4193H25.333H15.333H15.083V16.6693V19.7526H12.2497V16.6693V16.4193H11.9997H8.66634Z" fill="url(#paint1_linear_7340_18626)" stroke="#EAEAEC" stroke-width="0.5"/>
<defs>
<linearGradient id="paint0_linear_7340_18626" x1="6.56307" y1="4.93654" x2="39.3631" y2="8.32321" gradientUnits="userSpaceOnUse">
<stop stop-color="#028FFF"/>
<stop offset="1" stop-color="#04E762"/>
</linearGradient>
<linearGradient id="paint1_linear_7340_18626" x1="5.56307" y1="3.93654" x2="38.3631" y2="7.32321" gradientUnits="userSpaceOnUse">
<stop stop-color="#028FFF"/>
<stop offset="1" stop-color="#04E762"/>
</linearGradient>
</defs>
</svg>
