<svg width="41" height="40" viewBox="0 0 41 40" fill="none" xmlns="http://www.w3.org/2000/svg">
<path d="M38.306 24.0376L35.221 7.07094C35.0816 6.3032 34.677 5.6088 34.0778 5.10893C33.4786 4.60907 32.7229 4.33549 31.9426 4.33594H11.3926C10.6118 4.33589 9.85564 4.61 9.25619 5.11045C8.65675 5.6109 8.25203 6.30593 8.11264 7.07427L5.02931 24.0376L5.06098 24.0426C5.04098 24.1426 5.00098 24.2326 5.00098 24.3359V32.6693C5.00098 34.5076 6.49598 36.0026 8.33431 36.0026H35.001C36.8393 36.0026 38.3343 34.5076 38.3343 32.6693V24.3359C38.3343 24.2309 38.2943 24.1426 38.276 24.0426L38.306 24.0376ZM11.3926 7.66927H31.9443L34.6726 22.6693H8.66431L11.3926 7.66927ZM8.33431 32.6693V26.0026H35.001L35.0043 32.6693H8.33431Z" fill="url(#paint0_linear_7340_18667)"/>
<path d="M30.001 27.6693H33.3343V31.0026H30.001V27.6693ZM25.001 27.6693H28.3343V31.0026H25.001V27.6693Z" fill="url(#paint1_linear_7340_18667)"/>
<path d="M4.35719 22.8363L4.32104 22.8306L7.35861 6.11898L7.35863 6.1189C7.48756 5.40818 7.86193 4.76528 8.41641 4.30236C8.9709 3.83945 9.67031 3.58589 10.3926 3.58594H10.3926L30.9426 3.58594L30.9428 3.58594C31.6645 3.58552 32.3634 3.83856 32.9176 4.3009C33.4718 4.76324 33.846 5.4055 33.975 6.11561L33.975 6.11566L37.0146 22.8327L36.9843 22.8378L37.0301 23.0877C37.0388 23.135 37.0528 23.1864 37.0626 23.2223C37.0655 23.233 37.068 23.2423 37.0699 23.2498C37.0805 23.2907 37.0843 23.315 37.0843 23.3359V31.6693C37.0843 33.3695 35.7012 34.7526 34.001 34.7526H7.33431C5.63405 34.7526 4.25098 33.3695 4.25098 31.6693V23.3359C4.25098 23.3161 4.25472 23.292 4.26538 23.2511C4.26744 23.2432 4.27031 23.2329 4.27364 23.2209C4.28348 23.1855 4.29733 23.1356 4.30612 23.0916L4.35719 22.8363ZM10.3926 6.41927H10.184L10.1467 6.62453L7.41835 21.6245L7.36474 21.9193H7.66431H33.6726H33.9722L33.9186 21.6245L31.1903 6.62453L31.1529 6.41927H30.9443H10.3926ZM7.08431 31.6693V31.9193H7.33431H34.0043H34.2544L34.2543 31.6691L34.251 25.0025L34.2509 24.7526H34.001H7.33431H7.08431V25.0026V31.6693ZM29.251 26.9193H32.0843V29.7526H29.251V26.9193ZM24.251 26.9193H27.0843V29.7526H24.251V26.9193Z" fill="url(#paint2_linear_7340_18667)" stroke="#EAEAEC" stroke-width="0.5"/>
<defs>
<linearGradient id="paint0_linear_7340_18667" x1="5.2566" y1="4.90651" x2="41.5601" y2="9.29063" gradientUnits="userSpaceOnUse">
<stop stop-color="#028FFF"/>
<stop offset="1" stop-color="#04E762"/>
</linearGradient>
<linearGradient id="paint1_linear_7340_18667" x1="5.2566" y1="4.90651" x2="41.5601" y2="9.29063" gradientUnits="userSpaceOnUse">
<stop stop-color="#028FFF"/>
<stop offset="1" stop-color="#04E762"/>
</linearGradient>
<linearGradient id="paint2_linear_7340_18667" x1="4.2566" y1="3.90651" x2="40.5601" y2="8.29063" gradientUnits="userSpaceOnUse">
<stop stop-color="#028FFF"/>
<stop offset="1" stop-color="#04E762"/>
</linearGradient>
</defs>
</svg>
