<svg width="40" height="40" viewBox="0 0 40 40" fill="none" xmlns="http://www.w3.org/2000/svg">
<path d="M34.9927 11.5038C34.965 11.2237 34.8667 10.9552 34.707 10.7235C34.5472 10.4918 34.3313 10.3043 34.0794 10.1788L20.746 3.51213C20.5145 3.39626 20.2591 3.33594 20.0002 3.33594C19.7413 3.33594 19.4859 3.39626 19.2544 3.51213L5.92104 10.1788C5.66983 10.3051 5.45456 10.4927 5.2952 10.7243C5.13583 10.9559 5.03752 11.2241 5.00938 11.5038C4.99104 11.6821 3.40771 29.4488 19.3244 36.5271C19.5371 36.6231 19.7677 36.6727 20.001 36.6727C20.2344 36.6727 20.465 36.6231 20.6777 36.5271C36.5944 29.4488 35.011 11.6838 34.9927 11.5038ZM20.001 33.1655C8.71938 27.7121 8.18604 16.0738 8.27771 12.7288L20.001 6.86713L31.716 12.7255C31.7777 16.0405 31.1694 27.7555 20.001 33.1655Z" fill="url(#paint0_linear_7340_18584)"/>
<path d="M18.3336 20.9857L14.5119 17.1641L12.1553 19.5207L18.3336 25.6991L27.8453 16.1874L25.4886 13.8307L18.3336 20.9857Z" fill="url(#paint1_linear_7340_18584)"/>
<path d="M33.9917 10.5038C33.964 10.2237 33.8657 9.95523 33.706 9.72349C33.5462 9.49175 33.3303 9.30434 33.0784 9.1788L19.7451 2.51213C19.5135 2.39626 19.2582 2.33594 18.9992 2.33594C18.7403 2.33594 18.485 2.39626 18.2534 2.51213L4.92007 9.1788C4.66886 9.30506 4.45359 9.4927 4.29422 9.72432C4.13485 9.95594 4.03654 10.2241 4.0084 10.5038C3.99007 10.6821 2.40673 28.4488 18.3234 35.5271C18.5361 35.6231 18.7667 35.6727 19.0001 35.6727C19.2334 35.6727 19.4641 35.6231 19.6767 35.5271C35.5934 28.4488 34.0101 10.6838 33.9917 10.5038ZM19.0001 32.1655C7.7184 26.7121 7.18507 15.0738 7.27673 11.7288L19.0001 5.86713L30.7151 11.7255C30.7767 15.0405 30.1684 26.7555 19.0001 32.1655Z" fill="url(#paint2_linear_7340_18584)"/>
<path d="M17.3326 19.9857L13.511 16.1641L11.1543 18.5207L17.3326 24.6991L26.8443 15.1874L24.4876 12.8307L17.3326 19.9857Z" fill="url(#paint3_linear_7340_18584)"/>
<path d="M33.9917 10.5038C33.964 10.2237 33.8657 9.95523 33.706 9.72349C33.5462 9.49175 33.3303 9.30434 33.0784 9.1788L19.7451 2.51213C19.5135 2.39626 19.2582 2.33594 18.9992 2.33594C18.7403 2.33594 18.485 2.39626 18.2534 2.51213L4.92007 9.1788C4.66886 9.30506 4.45359 9.4927 4.29422 9.72432C4.13485 9.95594 4.03654 10.2241 4.0084 10.5038C3.99007 10.6821 2.40673 28.4488 18.3234 35.5271C18.5361 35.6231 18.7667 35.6727 19.0001 35.6727C19.2334 35.6727 19.4641 35.6231 19.6767 35.5271C35.5934 28.4488 34.0101 10.6838 33.9917 10.5038ZM19.0001 32.1655C7.7184 26.7121 7.18507 15.0738 7.27673 11.7288L19.0001 5.86713L30.7151 11.7255C30.7767 15.0405 30.1684 26.7555 19.0001 32.1655Z" stroke="white" stroke-width="0.5"/>
<path d="M17.3326 19.9857L13.511 16.1641L11.1543 18.5207L17.3326 24.6991L26.8443 15.1874L24.4876 12.8307L17.3326 19.9857Z" stroke="white" stroke-width="0.5"/>
<defs>
<linearGradient id="paint0_linear_7340_18584" x1="5.18873" y1="3.9366" x2="38.0809" y2="7.34218" gradientUnits="userSpaceOnUse">
<stop stop-color="#028FFF"/>
<stop offset="1" stop-color="#04E762"/>
</linearGradient>
<linearGradient id="paint1_linear_7340_18584" x1="5.18873" y1="3.9366" x2="38.0809" y2="7.34218" gradientUnits="userSpaceOnUse">
<stop stop-color="#028FFF"/>
<stop offset="1" stop-color="#04E762"/>
</linearGradient>
<linearGradient id="paint2_linear_7340_18584" x1="4.18775" y1="2.9366" x2="37.0799" y2="6.34218" gradientUnits="userSpaceOnUse">
<stop stop-color="#028FFF"/>
<stop offset="1" stop-color="#04E762"/>
</linearGradient>
<linearGradient id="paint3_linear_7340_18584" x1="4.18775" y1="2.9366" x2="37.0799" y2="6.34218" gradientUnits="userSpaceOnUse">
<stop stop-color="#028FFF"/>
<stop offset="1" stop-color="#04E762"/>
</linearGradient>
</defs>
</svg>
