<svg viewBox="0 0 32 32" fill="none" xmlns="http://www.w3.org/2000/svg" overflow="visible">
  <g filter="url(#flameGlowingFilter)" overflow="visible">
    <path d="M17.9041 29.8949C18.007 29.8833 18.1088 29.8709 18.2098 29.8575C23.2142 29.1922 25.8402 26.1988 25.8402 20.8771C25.8402 17.8362 24.8482 16.8225 24.8482 11.7543C24.3519 11.7543 23.8557 12.2613 23.3594 12.7682C22.8637 13.2746 22.3679 13.7809 21.8722 13.7816C20.8802 13.7831 19.8882 10.2339 19.8882 2.12472C16.1057 2.12472 13.9257 6.42343 12.5845 9.55699C12.5793 9.56905 12.5742 9.58109 12.569 9.59311C12.4175 9.94767 12.2768 10.287 12.1458 10.603C11.6187 11.8737 11.2477 12.7684 10.9601 12.768C9.96804 12.7665 9.96804 11.7543 9.96804 9.72704C8.97603 9.72704 6 14.7953 6 20.8771C6 26.959 9.42992 30 15.9201 30C16.6169 30 17.2784 29.965 17.9041 29.8949Z" fill="transparent" overflow="visible"/>
    <path d="M25.8402 20.8771C25.8402 26.1988 23.2142 29.1922 18.2098 29.8575C18.1088 29.8709 18.007 29.8833 17.9041 29.8949C24.3943 29.8949 28 26.8343 28 20.7524C28 17.7115 27.008 16.6978 27.008 11.6296L24.8482 11.7543C24.8482 16.8225 25.8402 17.8362 25.8402 20.8771Z" fill="#D62632" overflow="visible"/>
    <path d="M9.96804 9.72704C9.96804 11.7543 9.96804 12.7665 10.9601 12.768C11.2477 12.7684 11.6187 11.8737 12.1458 10.603C12.2768 10.287 12.4175 9.94767 12.569 9.59311C12.5742 9.58109 12.5793 9.56905 12.5845 9.55699L9.96804 9.72704Z" fill="#D62632" overflow="visible"/>
    <path d="M19.8882 2.12472C19.8882 10.2339 20.8802 13.7831 21.8722 13.7816C22.3679 13.7809 22.8637 13.2746 23.3594 12.7682C22.686 11.3214 22.0479 7.93184 22.0479 2L19.8882 2.12472Z" fill="#D62632" overflow="visible"/>
    <path d="M17.4 30.417C17.4726 30.4079 17.5445 30.3981 17.6157 30.3875C21.147 29.8625 23 27.4999 23 23.3C23 20.9 22.3 20.1 22.3 16.1C21.9498 16.1 21.5996 16.5001 21.2494 16.9002C20.8996 17.2998 20.5498 17.6994 20.2 17.7C19.5 17.7011 18.8 14.9 18.8 8.5C16.131 8.5 14.5927 11.8927 13.6462 14.3658C13.6426 14.3753 13.639 14.3848 13.6353 14.3943C13.5285 14.6741 13.4292 14.9419 13.3367 15.1913C12.9648 16.1942 12.703 16.9003 12.5 16.9C11.8 16.8988 11.8 16.1 11.8 14.5C11.1 14.5 9 18.5 9 23.3C9 28.0999 11.4203 30.5 16 30.5C16.4917 30.5 16.9584 30.4723 17.4 30.417Z" fill="transparent" overflow="visible"/>
    <path d="M17 30.4472C17.0518 30.4414 17.1032 30.4351 17.154 30.4284C19.6764 30.0943 21 28.5909 21 25.9182C21 24.3909 20.5 23.8818 20.5 21.3363C20.2499 21.3363 19.9997 21.591 19.7496 21.8456C19.4997 22.0999 19.2499 22.3542 19 22.3545C18.5 22.3553 18 20.5727 18 16.5C16.0936 16.5 14.9948 18.659 14.3187 20.2328C14.3161 20.2388 14.3135 20.2449 14.311 20.2509C14.2346 20.429 14.1637 20.5994 14.0976 20.7581C13.832 21.3963 13.645 21.8456 13.5 21.8454C13 21.8447 13 21.3363 13 20.3182C12.5 20.3182 11 22.8636 11 25.9182C11 28.9727 12.7288 30.5 16 30.5C16.3512 30.5 16.6846 30.4824 17 30.4472Z" fill="transparent" overflow="visible"/>
    <path d="M15.9201 30C9.42992 30 6 26.959 6 20.8771C6 14.7953 8.97603 9.72704 9.96804 9.72704M15.9201 30C16.6169 30 17.2784 29.965 17.9041 29.8949M15.9201 30C16.7314 30 17.4948 29.9525 18.2098 29.8575M19.8882 2.12472C19.8882 10.2339 20.8802 13.7831 21.8722 13.7816C22.3679 13.7809 22.8637 13.2746 23.3594 12.7682M19.8882 2.12472L22.0479 2C22.0479 7.93184 22.686 11.3214 23.3594 12.7682M19.8882 2.12472C16.1057 2.12472 13.9257 6.42344 12.5845 9.55699M19.8882 2.12472C16.0912 2.12472 13.909 6.45658 12.569 9.59311M9.96804 9.72704C9.96804 11.7543 9.96804 12.7665 10.9601 12.768C11.2477 12.7684 11.6187 11.8737 12.1458 10.603C12.2768 10.287 12.4175 9.94767 12.569 9.59311M9.96804 9.72704L12.5845 9.55699M24.8482 11.7543C24.8482 16.8225 25.8402 17.8362 25.8402 20.8771C25.8402 26.1988 23.2142 29.1922 18.2098 29.8575M24.8482 11.7543L27.008 11.6296C27.008 16.6978 28 17.7115 28 20.7524C28 26.8343 24.3943 29.8949 17.9041 29.8949M24.8482 11.7543C24.3519 11.7543 23.8557 12.2613 23.3594 12.7682M17.9041 29.8949C18.007 29.8833 18.1088 29.8709 18.2098 29.8575M12.5845 9.55699C12.5793 9.56905 12.5742 9.58109 12.569 9.59311M23.3602 12.77L23.3594 12.7682" stroke="#CC102B" stroke-width="1.5" stroke-linejoin="round" overflow="visible"/>
  </g>
	<defs>
		<filter id="flameGlowingFilter" x="-20" y="-20" width="200%" height="200%" filterUnits="userSpaceOnUse" color-interpolation-filters="sRGB">
			<feFlood flood-opacity="0" result="BackgroundImageFix"/>
			<feColorMatrix in="SourceAlpha" type="matrix" values="0 0 0 0 0 0 0 0 0 0 0 0 0 0 0 0 0 0 127 0" result="hardAlpha"/>
			<feOffset/>
			<feGaussianBlur id="flameFeGaussianBlur" stdDeviation="0"/>
			<feComposite in2="hardAlpha" operator="out"/>
			<feColorMatrix type="matrix" values="0 0 0 0 0.984314 0 0 0 0 0.333333 0 0 0 0 0.196078 0 0 0 1 0"/>
			<feBlend mode="normal" in2="BackgroundImageFix" result="effect1_dropShadow_7786_33531"/>
			<feColorMatrix in="SourceAlpha" type="matrix" values="0 0 0 0 0 0 0 0 0 0 0 0 0 0 0 0 0 0 127 0" result="hardAlpha"/>
			<feOffset/>
			<feGaussianBlur id="flameFeGaussianBlur" stdDeviation="0"/>
			<feComposite in2="hardAlpha" operator="out"/>
			<feColorMatrix type="matrix" values="0 0 0 0 0.984314 0 0 0 0 0.333333 0 0 0 0 0.196078 0 0 0 1 0"/>
			<feBlend mode="normal" in2="effect1_dropShadow_7786_33531" result="effect2_dropShadow_7786_33531"/>
			<feBlend mode="normal" in="SourceGraphic" in2="effect2_dropShadow_7786_33531" result="shape"/>
		</filter>
	</defs>
</svg>
