<svg width="24" height="24" viewBox="0 0 24 24" fill="none" xmlns="http://www.w3.org/2000/svg">
<path id="partTopEnd" d="M12 22.5001C7.09316 22.5001 4.5 20.25 4.5 15.75C4.5 11.25 6.75 7.5 7.5 7.5C7.5 9 7.5 9.74892 8.25 9.75C8.46747 9.75031 8.748 9.08833 9.14644 8.14812C9.24553 7.91429 9.35192 7.66324 9.46644 7.4009L9.47812 7.37417C10.4922 5.05564 12.1403 1.875 15 1.875C15 7.875 15.75 10.5011 16.5 10.5C16.8748 10.4995 17.2496 10.1249 17.6244 9.7502C17.9996 9.37513 18.3748 9 18.75 9C18.75 12.75 19.5 13.5 19.5 15.75C19.5 19.6875 17.5146 21.9024 13.7311 22.3946C13.1906 22.4649 12.6133 22.5001 12 22.5001Z" fill="currentColor"/>
<path id="partCenterEnd" d="M13.05 22.8128C13.1044 22.8059 13.1583 22.7986 13.2117 22.7906C15.8602 22.3969 17.25 20.625 17.25 17.475C17.25 15.675 16.725 15.075 16.725 12.075C16.4624 12.075 16.1997 12.3751 15.9371 12.6751C15.6747 12.9749 15.4124 13.2745 15.15 13.275C14.625 13.2758 14.1 11.175 14.1 6.375C12.0982 6.375 10.9445 8.9195 10.2347 10.7743C10.2319 10.7815 10.2292 10.7886 10.2265 10.7957C10.1463 11.0056 10.0719 11.2064 10.0025 11.3935C9.7236 12.1456 9.52723 12.6752 9.375 12.675C8.85 12.6741 8.85 12.075 8.85 10.875C8.325 10.875 6.75 13.875 6.75 17.475C6.75 21.075 8.56521 22.875 12 22.875C12.3687 22.875 12.7188 22.8543 13.05 22.8128Z" fill="currentColor"/>
<path id="partBottomEnd" d="M12.75 22.8354C12.7889 22.8311 12.8274 22.8264 12.8655 22.8213C14.7573 22.5707 15.75 21.4432 15.75 19.4386C15.75 18.2932 15.375 17.9113 15.375 16.0023C15.1874 16.0023 14.9998 16.1932 14.8122 16.3842C14.6248 16.5749 14.4374 16.7656 14.25 16.7659C13.875 16.7664 13.5 15.4295 13.5 12.375C12.0702 12.375 11.2461 13.9942 10.7391 15.1746C10.7371 15.1791 10.7352 15.1836 10.7332 15.1882C10.676 15.3217 10.6228 15.4495 10.5732 15.5686C10.374 16.0472 10.2337 16.3842 10.125 16.3841C9.75 16.3835 9.75 16.0023 9.75 15.2386C9.375 15.2386 8.25 17.1477 8.25 19.4386C8.25 21.7295 9.54658 22.875 12 22.875C12.2634 22.875 12.5134 22.8618 12.75 22.8354Z" fill="currentColor"/>
<path id="partTopStart" d="M12.1875 22.7088C12.1972 22.7078 12.2068 22.7066 12.2164 22.7053C12.6893 22.6427 12.9375 22.3608 12.9375 21.8597C12.9375 21.5733 12.8438 21.4778 12.8438 21.0006C12.7968 21.0006 12.7499 21.0483 12.703 21.096C12.6562 21.1437 12.6093 21.1914 12.5625 21.1915C12.4688 21.1916 12.375 20.8574 12.375 20.0938C12.0175 20.0937 11.8115 20.4986 11.6848 20.7936C11.6843 20.7948 11.6838 20.7959 11.6833 20.797C11.669 20.8304 11.6557 20.8624 11.6433 20.8921C11.5935 21.0118 11.5584 21.0961 11.5312 21.096C11.4375 21.0959 11.4375 21.0006 11.4375 20.8097C11.3438 20.8097 11.0625 21.2869 11.0625 21.8597C11.0625 22.4324 11.3866 22.7188 12 22.7188C12.0658 22.7188 12.1284 22.7154 12.1875 22.7088Z" fill="currentColor"/>
<path id="partCenterStart" d="M12.1875 22.7088C12.1972 22.7078 12.2068 22.7066 12.2164 22.7053C12.6893 22.6427 12.9375 22.3608 12.9375 21.8597C12.9375 21.5733 12.8438 21.4778 12.8438 21.0006C12.7968 21.0006 12.7499 21.0483 12.703 21.096C12.6562 21.1437 12.6093 21.1914 12.5625 21.1915C12.4688 21.1916 12.375 20.8574 12.375 20.0938C12.0175 20.0937 11.8115 20.4986 11.6848 20.7936C11.6843 20.7948 11.6838 20.7959 11.6833 20.797C11.669 20.8304 11.6557 20.8624 11.6433 20.8921C11.5935 21.0118 11.5584 21.0961 11.5312 21.096C11.4375 21.0959 11.4375 21.0006 11.4375 20.8097C11.3438 20.8097 11.0625 21.2869 11.0625 21.8597C11.0625 22.4324 11.3866 22.7188 12 22.7188C12.0658 22.7188 12.1284 22.7154 12.1875 22.7088Z" fill="currentColor"/>
<path id="partBottomStart" d="M12.1875 22.7088C12.1972 22.7078 12.2068 22.7066 12.2164 22.7053C12.6893 22.6427 12.9375 22.3608 12.9375 21.8597C12.9375 21.5733 12.8438 21.4778 12.8438 21.0006C12.7968 21.0006 12.7499 21.0483 12.703 21.096C12.6562 21.1437 12.6093 21.1914 12.5625 21.1915C12.4688 21.1916 12.375 20.8574 12.375 20.0938C12.0175 20.0937 11.8115 20.4986 11.6848 20.7936C11.6843 20.7948 11.6838 20.7959 11.6833 20.797C11.669 20.8304 11.6557 20.8624 11.6433 20.8921C11.5935 21.0118 11.5584 21.0961 11.5312 21.096C11.4375 21.0959 11.4375 21.0006 11.4375 20.8097C11.3438 20.8097 11.0625 21.2869 11.0625 21.8597C11.0625 22.4324 11.3866 22.7188 12 22.7188C12.0658 22.7188 12.1284 22.7154 12.1875 22.7088Z" fill="currentColor"/>
<path id="partBorder" d="M15 1.5C15 7.60907 15.75 10.2829 16.5 10.2818C16.8748 10.2812 17.2496 9.89983 17.6244 9.51836M15 1.5C12.1403 1.5 10.4922 4.73846 9.47812 7.09914M15 1.5C12.1293 1.5 10.4795 4.76343 9.46644 7.12635M9.47812 7.09914C9.47421 7.10823 9.47032 7.11729 9.46644 7.12635M9.47812 7.09914L9.46644 7.12635M17.625 9.51965L17.6244 9.51836M9.46644 7.12635C9.35192 7.39347 9.24553 7.64907 9.14644 7.88715C8.748 8.84446 8.46747 9.51847 8.25 9.51815C7.5 9.51705 7.5 8.75452 7.5 7.22725C6.75 7.22725 4.5 11.0454 4.5 15.6272C4.5 20.209 7.09316 22.5 12 22.5C12.6133 22.5 13.1906 22.4642 13.7311 22.3926C17.5146 21.8915 19.5 19.6363 19.5 15.6272C19.5 13.3363 18.75 12.5727 18.75 8.75452C18.3748 8.75452 17.9996 9.13647 17.6244 9.51836" stroke="currentColor" stroke-linejoin="round"/>
</svg>
