<svg width="312" height="180" viewBox="0 0 312 180" fill="none" xmlns="http://www.w3.org/2000/svg">
<rect width="312" height="179.997" rx="16" fill="url(#paint0_diamond_7340_19002)"/>
<path d="M108.323 25.4219L53.8369 56.5378V72.0958L108.323 40.9798V25.4219Z" fill="#4E32A0"/>
<path d="M40.2148 48.7566L53.8363 56.5355L108.322 25.4196L94.7006 17.6406L40.2148 48.7566Z" fill="#864AD3"/>
<path d="M53.8363 56.5446L40.2148 48.7656V64.3236L53.8363 72.1026V56.5446Z" fill="#E14BEC"/>
<path d="M108.323 56.5469L53.8369 87.6628V103.221L108.323 72.1048V56.5469Z" fill="#4E32A0"/>
<path d="M40.2148 79.8816L53.8363 87.6605L108.322 56.5446L94.7006 48.7656L40.2148 79.8816Z" fill="#864AD3"/>
<path d="M53.8363 87.6462L40.2148 79.8672V95.4252L53.8363 103.204V87.6462Z" fill="#E14BEC"/>
<path d="M108.323 87.6484L53.8369 118.764V134.322L108.323 103.206V87.6484Z" fill="#4E32A0"/>
<path d="M40.2148 110.983L53.8363 118.762L108.322 87.6462L94.7006 79.8672L40.2148 110.983Z" fill="#864AD3"/>
<path d="M53.8363 118.787L40.2148 111.008V126.566L53.8363 134.345V118.787Z" fill="#E14BEC"/>
<path d="M121.944 126.566L135.566 134.345V118.787L121.944 111.008V126.566Z" fill="#2FEF92"/>
<path d="M135.565 134.345L149.187 126.566V111.008L135.565 118.787V134.345Z" fill="#10379E"/>
<path d="M121.944 111.013L135.566 118.792L149.187 111.013L135.566 103.234L121.944 111.013Z" fill="#489AF0"/>
<path d="M176.43 64.3281L135.565 87.6651V103.223L176.43 79.8861V64.3281Z" fill="#10379E"/>
<path d="M121.944 79.8838L135.566 87.6628L176.43 64.3259L162.809 56.5469L121.944 79.8838Z" fill="#489AF0"/>
<path d="M135.566 87.6462L121.944 79.8672V95.4252L135.566 103.204V87.6462Z" fill="#2FEF92"/>
<path d="M190.051 25.4219L135.565 56.5378V72.0958L190.051 40.9798V25.4219Z" fill="#10379E"/>
<path d="M121.944 48.7566L135.566 56.5355L190.052 25.4196L176.43 17.6406L121.944 48.7566Z" fill="#489AF0"/>
<path d="M135.566 56.5446L121.944 48.7656V64.3236L135.566 72.1026V56.5446Z" fill="#2FEF92"/>
<path d="M225.076 128.216L238.698 135.995V73.7634L225.076 65.9844V128.216Z" fill="#00DCFF"/>
<path d="M238.696 135.995L252.318 128.216V65.9844L238.696 73.7634V135.995Z" fill="#4160ED"/>
<path d="M225.076 65.9821L238.698 73.7611L252.319 65.9821L238.698 58.2031L225.076 65.9821Z" fill="#66A0DB"/>
<path d="M271.785 23.7812L217.299 54.8972V70.4551L271.785 39.3392V23.7812Z" fill="#4160ED"/>
<path d="M203.67 47.1159L217.291 54.8949L271.777 23.779L258.156 16L203.67 47.1159Z" fill="#66A0DB"/>
<path d="M217.291 54.904L203.67 47.125V62.683L217.291 70.4619V54.904Z" fill="#00DCFF"/>
<ellipse opacity="0.75" cx="238.932" cy="144.309" rx="50" ry="18.8936" transform="rotate(-15 238.932 144.309)" fill="url(#paint1_radial_7340_19002)"/>
<ellipse opacity="0.75" cx="156.559" cy="144.192" rx="50" ry="18.8936" transform="rotate(-15 156.559 144.192)" fill="url(#paint2_radial_7340_19002)"/>
<ellipse opacity="0.75" cx="74.1863" cy="144.192" rx="50" ry="18.8936" transform="rotate(-15 74.1863 144.192)" fill="url(#paint3_radial_7340_19002)"/>
<defs>
<radialGradient id="paint0_diamond_7340_19002" cx="0" cy="0" r="1" gradientUnits="userSpaceOnUse" gradientTransform="translate(156 89.9987) rotate(90) scale(89.9987 156)">
<stop stop-color="#EAEAEC"/>
<stop offset="1" stop-color="#EAEAEC" stop-opacity="0"/>
</radialGradient>
<radialGradient id="paint1_radial_7340_19002" cx="0" cy="0" r="1" gradientUnits="userSpaceOnUse" gradientTransform="translate(238.932 144.309) rotate(90) scale(18.8936 50)">
<stop stop-color="#D9D9D9"/>
<stop offset="1" stop-color="#D9D9D9" stop-opacity="0"/>
</radialGradient>
<radialGradient id="paint2_radial_7340_19002" cx="0" cy="0" r="1" gradientUnits="userSpaceOnUse" gradientTransform="translate(156.559 144.192) rotate(90) scale(18.8936 50)">
<stop stop-color="#D9D9D9"/>
<stop offset="1" stop-color="#D9D9D9" stop-opacity="0"/>
</radialGradient>
<radialGradient id="paint3_radial_7340_19002" cx="0" cy="0" r="1" gradientUnits="userSpaceOnUse" gradientTransform="translate(74.1863 144.192) rotate(90) scale(18.8936 50)">
<stop stop-color="#D9D9D9"/>
<stop offset="1" stop-color="#D9D9D9" stop-opacity="0"/>
</radialGradient>
</defs>
</svg>
